<?xml version="1.0" standalone="no"?>
<!DOCTYPE svg PUBLIC "-//W3C//DTD SVG 20010904//EN"
 "http://www.w3.org/TR/2001/REC-SVG-20010904/DTD/svg10.dtd">
<svg version="1.0" xmlns="http://www.w3.org/2000/svg"
 width="1350.000000pt" height="1350.000000pt" viewBox="0 0 1350.000000 1350.000000"
 preserveAspectRatio="xMidYMid meet">
<metadata>
Created by potrace 1.10, written by Peter Selinger 2001-2011
</metadata>
<g transform="translate(0.000000,1350.000000) scale(0.100000,-0.100000)"
fill="#000000" stroke="none">
<path d="M5285 11744 c-22 -8 -51 -19 -65 -23 -28 -9 -139 -52 -215 -83 -125
-51 -436 -203 -540 -263 -38 -23 -77 -44 -85 -48 -8 -4 -28 -16 -45 -27 -16
-11 -37 -23 -45 -27 -41 -21 -298 -196 -400 -273 -284 -214 -613 -522 -814
-761 -16 -19 -48 -56 -71 -84 -49 -58 -285 -372 -285 -379 0 -3 -19 -33 -43
-68 -48 -70 -156 -249 -211 -348 -86 -156 -256 -518 -286 -610 -5 -14 -18 -50
-30 -80 -37 -97 -107 -315 -135 -420 -10 -36 -24 -85 -31 -109 -8 -25 -14 -53
-14 -64 0 -11 -6 -43 -14 -71 -16 -57 -38 -165 -60 -301 -13 -82 -21 -139 -57
-425 -6 -52 -14 -261 -16 -465 -4 -300 -2 -397 12 -515 45 -403 82 -555 255
-1050 28 -80 55 -156 60 -170 65 -188 234 -548 344 -733 25 -43 46 -81 46 -83
0 -3 21 -37 47 -77 269 -418 447 -641 753 -948 162 -162 184 -183 325 -304
189 -163 443 -347 648 -471 27 -16 61 -37 75 -46 15 -10 34 -21 42 -25 8 -4
38 -20 65 -36 98 -58 394 -202 515 -251 36 -15 74 -31 85 -35 11 -5 40 -16 65
-26 25 -9 55 -21 68 -26 104 -40 360 -119 487 -150 44 -11 103 -26 131 -34 28
-8 59 -15 69 -15 10 0 46 -6 79 -14 356 -81 922 -117 1351 -86 444 32 884 118
1260 247 39 14 84 28 100 33 17 5 53 17 80 28 117 45 162 64 192 77 17 8 33
15 36 15 17 0 383 179 477 234 25 14 52 29 60 33 122 57 544 347 724 497 212
178 339 298 503 476 133 145 168 192 233 315 66 125 92 208 120 373 14 84 26
124 48 160 90 148 139 300 148 462 5 86 10 103 45 172 69 135 109 298 109 445
0 64 5 104 14 121 60 110 79 198 81 377 2 146 4 166 28 226 33 86 44 208 28
331 -12 86 -11 98 8 158 26 82 29 261 6 317 -20 48 -21 93 -1 188 16 75 16 87
1 160 -9 44 -24 93 -33 110 -12 24 -15 58 -13 163 l2 133 -37 75 c-33 68 -37
83 -39 167 -3 111 -13 147 -65 223 -36 53 -40 65 -40 122 0 74 -29 145 -83
204 -26 28 -35 47 -39 85 -7 67 -44 139 -99 193 -33 32 -51 61 -63 100 -26 80
-49 113 -111 156 -30 20 -55 44 -55 51 0 23 -38 89 -69 121 -17 16 -51 40 -77
52 -31 15 -51 33 -60 54 -26 59 -77 103 -146 125 -23 8 -50 28 -69 52 -40 51
-93 84 -146 93 -26 5 -51 18 -69 38 -40 41 -99 70 -163 79 -34 5 -63 16 -80
31 -41 37 -97 58 -155 58 -40 0 -66 7 -107 30 -47 26 -64 30 -132 30 -44 0
-88 5 -100 13 -37 20 -280 32 -527 25 -142 -5 -142 -5 -275 -70 -170 -84 -413
-286 -582 -483 -32 -38 -158 -200 -278 -360 -121 -159 -242 -320 -269 -356
-49 -62 -542 -714 -711 -938 -94 -127 -104 -136 -115 -125 -8 9 -82 216 -100
279 -4 17 -24 77 -45 135 -20 58 -40 119 -45 135 -14 49 -62 189 -69 205 -4 8
-18 49 -30 90 -13 41 -27 86 -33 100 -5 14 -68 198 -139 410 -163 490 -152
455 -188 560 -7 19 -17 49 -21 65 -5 17 -79 237 -165 490 -86 253 -160 474
-165 490 -4 17 -14 46 -21 65 -6 19 -17 51 -24 70 -7 19 -18 51 -24 70 -7 19
-17 49 -21 65 -5 17 -73 217 -150 445 -78 228 -145 429 -150 445 -12 40 -35
109 -57 170 -22 57 -42 65 -108 39z m52 -42 c6 -4 84 -223 172 -487 88 -264
165 -493 171 -510 5 -16 22 -64 36 -105 14 -41 29 -88 34 -105 5 -16 86 -257
180 -535 94 -278 175 -518 180 -535 4 -16 14 -46 21 -65 6 -19 17 -51 24 -70
7 -19 18 -51 24 -70 7 -19 17 -48 21 -65 5 -16 86 -257 180 -535 94 -278 175
-518 180 -535 9 -33 28 -87 43 -125 5 -14 13 -38 18 -55 4 -16 31 -95 59 -175
29 -80 54 -158 57 -175 3 -16 12 -39 19 -50 16 -23 18 -51 4 -60 -6 -4 -13 7
-16 24 -4 17 -10 31 -15 31 -4 0 -11 10 -15 23 -4 12 -29 69 -57 127 -47 101
-78 167 -151 323 -18 39 -52 110 -74 157 -21 47 -54 117 -72 155 -37 81 -81
175 -138 295 -22 47 -54 117 -72 155 -18 39 -55 117 -82 175 -27 58 -58 123
-68 145 -10 22 -40 85 -65 140 -101 214 -114 242 -145 310 -18 39 -51 111 -75
160 -23 50 -57 122 -75 160 -18 39 -51 111 -75 160 -40 84 -57 121 -136 293
-17 37 -54 114 -81 172 -27 58 -58 123 -68 145 -10 22 -41 87 -68 145 -49 105
-84 180 -143 308 -64 138 -93 194 -105 199 -23 9 -402 -165 -569 -262 -33 -19
-67 -38 -75 -42 -8 -3 -71 -40 -140 -82 -486 -293 -901 -650 -1284 -1101 -84
-100 -247 -320 -321 -435 -21 -33 -50 -78 -65 -100 -14 -22 -29 -47 -33 -55
-4 -8 -13 -24 -20 -35 -45 -73 -143 -252 -158 -287 -6 -16 -15 -28 -20 -28
-20 0 -10 30 63 190 36 80 150 304 174 342 13 21 24 40 24 43 0 20 262 423
344 530 591 769 1301 1323 2141 1670 85 35 113 46 203 79 20 8 48 18 62 24 31
13 32 13 47 4z m-391 -520 c6 -4 26 -38 44 -77 18 -38 51 -110 75 -160 23 -49
54 -115 68 -145 14 -30 46 -100 72 -155 65 -138 107 -228 145 -310 18 -38 55
-117 82 -175 27 -58 58 -123 68 -145 10 -22 41 -87 68 -145 27 -58 64 -136 82
-175 38 -82 82 -177 138 -295 21 -47 54 -116 72 -155 18 -38 55 -117 82 -175
27 -58 58 -123 68 -145 10 -22 40 -85 65 -140 49 -105 100 -213 142 -305 14
-30 47 -100 73 -155 26 -55 62 -131 80 -170 36 -78 78 -169 138 -295 59 -127
106 -227 141 -305 18 -38 39 -82 47 -98 21 -38 6 -56 -16 -20 -30 46 -164 260
-242 386 -40 65 -80 129 -88 142 -8 13 -42 67 -75 120 -33 53 -67 107 -75 120
-8 13 -42 67 -75 120 -33 53 -68 109 -77 123 -10 15 -22 36 -28 47 -6 11 -39
65 -75 120 -36 55 -70 109 -75 120 -6 11 -39 65 -74 120 -36 55 -98 153 -138
218 -40 65 -80 129 -88 142 -8 13 -48 77 -88 142 -41 65 -116 186 -167 268
-52 83 -126 202 -165 265 -39 63 -107 171 -150 240 -43 69 -111 178 -152 243
-40 65 -80 129 -88 142 -8 13 -41 66 -74 119 -32 52 -67 98 -76 101 -37 12
-544 -268 -742 -409 -31 -23 -96 -69 -145 -104 -142 -101 -292 -221 -418 -335
-367 -332 -663 -688 -920 -1109 -49 -81 -205 -385 -205 -401 0 -8 -6 -20 -14
-26 -7 -6 -16 -25 -20 -41 -7 -38 -30 -40 -23 -2 5 28 21 75 43 127 7 17 29
70 49 119 20 48 63 143 95 210 50 103 77 154 164 311 6 11 24 39 39 62 15 24
27 45 27 48 0 9 165 252 239 350 352 471 850 930 1337 1232 241 150 510 293
718 383 102 44 97 42 112 32z m-284 -597 c32 -50 63 -99 68 -110 6 -11 18 -32
28 -46 9 -15 44 -70 77 -123 33 -54 67 -108 75 -121 59 -93 137 -220 148 -238
7 -12 21 -34 30 -48 9 -15 43 -69 75 -120 32 -52 94 -150 137 -219 43 -69 112
-178 152 -243 40 -65 80 -129 88 -142 8 -13 48 -77 88 -142 40 -65 102 -163
138 -218 35 -55 68 -109 74 -120 6 -11 18 -32 28 -47 9 -14 44 -70 77 -123 33
-53 67 -107 75 -120 49 -78 137 -219 148 -238 7 -12 21 -34 30 -49 9 -14 43
-68 75 -120 32 -51 94 -149 137 -218 43 -69 105 -167 137 -218 32 -52 66 -106
75 -120 9 -15 17 -35 17 -45 1 -14 -6 -10 -26 15 -16 18 -33 38 -39 43 -6 6
-46 55 -90 110 -43 55 -82 102 -86 105 -4 3 -27 31 -50 62 -51 65 -159 201
-168 208 -3 3 -41 50 -85 105 -44 55 -82 102 -86 105 -5 4 -73 89 -154 190
-16 21 -68 84 -115 141 -76 94 -129 159 -255 315 -22 27 -53 65 -70 85 -46 54
-65 78 -127 154 -31 39 -89 111 -130 160 -40 50 -100 124 -133 165 -33 41 -62
77 -65 80 -5 4 -59 70 -155 190 -106 132 -231 286 -235 290 -4 3 -33 38 -66
79 -108 136 -141 176 -175 214 l-34 38 -40 -21 c-22 -12 -53 -30 -70 -40 -16
-10 -48 -28 -69 -40 -21 -12 -75 -45 -120 -74 -45 -28 -99 -63 -121 -76 -75
-46 -335 -234 -425 -309 -307 -255 -520 -465 -746 -737 -107 -129 -295 -396
-344 -489 -6 -11 -19 -33 -29 -50 -76 -118 -250 -479 -276 -572 -3 -13 -11
-23 -16 -23 -5 0 -9 -12 -9 -27 0 -35 -14 -60 -24 -44 -9 15 3 71 15 71 5 0 9
14 9 31 0 17 5 40 12 52 6 12 15 35 19 52 30 120 174 451 287 660 115 214 333
538 462 688 10 12 27 32 37 43 10 12 43 51 73 87 84 99 372 383 496 488 243
207 480 377 739 531 207 123 412 230 434 226 8 -2 41 -44 73 -93z m-310 -474
c29 -36 63 -77 75 -91 11 -14 67 -81 123 -150 56 -69 116 -143 134 -165 45
-54 167 -205 284 -350 53 -66 99 -122 102 -125 4 -3 26 -30 51 -61 85 -107
163 -204 169 -209 3 -3 41 -50 85 -105 44 -55 85 -104 91 -110 6 -5 33 -38 60
-73 27 -35 65 -83 84 -106 19 -24 80 -99 135 -167 55 -68 102 -126 106 -129 3
-3 45 -54 94 -115 48 -60 100 -124 114 -140 14 -17 42 -51 61 -75 19 -24 60
-74 90 -111 30 -36 80 -97 110 -134 30 -38 95 -117 145 -177 97 -118 132 -168
118 -168 -9 0 -64 49 -218 199 -44 42 -165 158 -270 256 -104 98 -228 215
-274 259 -46 45 -89 86 -95 91 -6 6 -103 98 -216 205 -113 107 -210 199 -216
205 -6 5 -94 89 -195 185 -101 96 -224 213 -274 260 -49 47 -102 96 -116 110
-54 51 -397 378 -479 455 -47 44 -112 106 -144 137 -52 49 -63 55 -80 46 -41
-21 -351 -231 -430 -291 -346 -262 -690 -589 -910 -867 -125 -157 -285 -380
-309 -431 -4 -8 -16 -27 -27 -44 -11 -16 -23 -37 -27 -45 -3 -8 -18 -33 -31
-55 -65 -103 -242 -490 -242 -527 0 -7 -6 -22 -14 -33 -7 -11 -16 -37 -20 -57
-4 -21 -11 -38 -16 -38 -6 0 -10 -12 -11 -27 0 -16 -4 -37 -9 -48 -8 -20 -8
-20 -16 -1 -4 12 -1 38 9 67 9 25 17 57 17 69 0 23 3 33 65 220 66 201 128
348 233 550 102 198 108 209 231 395 55 84 233 322 287 385 313 360 667 679
1017 916 113 76 202 134 222 144 23 12 43 24 100 61 22 14 47 29 55 32 8 4 33
18 55 31 22 13 45 21 52 19 7 -3 37 -35 65 -72z m4912 -410 c7 -11 -17 -21
-49 -21 -25 0 -39 12 -28 24 10 9 71 7 77 -3z m-5220 -13 c32 -31 210 -201
297 -283 52 -49 170 -162 263 -250 93 -88 181 -171 195 -185 37 -35 404 -383
417 -395 6 -5 94 -89 195 -185 101 -96 224 -213 274 -260 97 -92 96 -91 236
-225 52 -49 171 -162 264 -250 285 -268 351 -335 332 -335 -9 0 -17 5 -17 10
0 6 -4 10 -10 10 -5 0 -45 26 -89 58 -43 31 -174 127 -290 212 -117 85 -293
214 -390 285 -98 72 -274 200 -391 285 -117 85 -286 209 -376 275 -158 115
-447 326 -563 410 -31 23 -123 91 -206 151 -316 233 -376 274 -394 274 -37 0
-281 -181 -536 -399 -239 -203 -587 -580 -749 -811 -76 -108 -141 -204 -149
-220 -4 -8 -16 -28 -27 -45 -11 -16 -23 -37 -27 -45 -4 -8 -20 -37 -37 -65
-60 -102 -157 -307 -208 -440 -36 -95 -88 -255 -88 -273 0 -9 -7 -29 -14 -44
-8 -16 -18 -49 -22 -75 -6 -43 -8 -45 -16 -23 -6 16 -5 41 3 70 6 25 15 70 20
100 9 63 29 145 59 245 12 39 25 84 30 100 11 37 38 113 49 140 5 11 32 75 61
143 130 310 343 659 564 926 23 26 58 69 80 95 134 161 385 406 611 597 105
88 404 307 535 391 69 44 94 50 114 31z m4951 0 c-11 -6 -24 -15 -30 -20 -5
-5 -51 -34 -102 -66 -188 -117 -372 -282 -555 -498 -65 -77 -269 -321 -454
-544 -496 -596 -471 -567 -481 -556 -4 4 -1 13 8 19 8 7 18 19 21 27 4 8 126
173 273 365 146 193 332 438 413 545 162 215 367 431 507 537 158 118 319 200
395 202 24 0 24 0 5 -11z m525 4 c0 -4 -14 -16 -30 -26 -24 -14 -34 -15 -45
-6 -24 20 -6 40 36 40 21 0 39 -4 39 -8z m-382 -38 c2 -16 -7 -27 -40 -44 -69
-36 -216 -138 -308 -213 -107 -88 -263 -246 -450 -452 -79 -88 -149 -165 -155
-171 -5 -6 -50 -55 -100 -110 -144 -158 -215 -236 -265 -289 -25 -27 -93 -102
-150 -165 -140 -155 -229 -244 -236 -237 -4 3 5 19 19 34 14 15 239 285 500
598 569 683 696 814 947 968 168 103 232 125 238 81z m237 10 c23 -23 16 -33
-47 -67 -48 -25 -59 -28 -72 -17 -9 7 -16 23 -16 36 0 18 8 25 38 34 20 5 44
14 52 20 20 13 26 13 45 -6z m391 -18 c20 -15 21 -15 -58 -31 -20 -4 -43 19
-33 35 9 15 68 12 91 -4z m-144 -21 c13 -30 0 -43 -71 -71 -44 -17 -45 -17
-63 6 -23 28 -23 49 0 56 9 3 31 12 47 19 47 22 74 18 87 -10z m386 -36 c34
-13 27 -23 -24 -35 -37 -9 -49 -8 -60 3 -17 17 -18 25 -2 41 11 11 38 8 86 -9z
m-802 -23 c8 -32 3 -39 -54 -72 -56 -33 -180 -125 -277 -207 -38 -33 -361
-350 -717 -705 -356 -355 -651 -643 -654 -639 -7 7 0 17 77 101 26 28 94 103
151 166 58 63 185 203 283 310 98 107 199 218 225 245 25 28 93 102 150 165
284 315 432 450 650 591 115 76 155 86 166 45z m658 -2 c9 -34 3 -40 -65 -64
l-54 -20 -17 21 c-10 12 -18 30 -18 41 0 24 51 47 106 48 37 0 43 -3 48 -26z
m-422 -19 c7 -26 4 -33 -19 -52 -16 -13 -33 -23 -39 -23 -6 0 -17 -7 -24 -15
-16 -20 -56 -19 -64 1 -17 43 -6 63 47 94 63 37 88 35 99 -5z m222 -21 c9 -8
16 -28 16 -44 0 -25 -7 -32 -65 -59 -36 -17 -69 -31 -74 -31 -12 0 -26 88 -17
98 8 7 107 51 118 52 4 0 14 -7 22 -16z m426 -25 c23 -43 9 -62 -58 -82 -36
-11 -67 -15 -72 -11 -5 5 -10 27 -12 48 -3 39 -3 40 42 52 67 18 88 17 100 -7z
m125 7 c51 -18 57 -41 14 -50 -52 -10 -65 -7 -76 17 -11 25 -7 47 10 47 7 0
30 -7 52 -14z m-965 -45 c22 -43 12 -67 -42 -102 -101 -65 -264 -204 -563
-480 -27 -25 -79 -72 -115 -105 -160 -145 -280 -254 -350 -319 -41 -38 -120
-110 -175 -160 -55 -49 -129 -117 -165 -150 -36 -34 -78 -72 -94 -85 -15 -14
-45 -41 -65 -60 -48 -46 -120 -104 -135 -109 -22 -7 162 179 814 825 429 425
571 560 666 632 185 139 205 148 224 113z m654 -33 c8 -39 -3 -52 -69 -83 -68
-33 -81 -32 -89 6 -12 62 -8 76 27 90 106 43 120 41 131 -13z m-426 -20 c6
-23 9 -46 6 -50 -9 -14 -127 -88 -140 -88 -7 0 -16 20 -20 46 -5 38 -3 49 13
65 21 22 102 68 119 69 6 0 16 -19 22 -42z m843 -39 c15 -48 11 -52 -68 -70
-72 -16 -83 -10 -83 50 0 57 3 59 82 60 l57 1 12 -41z m-619 -19 c9 -52 -4
-70 -85 -114 -72 -40 -78 -37 -75 35 l3 60 60 34 c33 18 67 33 75 32 9 -1 17
-19 22 -47z m736 36 c15 -8 36 -23 46 -35 24 -26 9 -34 -60 -29 -49 3 -49 3
-52 41 -3 32 0 37 18 37 11 0 33 -6 48 -14z m-313 -40 c11 -59 4 -77 -40 -93
-72 -26 -105 -34 -115 -28 -6 3 -10 30 -10 59 l0 53 48 21 c26 12 61 21 79 22
29 0 33 -4 38 -34z m-840 -63 c8 -54 25 -35 -171 -193 -64 -52 -152 -124 -194
-160 -42 -36 -107 -90 -145 -120 -37 -30 -73 -59 -79 -65 -6 -5 -43 -36 -81
-68 -39 -33 -79 -67 -90 -76 -12 -9 -43 -35 -71 -57 -27 -21 -85 -69 -129
-106 -115 -97 -520 -433 -600 -498 -38 -30 -75 -63 -84 -72 -8 -10 -19 -18
-23 -18 -20 0 -4 25 44 68 28 26 65 61 82 77 17 17 101 94 186 170 85 77 157
142 160 145 3 3 77 71 165 150 88 80 162 147 165 150 3 3 57 53 120 110 63 58
117 107 120 110 3 3 75 68 160 145 85 76 162 146 171 154 80 78 249 201 275
201 7 0 15 -21 19 -47z m633 -18 c2 -30 -2 -57 -10 -68 -17 -23 -150 -87 -161
-78 -4 4 -4 37 0 72 l8 64 65 32 c85 42 94 40 98 -22z m-420 -19 c6 -67 -4
-82 -84 -136 -86 -58 -97 -56 -88 20 8 64 19 80 82 123 70 46 86 44 90 -7z
m1024 17 c11 -10 18 -30 18 -54 0 -35 -3 -39 -37 -48 -21 -6 -57 -11 -80 -11
l-43 0 0 55 c0 41 4 56 18 64 28 17 103 13 124 -6z m-184 -58 c1 -27 -2 -56
-7 -63 -7 -11 -125 -51 -153 -52 -5 0 -8 29 -8 65 0 56 3 66 22 76 36 20 71
28 108 26 35 -2 35 -2 38 -52z m302 35 c42 -21 73 -57 63 -73 -8 -13 -105 0
-115 15 -14 24 -8 78 9 78 2 0 21 -9 43 -20z m-6749 -68 c53 -37 150 -107 215
-155 66 -48 211 -155 324 -237 113 -83 279 -204 370 -271 91 -66 273 -199 405
-295 254 -185 435 -317 707 -517 91 -67 195 -142 229 -167 138 -99 265 -193
274 -204 6 -7 19 -16 30 -21 20 -8 20 -8 0 -13 -10 -2 -21 1 -23 7 -2 6 -12
11 -22 11 -10 0 -21 4 -24 9 -3 5 -25 19 -48 31 -24 12 -65 35 -93 50 -27 15
-81 44 -120 65 -38 21 -74 41 -80 45 -5 4 -37 22 -70 40 -33 18 -82 45 -110
60 -27 15 -81 44 -120 65 -38 21 -74 41 -80 45 -5 4 -37 22 -70 40 -33 18 -84
46 -112 61 -115 63 -171 94 -243 134 -41 23 -82 45 -90 48 -8 4 -33 18 -55 30
-22 13 -71 41 -110 62 -38 21 -86 48 -105 59 -19 12 -55 32 -80 44 -25 13 -63
33 -85 46 -75 42 -215 119 -300 166 -22 12 -53 29 -70 39 -16 10 -61 35 -100
56 -38 21 -92 50 -120 65 -27 15 -68 38 -90 50 -22 12 -58 31 -80 44 -81 45
-156 87 -212 117 -32 17 -73 40 -90 51 -43 26 -58 20 -156 -59 -245 -197 -598
-536 -753 -723 -312 -377 -512 -707 -660 -1090 -13 -35 -56 -172 -88 -281 -9
-31 -16 -69 -16 -85 0 -16 -7 -42 -16 -59 -8 -16 -19 -55 -24 -85 -8 -50 -9
-48 -5 25 10 167 18 216 67 425 59 249 215 628 342 829 14 22 26 43 26 46 0 3
8 18 19 33 10 15 51 77 91 137 66 100 122 174 226 305 166 209 508 547 739
731 131 105 339 259 350 259 6 0 53 -31 106 -68z m5809 -4 c0 -59 -16 -97 -45
-113 -11 -6 -39 -23 -62 -38 -67 -43 -73 -39 -66 41 5 57 9 70 31 87 29 22
123 74 135 75 4 0 7 -24 7 -52z m424 26 c10 -27 -5 -112 -23 -127 -23 -20
-141 -68 -151 -62 -12 7 0 116 15 141 8 12 40 30 77 42 77 26 74 26 82 6z
m-841 -57 c5 -14 -7 -102 -18 -127 -3 -8 -338 -263 -743 -567 -405 -304 -746
-559 -757 -567 -79 -62 -117 -87 -123 -82 -6 7 20 32 99 97 24 20 146 122 270
225 125 104 257 214 294 244 37 30 73 60 79 65 6 6 46 39 90 75 110 91 168
139 441 366 361 300 358 298 368 271z m619 -29 c3 -7 0 -32 -5 -57 -5 -26 -10
-55 -12 -66 -2 -11 -21 -29 -42 -40 -21 -11 -55 -30 -75 -42 -57 -35 -62 -32
-54 38 9 88 22 108 96 146 71 36 86 39 92 21z m637 -45 c-2 -87 -7 -94 -83
-115 -38 -10 -75 -17 -82 -14 -13 5 -12 67 2 133 5 26 45 41 117 42 l47 1 -1
-47z m191 28 c15 -30 12 -87 -6 -106 -12 -12 -32 -15 -78 -13 l-61 3 -3 54
c-5 79 -2 81 72 81 54 0 67 -3 76 -19z m-1256 -34 c0 -9 -1 -37 -2 -60 -1 -26
-9 -52 -19 -63 -24 -27 -136 -104 -151 -104 -17 0 -14 56 6 112 13 37 30 57
77 92 62 46 91 54 89 23z m1412 -43 c13 -17 24 -36 24 -42 0 -15 -59 -16 -94
-2 -22 8 -26 16 -26 53 0 24 3 47 6 50 11 10 64 -25 90 -59z m-556 48 c0 -4
-7 -38 -14 -76 -14 -67 -26 -86 -54 -86 -7 0 -25 -6 -40 -14 -15 -7 -42 -17
-61 -21 l-34 -7 6 48 c3 27 12 67 19 89 12 35 18 41 68 56 59 18 110 24 110
11z m-658 -74 c3 -7 -2 -35 -10 -63 -7 -27 -17 -61 -20 -75 -5 -16 -32 -40
-82 -72 -94 -59 -103 -60 -95 -10 11 63 35 129 53 145 20 18 134 87 144 87 3
0 8 -6 10 -12z m422 -24 c-1 -16 -9 -54 -18 -84 l-16 -55 -80 -38 c-87 -42
-116 -43 -101 -5 5 13 17 51 27 86 17 62 18 62 78 91 105 49 112 49 110 5z
m629 -88 c-4 -109 -19 -126 -115 -126 l-70 0 5 33 c3 17 9 51 12 75 9 58 34
73 110 70 l60 -3 -2 -49z m-1473 32 c0 -6 -5 -38 -12 -71 -15 -70 -3 -59 -288
-252 -113 -76 -252 -171 -310 -210 -58 -39 -184 -125 -280 -190 -96 -65 -221
-150 -278 -189 -57 -39 -111 -75 -120 -81 -9 -5 -33 -22 -53 -37 -20 -16 -40
-28 -44 -28 -4 0 -24 -13 -45 -30 -21 -16 -40 -30 -44 -30 -8 0 -100 -64 -104
-72 -2 -5 -11 -8 -19 -8 -12 0 -10 6 8 23 22 22 1170 887 1353 1021 45 32 101
75 125 95 82 67 111 83 111 59z m1631 1 c49 -17 51 -20 43 -78 -9 -71 -18 -77
-95 -71 l-64 5 1 52 c3 88 9 103 48 103 18 0 48 -5 67 -11z m-368 -16 c5 -8
-29 -152 -37 -161 -3 -2 -19 -8 -38 -12 -18 -5 -51 -15 -74 -21 -54 -16 -77
-8 -65 23 5 13 17 51 26 85 17 59 20 63 59 77 44 16 122 21 129 9z m-653 -15
c0 -15 -26 -95 -47 -148 -12 -30 -28 -43 -98 -80 -47 -24 -88 -40 -92 -36 -4
4 -1 21 6 39 7 18 17 51 23 75 12 51 43 83 123 128 65 36 85 41 85 22z m1151
-29 c26 -14 79 -87 79 -111 0 -22 -21 -23 -77 -2 l-43 17 0 53 c0 56 6 62 41
43z m-733 -25 c1 -10 -8 -50 -21 -88 -20 -58 -30 -72 -58 -87 -57 -30 -148
-63 -156 -56 -11 11 46 173 68 193 21 19 137 64 154 60 6 -1 11 -11 13 -22z
m-849 -1 c0 -10 -10 -47 -22 -83 -21 -63 -24 -66 -92 -107 -38 -24 -73 -43
-77 -43 -14 0 -9 53 10 103 16 40 30 57 88 97 74 53 94 60 93 33z m-7160 -20
c0 -5 -4 -17 -9 -28 -8 -18 -9 -17 -9 8 -1 15 4 27 9 27 6 0 10 -3 9 -7z
m1471 -80 c30 -17 87 -47 125 -68 39 -21 84 -46 100 -56 17 -10 53 -30 80 -44
28 -14 68 -36 90 -48 48 -28 135 -76 208 -116 28 -16 93 -51 142 -78 178 -99
206 -115 355 -196 30 -16 60 -33 65 -37 6 -4 44 -25 85 -47 41 -22 91 -49 110
-60 19 -11 71 -39 115 -63 44 -23 85 -46 90 -50 6 -4 39 -23 75 -42 36 -20 85
-47 110 -60 62 -35 142 -78 225 -123 39 -21 75 -41 80 -45 6 -4 37 -22 70 -40
33 -18 83 -45 110 -60 28 -15 82 -44 120 -65 39 -21 86 -48 105 -60 19 -12 56
-32 83 -44 26 -13 47 -27 47 -32 0 -5 9 -9 19 -9 21 0 37 -17 26 -28 -3 -4
-20 1 -36 11 -17 9 -37 17 -46 17 -8 0 -27 6 -41 14 -15 8 -61 27 -102 44
-202 80 -237 95 -265 107 -16 7 -48 19 -70 28 -36 14 -189 75 -240 96 -30 13
-163 66 -225 91 -30 11 -64 25 -75 29 -65 27 -92 38 -205 82 -69 28 -138 56
-155 64 -16 7 -61 26 -100 40 -38 15 -108 43 -155 62 -85 35 -174 71 -305 123
-38 15 -122 49 -185 75 -63 26 -133 54 -155 62 -22 8 -53 21 -70 28 -16 7 -64
26 -105 43 -201 80 -240 96 -304 123 -38 16 -78 29 -90 29 -13 0 -61 -34 -116
-82 -119 -103 -397 -377 -472 -466 -32 -37 -68 -78 -80 -92 -48 -52 -177 -218
-223 -285 -27 -38 -68 -98 -92 -133 -23 -35 -43 -65 -43 -67 0 -2 -12 -23 -27
-47 -47 -73 -50 -79 -132 -243 -88 -178 -125 -266 -169 -400 -49 -150 -88
-328 -97 -444 -3 -41 -8 -77 -10 -80 -15 -14 -20 24 -18 137 1 114 18 249 44
357 53 218 49 206 136 439 29 80 117 264 168 351 19 33 38 67 41 75 8 16 77
125 124 195 15 22 42 63 60 90 161 242 540 648 830 890 52 44 97 82 100 85 13
13 97 78 114 87 15 8 29 6 60 -12 23 -12 66 -36 96 -52z m6294 18 c4 -5 0 -22
-8 -38 -8 -15 -25 -57 -37 -92 l-22 -63 -91 -43 c-54 -26 -95 -40 -100 -35 -6
6 3 38 22 81 18 39 32 77 32 84 0 18 35 46 103 81 65 33 92 40 101 25z m-424
-4 c0 -1 -9 -27 -21 -57 -11 -30 -23 -64 -26 -75 -9 -31 -31 -52 -86 -81 -28
-14 -59 -31 -69 -37 -13 -8 -20 -9 -29 0 -8 8 -5 25 11 64 12 30 26 64 30 75
13 33 190 137 190 111z m1268 -23 c15 -4 22 -14 22 -30 0 -29 -27 -136 -37
-145 -5 -4 -44 -10 -87 -14 l-79 -8 6 39 c11 67 36 147 49 156 15 9 93 10 126
2z m-191 -26 c-33 -137 -51 -178 -77 -178 -11 0 -47 -8 -80 -17 -90 -25 -91
-22 -38 127 l23 65 55 11 c30 7 70 12 89 13 30 1 33 -1 28 -21z m369 -14 c32
-15 34 -19 34 -64 0 -27 -5 -61 -10 -76 -10 -26 -11 -27 -78 -20 -37 4 -71 11
-76 16 -5 5 -4 29 3 57 6 26 13 60 16 76 5 23 10 27 41 27 20 0 51 -7 70 -16z
m-1866 -9 c0 -14 -5 -29 -34 -100 -14 -33 -31 -48 -92 -85 -42 -25 -88 -53
-102 -62 -15 -10 -36 -22 -47 -28 -11 -6 -33 -19 -50 -30 -16 -11 -39 -24 -50
-30 -11 -6 -32 -18 -47 -28 -15 -9 -194 -118 -398 -242 -204 -124 -383 -233
-398 -242 -15 -10 -34 -21 -42 -25 -8 -3 -33 -18 -55 -32 -62 -40 -70 -44
-122 -71 -26 -14 -52 -31 -56 -37 -10 -16 -37 -17 -37 -3 0 6 8 14 18 17 9 4
19 9 22 12 6 7 78 58 115 81 13 8 99 67 192 130 241 164 490 333 518 350 13 8
76 51 142 96 65 44 188 128 273 186 85 57 173 117 194 131 44 31 56 33 56 12z
m1260 -18 c0 -17 -59 -170 -70 -181 -9 -9 -166 -65 -182 -66 -16 0 -7 40 22
105 17 37 30 73 30 80 0 18 26 37 79 56 58 20 121 24 121 6z m-709 -113 c-45
-102 -54 -115 -81 -129 -34 -19 -137 -65 -144 -65 -12 0 -5 28 18 76 13 27 26
59 30 70 4 12 15 29 24 38 32 28 167 95 175 86 5 -4 -5 -39 -22 -76z m1467 27
c22 -29 32 -54 32 -77 0 -38 -15 -43 -58 -20 -15 8 -35 17 -46 20 -16 5 -17
13 -12 47 8 51 24 81 39 76 7 -2 27 -23 45 -46z m-1858 15 c0 -7 -14 -45 -31
-84 -30 -68 -34 -71 -100 -106 -79 -42 -94 -34 -66 32 9 20 18 46 21 57 4 12
39 41 83 68 84 51 93 54 93 33z m840 -7 c0 -12 -6 -35 -14 -52 -8 -18 -26 -58
-40 -90 -25 -56 -29 -60 -102 -93 -73 -33 -124 -43 -124 -25 0 5 20 52 45 104
l45 96 63 28 c134 62 127 61 127 32z m-709 -159 c-47 -110 -51 -114 -159 -164
-37 -17 -54 -21 -58 -13 -2 7 13 46 33 87 36 71 42 77 105 110 36 19 70 38 74
43 4 4 12 3 17 -2 6 -6 2 -28 -12 -61z m1359 52 c0 -9 -9 -42 -21 -72 -12 -30
-23 -65 -26 -77 -3 -12 -12 -28 -20 -34 -17 -15 -175 -40 -186 -30 -9 9 78
212 96 223 7 4 45 8 85 8 62 0 72 -2 72 -18z m158 9 c66 -13 68 -19 42 -103
-33 -103 -36 -106 -123 -100 -77 5 -99 14 -79 34 7 7 12 19 12 28 0 8 7 28 15
44 8 15 15 36 15 45 0 27 30 61 53 61 12 -1 41 -5 65 -9z m-1124 -119 c-37
-72 -57 -101 -79 -111 -57 -27 -155 -60 -159 -53 -2 4 17 49 42 100 l46 94 76
34 c41 19 82 38 90 43 37 22 32 -13 -16 -107z m730 90 c3 -5 -8 -37 -25 -73
-60 -133 -61 -133 -109 -147 -25 -8 -67 -20 -94 -29 -29 -9 -52 -11 -57 -6 -8
8 38 115 90 213 16 31 180 66 195 42z m-1499 -24 c-4 -13 -11 -27 -16 -32 -5
-6 -9 -18 -9 -27 0 -32 -49 -76 -128 -117 -42 -22 -106 -56 -142 -75 -36 -20
-90 -49 -120 -65 -127 -67 -259 -137 -320 -170 -100 -55 -180 -98 -235 -126
-27 -15 -90 -48 -140 -75 -144 -79 -286 -151 -296 -151 -26 0 5 27 71 62 8 5
29 17 45 28 17 11 39 24 50 30 11 6 32 18 47 28 15 9 250 152 523 317 272 165
508 308 523 317 15 10 36 22 47 28 11 6 34 19 50 29 42 27 58 26 50 -1z m2081
-5 c51 -25 54 -28 54 -63 0 -20 -7 -58 -16 -84 -15 -44 -19 -47 -43 -43 -80
17 -112 25 -118 31 -4 4 -1 26 5 49 7 23 17 57 21 75 8 30 28 62 38 62 2 0 29
-12 59 -27z m-847 -40 c0 -10 -24 -63 -52 -118 l-52 -100 -95 -33 c-52 -17
-101 -30 -108 -27 -8 3 -3 21 20 62 17 32 44 83 59 113 25 48 35 57 76 73 26
10 62 25 78 32 43 20 75 19 74 -2z m-6831 -22 c85 -34 227 -92 247 -101 11 -4
45 -18 75 -30 30 -11 64 -25 75 -30 11 -4 45 -18 75 -30 30 -11 64 -25 75 -29
24 -11 154 -63 250 -101 75 -30 237 -96 270 -110 11 -4 45 -18 75 -30 30 -11
64 -25 75 -30 11 -4 45 -18 75 -30 30 -11 64 -25 75 -29 11 -5 55 -23 98 -40
193 -78 236 -95 302 -121 70 -28 232 -94 270 -109 30 -13 163 -66 225 -91 30
-11 64 -25 75 -29 20 -9 99 -40 250 -101 44 -17 94 -38 110 -45 17 -8 40 -16
53 -20 12 -3 22 -11 22 -16 0 -13 -36 -11 -89 5 -48 16 -117 35 -211 60 -57
15 -141 39 -220 61 -25 7 -74 20 -110 30 -36 10 -85 23 -110 30 -25 7 -74 20
-110 30 -36 10 -85 23 -110 30 -25 7 -74 20 -110 30 -36 10 -85 23 -110 30
-25 7 -74 20 -110 30 -36 9 -85 23 -110 30 -66 19 -146 41 -220 60 -36 10 -85
23 -110 30 -25 7 -74 20 -110 30 -36 9 -85 23 -110 30 -81 23 -154 44 -215 60
-110 29 -160 43 -215 58 -30 9 -82 23 -115 32 -33 9 -80 23 -105 29 -25 7 -74
21 -110 31 -36 9 -85 23 -110 30 -25 8 -69 19 -97 26 l-53 13 -97 -95 c-54
-52 -102 -98 -108 -104 -63 -61 -264 -285 -327 -366 -23 -30 -45 -56 -48 -59
-29 -25 -258 -357 -300 -435 -12 -22 -30 -55 -41 -74 -83 -141 -206 -426 -245
-571 -54 -193 -84 -363 -85 -476 0 -43 -4 -97 -8 -119 l-8 -40 -7 57 c-11 78
-2 431 13 498 7 30 19 89 27 130 9 41 22 93 29 115 7 22 22 74 35 115 13 41
27 79 31 84 5 6 9 17 9 25 0 9 7 29 15 45 8 15 15 33 15 38 0 15 118 254 165
333 22 39 44 77 48 85 11 21 24 43 91 145 183 278 470 606 766 876 115 104
158 139 172 139 5 0 30 -9 56 -19z m5732 -33 c0 -6 -13 -39 -29 -72 -27 -58
-33 -64 -96 -95 -41 -19 -71 -29 -77 -23 -5 5 4 34 24 73 27 52 42 69 88 96
57 33 90 41 90 21z m400 3 c0 -5 -19 -45 -42 -90 -42 -82 -45 -84 -141 -125
-41 -17 -77 -21 -77 -8 0 5 19 44 42 86 41 75 45 79 113 111 71 34 105 43 105
26z m1698 -34 c23 -40 49 -134 39 -144 -4 -4 -33 6 -63 21 -61 31 -59 23 -38
129 8 38 37 35 62 -6z m-1283 -19 c-4 -13 -21 -48 -39 -78 -17 -30 -38 -68
-47 -85 -9 -17 -35 -39 -60 -52 -62 -30 -146 -56 -158 -48 -6 3 8 37 34 81 25
42 45 79 45 84 0 12 69 70 83 70 7 0 39 11 72 25 74 30 78 30 70 3z m918 -68
c12 -10 -61 -180 -85 -202 -16 -14 -38 -18 -104 -18 -48 0 -84 4 -84 10 0 5 9
26 19 47 11 21 33 68 50 105 17 37 39 69 48 71 24 7 146 -3 156 -13z m-1970 4
c3 -3 -8 -35 -26 -70 -29 -58 -35 -65 -91 -90 -34 -15 -106 -48 -161 -74 -55
-26 -130 -62 -167 -79 -149 -68 -317 -146 -398 -183 -36 -17 -101 -47 -145
-68 -44 -21 -107 -50 -140 -65 -33 -14 -72 -33 -87 -41 -14 -8 -33 -14 -41
-14 -9 0 -17 -4 -19 -9 -5 -15 -58 -25 -58 -12 0 6 7 14 15 16 25 8 37 14 100
50 33 18 85 47 115 62 52 27 155 83 295 158 33 18 103 55 155 82 52 28 113 61
135 73 22 12 76 41 120 65 100 52 264 140 330 177 55 30 59 31 68 22z m370 0
c3 -3 -4 -24 -16 -46 -69 -125 -56 -112 -146 -148 -75 -30 -81 -17 -34 66 35
63 45 72 103 101 66 33 82 38 93 27z m1363 -5 c3 -6 -18 -59 -48 -117 l-54
-106 -91 -20 c-50 -10 -99 -16 -108 -12 -15 5 -14 11 10 53 15 25 43 76 62
114 35 68 53 82 113 92 52 9 109 7 116 -4z m388 -11 c22 -6 46 -15 52 -20 13
-10 7 -48 -21 -124 -29 -77 -38 -83 -123 -77 -49 4 -75 10 -79 19 -3 8 5 35
16 60 12 25 31 70 42 100 23 60 34 65 113 42z m-1354 -30 c0 -6 -23 -49 -52
-95 -42 -70 -60 -89 -93 -103 -79 -35 -146 -50 -144 -32 0 4 9 21 19 37 10 17
28 48 40 70 28 52 59 85 80 85 9 0 20 3 23 7 12 11 112 50 120 46 4 -2 7 -9 7
-15z m710 6 c0 -8 -86 -168 -116 -215 -20 -32 -31 -39 -91 -53 -37 -10 -82
-21 -99 -27 -17 -5 -33 -9 -37 -9 -11 0 -8 38 4 45 5 4 15 17 20 28 5 12 18
36 29 52 11 17 23 37 27 45 30 66 51 85 114 104 35 10 73 22 84 26 24 10 65
12 65 4z m829 -54 c27 -17 51 -37 54 -44 10 -25 -33 -172 -50 -170 -20 1 -71
18 -106 36 -41 20 -42 29 -11 90 8 15 14 32 14 38 0 19 31 80 41 80 5 0 31
-14 58 -30z m-2189 -31 c0 -14 -39 -87 -60 -113 -16 -19 -91 -56 -116 -56 -8
0 -14 7 -14 16 0 38 71 134 99 134 9 0 25 7 35 15 23 18 56 20 56 4z m1057
-18 c-5 -22 -67 -122 -112 -184 -21 -28 -42 -44 -65 -50 -19 -4 -58 -15 -86
-23 -60 -17 -74 -17 -74 -4 0 14 126 206 142 217 17 10 169 61 187 62 8 1 11
-6 8 -18z m-682 -10 c3 -5 0 -13 -5 -16 -6 -4 -16 -17 -21 -28 -47 -103 -95
-143 -191 -161 -45 -8 -47 0 -13 54 14 22 25 43 25 48 0 20 61 72 96 81 22 6
46 15 54 21 19 12 47 13 55 1z m1959 -96 c23 -48 35 -165 16 -165 -10 0 -60
34 -103 70 -4 4 -1 25 7 46 8 21 17 52 21 67 8 40 35 31 59 -18z m-2554 29 c0
-3 -14 -32 -31 -63 -32 -61 -30 -60 -179 -116 -19 -7 -71 -27 -115 -45 -44
-18 -98 -39 -120 -47 -22 -9 -49 -19 -60 -24 -11 -4 -45 -18 -75 -29 -30 -12
-89 -36 -130 -52 -173 -69 -227 -91 -265 -105 -22 -8 -53 -21 -68 -29 -16 -8
-36 -14 -45 -14 -9 0 -26 -7 -36 -15 -11 -8 -32 -15 -48 -15 -15 0 -28 -4 -28
-9 0 -12 -43 -22 -53 -12 -5 5 4 12 18 15 15 4 34 14 42 21 8 8 23 15 32 15
10 0 24 7 31 15 7 8 17 15 24 15 6 0 38 13 71 29 140 67 255 121 259 121 3 0
54 23 113 51 124 59 236 111 308 144 118 54 214 99 270 126 59 28 85 35 85 23z
m983 -12 c-3 -13 -87 -149 -110 -180 -25 -31 -203 -80 -203 -56 0 4 18 33 40
66 22 33 40 63 40 67 1 3 11 18 23 33 15 18 50 37 107 56 86 30 107 33 103 14z
m-6492 -16 c24 -7 73 -22 109 -31 36 -10 88 -24 115 -31 28 -8 75 -21 105 -30
76 -21 144 -40 220 -59 36 -10 85 -23 110 -30 57 -17 151 -42 215 -60 28 -7
77 -20 110 -30 33 -9 85 -23 115 -31 30 -9 78 -22 105 -29 28 -8 77 -21 110
-30 33 -9 80 -23 105 -29 25 -7 74 -21 110 -31 36 -9 85 -23 110 -30 25 -7 74
-20 110 -30 103 -27 171 -46 220 -59 25 -7 74 -21 110 -31 36 -9 85 -23 110
-30 25 -7 74 -20 110 -30 36 -10 85 -23 110 -30 25 -7 74 -20 110 -30 36 -9
85 -24 109 -31 25 -8 51 -14 59 -14 8 0 28 -6 45 -14 18 -8 50 -17 72 -21 34
-6 37 -8 19 -15 -12 -5 -57 -2 -105 6 -46 8 -127 22 -179 30 -52 9 -131 22
-175 29 -44 7 -127 21 -185 30 -58 9 -143 23 -190 30 -47 8 -128 21 -180 29
-113 18 -263 42 -380 61 -96 16 -242 39 -375 61 -49 8 -130 21 -180 29 -49 8
-133 21 -185 29 -220 35 -299 48 -375 61 -44 7 -127 21 -185 30 -58 9 -139 23
-180 30 -109 21 -116 20 -163 -29 -104 -106 -221 -239 -346 -391 -132 -161
-306 -427 -408 -623 -183 -355 -273 -678 -273 -987 0 -82 -4 -156 -9 -164 -10
-16 -12 -8 -30 139 -26 202 1 470 70 705 11 39 24 84 29 100 4 17 18 55 30 85
12 30 25 67 30 81 4 14 12 34 18 45 6 10 36 71 66 134 31 63 69 138 86 165 16
28 33 57 37 65 4 8 14 26 24 40 9 14 38 59 65 100 90 141 220 311 354 464 150
172 392 416 412 416 8 0 34 -6 59 -14z m5839 -11 c0 -36 -93 -155 -121 -155
-11 0 -32 -6 -48 -14 -43 -23 -54 -7 -28 42 34 67 68 101 122 121 63 24 75 25
75 6z m1617 -21 c5 -15 -5 -38 -56 -124 -11 -19 -27 -49 -36 -67 -28 -54 -42
-61 -145 -64 -110 -5 -111 -4 -57 81 112 178 109 175 152 181 82 12 135 10
142 -7z m216 -9 c16 -4 27 -14 26 -24 0 -9 -24 -61 -53 -116 l-52 -100 -93 2
c-51 1 -96 5 -99 8 -4 4 2 21 12 38 10 18 34 61 54 97 64 119 63 118 124 109
29 -4 65 -10 81 -14z m-485 -28 c-2 -12 -37 -72 -77 -132 l-72 -110 -88 -18
c-100 -19 -131 -21 -131 -7 0 15 161 251 174 255 6 1 38 9 71 18 33 8 75 16
94 16 29 1 33 -2 29 -22z m-978 -6 c0 -4 -25 -46 -56 -92 -51 -78 -59 -85
-107 -101 -60 -19 -117 -23 -117 -7 0 6 12 26 27 45 14 20 38 54 52 76 22 35
36 44 96 64 75 25 105 29 105 15z m1662 -22 c21 -11 38 -22 38 -25 0 -18 -75
-182 -90 -198 -16 -16 -23 -17 -47 -8 -15 6 -47 14 -70 17 -23 4 -44 13 -47
22 -3 8 12 49 34 90 22 42 40 81 40 86 0 6 8 19 17 29 20 23 64 18 125 -13z
m-2270 -11 c-12 -49 -68 -113 -115 -132 -65 -27 -78 -13 -43 47 33 56 52 73
101 90 57 21 64 20 57 -5z m1292 -7 c7 -11 -122 -206 -156 -237 -14 -13 -42
-24 -73 -27 -27 -3 -69 -9 -92 -13 -64 -10 -65 -13 78 184 32 45 79 72 123 72
13 0 39 7 57 15 40 17 56 18 63 6z m-944 -37 c0 -3 -21 -39 -47 -80 -43 -66
-54 -76 -101 -94 -57 -22 -102 -26 -102 -10 0 13 75 123 94 139 28 23 156 60
156 45z m2056 -22 c64 -47 69 -57 57 -110 -16 -69 -39 -125 -55 -136 -10 -6
-28 0 -56 18 -23 14 -46 26 -51 26 -5 0 -14 7 -21 15 -10 12 -8 26 12 73 14
31 34 76 44 100 10 23 21 42 24 42 4 0 25 -13 46 -28z m-2636 -58 c-29 -54
-38 -59 -195 -109 -66 -21 -178 -57 -250 -80 -71 -23 -197 -63 -280 -89 -82
-27 -166 -54 -185 -61 -81 -29 -136 -45 -157 -45 -13 0 -23 -4 -23 -9 0 -12
-46 -20 -60 -11 -14 8 10 20 41 20 10 0 19 4 19 10 0 5 12 12 28 16 15 3 42
12 59 20 51 23 95 41 138 57 103 40 287 112 355 139 41 16 93 37 115 45 22 9
49 19 60 24 22 9 107 42 170 66 76 30 100 39 135 55 50 23 60 7 30 -48z m1216
32 c8 -20 -141 -214 -169 -221 -68 -16 -149 -21 -153 -10 -5 12 105 174 129
193 14 10 132 44 180 51 4 0 10 -5 13 -13z m-889 -41 c2 -6 -17 -38 -41 -71
-39 -54 -50 -63 -97 -76 -30 -9 -58 -12 -62 -8 -9 8 52 112 75 126 25 17 93
42 107 41 8 -1 16 -7 18 -12z m607 -23 c6 -9 -131 -192 -147 -196 -67 -18
-148 -32 -157 -26 -18 11 119 190 150 196 14 2 45 11 70 18 53 17 77 19 84 8z
m-824 -40 c0 -18 -72 -121 -88 -126 -64 -18 -82 -18 -82 1 1 31 68 113 93 113
12 0 29 5 37 10 18 12 40 13 40 2z m2648 -21 c18 -11 42 -106 42 -168 0 -67
-19 -70 -74 -14 -42 43 -43 53 -11 144 18 49 22 52 43 38z m-2130 -62 c-65
-93 -101 -125 -145 -132 -48 -8 -93 -9 -93 -1 0 10 94 139 115 156 11 10 31
18 45 18 14 1 34 5 45 10 11 5 33 9 48 9 l28 1 -43 -61z m1282 43 c0 -15 -126
-208 -166 -253 -10 -11 -39 -18 -87 -22 -39 -4 -89 -10 -109 -13 -30 -5 -38
-3 -38 8 0 26 188 267 213 272 27 6 145 23 170 25 10 0 17 -6 17 -17z m266 3
c7 -16 3 -25 -24 -67 -9 -15 -35 -55 -56 -90 -68 -110 -64 -108 -183 -108
-123 0 -122 -1 -45 106 26 35 64 88 85 119 l38 55 90 0 c70 0 91 -3 95 -15z
m175 -22 c30 -9 58 -20 62 -24 5 -4 -6 -33 -23 -65 -18 -33 -43 -77 -55 -100
-48 -87 -47 -86 -85 -79 -19 3 -61 8 -93 11 -31 4 -60 10 -63 15 -4 8 16 45
88 157 10 15 21 34 25 42 34 66 53 72 144 43z m-7696 -29 c268 -43 437 -71
553 -89 50 -8 134 -21 185 -30 50 -8 137 -22 192 -30 55 -9 138 -23 185 -30
47 -8 130 -22 185 -30 55 -9 138 -22 185 -30 109 -18 249 -40 372 -60 166 -26
289 -46 383 -61 50 -8 133 -21 185 -30 52 -8 118 -19 145 -25 28 -5 81 -14
120 -20 38 -5 72 -13 75 -16 7 -8 -435 13 -775 36 -257 18 -493 32 -669 41
-93 5 -240 13 -325 19 -86 6 -271 18 -411 26 -140 8 -329 20 -420 26 -91 6
-223 13 -295 16 l-130 4 -95 -112 c-374 -443 -629 -883 -737 -1269 -64 -232
-87 -473 -62 -645 8 -55 9 -79 1 -87 -8 -8 -13 -3 -17 18 -3 16 -12 52 -20 79
-8 28 -19 91 -24 141 -31 261 14 555 129 854 12 30 25 66 30 80 32 97 166 344
279 515 98 150 304 424 340 455 3 3 37 41 75 85 39 44 96 106 127 138 64 65
44 62 234 31z m5245 10 c0 -28 -38 -80 -67 -93 -16 -7 -48 -17 -73 -21 -25 -5
-88 -19 -140 -33 -52 -13 -106 -26 -120 -29 -26 -6 -195 -48 -285 -72 -99 -26
-151 -39 -190 -46 -22 -4 -53 -12 -68 -19 -34 -13 -87 -15 -87 -2 0 11 25 21
50 21 10 0 31 6 47 14 15 8 75 29 133 47 58 18 164 51 235 74 72 24 198 64
280 90 83 27 175 56 205 66 69 23 80 23 80 3z m1710 -6 c-1 -14 -16 -36 -118
-167 -35 -46 -69 -84 -75 -86 -7 -2 -54 -6 -104 -10 -87 -5 -93 -4 -93 13 0
11 7 26 16 33 9 8 44 50 77 94 33 44 63 84 67 88 10 11 155 45 198 46 20 1 32
-4 32 -11z m-1200 -7 c0 -12 -88 -133 -108 -148 -16 -13 -122 -19 -122 -7 0 3
21 35 47 70 30 42 57 67 73 70 14 3 36 10 50 14 34 11 60 12 60 1z m2128 -37
c87 -48 87 -51 18 -186 -48 -93 -56 -97 -146 -64 -68 26 -75 36 -51 77 17 29
34 60 85 154 30 55 30 55 94 19z m-1238 -19 c0 -7 -4 -15 -8 -17 -4 -1 -30
-32 -57 -68 -28 -36 -65 -82 -84 -102 l-33 -38 -87 0 c-48 0 -90 3 -94 6 -3 3
31 50 76 105 89 107 101 115 209 128 69 8 78 6 78 -14z m-1122 -17 c-7 -13
-30 -44 -50 -69 -31 -39 -45 -47 -80 -52 -24 -3 -47 -2 -51 2 -8 8 41 89 65
108 19 15 69 31 101 32 25 1 26 -1 15 -21z m-1278 -8 c0 -5 -10 -10 -22 -10
-19 0 -20 2 -8 10 19 13 30 13 30 0z m2110 -9 c0 -13 -136 -182 -159 -199 -20
-14 -141 -28 -165 -19 -13 5 -3 24 50 92 78 101 96 115 149 116 22 0 49 4 60
9 27 12 65 12 65 1z m-1030 -21 c0 -17 -63 -100 -79 -104 -51 -13 -70 -15 -76
-6 -9 14 52 100 78 110 30 12 77 12 77 0z m750 -30 c0 -6 -30 -46 -66 -90 -50
-61 -74 -82 -102 -90 -47 -13 -122 -13 -122 0 0 5 29 44 63 87 57 70 69 79
113 90 63 14 114 16 114 3z m1999 -37 c22 -26 41 -55 41 -64 0 -27 -65 -172
-81 -182 -11 -7 -29 0 -65 27 -78 59 -77 53 -21 166 35 70 55 100 67 100 10 0
36 -21 59 -47z m-2929 29 c0 -5 -13 -29 -29 -53 l-30 -44 -103 -18 c-57 -10
-143 -25 -193 -34 -49 -8 -124 -21 -165 -28 -41 -8 -120 -21 -175 -30 -55 -9
-131 -23 -170 -31 -80 -16 -104 -17 -124 -5 -11 7 -4 11 25 16 21 3 62 12 89
20 28 8 78 21 113 29 34 9 88 23 120 31 31 7 89 21 127 30 39 9 93 22 120 29
123 32 192 49 290 71 38 9 71 18 74 21 8 7 31 4 31 -4z m670 -37 c0 -16 -92
-134 -114 -146 -6 -4 -35 -10 -63 -14 -68 -9 -80 11 -36 58 16 18 40 46 52 62
17 22 36 33 74 41 75 16 87 16 87 -1z m-230 -44 c0 -14 -76 -107 -102 -125
-22 -16 -89 -22 -101 -10 -8 8 70 121 92 134 21 12 111 13 111 1z m-207 -27
c8 -8 -51 -91 -78 -110 -11 -8 -34 -14 -52 -14 -47 0 -43 26 10 84 36 38 50
46 79 46 19 0 38 -3 41 -6z m1944 -10 c4 -11 -57 -96 -155 -216 l-54 -68 -109
0 c-59 0 -110 4 -113 9 -5 7 34 68 52 80 4 3 38 45 76 93 37 48 73 91 79 95
36 22 217 28 224 7z m198 -6 c45 -9 65 -17 65 -27 0 -19 -123 -202 -161 -240
-26 -26 -32 -28 -71 -20 -24 4 -69 8 -100 9 -43 0 -58 4 -58 14 0 8 30 52 66
98 37 45 74 94 82 108 46 74 62 80 177 58z m-2330 -18 c11 -18 -74 -110 -100
-110 -13 0 -27 5 -30 10 -7 12 14 50 48 88 21 23 71 30 82 12z m1825 -2 c0 -7
-48 -68 -105 -135 l-105 -123 -105 0 c-84 0 -105 3 -105 14 0 19 197 244 218
249 9 3 59 5 110 6 68 1 92 -2 92 -11z m-315 -18 c3 -5 0 -19 -7 -29 -13 -19
-136 -158 -170 -193 -15 -15 -35 -18 -112 -18 -52 0 -97 4 -100 9 -3 5 4 19
17 33 25 28 159 181 165 188 1 2 40 7 85 11 45 3 90 7 99 7 9 1 20 -2 23 -8z
m-1671 -8 c2 -4 -11 -26 -30 -48 l-33 -41 -148 -12 c-82 -7 -207 -19 -279 -27
-72 -7 -159 -14 -194 -14 -35 0 -91 -5 -124 -11 -34 -5 -90 -9 -126 -7 l-65 3
70 8 c39 4 78 12 87 17 9 5 36 12 60 15 24 3 84 13 133 21 200 34 254 43 350
60 55 9 129 22 165 30 76 15 127 17 134 6z m2730 -17 c33 -15 56 -31 56 -40 0
-9 -18 -43 -40 -76 -22 -33 -40 -63 -41 -67 0 -4 -15 -27 -33 -52 -29 -39 -38
-45 -67 -44 -44 1 -159 36 -159 47 0 5 17 35 38 66 21 31 53 79 72 106 66 98
78 102 174 60z m-7721 -5 c105 -5 260 -14 342 -19 83 -6 265 -17 405 -26 140
-8 327 -19 415 -25 88 -6 252 -15 365 -20 113 -5 219 -12 236 -15 18 -3 126
-10 240 -15 115 -5 272 -14 349 -20 77 -6 173 -13 213 -16 41 -3 71 -9 68 -12
-4 -3 -118 -9 -254 -13 -290 -8 -781 -25 -1182 -40 -157 -5 -436 -14 -620 -19
-553 -15 -894 -31 -909 -44 -24 -19 -252 -327 -311 -421 -315 -496 -458 -922
-436 -1300 9 -163 15 -216 27 -241 6 -12 9 -32 7 -45 -4 -23 -5 -23 -13 6 -5
16 -14 36 -22 43 -7 7 -13 22 -13 33 0 11 -5 29 -10 39 -6 10 -19 64 -30 120
-25 126 -27 362 -5 478 53 275 97 407 224 672 33 69 105 196 143 253 21 32 38
60 38 63 0 7 185 270 200 284 3 3 28 34 55 70 62 82 161 198 194 228 20 18 33
21 59 17 18 -3 119 -10 225 -15z m4135 13 c-10 -2 -26 -2 -35 0 -10 3 -2 5 17
5 19 0 27 -2 18 -5z m3999 -24 c15 -28 18 -225 4 -234 -5 -3 -27 16 -48 42
-21 27 -41 50 -45 51 -13 6 -9 26 16 78 13 27 27 59 31 72 8 28 26 24 42 -9z
m-1767 10 c0 -13 -39 -59 -122 -146 l-61 -63 -83 0 c-62 0 -84 3 -84 13 0 7
36 53 80 102 l79 90 58 6 c101 10 133 9 133 -2z m-285 -29 c-6 -19 -55 -78
-127 -152 -24 -26 -32 -28 -102 -28 -49 0 -76 4 -76 11 0 6 28 43 62 83 34 39
65 75 69 80 7 8 91 22 152 25 24 1 27 -2 22 -19z m-250 -10 c3 -5 -26 -45 -65
-90 l-71 -80 -63 0 c-34 0 -66 3 -69 6 -7 7 52 81 105 134 27 28 37 30 135 38
12 1 24 -2 28 -8z m2083 -58 c31 -21 52 -42 52 -53 0 -15 -36 -87 -70 -139 -6
-8 -14 -24 -20 -35 -5 -11 -17 -30 -27 -43 l-19 -23 -73 38 c-40 20 -75 43
-78 50 -3 7 6 28 19 46 13 17 48 71 77 119 58 98 53 96 139 40z m-2318 26 c-1
-7 -27 -41 -59 -75 -58 -63 -59 -63 -115 -63 -31 0 -56 4 -56 10 0 11 24 41
82 101 34 36 40 39 92 39 38 0 56 -4 56 -12z m-213 -14 c2 -6 -6 -21 -17 -35
-77 -89 -77 -89 -119 -89 -22 0 -43 4 -46 10 -3 5 11 32 32 59 29 38 47 52 78
59 48 12 67 11 72 -4z m-184 -11 c6 -6 -55 -89 -78 -105 -13 -10 -69 -10 -78
-1 -8 7 34 68 65 96 20 17 78 24 91 10z m-173 -24 c0 -6 -14 -29 -31 -50 -23
-29 -38 -39 -60 -39 -16 0 -29 5 -29 10 0 14 30 62 49 78 18 15 71 16 71 1z
m-146 -7 c3 -5 -7 -25 -21 -45 l-26 -37 -391 0 c-235 0 -397 4 -406 10 -13 9
-13 10 0 11 121 6 487 38 630 54 140 16 207 18 214 7z m-1411 -39 c18 -9 88
-73 157 -143 166 -167 261 -229 550 -352 116 -50 200 -93 200 -102 0 -16 -7
-25 -85 -112 -172 -193 -340 -367 -555 -579 -178 -175 -263 -253 -435 -401
-175 -151 -217 -186 -294 -245 -45 -35 -120 -92 -165 -127 -193 -150 -529
-371 -738 -487 -112 -62 -338 -171 -414 -198 -109 -41 -336 -116 -389 -130
-33 -9 -89 -24 -125 -33 -50 -14 -101 -18 -225 -17 -146 0 -166 3 -228 26
-178 67 -272 165 -329 343 -19 61 -22 91 -22 249 0 105 6 204 13 237 15 69 7
62 266 243 39 27 104 73 145 102 41 28 107 74 145 101 39 27 111 77 160 112
50 35 158 111 240 169 83 57 192 134 243 170 51 36 125 89 165 117 159 113
255 180 312 219 59 41 154 108 323 227 184 130 239 168 292 204 93 63 313 230
350 266 60 58 116 97 181 127 54 25 77 30 147 30 59 1 92 -4 115 -16z m4608
-100 c16 -23 29 -52 29 -65 0 -26 -81 -190 -96 -195 -5 -2 -25 11 -43 28 -18
16 -44 37 -57 46 -31 20 -30 44 1 93 14 22 25 42 25 44 0 3 16 32 36 66 35 61
36 61 56 43 11 -10 33 -37 49 -60z m-5647 28 c8 -13 -19 -21 -88 -27 -34 -2
-115 -11 -181 -19 -66 -8 -183 -21 -260 -30 -231 -27 -385 -45 -470 -56 -44
-6 -118 -15 -165 -19 -47 -5 -121 -13 -165 -18 -44 -6 -143 -18 -220 -26 -77
-9 -172 -21 -211 -26 -39 -6 -113 -15 -165 -19 -52 -5 -132 -14 -179 -20 -47
-6 -146 -18 -220 -27 -74 -8 -181 -22 -237 -30 -56 -8 -120 -14 -143 -14 -51
0 -61 -10 -173 -178 -222 -331 -369 -626 -442 -887 -47 -166 -58 -249 -59
-435 -1 -189 10 -271 51 -372 21 -50 6 -72 -18 -27 -49 93 -74 165 -104 290
-21 89 -21 359 0 471 43 228 102 399 222 638 67 134 100 191 207 362 60 94
267 368 290 384 16 10 113 16 416 23 419 11 815 24 1305 43 275 10 684 22 912
26 50 1 94 -2 97 -7z m2335 -30 c12 -8 10 -16 -14 -46 -28 -37 -28 -37 -84
-31 -31 3 -115 11 -188 16 -73 5 -163 14 -200 20 -37 5 -99 10 -138 10 -133 2
-185 24 -75 33 101 8 686 6 699 -2z m138 -7 c8 -21 -54 -84 -83 -84 -36 0 -35
12 3 58 36 43 69 54 80 26z m149 2 c3 -8 -12 -33 -33 -56 -32 -33 -45 -41 -68
-38 -42 5 -41 21 3 67 40 42 87 55 98 27z m169 4 c4 -6 -15 -35 -41 -66 -43
-50 -51 -55 -83 -52 -50 4 -50 26 3 81 36 39 50 47 79 47 20 0 39 -5 42 -10z
m190 -1 c8 -12 -79 -110 -112 -127 -20 -10 -93 1 -93 14 0 3 23 32 51 65 50
57 54 59 100 59 26 0 51 -5 54 -11z m210 -6 c0 -7 -29 -42 -64 -78 -60 -62
-66 -65 -110 -65 -67 0 -76 9 -47 49 13 18 42 50 65 72 39 38 43 40 98 37 37
-2 58 -7 58 -15z m238 5 c2 -7 -31 -48 -73 -90 -76 -77 -78 -78 -128 -78 -58
0 -82 7 -82 24 0 6 31 44 68 84 l68 72 71 0 c48 0 73 -4 76 -12z m252 -5 c0
-7 -38 -51 -85 -99 l-84 -87 -75 7 c-41 3 -79 10 -83 14 -5 5 32 47 81 96 l89
87 79 -3 c52 -2 78 -7 78 -15z m287 5 c3 -7 -39 -58 -93 -112 l-98 -100 -88 3
c-48 1 -92 6 -98 12 -6 6 26 45 90 109 l100 100 91 0 c65 0 94 -4 96 -12z
m303 2 c4 -6 -44 -62 -106 -125 l-113 -115 -60 0 c-91 0 -136 10 -136 29 0 8
46 62 102 118 l103 103 102 0 c59 0 104 -4 108 -10z m305 -6 c0 -9 -35 -55
-77 -103 -140 -156 -146 -161 -189 -161 -82 0 -173 13 -178 25 -2 7 23 42 57
77 34 36 86 91 115 122 l54 56 109 0 c94 0 109 -2 109 -16z m310 0 c10 -10
-43 -79 -179 -233 l-56 -63 -95 7 c-89 6 -130 17 -130 33 0 4 18 25 39 47 21
22 71 79 111 125 40 47 78 89 84 93 16 11 213 4 226 -9z m173 -24 c59 -12 87
-26 87 -45 0 -13 -92 -140 -167 -230 l-32 -38 -102 16 c-56 8 -106 20 -112 26
-7 7 9 31 49 78 33 37 83 98 112 135 57 72 67 79 97 72 11 -2 41 -9 68 -14z
m-5072 -7 c33 -7 33 -7 9 -14 -14 -4 -44 -7 -67 -8 -23 -1 -44 -5 -48 -10 -3
-6 -27 -13 -53 -16 -26 -3 -76 -12 -112 -20 -36 -8 -99 -20 -140 -28 -41 -8
-113 -23 -160 -32 -47 -9 -116 -22 -155 -30 -38 -8 -104 -21 -145 -29 -118
-23 -239 -47 -310 -61 -116 -23 -213 -43 -300 -60 -47 -9 -116 -22 -155 -30
-38 -8 -108 -21 -155 -30 -47 -9 -114 -23 -150 -30 -77 -16 -208 -42 -305 -61
-158 -30 -233 -45 -296 -59 -37 -8 -75 -15 -85 -15 -11 0 -36 -5 -56 -10 -35
-10 -67 -45 -113 -122 -5 -9 -32 -54 -60 -100 -117 -193 -200 -368 -280 -588
-82 -227 -116 -500 -85 -695 14 -91 48 -212 61 -221 5 -3 9 -16 9 -28 0 -13 7
-29 15 -36 8 -7 12 -17 9 -22 -7 -11 -42 24 -63 62 -69 129 -91 187 -123 335
-17 79 -16 267 1 380 20 131 78 341 122 445 6 14 17 39 23 55 30 72 144 297
190 375 44 75 202 315 240 363 17 22 56 34 143 42 37 3 120 12 183 20 117 14
267 32 510 60 74 9 189 22 255 30 66 8 179 21 250 29 200 23 388 46 515 61 63
7 178 21 255 30 77 9 186 23 242 31 56 8 126 14 155 15 29 0 80 6 113 14 74
16 75 17 116 8z m1748 -38 c146 -17 324 -34 429 -42 40 -3 74 -9 77 -13 6 -10
-33 -70 -52 -77 -9 -3 -48 1 -87 10 -39 9 -107 23 -151 32 -172 33 -242 47
-300 60 -33 8 -77 17 -98 20 -21 3 -35 10 -32 16 9 13 67 11 214 -6z m3557
-41 c60 -32 74 -43 74 -59 0 -16 -133 -216 -160 -240 -20 -18 -22 -18 -73 3
-28 11 -64 24 -79 28 -60 14 -56 25 48 164 72 96 104 130 119 130 12 0 44 -12
71 -26z m-5401 -13 c16 -7 12 -10 -23 -16 -24 -4 -56 -13 -70 -21 -15 -8 -35
-14 -46 -14 -10 0 -39 -7 -65 -14 -25 -8 -71 -22 -101 -30 -30 -9 -77 -22
-105 -30 -27 -7 -79 -21 -115 -30 -36 -10 -85 -23 -110 -31 -25 -7 -74 -20
-110 -30 -36 -9 -90 -23 -120 -32 -30 -8 -80 -22 -110 -30 -30 -8 -75 -21
-100 -28 -25 -7 -74 -21 -110 -30 -36 -10 -85 -23 -110 -30 -25 -7 -74 -20
-110 -30 -36 -10 -85 -23 -110 -30 -25 -7 -74 -20 -110 -30 -36 -10 -85 -23
-110 -30 -25 -7 -74 -20 -110 -30 -36 -10 -85 -23 -110 -30 -25 -7 -74 -20
-110 -30 -36 -10 -85 -23 -110 -30 -25 -7 -74 -20 -110 -30 -36 -10 -85 -23
-110 -30 -25 -7 -74 -21 -110 -30 -75 -21 -85 -28 -121 -92 -113 -198 -211
-413 -269 -586 -130 -392 -127 -692 9 -949 22 -42 37 -79 34 -81 -12 -13 -106
112 -147 197 -66 135 -86 230 -86 420 0 350 122 697 413 1171 64 104 69 108
148 126 41 10 112 25 159 34 296 57 487 95 610 120 36 7 103 21 150 30 47 9
117 22 155 30 39 8 104 20 145 29 100 19 230 45 310 61 36 7 103 21 150 30
121 23 219 43 303 59 39 8 110 22 157 31 47 9 105 22 130 27 25 6 70 15 100
19 30 4 71 12 90 17 43 12 41 12 65 3z m1678 -5 c65 -15 156 -34 292 -61 44
-9 109 -22 145 -30 36 -8 76 -15 90 -15 14 0 32 -5 40 -10 13 -8 12 -13 -6
-36 -41 -56 -18 -59 -389 60 -22 7 -65 21 -95 30 -94 30 -159 59 -154 68 7 10
5 11 77 -6z m785 -17 c3 -18 -52 -79 -72 -79 -28 0 -18 46 15 75 33 27 52 28
57 4z m142 -9 c0 -22 -73 -90 -97 -90 -37 0 -38 25 -2 64 25 28 40 36 66 36
18 0 33 -5 33 -10z m148 -6 c7 -5 -18 -41 -56 -78 -35 -33 -44 -37 -71 -31
-17 4 -31 12 -31 19 0 7 22 34 50 60 42 39 54 45 77 40 16 -4 29 -8 31 -10z
m3081 -21 c19 -66 13 -161 -15 -243 -6 -17 -27 6 -70 78 l-25 43 22 47 c34 70
60 112 70 112 4 0 13 -17 18 -37z m-2917 -2 c4 -4 -18 -33 -51 -65 -55 -54
-60 -57 -95 -51 -49 10 -46 28 13 87 47 46 52 49 88 42 21 -3 41 -9 45 -13z
m-1304 -5 c15 -8 95 -35 177 -61 83 -26 193 -61 245 -77 52 -17 101 -32 108
-34 19 -5 14 -21 -17 -56 l-28 -32 -64 31 c-130 62 -199 93 -204 93 -5 0 -196
93 -241 118 -25 14 -32 32 -13 32 6 0 23 -6 37 -14z m1463 4 c20 0 29 -5 29
-16 0 -22 -117 -134 -140 -134 -37 0 -80 13 -80 24 1 14 100 121 120 129 8 3
21 4 28 1 8 -2 27 -4 43 -4z m2537 -74 c23 -22 42 -47 42 -55 0 -8 -19 -46
-42 -83 -24 -38 -48 -77 -53 -86 -29 -48 -49 -72 -60 -72 -23 0 -144 85 -144
102 -1 16 114 188 159 236 24 27 25 26 98 -42z m-5683 48 c23 -9 0 -24 -38
-24 -16 0 -35 -7 -43 -15 -9 -8 -25 -15 -38 -15 -12 0 -27 -5 -33 -11 -6 -6
-26 -14 -44 -19 -19 -5 -99 -32 -179 -60 -80 -28 -158 -55 -175 -60 -16 -5
-75 -25 -130 -45 -140 -50 -354 -124 -390 -135 -16 -5 -75 -25 -130 -45 -55
-20 -152 -54 -215 -75 -134 -46 -369 -128 -490 -171 -47 -17 -98 -34 -115 -39
-16 -5 -95 -32 -175 -60 -80 -28 -166 -58 -192 -67 -58 -20 -66 -28 -116 -128
-106 -211 -175 -394 -218 -575 -21 -87 -44 -271 -44 -345 1 -161 51 -339 130
-458 60 -89 54 -101 -17 -34 -87 81 -154 200 -193 341 -30 109 -31 356 -2 491
41 185 84 321 147 460 53 118 115 241 150 300 22 39 44 78 48 88 8 20 48 39
137 62 36 10 85 23 110 30 25 7 74 21 110 30 36 10 85 24 110 30 25 7 74 21
110 30 36 10 85 23 110 30 25 7 74 21 110 30 36 10 85 24 110 31 25 6 72 20
105 29 33 9 83 22 110 30 28 8 79 21 115 31 36 9 88 23 115 31 65 18 137 38
205 57 52 14 86 23 227 62 32 9 83 23 113 31 96 26 154 42 205 57 28 7 79 21
115 30 36 10 85 24 110 32 25 8 55 14 66 14 12 0 35 7 50 15 33 17 36 17 59 9z
m3390 -5 c4 -6 -28 -44 -71 -85 -78 -74 -80 -75 -122 -70 -24 3 -52 11 -64 17
-19 10 -17 15 48 80 l68 69 68 0 c37 0 70 -5 73 -11z m182 -14 c24 -4 45 -10
48 -15 3 -4 -34 -45 -82 -90 l-87 -82 -55 5 c-30 3 -61 13 -70 22 -15 15 -9
23 67 96 71 69 87 80 110 75 15 -3 46 -8 69 -11z m251 -20 c33 -5 52 -12 52
-20 0 -14 -97 -111 -165 -165 -33 -26 -45 -30 -70 -25 -16 4 -48 10 -70 14
-28 4 -40 11 -40 23 0 9 42 56 93 103 80 73 97 86 120 81 15 -3 51 -8 80 -11z
m-1398 -27 c0 -20 -54 -78 -72 -78 -30 0 -29 18 3 54 30 35 69 48 69 24z
m1722 -5 c20 -12 0 -39 -93 -125 -55 -51 -106 -96 -113 -100 -17 -10 -152 12
-173 27 -16 12 -9 23 87 115 l105 101 90 -7 c49 -3 93 -8 97 -11z m-1614 -16
c16 -18 -52 -89 -82 -85 -28 4 -27 19 8 62 29 37 56 45 74 23z m1860 -4 c34
-4 56 -12 60 -21 3 -10 -33 -52 -114 -129 -103 -98 -123 -113 -152 -113 -30 0
-130 21 -172 36 -10 4 21 40 105 120 l119 114 51 0 c27 0 74 -3 103 -7z
m-4438 -7 c0 -8 -51 -13 -56 -5 -3 5 9 9 25 9 17 0 31 -2 31 -4z m2711 -12
c11 -14 7 -22 -33 -60 -50 -47 -64 -52 -91 -31 -15 11 -12 17 27 60 46 49 74
58 97 31z m-2781 -13 c0 -5 -10 -13 -22 -16 -13 -4 -39 -14 -58 -22 -41 -19
-39 -18 -275 -116 -273 -113 -546 -228 -580 -242 -16 -8 -113 -48 -215 -90
-102 -43 -198 -83 -215 -90 -16 -8 -113 -48 -215 -90 -102 -43 -198 -83 -215
-90 -16 -8 -97 -41 -180 -75 -82 -34 -162 -68 -177 -76 -14 -8 -31 -14 -38
-14 -26 0 -69 -42 -90 -88 -34 -76 -46 -104 -65 -152 -9 -25 -22 -56 -27 -70
-26 -66 -62 -191 -90 -315 -16 -71 -21 -127 -21 -265 0 -188 7 -228 66 -363
26 -56 108 -174 134 -190 7 -5 11 -12 8 -18 -13 -21 -154 101 -203 176 -158
239 -163 599 -15 1000 9 22 21 56 28 75 30 81 57 141 107 240 56 110 74 127
163 151 17 4 75 24 130 44 140 50 354 124 390 135 17 5 75 25 130 45 140 50
354 124 390 135 17 5 75 25 130 45 55 20 152 54 215 75 159 55 261 90 430 150
80 28 159 55 175 60 39 11 92 30 130 46 35 16 75 18 75 5z m4828 3 c38 -5 52
-11 52 -23 0 -9 -57 -73 -127 -143 -141 -141 -143 -142 -239 -113 -27 8 -61
15 -76 15 -15 0 -30 5 -34 11 -4 7 43 62 117 135 l124 123 65 0 c36 1 89 -2
118 -5z m-1903 -18 c18 -13 16 -17 -36 -65 -57 -54 -92 -63 -113 -28 -9 15 -4
25 36 62 49 47 80 56 113 31z m2228 -25 c20 -7 37 -16 37 -19 0 -9 -88 -109
-186 -212 l-82 -84 -68 13 c-38 7 -87 15 -109 18 -22 3 -44 9 -49 13 -9 9 244
281 270 290 22 8 143 -5 187 -19z m-2079 -1 c14 -5 26 -14 26 -19 0 -13 -97
-104 -119 -112 -25 -10 -72 1 -78 18 -8 21 95 123 124 123 12 0 33 -4 47 -10z
m2828 -7 c8 -10 27 -44 42 -77 25 -52 26 -61 15 -90 -7 -17 -17 -38 -24 -46
-6 -8 -22 -37 -36 -63 -43 -85 -47 -86 -112 -12 -41 48 -54 70 -49 83 12 30
135 222 142 222 4 0 14 -8 22 -17z m-3477 -13 c9 -14 -42 -80 -61 -80 -23 0
-16 31 13 62 29 30 38 34 48 18z m-2415 -10 c-19 -13 -30 -13 -30 0 0 6 10 10
23 10 18 0 19 -2 7 -10z m3239 -4 c19 -7 36 -17 37 -22 4 -15 -138 -134 -160
-134 -12 0 -36 9 -55 21 l-33 20 68 64 c72 67 86 72 143 51z m2105 -20 c17 -7
43 -18 59 -24 15 -7 27 -19 27 -28 0 -16 -160 -213 -213 -262 l-25 -24 -75 26
c-42 14 -84 26 -94 26 -10 0 -24 4 -32 9 -17 11 -4 28 116 155 41 44 87 95
101 113 25 31 30 34 66 28 22 -3 54 -12 70 -19z m-5394 5 c0 -5 -12 -14 -27
-20 -16 -6 -35 -15 -43 -20 -8 -6 -116 -59 -240 -119 -346 -168 -603 -294
-850 -414 -124 -61 -322 -157 -440 -215 -418 -203 -503 -248 -517 -269 -17
-27 -84 -222 -113 -329 -25 -94 -60 -317 -60 -383 0 -60 26 -214 46 -272 31
-90 81 -174 144 -242 36 -38 64 -71 62 -73 -11 -11 -150 84 -189 129 -117 135
-172 296 -173 502 0 90 19 244 40 326 20 76 42 152 51 176 5 13 19 52 30 85
24 72 41 112 77 186 33 66 24 61 317 181 83 34 164 68 180 75 17 8 113 48 215
90 102 43 199 83 215 90 17 8 113 48 215 90 102 43 199 83 215 90 39 17 52 22
240 100 88 37 174 73 190 80 17 8 82 35 145 60 134 55 176 73 210 91 29 16 60
18 60 5z m2567 -7 c6 -17 -52 -84 -74 -84 -29 0 -25 32 8 66 36 37 56 43 66
18z m955 -20 c12 -4 15 -11 10 -24 -8 -22 -160 -150 -178 -150 -23 0 -106 40
-102 49 2 6 36 40 77 76 l73 67 52 -7 c28 -4 59 -9 68 -11z m-858 0 c26 -10
18 -38 -23 -78 -40 -39 -73 -45 -79 -14 -2 13 69 98 83 98 2 0 10 -3 19 -6z
m1045 -38 c29 -8 56 -18 59 -21 14 -13 -179 -175 -209 -175 -31 0 -119 33
-119 45 0 5 37 45 82 87 91 84 98 87 187 64z m-909 -14 l22 -18 -52 -47 c-56
-50 -61 -52 -91 -37 -27 15 -24 23 28 74 52 51 61 54 93 28z m-2835 -11 c3 -5
-5 -13 -17 -17 -12 -3 -28 -13 -36 -20 -7 -8 -20 -14 -28 -14 -8 0 -14 -4 -14
-9 0 -5 -12 -14 -27 -20 -16 -6 -44 -21 -63 -32 -19 -12 -55 -32 -80 -46 -25
-13 -58 -32 -75 -42 -16 -10 -65 -36 -107 -59 -42 -23 -120 -67 -174 -97 -53
-30 -98 -55 -99 -55 -2 0 -38 -20 -79 -45 -42 -25 -79 -45 -81 -45 -3 0 -22
-11 -43 -23 -20 -13 -73 -43 -117 -67 -44 -24 -93 -51 -110 -61 -16 -10 -48
-27 -70 -39 -104 -57 -151 -83 -160 -90 -5 -4 -39 -23 -75 -43 -36 -19 -114
-62 -174 -96 -60 -34 -111 -61 -112 -61 -1 0 -35 -19 -76 -43 -40 -23 -86 -49
-101 -57 -33 -16 -61 -53 -70 -90 -3 -14 -16 -59 -27 -100 -42 -150 -52 -216
-57 -394 -5 -183 3 -247 44 -346 38 -94 107 -188 175 -239 68 -51 64 -67 -9
-34 -106 49 -217 160 -268 268 -58 122 -67 168 -66 343 0 148 18 287 50 382 4
14 16 52 26 85 20 70 39 123 66 182 20 46 4 38 779 416 495 241 650 317 855
417 121 59 227 110 235 114 8 3 22 10 30 15 45 26 80 41 93 41 8 0 20 7 27 15
14 17 26 19 35 6z m2395 -15 c0 -7 -79 -93 -175 -192 -96 -98 -175 -173 -175
-165 0 7 12 25 28 40 15 16 41 44 57 63 80 91 155 176 199 224 45 51 66 60 66
30z m3265 -19 c33 -24 61 -50 63 -59 3 -16 -156 -237 -191 -267 -14 -11 -26
-8 -84 26 -38 21 -76 42 -86 46 -10 4 -17 14 -15 22 6 27 220 275 236 274 10
0 44 -19 77 -42z m-1637 4 c15 -4 27 -14 27 -22 0 -16 -123 -128 -189 -172
-28 -20 -43 -24 -59 -18 -12 5 -41 15 -65 22 -69 20 -69 30 1 90 34 29 65 57
68 61 3 5 21 20 40 34 31 23 40 24 92 19 32 -4 71 -10 85 -14z m-1039 0 c10
-6 10 -13 3 -28 -10 -18 -78 -78 -109 -97 -12 -7 -73 19 -73 31 0 4 23 28 52
55 52 48 92 61 127 39z m-502 -17 c4 -12 -32 -54 -129 -148 -160 -157 -260
-250 -352 -331 -38 -33 -77 -69 -87 -79 -10 -11 -22 -17 -25 -13 -4 3 83 96
192 205 110 110 238 240 285 291 47 50 91 91 98 91 6 0 14 -7 18 -16z m1741
-25 c13 -5 36 -9 52 -9 35 0 60 -9 60 -22 0 -13 -66 -75 -152 -144 -37 -30
-70 -58 -73 -64 -9 -14 -58 -12 -102 4 -21 8 -50 17 -65 20 -39 9 -36 37 10
74 20 17 55 47 77 67 103 95 119 101 193 74z m-1116 2 c13 -5 32 -12 43 -16
18 -6 12 -14 -45 -66 -36 -33 -75 -62 -86 -65 -23 -6 -84 20 -84 35 0 13 122
121 137 121 7 0 22 -4 35 -9z m-531 -17 c15 -18 5 -28 -215 -229 -54 -49 -104
-95 -111 -102 -7 -7 -50 -44 -96 -84 -46 -39 -86 -75 -89 -78 -3 -3 -50 -42
-105 -86 -55 -44 -104 -85 -110 -91 -23 -25 -96 -76 -102 -71 -6 6 14 25 97
97 29 25 65 57 80 71 14 15 49 46 76 69 76 66 184 168 370 352 94 92 175 168
181 168 6 0 17 -7 24 -16z m-2606 -14 c-3 -5 -13 -10 -21 -10 -8 0 -14 -5 -14
-10 0 -6 -10 -15 -22 -20 -24 -10 -60 -31 -68 -40 -10 -10 -90 -61 -125 -80
-11 -5 -54 -33 -95 -60 -41 -27 -84 -54 -95 -60 -11 -6 -65 -39 -120 -74 -55
-36 -142 -91 -193 -123 -52 -32 -104 -65 -116 -73 -13 -8 -66 -41 -117 -73
-52 -32 -139 -87 -194 -122 -55 -35 -140 -89 -190 -120 -49 -31 -135 -85 -190
-121 -55 -35 -107 -67 -115 -71 -8 -4 -40 -24 -71 -45 -63 -41 -74 -62 -103
-198 -43 -204 -39 -445 9 -582 41 -120 94 -190 225 -300 25 -21 39 -38 33 -38
-7 0 -15 4 -18 10 -3 6 -15 10 -27 10 -40 0 -143 65 -208 130 -114 114 -170
270 -170 468 0 148 39 360 97 520 13 37 25 48 99 92 47 28 87 50 90 50 2 0 21
10 42 23 20 13 69 41 107 62 116 62 175 95 227 126 27 16 51 29 53 29 2 0 26
13 53 29 57 33 202 115 287 161 109 60 151 83 160 90 6 4 42 24 80 45 39 21
88 49 110 62 22 12 47 26 55 30 8 4 40 21 70 39 107 62 165 95 195 110 17 8
57 30 90 49 33 18 80 44 105 57 25 12 47 26 48 31 2 4 13 7 23 7 11 0 17 -4
14 -10z m2721 -41 c7 -12 -13 -34 -146 -149 -47 -41 -87 -77 -90 -80 -7 -8
-242 -204 -305 -255 -28 -21 -52 -42 -55 -45 -3 -4 -70 -55 -150 -115 -80 -60
-150 -114 -156 -120 -6 -5 -22 -17 -34 -25 -12 -8 -51 -36 -86 -62 -35 -27
-66 -48 -69 -48 -4 0 -13 -7 -22 -15 -8 -9 -18 -14 -21 -11 -7 8 31 43 108
101 36 27 67 53 70 57 3 4 31 27 62 50 177 136 486 405 746 651 88 82 106 96
122 87 10 -6 22 -15 26 -21z m609 10 c46 -20 46 -21 28 -41 -38 -42 -142 -118
-161 -118 -12 0 -38 10 -58 22 l-37 22 74 68 c41 37 81 68 90 68 9 0 38 -9 64
-21z m1201 6 c27 -8 63 -15 79 -15 46 0 58 -12 39 -38 -22 -32 -256 -232 -271
-232 -16 0 -165 48 -183 60 -18 11 -27 2 130 139 66 58 124 101 136 101 11 0
43 -7 70 -15z m1578 -7 c12 -47 -2 -175 -30 -271 -8 -27 -30 -4 -64 66 -31 66
-32 65 23 160 40 70 60 83 71 45z m-253 -50 c22 -24 46 -55 54 -70 14 -25 12
-30 -38 -105 -77 -115 -121 -172 -132 -172 -15 0 -135 115 -135 129 0 18 183
259 198 259 7 1 31 -18 53 -41z m-3023 0 c7 -7 12 -17 12 -24 0 -12 -118 -116
-285 -249 -55 -44 -106 -86 -113 -92 -30 -29 -456 -346 -562 -418 -176 -120
-292 -198 -395 -262 -11 -7 -28 -16 -37 -19 -10 -3 -18 -10 -18 -14 0 -5 -10
-12 -22 -16 -12 -3 -28 -13 -36 -20 -16 -16 -32 -18 -32 -4 0 6 10 15 23 20
28 13 59 32 72 46 5 6 30 24 55 41 240 158 782 577 1020 789 19 17 80 71 135
120 55 48 104 94 108 101 10 16 59 17 75 1z m697 -11 c21 -8 41 -19 42 -24 3
-9 -114 -111 -168 -147 -25 -16 -28 -15 -78 10 -32 16 -51 31 -49 40 2 8 37
43 78 79 82 70 93 73 175 42z m1315 7 c41 -9 85 -18 98 -20 15 -3 22 -11 20
-21 -4 -24 -279 -273 -300 -273 -10 0 -35 6 -55 14 -21 7 -64 22 -95 32 -57
18 -72 35 -44 51 11 6 98 82 170 148 68 62 99 85 114 85 9 0 51 -7 92 -16z
m-4890 -24 c0 -5 -11 -12 -25 -16 -14 -3 -25 -9 -25 -13 0 -7 -96 -81 -105
-81 -4 0 -13 -6 -20 -12 -7 -7 -37 -29 -65 -48 -28 -19 -79 -55 -113 -79 -34
-25 -127 -91 -207 -146 -80 -56 -185 -130 -235 -165 -49 -35 -121 -85 -160
-112 -62 -43 -145 -101 -340 -239 -33 -24 -88 -62 -123 -86 -144 -100 -212
-155 -216 -176 -40 -191 -46 -359 -17 -493 24 -107 36 -142 78 -215 31 -55
154 -179 178 -179 7 0 25 -12 41 -27 21 -20 24 -25 9 -19 -11 4 -33 10 -50 12
-62 10 -178 78 -236 138 -69 70 -110 151 -139 271 -19 79 -21 108 -17 235 3
80 10 163 15 185 6 22 18 75 28 118 9 42 24 83 32 90 14 12 37 27 237 152 50
31 135 85 190 120 55 35 142 90 193 122 51 32 104 65 117 73 13 8 65 41 117
73 51 32 138 87 193 122 55 35 141 89 190 120 50 31 124 79 165 106 41 27 84
54 95 59 11 6 34 19 50 30 17 11 38 23 48 26 9 4 17 10 17 14 0 5 10 12 22 16
12 3 28 13 36 20 16 16 42 19 42 4z m3011 -30 c30 -16 22 -42 -24 -77 -23 -18
-85 -67 -137 -108 -105 -83 -371 -284 -438 -330 -23 -17 -79 -56 -125 -88
-163 -115 -541 -361 -665 -432 -9 -5 -60 -35 -112 -65 -162 -94 -174 -100
-207 -115 -17 -8 -34 -19 -38 -25 -3 -5 -13 -10 -21 -10 -9 0 -22 -7 -30 -15
-9 -8 -22 -15 -31 -15 -22 0 -10 25 15 28 12 2 22 8 22 13 0 5 10 14 23 19 12
6 36 19 52 30 17 11 39 24 50 30 11 6 34 19 50 30 17 11 37 23 45 27 8 4 43
26 77 50 35 24 65 43 67 43 4 0 265 173 356 237 211 147 350 248 480 352 148
116 282 224 310 247 14 12 68 58 120 103 95 81 120 92 161 71z m727 -4 c15 -7
44 -16 65 -20 26 -5 37 -12 37 -24 0 -16 -75 -82 -170 -150 l-45 -32 -62 30
c-34 16 -64 34 -68 39 -3 6 22 32 57 58 34 26 78 63 98 80 39 37 50 39 88 19z
m1437 -1 c22 -8 48 -15 58 -15 24 0 77 -28 77 -40 0 -5 -64 -73 -142 -150
-108 -106 -149 -140 -168 -140 -26 0 -199 56 -213 69 -4 4 36 48 89 97 54 49
122 112 153 141 61 57 80 62 146 38z m-2020 -62 c19 -9 35 -22 35 -29 0 -30
-605 -469 -896 -651 -46 -29 -158 -99 -182 -115 -15 -10 -36 -22 -47 -28 -11
-6 -33 -19 -50 -30 -16 -11 -39 -24 -50 -30 -11 -5 -27 -14 -35 -20 -29 -19
-220 -130 -225 -130 -2 0 -26 -13 -52 -29 -60 -35 -268 -144 -383 -201 -47
-23 -111 -55 -143 -71 -31 -16 -63 -29 -71 -29 -7 0 -19 -7 -26 -15 -7 -8 -21
-15 -32 -15 -11 0 -26 -7 -34 -15 -19 -18 -57 -20 -52 -2 3 6 14 13 26 15 11
2 26 10 32 18 7 8 20 14 30 14 10 0 23 7 30 15 7 8 21 15 31 15 10 0 21 4 24
10 3 5 30 22 58 36 71 35 141 72 212 113 33 19 76 43 95 53 19 11 122 72 228
136 106 65 201 122 210 127 63 38 309 201 452 301 105 72 571 423 585 439 6 7
37 32 70 57 34 26 67 53 74 62 17 20 41 20 86 -1z m885 -33 c30 -10 54 -21 53
-24 -2 -3 -3 -10 -3 -14 0 -17 -229 -182 -252 -181 -27 0 -143 60 -143 73 0 5
49 47 109 93 122 94 119 93 236 53z m1436 -20 c40 -22 74 -45 77 -53 3 -7 -33
-54 -84 -108 -49 -51 -106 -113 -125 -136 -35 -42 -68 -54 -90 -34 -5 5 -46
23 -91 41 -46 18 -83 36 -83 39 0 4 62 70 138 147 99 102 144 141 162 142 14
1 57 -16 96 -38z m568 -56 c14 -35 26 -75 26 -89 0 -33 -110 -213 -136 -222
-5 -2 -18 11 -28 29 -11 18 -32 49 -48 69 -35 46 -35 62 0 108 16 20 52 71 82
114 61 89 65 89 104 -9z m-2724 33 c25 -12 45 -27 45 -34 0 -37 -679 -503
-1033 -708 -199 -116 -233 -135 -322 -183 -36 -19 -87 -47 -115 -62 -27 -15
-122 -64 -210 -108 -250 -125 -436 -211 -707 -326 -18 -7 -53 -21 -78 -31 -25
-9 -58 -23 -73 -31 -16 -8 -36 -14 -45 -14 -9 0 -26 -7 -36 -15 -11 -8 -32
-15 -47 -15 -15 0 -29 -4 -31 -10 -5 -15 -68 -25 -68 -11 0 6 13 14 30 17 16
4 35 13 41 20 6 8 20 14 29 14 10 0 31 6 47 14 26 14 87 42 203 94 230 104
602 290 738 371 29 17 55 31 57 31 4 0 137 76 175 100 8 5 33 19 55 31 22 11
58 33 80 48 22 15 47 30 55 34 8 4 27 15 42 25 15 9 55 35 90 56 56 35 303
199 473 314 33 22 168 122 300 221 132 99 245 181 250 180 6 0 30 -10 55 -22z
m1025 -57 l30 -12 -45 -40 c-75 -68 -226 -178 -243 -178 -27 0 -167 69 -167
83 0 7 30 36 68 64 37 29 93 72 124 97 l57 44 73 -23 c40 -12 87 -28 103 -35z
m-837 -25 c82 -41 85 -37 -103 -169 -167 -117 -448 -301 -595 -390 -52 -31
-102 -61 -110 -66 -31 -20 -172 -101 -232 -134 -35 -19 -92 -50 -128 -70 -74
-41 -534 -270 -625 -311 -33 -15 -80 -36 -105 -47 -25 -12 -58 -27 -75 -33
-16 -7 -46 -20 -65 -28 -58 -25 -81 -34 -175 -72 -49 -21 -112 -46 -140 -58
-27 -11 -68 -26 -90 -33 -22 -7 -65 -22 -95 -34 -76 -29 -219 -80 -255 -90
-28 -8 -45 -14 -138 -47 -20 -7 -46 -13 -56 -13 -10 0 -32 -7 -47 -15 -16 -8
-40 -15 -54 -15 -14 -1 -36 -7 -50 -15 -28 -16 -90 -20 -90 -5 0 5 17 12 38
16 20 4 46 13 57 20 11 8 31 14 45 14 14 0 34 7 44 15 11 8 28 15 38 15 9 0
32 6 50 14 34 15 98 39 158 61 19 7 55 21 80 30 25 9 63 24 85 32 22 9 54 21
70 29 17 7 86 36 155 64 69 29 148 63 175 75 28 13 77 36 110 50 75 34 489
241 572 286 33 19 81 45 105 58 88 48 155 85 223 126 39 22 77 44 85 48 8 4
27 15 42 25 15 9 80 50 145 90 259 160 501 325 743 507 69 51 133 94 142 94 9
1 39 -10 66 -24z m2170 -35 c33 -27 63 -57 66 -66 8 -21 -6 -43 -104 -160
-122 -144 -126 -148 -151 -118 -7 9 -40 34 -72 56 -32 22 -61 46 -64 54 -3 9
23 44 68 92 41 42 96 103 123 135 28 31 55 57 62 57 7 0 39 -22 72 -50z
m-1176 16 c18 -7 51 -19 73 -26 91 -29 90 -28 69 -51 -15 -17 -195 -164 -272
-223 -15 -11 -52 0 -149 46 -35 16 -63 35 -63 41 1 7 20 27 43 44 23 18 85 67
137 108 52 41 103 75 112 75 10 0 32 -6 50 -14z m-781 -78 c38 -17 69 -37 69
-42 0 -16 -461 -333 -550 -379 -8 -4 -27 -15 -42 -25 -22 -14 -89 -55 -213
-129 -11 -7 -27 -15 -35 -19 -8 -4 -31 -17 -50 -29 -179 -110 -772 -407 -990
-495 -30 -12 -68 -28 -85 -35 -44 -20 -254 -105 -297 -121 -44 -16 -108 -41
-158 -60 -55 -21 -182 -65 -215 -74 -16 -5 -64 -20 -105 -34 -160 -56 -427
-131 -667 -190 -32 -8 -80 -20 -108 -26 -27 -7 -72 -16 -100 -20 -27 -4 -63
-12 -78 -18 -33 -14 -127 -16 -127 -3 0 13 26 21 68 21 20 1 48 7 62 15 14 8
36 14 50 15 14 0 45 6 70 14 25 8 70 21 100 30 124 35 160 45 260 76 146 46
295 95 360 120 30 12 84 32 120 45 36 13 90 33 120 45 30 12 66 25 80 30 26 8
371 155 450 192 135 62 211 98 365 176 173 87 268 136 340 176 109 61 166 93
230 131 39 22 77 44 85 48 8 4 27 15 42 25 15 9 67 41 115 71 99 61 330 210
383 248 19 13 64 45 100 69 36 25 108 76 160 114 52 38 101 70 109 70 7 0 44
-14 82 -32z m1061 -12 c50 -20 134 -46 151 -46 60 0 -9 -71 -255 -263 l-49
-39 -105 48 c-57 26 -104 53 -104 59 0 6 35 38 77 70 42 33 93 74 112 90 72
62 116 94 128 95 7 0 27 -6 45 -14z m1314 -127 c-14 -124 -57 -281 -73 -265
-3 3 -19 44 -35 91 l-29 85 41 61 c22 33 40 63 40 67 0 3 10 16 22 29 20 21
23 22 31 7 5 -9 6 -43 3 -75z m-2155 40 c67 -29 88 -43 89 -60 0 -3 -24 -22
-52 -41 -29 -19 -125 -83 -213 -143 -455 -307 -1006 -604 -1520 -820 -88 -37
-169 -71 -180 -76 -50 -21 -102 -42 -125 -49 -14 -5 -50 -18 -80 -30 -30 -12
-66 -25 -80 -30 -14 -5 -50 -18 -80 -30 -30 -12 -68 -25 -85 -30 -26 -7 -81
-26 -210 -71 -16 -6 -43 -15 -60 -19 -16 -5 -61 -18 -100 -30 -144 -43 -254
-73 -365 -100 -47 -12 -107 -28 -134 -36 -26 -7 -58 -14 -69 -14 -11 0 -43 -6
-71 -14 -72 -21 -299 -65 -466 -91 -58 -9 -134 -21 -170 -27 -138 -22 -588
-48 -495 -28 22 5 67 9 100 10 33 0 78 7 100 15 22 8 60 14 85 14 25 1 77 7
115 15 39 8 108 22 155 31 279 53 526 112 750 179 25 8 70 21 100 30 87 26
439 143 500 166 30 12 66 25 80 30 14 4 36 12 50 18 14 5 43 17 65 25 41 15
245 99 300 122 44 19 91 40 168 74 37 17 69 31 72 31 3 0 119 56 258 125 215
107 316 159 457 238 14 7 48 26 75 41 28 15 64 36 80 47 17 10 37 22 45 26 95
44 625 390 777 506 20 15 41 27 48 27 7 0 46 -14 86 -31z m1888 -8 c17 -21 31
-43 31 -49 0 -5 7 -15 15 -22 32 -27 18 -68 -59 -168 -40 -53 -84 -107 -98
-119 l-24 -23 -68 76 c-61 67 -67 77 -54 94 43 61 205 249 215 249 6 1 25 -17
42 -38z m-649 -39 c83 -35 82 -36 -48 -154 -191 -174 -196 -178 -219 -178 -24
0 -207 82 -216 97 -3 4 48 53 114 108 65 55 141 119 169 142 l49 42 53 -19
c29 -10 73 -27 98 -38z m-1032 -46 c15 -8 53 -26 85 -41 31 -14 57 -31 57 -38
0 -7 -21 -28 -47 -47 -100 -70 -414 -280 -419 -280 -3 0 -26 -13 -51 -30 -24
-16 -46 -30 -48 -30 -2 0 -21 -12 -42 -26 -21 -14 -47 -30 -58 -35 -11 -6 -29
-15 -40 -22 -47 -29 -161 -93 -265 -150 -73 -40 -387 -197 -472 -236 -38 -17
-96 -44 -130 -60 -35 -16 -103 -45 -153 -66 -49 -20 -99 -41 -110 -45 -23 -10
-110 -44 -170 -67 -22 -9 -49 -19 -60 -24 -59 -27 -401 -142 -585 -198 -190
-57 -274 -80 -497 -135 -116 -28 -309 -69 -428 -91 -49 -9 -115 -21 -145 -27
-30 -6 -86 -14 -125 -19 -38 -4 -99 -12 -135 -17 -231 -35 -620 -62 -899 -62
-281 0 -245 13 104 39 263 20 509 49 725 87 225 40 453 88 566 120 28 8 59 14
69 14 9 0 38 7 64 14 25 8 72 22 103 31 89 24 169 47 213 61 22 6 87 26 145
44 58 18 116 37 130 42 14 6 39 14 55 18 17 5 55 18 85 30 30 11 75 28 100 37
54 18 268 100 325 124 184 76 281 118 360 154 94 43 550 270 605 300 36 20 94
53 130 72 107 59 378 222 485 292 55 36 108 71 117 76 26 15 123 83 211 148
83 60 102 66 145 43z m1242 -70 c51 -35 76 -60 78 -76 3 -18 -24 -50 -132
-156 -75 -74 -141 -134 -147 -134 -6 0 -43 20 -82 44 -40 24 -82 46 -94 50
-16 5 -23 15 -23 32 0 13 3 24 8 24 10 0 98 78 234 207 36 35 70 63 75 62 4 0
42 -24 83 -53z m-941 -66 c102 -47 116 -55 118 -70 2 -9 -41 -46 -104 -90
-168 -118 -353 -244 -406 -276 -27 -16 -61 -37 -75 -46 -15 -10 -34 -21 -42
-25 -8 -4 -31 -18 -50 -31 -19 -13 -44 -28 -55 -33 -11 -6 -29 -15 -40 -22
-171 -103 -749 -397 -780 -397 -2 0 -28 -11 -57 -24 -105 -49 -307 -132 -378
-156 -14 -5 -50 -18 -80 -30 -159 -61 -415 -146 -595 -196 -27 -8 -66 -20 -85
-26 -19 -6 -51 -15 -70 -19 -19 -4 -71 -17 -115 -29 -44 -12 -98 -26 -120 -30
-22 -5 -58 -13 -80 -18 -40 -10 -124 -28 -260 -56 -38 -8 -115 -22 -170 -31
-55 -9 -123 -21 -152 -26 -29 -6 -87 -14 -130 -19 -140 -16 -261 -30 -355 -41
-133 -17 -949 -24 -1079 -9 -57 6 -152 15 -211 20 -59 5 -113 12 -120 16 -7 5
-49 14 -93 20 l-80 12 90 -4 c50 -2 266 -7 480 -10 377 -6 482 -1 790 31 136
14 392 50 465 65 25 5 63 12 85 15 113 16 488 100 629 141 26 8 56 14 64 14 9
0 34 6 57 14 22 8 69 22 105 31 227 62 675 218 904 316 38 16 73 29 78 29 4 0
36 13 71 29 81 38 159 73 227 102 93 39 626 311 665 339 6 4 33 20 60 35 47
26 209 123 260 155 12 8 51 33 86 55 83 51 252 166 359 243 47 34 94 62 104
62 10 0 49 -14 85 -30z m1508 -40 c33 -99 30 -135 -17 -200 -22 -30 -52 -74
-67 -97 -29 -44 -55 -62 -61 -43 -2 6 -22 45 -43 86 -21 41 -39 78 -39 83 0 5
32 48 70 95 39 48 77 101 86 117 24 47 46 34 71 -41z m-358 -85 c28 -33 51
-70 51 -81 0 -25 -216 -267 -243 -272 -17 -4 -166 124 -167 143 0 5 61 71 136
146 103 103 141 136 154 131 10 -4 40 -34 69 -67z m-853 -10 c52 -25 99 -45
105 -45 18 0 8 -27 -19 -52 -147 -131 -604 -443 -847 -578 -22 -12 -58 -33
-80 -45 -99 -58 -183 -102 -365 -191 -107 -53 -208 -102 -225 -109 -84 -38
-145 -65 -195 -85 -30 -12 -64 -26 -75 -30 -11 -5 -45 -19 -75 -30 -30 -12
-64 -26 -75 -31 -11 -5 -33 -13 -50 -18 -16 -5 -55 -19 -85 -31 -77 -30 -219
-80 -255 -90 -16 -4 -64 -19 -105 -33 -41 -13 -104 -32 -140 -42 -36 -10 -83
-23 -105 -30 -52 -17 -223 -61 -345 -89 -368 -85 -736 -142 -1145 -178 -200
-17 -896 -17 -1070 0 -342 34 -631 78 -771 118 -28 8 -62 14 -75 14 -13 0 -37
7 -53 15 -15 8 -40 15 -55 16 -14 0 -35 4 -46 9 -39 16 14 24 64 10 25 -7 62
-15 81 -17 19 -2 76 -10 125 -18 741 -120 1664 -76 2535 122 164 37 199 45
255 59 33 9 80 21 105 29 25 7 74 21 110 30 36 10 83 23 105 30 22 7 67 21
100 30 33 10 76 23 95 30 19 7 51 18 70 24 19 7 49 16 65 21 17 5 55 18 85 30
30 11 75 28 100 37 301 104 890 371 1165 528 44 25 94 52 110 61 17 8 44 23
60 34 17 10 48 28 69 40 116 63 426 269 599 397 76 57 143 103 148 103 5 0 52
-20 105 -45z m288 -134 c99 -52 120 -73 94 -93 -9 -7 -67 -56 -129 -109 -186
-156 -484 -373 -652 -475 -27 -16 -61 -37 -75 -46 -15 -10 -36 -22 -47 -28
-11 -6 -33 -19 -50 -30 -16 -11 -37 -23 -45 -27 -8 -3 -31 -17 -51 -29 -78
-49 -361 -194 -514 -264 -49 -22 -105 -48 -122 -56 -18 -8 -48 -21 -68 -30
-19 -8 -49 -21 -67 -29 -18 -7 -49 -21 -70 -29 -20 -9 -42 -16 -50 -16 -8 0
-18 -4 -24 -9 -5 -4 -22 -13 -39 -19 -16 -6 -68 -25 -115 -42 -179 -67 -490
-165 -680 -215 -164 -43 -213 -54 -380 -89 -1126 -232 -2229 -203 -3180 85
-74 22 -148 44 -165 49 -16 5 -55 18 -85 30 -30 12 -69 26 -87 31 -18 5 -35
14 -38 19 -4 6 -17 10 -30 10 -13 0 -30 6 -37 13 -7 8 -26 17 -42 21 -20 5
-26 10 -18 18 7 7 20 6 43 -6 18 -9 40 -16 50 -16 10 0 33 -6 51 -14 44 -18
144 -47 313 -90 729 -185 1677 -207 2570 -60 203 33 491 92 589 120 26 8 56
14 65 14 10 0 37 6 62 14 24 7 73 22 109 31 36 10 83 23 105 30 55 17 128 39
200 60 33 10 71 22 85 28 14 5 39 13 55 18 31 8 168 57 218 77 16 7 32 12 37
12 5 0 24 6 42 14 18 8 67 28 108 44 132 53 253 104 330 139 41 19 100 46 130
60 147 68 385 191 488 252 29 17 55 31 57 31 5 0 223 131 295 177 188 122 335
227 527 376 70 53 131 97 137 96 6 0 51 -22 100 -48z m706 -73 c22 -45 40 -89
40 -99 0 -31 -193 -264 -219 -264 -8 0 -21 12 -30 27 -9 15 -33 52 -54 82 -22
31 -37 60 -35 65 7 20 241 271 252 271 4 0 25 -37 46 -82z m245 42 c19 -30
-52 -328 -81 -337 -13 -4 -27 29 -47 115 -16 71 -19 63 69 180 39 53 48 59 59
42z m-728 -122 c73 -66 93 -91 90 -113 -6 -54 -500 -460 -797 -655 -52 -34
-108 -71 -124 -82 -31 -22 -226 -138 -231 -138 -2 0 -36 -19 -77 -43 -104 -62
-461 -236 -608 -297 -69 -29 -134 -56 -145 -60 -11 -5 -45 -19 -75 -30 -30
-12 -70 -28 -88 -36 -18 -8 -39 -14 -47 -14 -9 0 -23 -5 -33 -10 -9 -6 -87
-33 -172 -60 -210 -68 -235 -75 -310 -95 -36 -9 -87 -23 -114 -31 -26 -8 -56
-14 -65 -14 -10 0 -37 -6 -62 -14 -67 -21 -281 -65 -434 -91 -55 -9 -122 -21
-150 -25 -27 -5 -75 -12 -105 -15 -30 -4 -107 -12 -170 -20 -585 -71 -1281
-48 -1865 61 -186 35 -302 61 -515 119 -72 19 -408 130 -455 150 -16 7 -50 20
-75 30 -25 9 -58 23 -75 30 -16 8 -48 21 -70 31 -93 39 -417 203 -425 214 -3
4 -15 10 -27 14 -13 4 -23 11 -23 16 0 4 -9 10 -20 13 -11 3 -20 10 -20 16 0
16 26 13 40 -4 7 -8 18 -15 24 -15 7 0 37 -12 67 -28 53 -27 245 -109 324
-139 22 -8 54 -21 70 -27 36 -15 309 -101 380 -121 325 -88 620 -140 1035
-181 230 -23 897 -23 1130 0 457 45 719 87 1130 183 100 23 273 68 335 88 22
7 65 20 95 29 87 26 349 113 410 136 30 12 66 25 80 30 55 19 189 72 267 106
18 8 47 21 65 29 97 41 148 65 303 140 94 46 208 104 255 130 47 26 105 59
130 72 39 22 184 109 244 146 147 92 550 377 576 406 3 4 40 36 83 71 43 36
97 82 120 102 23 21 50 38 60 38 9 0 39 -19 64 -42z m558 -118 c14 -23 33
-194 24 -218 -11 -27 -134 -190 -159 -209 -18 -14 -30 -8 -30 17 0 19 -18 66
-46 123 -8 16 -14 37 -14 48 0 21 189 248 207 249 6 0 15 -4 18 -10z m-362
-100 c58 -85 70 -117 52 -143 -24 -37 -260 -262 -404 -386 -187 -160 -438
-347 -617 -458 -227 -142 -327 -197 -564 -314 -254 -125 -256 -126 -415 -189
-44 -18 -89 -36 -100 -41 -29 -13 -180 -67 -255 -90 -36 -12 -81 -27 -100 -34
-44 -16 -117 -38 -195 -59 -33 -9 -73 -21 -90 -26 -54 -16 -272 -67 -405 -94
-140 -29 -366 -66 -530 -86 -178 -23 -324 -31 -650 -37 -314 -5 -512 2 -735
28 -49 6 -124 14 -165 19 -41 4 -104 13 -140 20 -36 6 -103 18 -150 26 -105
19 -209 41 -276 60 -28 8 -58 14 -66 14 -9 0 -40 7 -69 16 -30 8 -79 22 -109
31 -86 24 -139 41 -220 69 -41 14 -88 29 -105 34 -16 5 -55 18 -85 30 -30 12
-66 25 -80 30 -129 42 -611 275 -742 358 -14 9 -48 30 -75 46 -80 48 -253 166
-338 230 -85 64 -188 157 -181 164 4 4 16 -4 51 -35 7 -7 16 -13 19 -13 3 0
34 -19 68 -43 173 -118 431 -262 633 -351 33 -15 74 -33 90 -40 17 -8 55 -24
85 -35 30 -12 64 -26 75 -30 11 -5 33 -14 49 -20 69 -28 374 -125 486 -155
354 -94 562 -131 1015 -183 216 -25 970 -25 1200 0 329 36 588 75 800 122 251
55 289 64 492 122 123 34 409 127 503 163 30 12 66 25 80 30 14 4 39 13 55 20
17 7 39 16 50 21 280 115 494 216 705 333 36 20 72 39 80 43 33 15 292 174
391 239 241 159 581 430 778 621 19 19 42 32 50 31 9 -2 33 -28 54 -58z
m-4293 1 c0 -10 -30 -24 -37 -17 -3 3 -2 9 2 15 8 13 35 15 35 2z m4400 -200
c20 -39 60 -159 60 -182 0 -34 -76 -120 -285 -327 -269 -266 -498 -452 -800
-649 -55 -36 -111 -73 -125 -82 -14 -10 -32 -20 -40 -24 -8 -4 -28 -16 -45
-27 -16 -11 -37 -23 -45 -27 -8 -4 -46 -26 -85 -48 -62 -37 -398 -204 -482
-241 -18 -8 -48 -20 -65 -28 -47 -20 -186 -76 -233 -93 -22 -8 -51 -20 -65
-25 -61 -24 -374 -123 -445 -141 -11 -3 -63 -16 -115 -29 -270 -70 -524 -116
-870 -158 -190 -22 -603 -33 -872 -21 -145 6 -299 15 -343 21 -195 25 -316 42
-390 56 -140 25 -238 45 -295 59 -30 8 -93 23 -140 35 -47 11 -137 36 -200 56
-63 19 -128 39 -145 44 -16 5 -75 25 -130 45 -55 20 -111 40 -125 44 -30 10
-242 101 -320 138 -209 97 -404 203 -614 336 -278 175 -514 364 -761 610 -151
150 -193 197 -177 197 8 0 25 -14 109 -91 135 -122 300 -250 480 -372 76 -51
145 -96 153 -100 8 -4 29 -16 45 -27 17 -11 37 -23 45 -27 8 -4 47 -25 85 -48
161 -94 519 -259 685 -315 14 -5 50 -18 80 -30 96 -37 290 -97 430 -135 36 -9
88 -23 115 -31 142 -37 426 -91 625 -118 332 -45 407 -49 825 -50 417 0 491 5
840 50 211 27 534 87 649 120 26 8 55 14 64 14 8 0 40 7 71 16 31 9 79 22 106
30 103 28 262 77 330 101 39 13 79 27 90 30 11 3 34 11 52 19 17 8 36 14 42
14 6 0 27 7 48 16 21 9 47 20 58 25 103 41 211 87 263 110 34 16 65 29 68 29
9 0 372 183 414 208 19 12 42 25 50 29 108 50 603 376 688 453 9 8 49 40 87
70 39 30 86 69 105 86 19 17 76 67 125 111 50 44 137 128 195 186 58 59 108
107 112 107 4 0 12 -9 18 -19z m-4660 -10 c0 -12 -39 -25 -48 -16 -7 7 17 25
36 25 6 0 12 -4 12 -9z m4935 -83 c-4 -29 -13 -78 -22 -108 -16 -59 -71 -199
-84 -214 -12 -13 -24 27 -39 121 l-12 82 67 85 c81 102 98 109 90 34z m-8816
-58 c10 -8 51 -69 51 -75 0 -8 148 -222 214 -310 138 -182 257 -316 456 -514
332 -329 682 -591 1125 -841 123 -69 477 -240 498 -240 7 0 21 -6 32 -13 11
-8 29 -16 40 -20 11 -3 45 -15 75 -27 117 -45 113 -44 491 -165 26 -8 53 -15
62 -15 8 0 37 -6 63 -14 91 -27 249 -61 414 -90 647 -112 1376 -101 2015 30
199 41 278 60 490 120 167 47 429 142 619 223 429 184 874 449 1216 725 239
193 511 453 675 645 87 103 97 103 75 2 -50 -231 -153 -400 -397 -651 -91 -94
-216 -215 -277 -268 -61 -53 -113 -99 -116 -102 -10 -11 -156 -127 -215 -170
-317 -235 -720 -470 -1023 -596 -48 -20 -100 -42 -117 -49 -16 -7 -50 -21 -75
-30 -25 -10 -54 -21 -65 -26 -38 -16 -195 -69 -280 -94 -33 -10 -78 -24 -100
-31 -22 -6 -69 -20 -105 -29 -36 -9 -87 -23 -115 -30 -62 -16 -173 -39 -285
-59 -47 -8 -112 -19 -146 -25 -34 -6 -106 -16 -160 -21 -54 -5 -137 -14 -184
-20 -135 -16 -729 -13 -889 5 -343 38 -548 74 -841 150 -146 38 -465 144 -555
184 -11 5 -76 33 -145 61 -69 29 -201 92 -295 140 -151 76 -191 99 -270 147
-11 7 -51 31 -90 54 -133 81 -434 291 -486 341 -8 7 -48 40 -89 73 -99 79
-169 142 -324 294 -287 281 -515 555 -710 856 -43 66 -86 131 -95 145 -10 14
-20 32 -24 40 -4 8 -16 29 -26 45 -11 17 -29 48 -41 70 -12 22 -35 63 -51 92
-16 29 -29 59 -29 67 0 9 -4 16 -10 16 -5 0 -10 10 -10 23 1 21 1 21 12 2 6
-11 14 -22 17 -25z m3561 -70 c0 -5 -12 -10 -27 -10 -22 0 -25 2 -13 10 20 13
40 13 40 0z m5072 -191 l3 -124 -35 -45 c-68 -89 -250 -287 -372 -405 -153
-150 -187 -180 -368 -330 -195 -162 -496 -364 -755 -507 -176 -98 -554 -275
-655 -308 -14 -5 -50 -18 -80 -30 -50 -19 -296 -100 -410 -134 -124 -37 -337
-87 -515 -120 -190 -35 -189 -35 -470 -65 -316 -34 -756 -34 -1060 0 -49 5
-130 14 -180 19 -49 6 -105 15 -125 20 -19 5 -48 10 -64 10 -15 0 -60 7 -100
15 -39 9 -102 23 -141 31 -124 27 -199 44 -250 59 -27 8 -77 22 -110 31 -75
21 -332 106 -405 134 -30 12 -68 26 -85 32 -16 6 -34 15 -40 19 -5 5 -15 9
-22 9 -16 0 -95 36 -318 146 -233 114 -343 177 -549 312 -115 76 -363 256
-423 308 -12 10 -64 55 -116 99 -121 102 -397 379 -513 515 -94 109 -274 344
-274 356 0 4 -7 16 -17 26 -9 10 -13 21 -10 24 6 7 16 -3 148 -156 295 -341
705 -678 1139 -935 215 -127 561 -293 795 -382 22 -8 51 -19 64 -24 37 -15
321 -107 376 -123 134 -38 165 -46 225 -59 36 -9 94 -22 130 -30 252 -58 515
-96 860 -122 656 -51 1413 36 2105 241 109 32 389 127 445 151 14 6 97 41 185
78 194 81 425 195 595 294 25 14 61 35 80 46 192 110 547 359 704 495 190 163
358 325 525 504 35 38 67 64 72 59 5 -5 10 -65 11 -134z m-5397 11 c4 -6 -9
-10 -32 -9 -34 1 -35 2 -13 9 35 11 38 11 45 0z m-311 -149 c8 -12 -53 -20
-89 -13 l-30 6 35 7 c53 10 78 10 84 0z"/>
</g>
</svg>
