 <svg version="1.0" xmlns="http://www.w3.org/2000/svg"  width="2196.000000pt" height="2184.000000pt" viewBox="0 0 2196.000000 2184.000000"  preserveAspectRatio="xMidYMid meet">  <g transform="translate(0.000000,2184.000000) scale(0.100000,-0.100000)" fill="#000000" stroke="none"> <path d="M3100 21828 c0 -7 -12 -25 -27 -41 -27 -27 -28 -33 -28 -128 l0 -101 33 -29 c39 -35 66 -37 113 -5 27 19 39 36 48 70 21 84 8 161 -32 195 -10 7 -17 22 -17 32 0 16 -8 19 -45 19 -28 0 -45 -4 -45 -12z m79 -64 c17 -22 21 -41 21 -107 0 -69 -3 -84 -22 -104 -45 -48 -89 -19 -102 68 -12 83 21 169 65 169 10 0 27 -12 38 -26z"/> <path d="M4906 21767 c-16 -12 -16 -14 -2 -26 12 -10 16 -33 16 -98 0 -63 3 -84 13 -80 8 2 12 32 12 101 0 103 -9 125 -39 103z"/> <path d="M6085 21770 c-11 -17 5 -30 36 -30 18 0 29 5 29 14 0 23 -53 36 -65 16z"/> <path d="M9025 21770 c-24 -4 -32 -13 -41 -45 -26 -84 -10 -150 41 -173 52 -24 105 39 105 125 -1 74 -36 106 -105 93z m55 -35 c13 -16 17 -97 6 -131 -3 -12 -17 -26 -31 -32 -22 -10 -26 -9 -40 17 -27 54 -29 103 -5 134 24 30 51 35 70 12z"/> <path d="M1982 21758 c-12 -12 -17 -48 -6 -48 3 0 14 10 24 22 26 32 66 13 76 -37 9 -52 -3 -106 -27 -112 -21 -6 -26 -23 -6 -23 66 1 92 163 33 202 -18 12 -81 9 -94 -4z"/> <path d="M5488 21747 c-25 -23 -44 -100 -32 -132 11 -29 24 -3 24 49 0 57 12 76 46 76 45 0 68 -68 42 -124 -7 -18 -22 -28 -46 -32 -24 -5 -30 -9 -20 -15 16 -10 44 -3 69 19 27 23 27 141 1 165 -26 23 -55 21 -84 -6z"/> <path d="M8467 21763 c-4 -3 -7 -12 -7 -19 0 -9 8 -10 31 -4 42 12 67 -2 74 -43 10 -51 -7 -99 -43 -124 -36 -24 -22 -37 18 -16 59 29 80 144 35 193 -18 20 -93 29 -108 13z"/> <path d="M9595 21744 c-21 -22 -25 -37 -25 -85 0 -33 4 -59 10 -59 6 0 10 24 10 53 0 65 26 102 63 88 19 -7 22 -16 25 -72 3 -70 -8 -88 -57 -90 -26 -1 -26 -1 3 -9 29 -9 63 1 78 24 15 22 9 144 -8 160 -24 25 -71 20 -99 -10z"/> <path d="M11396 21754 c-9 -8 -16 -22 -16 -30 0 -12 6 -11 27 5 23 19 29 20 47 8 17 -12 22 -27 24 -75 3 -53 0 -62 -17 -72 -11 -6 -33 -7 -47 -4 -19 5 -25 4 -20 -5 4 -6 21 -11 37 -11 73 0 108 113 54 173 -29 30 -66 35 -89 11z"/> <path d="M12603 21763 c-18 -7 -16 -23 2 -23 20 0 28 -39 23 -110 -2 -33 -1 -60 4 -60 4 0 9 36 10 80 1 44 2 88 2 97 1 18 -19 26 -41 16z"/> <path d="M13206 21761 c-4 -5 -2 -12 4 -16 5 -3 10 -44 10 -91 0 -109 19 -113 22 -4 1 44 2 88 2 97 1 19 -28 30 -38 14z"/> <path d="M7280 21752 c0 -5 11 -19 25 -32 l25 -23 0 31 c0 27 -4 32 -25 32 -14 0 -25 -4 -25 -8z"/> <path d="M206 21731 c-3 -5 4 -11 16 -14 25 -7 33 -3 23 12 -8 13 -32 14 -39 2z"/> <path d="M2620 21732 c0 -5 14 -18 30 -30 28 -21 30 -21 30 -4 0 10 -5 23 -12 30 -14 14 -48 16 -48 4z"/> <path d="M3725 21730 c-18 -7 -18 -8 8 -15 30 -8 43 -2 32 14 -7 13 -12 13 -40 1z"/> <path d="M7923 21716 c15 -14 27 -31 27 -38 0 -8 3 -9 11 -1 6 6 9 21 7 34 -2 19 -10 25 -38 27 l-35 4 28 -26z"/> <path d="M10200 21730 c0 -16 41 -33 52 -22 6 6 7 15 4 21 -9 14 -56 15 -56 1z"/> <path d="M10816 21731 c-3 -5 1 -14 8 -20 16 -13 32 2 21 19 -8 12 -22 13 -29 1z"/> <path d="M1410 21720 c0 -5 7 -10 15 -10 8 0 15 5 15 10 0 6 -7 10 -15 10 -8 0 -15 -4 -15 -10z"/> <path d="M6700 21720 c0 -5 7 -10 15 -10 8 0 15 5 15 10 0 6 -7 10 -15 10 -8 0 -15 -4 -15 -10z"/> <path d="M8430 21661 c0 -24 27 -88 40 -96 15 -9 12 18 -5 41 -8 10 -15 31 -15 47 0 15 -4 27 -10 27 -5 0 -10 -8 -10 -19z"/> <path d="M11371 21641 c-1 -32 2 -42 10 -34 7 7 7 21 1 44 l-10 34 -1 -44z"/> <path d="M7322 21630 c0 -19 2 -27 5 -17 2 9 2 25 0 35 -3 9 -5 1 -5 -18z"/> <path d="M7951 21648 c-1 -10 -10 -23 -21 -30 -27 -17 -25 -28 5 -28 30 0 42 23 27 53 -9 18 -11 19 -11 5z"/> <path d="M2653 21624 c-26 -24 -29 -34 -9 -34 18 0 39 25 34 42 -2 9 -10 7 -25 -8z"/> <path d="M3726 21611 c-7 -11 22 -23 35 -15 5 3 9 9 9 15 0 12 -37 12 -44 0z"/> <path d="M1976 21591 c-3 -5 1 -14 9 -21 12 -10 15 -10 15 3 0 19 -16 31 -24 18z"/> <path d="M8457 21314 c-13 -13 -7 -23 21 -36 27 -13 27 -14 32 -137 3 -87 9 -126 18 -129 6 -2 12 0 12 5 1 4 2 73 3 153 l1 145 -40 3 c-22 2 -43 0 -47 -4z"/> <path d="M12584 21292 c-34 -27 -44 -56 -44 -127 0 -82 18 -119 64 -135 57 -19 95 13 116 97 16 60 3 122 -33 161 -25 27 -73 29 -103 4z m97 -60 c15 -38 5 -139 -17 -163 -26 -29 -61 -24 -79 11 -17 33 -20 116 -5 155 20 52 81 50 101 -3z"/> <path d="M4893 21290 c-34 -14 -43 -42 -43 -134 0 -82 1 -85 29 -105 75 -54 141 3 141 121 0 107 -46 150 -127 118z m66 -30 c15 0 31 -51 31 -96 0 -83 -49 -136 -91 -98 -16 14 -19 31 -19 101 0 77 2 84 23 93 12 5 28 7 35 4 8 -2 17 -4 21 -4z"/> <path d="M7874 21285 c-34 -23 -47 -68 -42 -141 4 -59 7 -69 34 -90 37 -30 61 -30 98 -1 51 41 55 189 6 229 -27 22 -68 23 -96 3z m76 -35 c28 -28 28 -144 0 -178 -43 -51 -80 -5 -80 100 0 92 34 124 80 78z"/> <path d="M6666 21274 c-11 -10 -16 -33 -15 -67 l1 -52 16 50 c15 44 21 50 48 53 45 4 55 -15 52 -98 -3 -66 -5 -73 -31 -88 -28 -17 -29 -16 -53 12 -28 32 -39 29 -30 -7 7 -29 61 -42 104 -26 38 15 42 24 42 120 0 71 -3 89 -18 102 -24 22 -95 22 -116 1z"/> <path d="M192 21260 c-19 -18 -22 -31 -22 -93 0 -82 4 -92 45 -107 53 -20 105 38 105 118 0 79 -78 129 -128 82z m73 -26 c26 -40 30 -88 9 -122 -20 -34 -62 -51 -75 -30 -10 15 -12 102 -3 147 8 40 44 43 69 5z"/> <path d="M3687 21274 c-11 -11 5 -34 23 -34 11 0 22 -4 25 -10 12 -20 25 -9 25 20 0 27 -3 30 -33 30 -19 0 -36 -3 -40 -6z"/> <path d="M6075 21260 c-12 -13 -19 -41 -22 -87 -5 -59 -2 -72 17 -95 26 -34 60 -36 100 -6 29 21 30 25 30 99 0 71 -2 78 -25 93 -33 22 -78 20 -100 -4z m79 -22 c18 -26 21 -109 6 -139 -16 -29 -76 -27 -84 4 -12 45 -6 125 10 141 22 22 50 20 68 -6z"/> <path d="M10791 21261 c-19 -15 -25 -30 -29 -74 -6 -75 1 -99 37 -120 56 -33 122 6 103 60 -8 22 -11 24 -12 8 -1 -35 -25 -55 -64 -55 l-36 0 0 71 c0 72 12 98 48 99 21 0 52 -39 52 -67 0 -22 2 -25 10 -13 5 8 10 29 10 47 0 57 -69 83 -119 44z"/> <path d="M11980 21265 c-8 -9 -14 -50 -15 -101 -3 -76 -1 -86 18 -99 30 -21 70 -19 101 6 24 19 26 26 26 98 0 63 -4 81 -18 94 -24 22 -95 22 -112 2z m84 -27 c10 -13 16 -43 16 -74 0 -58 -22 -88 -62 -82 -19 2 -25 12 -32 50 -13 67 6 128 39 128 13 0 31 -10 39 -22z"/> <path d="M13180 21272 c0 -5 9 -17 20 -27 17 -15 20 -31 20 -102 0 -63 3 -84 13 -80 8 3 12 33 12 108 l0 104 -32 3 c-18 2 -33 -1 -33 -6z"/> <path d="M1998 21258 c-12 -9 -17 -32 -18 -78 -3 -95 3 -107 9 -20 6 72 7 75 33 78 22 3 30 -3 45 -30 l18 -33 3 35 c5 52 -48 80 -90 48z"/> <path d="M5494 21255 c-4 -10 -1 -21 7 -25 9 -6 13 -31 14 -77 0 -38 4 -68 10 -68 6 0 10 37 10 90 0 78 -2 90 -18 93 -9 2 -20 -4 -23 -13z"/> <path d="M797 21248 c-19 -14 -32 -124 -16 -134 5 -3 9 19 9 49 0 59 16 83 48 73 35 -11 37 -136 2 -136 -5 0 -10 -4 -10 -10 0 -15 36 -12 49 3 12 16 18 137 7 155 -10 16 -68 15 -89 0z"/> <path d="M9605 21251 c-6 -11 5 -18 40 -23 12 -2 20 3 20 12 0 18 -50 26 -60 11z"/> <path d="M2596 21241 c-7 -11 18 -33 27 -24 4 3 7 12 7 20 0 15 -26 18 -34 4z"/> <path d="M3112 21239 c2 -6 8 -10 13 -10 5 0 11 4 13 10 2 6 -4 11 -13 11 -9 0 -15 -5 -13 -11z"/> <path d="M9010 21240 c0 -5 6 -10 14 -10 8 0 18 5 21 10 3 6 -3 10 -14 10 -12 0 -21 -4 -21 -10z"/> <path d="M10210 21239 c0 -5 4 -7 10 -4 19 11 49 -15 56 -49 8 -47 -2 -73 -34 -85 l-27 -9 26 -1 c38 -1 59 28 59 81 0 31 -6 50 -18 61 -21 19 -72 23 -72 6z"/> <path d="M11400 21243 c0 -5 9 -19 20 -33 l20 -25 0 33 c0 25 -4 32 -20 32 -11 0 -20 -3 -20 -7z"/> <path d="M1410 21221 c0 -12 6 -21 15 -21 8 0 15 4 15 9 0 5 -7 14 -15 21 -13 10 -15 9 -15 -9z"/> <path d="M4345 21221 c-3 -6 1 -13 9 -18 20 -11 24 -47 7 -67 -18 -22 -8 -31 13 -11 9 9 16 31 16 49 0 42 -29 72 -45 47z"/> <path d="M3736 21183 c-8 -31 0 -117 12 -121 9 -3 12 17 12 67 0 66 -12 94 -24 54z"/> <path d="M2061 21106 c-7 -8 -8 -17 -3 -20 6 -3 15 1 21 8 7 8 8 17 3 20 -6 3 -15 -1 -21 -8z"/> <path d="M2590 20822 c-42 -20 -62 -59 -68 -129 -6 -71 4 -117 34 -153 21 -25 33 -30 68 -30 51 0 86 33 104 96 16 55 15 92 -4 147 -24 70 -77 98 -134 69z m77 -54 c20 -19 23 -31 23 -98 0 -86 -22 -130 -63 -130 -46 0 -67 39 -67 125 0 67 13 103 42 115 34 13 39 12 65 -12z"/> <path d="M5495 20788 c-38 -20 -45 -40 -45 -123 0 -91 10 -110 66 -121 68 -13 117 79 94 176 -11 44 -17 53 -47 65 -42 18 -42 18 -68 3z m60 -42 c22 -16 32 -107 16 -148 -9 -23 -17 -28 -45 -28 -41 0 -46 10 -46 100 0 55 4 71 18 79 23 14 35 13 57 -3z"/> <path d="M10197 20793 c-13 -13 -7 -32 13 -38 18 -6 20 -15 20 -106 0 -89 2 -99 18 -99 17 0 19 10 18 113 -1 61 -5 118 -9 125 -9 13 -49 17 -60 5z"/> <path d="M185 20764 c-12 -13 -15 -34 -13 -100 2 -46 7 -85 13 -87 6 -1 9 25 7 70 -2 40 1 80 7 92 29 53 91 -1 91 -78 0 -51 -20 -84 -60 -100 l-25 -10 25 0 c14 -1 38 10 54 23 25 20 30 31 34 83 3 43 0 69 -12 91 -15 29 -21 32 -61 32 -27 0 -50 -6 -60 -16z"/> <path d="M1394 20772 c-16 -10 -28 -52 -14 -52 6 0 13 7 16 15 8 21 57 19 77 -3 10 -10 17 -35 17 -55 0 -20 5 -37 10 -37 22 0 1 115 -24 132 -6 4 -24 8 -41 8 -16 0 -35 -4 -41 -8z"/> <path d="M3100 20760 c-11 -11 -20 -30 -20 -42 1 -22 1 -23 15 -4 8 11 15 23 15 28 0 17 50 7 60 -12 14 -25 30 -26 30 -1 0 48 -64 67 -100 31z"/> <path d="M6076 20755 c-17 -26 -23 -165 -7 -165 5 0 6 28 4 63 -4 51 -2 66 11 80 22 21 50 22 70 1 21 -21 22 -117 1 -134 -8 -7 -15 -16 -15 -21 0 -15 19 -10 40 11 31 31 29 138 -3 168 -32 30 -80 29 -101 -3z"/> <path d="M13213 20773 c-20 -8 -15 -23 7 -23 14 0 25 -11 34 -30 13 -33 26 -30 26 6 0 13 -10 30 -22 38 -24 17 -26 17 -45 9z"/> <path d="M4896 20762 c-3 -5 1 -18 9 -28 8 -10 15 -28 15 -39 1 -19 1 -19 11 -2 15 25 7 71 -13 75 -9 2 -19 -1 -22 -6z"/> <path d="M6676 20745 c-22 -20 -26 -32 -26 -79 0 -66 16 -86 70 -86 30 0 43 5 54 23 21 34 27 70 16 106 -18 62 -68 78 -114 36z m77 -35 c22 -51 21 -55 -5 -90 -13 -18 -31 -30 -45 -30 -21 0 -23 4 -23 58 0 79 8 102 34 102 15 0 26 -11 39 -40z"/> <path d="M7296 20755 c-3 -8 -12 -15 -20 -15 -9 0 -18 -10 -21 -23 -10 -37 -1 -110 13 -115 9 -3 12 14 12 61 0 45 5 68 15 77 21 18 35 9 61 -40 l24 -45 0 35 c0 20 -7 46 -16 58 -17 25 -59 29 -68 7z"/> <path d="M8477 20752 c-10 -10 -17 -25 -16 -33 0 -8 5 -4 11 9 17 34 54 29 75 -10 l18 -33 3 30 c6 50 -57 75 -91 37z"/> <path d="M10815 20758 c-3 -8 -1 -27 5 -42 5 -15 10 -52 10 -82 0 -30 4 -54 10 -54 14 0 8 182 -7 188 -7 2 -15 -3 -18 -10z"/> <path d="M12620 20764 c0 -4 14 -22 30 -41 41 -46 39 -74 -7 -112 l-38 -31 30 0 c23 0 34 7 48 31 37 65 5 159 -54 159 -5 0 -9 -3 -9 -6z"/> <path d="M4295 20750 c-10 -16 4 -30 31 -30 26 0 31 9 12 28 -15 15 -35 16 -43 2z"/> <path d="M1997 20744 c-8 -9 14 -54 24 -48 14 8 10 54 -4 54 -8 0 -16 -3 -20 -6z"/> <path d="M7886 20742 c-3 -6 6 -17 20 -27 25 -16 26 -16 22 7 -3 23 -31 37 -42 20z"/> <path d="M11425 20740 c-22 -6 -25 -8 -9 -9 12 0 27 -8 34 -16 16 -19 36 -4 27 19 -7 17 -7 17 -52 6z"/> <path d="M11986 20737 c-17 -12 -21 -36 -17 -99 2 -52 21 -28 21 27 0 40 4 57 15 61 16 6 21 24 7 24 -5 0 -16 -6 -26 -13z"/> <path d="M12060 20710 c11 -21 20 -45 20 -52 -1 -20 -36 -58 -54 -58 -8 0 -18 -4 -21 -10 -4 -6 6 -10 23 -10 64 0 103 99 58 149 -34 37 -49 26 -26 -19z"/> <path d="M832 20727 c34 -13 45 -60 22 -95 -18 -27 -11 -41 14 -26 21 13 29 99 11 120 -6 8 -26 14 -43 13 l-31 -1 27 -11z"/> <path d="M9052 20724 c1 -9 9 -19 16 -22 9 -3 13 2 10 14 -1 9 -9 19 -16 22 -9 3 -13 -2 -10 -14z"/> <path d="M12571 20726 c-16 -18 -10 -108 7 -114 9 -3 12 14 12 62 0 36 -2 66 -4 66 -2 0 -9 -6 -15 -14z"/> <path d="M13166 20718 c-9 -36 -7 -96 4 -103 6 -4 10 11 10 37 0 24 3 53 6 66 4 12 2 22 -4 22 -5 0 -12 -10 -16 -22z"/> <path d="M1350 20667 c0 -30 32 -96 38 -78 2 7 -1 18 -7 24 -6 6 -11 26 -11 44 0 18 -4 33 -10 33 -5 0 -10 -11 -10 -23z"/> <path d="M4921 20628 c-1 -27 4 -48 9 -48 12 0 12 47 0 75 -6 15 -9 8 -9 -27z"/> <path d="M2010 20625 c0 -22 4 -34 10 -30 6 3 10 17 10 30 0 13 -4 27 -10 30 -6 4 -10 -8 -10 -30z"/> <path d="M13257 20631 c-5 -22 -14 -32 -32 -37 -18 -4 -23 -10 -16 -17 5 -5 21 -7 35 -3 29 7 43 44 28 71 -7 14 -10 12 -15 -14z"/> <path d="M8545 20620 c-5 -15 -15 -20 -41 -20 -37 0 -46 -15 -15 -25 43 -13 80 13 81 58 0 16 -19 6 -25 -13z"/> <path d="M3082 20611 c2 -14 9 -26 16 -29 17 -5 15 10 -3 34 -15 18 -15 18 -13 -5z"/> <path d="M3163 20604 c-28 -30 -28 -34 -5 -34 23 0 42 19 42 42 0 24 -10 21 -37 -8z"/> <path d="M7343 20617 c-4 -8 -17 -19 -28 -25 -18 -10 -17 -11 11 -12 30 0 44 13 44 41 0 14 -18 11 -27 -4z"/> <path d="M9045 20620 c-3 -5 3 -10 14 -10 12 0 21 5 21 10 0 6 -6 10 -14 10 -8 0 -18 -4 -21 -10z"/> <path d="M11455 20619 c-10 -15 3 -25 16 -12 7 7 7 13 1 17 -6 3 -14 1 -17 -5z"/> <path d="M8460 20287 c0 -8 11 -18 25 -21 25 -6 25 -7 25 -116 0 -91 3 -110 15 -110 12 0 15 20 17 115 0 63 1 121 2 128 1 7 -15 13 -41 15 -32 2 -43 0 -43 -11z"/> <path d="M11397 20293 c-14 -13 -6 -42 13 -48 18 -6 20 -15 20 -96 0 -59 4 -89 11 -89 8 0 10 23 7 77 -3 42 0 91 5 110 9 28 8 36 -4 44 -17 10 -43 12 -52 2z"/> <path d="M6080 20265 c-19 -20 -25 -40 -28 -91 -4 -57 -2 -68 19 -90 28 -30 67 -31 103 -3 24 19 26 26 26 94 0 70 -1 75 -29 94 -38 28 -62 26 -91 -4z m82 -40 c11 -14 10 -107 -1 -124 -9 -14 -65 -20 -77 -8 -10 10 -17 93 -10 120 11 45 60 51 88 12z"/> <path d="M9591 20264 c-17 -22 -21 -41 -21 -106 0 -85 -2 -83 66 -92 68 -9 79 6 79 109 0 74 -3 89 -19 101 -33 23 -82 18 -105 -12z m75 -18 c15 -12 19 -27 19 -81 0 -69 -9 -85 -50 -85 -33 0 -45 20 -45 73 0 49 24 107 45 107 6 0 20 -6 31 -14z"/> <path d="M200 20267 c-23 -11 -25 -19 -28 -85 -4 -94 6 -112 62 -112 62 0 79 23 80 106 1 58 -2 68 -23 85 -27 22 -56 24 -91 6z m60 -27 c24 -13 36 -82 20 -121 -13 -30 -47 -46 -75 -35 -11 4 -15 21 -15 63 0 100 17 122 70 93z"/> <path d="M6684 20266 c-18 -14 -18 -15 8 -25 26 -10 26 -11 21 -84 -4 -50 -2 -76 6 -81 13 -9 13 -13 15 101 1 69 -2 94 -12 98 -18 7 -15 7 -38 -9z"/> <path d="M805 20259 c-4 -6 0 -16 8 -22 8 -7 18 -25 23 -42 l8 -30 4 39 c2 21 1 44 -2 52 -6 17 -32 19 -41 3z"/> <path d="M1405 20259 c-7 -11 22 -49 37 -49 12 0 10 34 -4 48 -15 15 -25 15 -33 1z"/> <path d="M1999 20258 c-19 -15 -33 -135 -19 -158 6 -10 10 11 12 60 l3 75 32 3 c27 3 33 -1 39 -22 3 -14 10 -23 15 -20 11 6 11 35 1 51 -12 19 -65 26 -83 11z"/> <path d="M3708 20263 c-10 -2 -18 -11 -18 -19 0 -11 5 -12 18 -6 29 16 62 -3 62 -35 0 -15 3 -38 6 -50 5 -16 -2 -30 -24 -53 -35 -34 -24 -40 19 -9 26 19 29 26 29 79 0 48 -4 63 -22 80 -21 20 -35 22 -70 13z"/> <path d="M5486 20262 c-3 -5 4 -16 15 -26 18 -15 20 -27 18 -79 -2 -34 1 -63 6 -65 5 -1 9 37 10 88 0 86 -1 90 -22 90 -12 0 -24 -4 -27 -8z"/> <path d="M7275 20260 c-3 -6 2 -13 12 -17 29 -10 32 -22 26 -95 -4 -48 -2 -68 6 -68 6 0 11 3 11 8 1 4 2 46 3 95 l3 87 -27 0 c-16 0 -31 -5 -34 -10z"/> <path d="M10807 20263 c-14 -14 -6 -23 21 -23 41 0 54 -13 59 -62 5 -41 3 -46 -31 -76 -20 -18 -30 -32 -23 -32 8 0 26 11 41 25 22 21 26 32 26 84 0 41 -5 65 -16 75 -15 16 -65 22 -77 9z"/> <path d="M12596 20262 c-2 -4 6 -17 19 -29 24 -21 24 -21 31 -1 8 27 -35 54 -50 30z"/> <path d="M3141 20248 c14 -6 31 -23 36 -37 9 -23 11 -24 18 -8 10 24 -21 57 -54 56 l-26 -1 26 -10z"/> <path d="M4925 20248 c33 -17 45 -40 45 -81 0 -28 -6 -44 -22 -58 l-23 -18 22 -1 c29 0 43 28 43 87 -1 58 -18 83 -56 83 -27 -1 -27 -2 -9 -12z"/> <path d="M9072 20212 c21 -26 23 -27 26 -9 4 20 -13 37 -36 37 -9 0 -5 -10 10 -28z"/> <path d="M12050 20226 c0 -18 37 -63 45 -54 8 8 -22 68 -35 68 -6 0 -10 -6 -10 -14z"/> <path d="M2601 20208 c1 -13 5 -36 9 -53 7 -26 8 -22 9 23 0 29 -3 52 -9 52 -5 0 -9 -10 -9 -22z"/> <path d="M7880 20220 c0 -10 13 -14 37 -11 6 1 14 -3 18 -9 10 -17 25 -11 25 10 0 17 -7 20 -40 20 -22 0 -40 -4 -40 -10z"/> <path d="M9001 20203 c0 -25 1 -26 9 -8 12 27 12 35 0 35 -5 0 -10 -12 -9 -27z"/> <path d="M10200 20211 c0 -22 14 -28 25 -11 3 6 18 7 32 4 19 -5 24 -3 21 7 -2 8 -21 15 -41 17 -32 3 -37 0 -37 -17z"/> <path d="M13200 20221 c0 -11 26 -22 34 -14 12 12 5 23 -14 23 -11 0 -20 -4 -20 -9z"/> <path d="M11970 20165 c0 -25 5 -45 10 -45 6 0 10 20 10 45 0 25 -4 45 -10 45 -5 0 -10 -20 -10 -45z"/> <path d="M836 20127 c-5 -15 -6 -31 -2 -34 11 -11 18 5 14 34 l-4 28 -8 -28z"/> <path d="M1430 20125 c0 -14 5 -25 10 -25 6 0 10 11 10 25 0 14 -4 25 -10 25 -5 0 -10 -11 -10 -25z"/> <path d="M3165 20120 c-20 -22 -15 -36 10 -27 8 4 15 16 15 27 0 25 -2 25 -25 0z"/> <path d="M2064 20116 c-8 -22 3 -33 18 -18 9 9 9 15 0 24 -9 9 -13 7 -18 -6z"/> <path d="M12055 20121 c-3 -6 -17 -11 -31 -11 -14 0 -22 -4 -19 -10 10 -16 55 -12 62 5 7 19 -2 31 -12 16z"/> <path d="M12627 20116 c-3 -8 -2 -18 3 -21 13 -8 20 9 11 24 -6 10 -10 9 -14 -3z"/> <path d="M9030 20111 l-25 -7 28 -7 c29 -8 47 -3 47 14 0 10 -14 10 -50 0z"/> <path d="M1388 19808 c-37 -31 -48 -62 -48 -139 0 -69 3 -81 26 -108 20 -24 34 -31 62 -31 75 0 114 79 96 196 -11 72 -89 119 -136 82z m80 -48 c19 -18 22 -32 22 -95 0 -65 -3 -76 -22 -89 -28 -20 -47 -20 -73 0 -29 21 -29 152 -1 183 24 26 46 27 74 1z"/> <path d="M787 19804 c-14 -14 -7 -31 18 -42 24 -11 25 -14 25 -118 0 -80 3 -105 13 -101 9 3 12 38 12 133 l0 129 -30 3 c-17 2 -34 0 -38 -4z"/> <path d="M3091 19787 c-14 -17 -4 -27 25 -27 13 0 26 -5 30 -11 10 -16 26 15 18 35 -8 20 -57 21 -73 3z"/> <path d="M3697 19784 c-13 -13 -7 -23 16 -26 21 -3 22 -9 27 -103 7 -128 22 -102 18 31 -3 98 -3 99 -28 102 -14 2 -29 0 -33 -4z"/> <path d="M4283 19767 c-32 -38 -39 -217 -7 -184 4 4 6 36 5 71 -3 75 10 106 43 106 33 0 48 -23 54 -80 6 -60 -15 -100 -53 -100 -31 0 -33 -16 -4 -25 40 -13 73 24 83 93 14 98 -7 142 -68 142 -21 0 -39 -8 -53 -23z"/> <path d="M7272 19770 c-19 -18 -22 -31 -22 -103 0 -81 1 -83 29 -100 40 -23 56 -21 86 10 22 24 25 37 25 98 0 86 -16 115 -64 115 -19 0 -41 -9 -54 -20z m80 -27 c13 -12 18 -31 18 -71 0 -65 -18 -92 -62 -92 l-28 0 0 83 c0 46 3 87 7 90 12 12 46 7 65 -10z"/> <path d="M9605 19780 c-9 -15 3 -30 24 -30 17 0 18 -8 13 -91 -4 -76 -2 -91 9 -87 20 6 26 198 7 210 -18 11 -46 10 -53 -2z"/> <path d="M10194 19756 c-33 -33 -35 -38 -32 -97 2 -39 8 -64 16 -67 9 -3 12 15 12 66 0 77 20 110 59 97 20 -6 41 -57 41 -98 0 -31 -29 -77 -50 -77 -10 0 -22 -4 -25 -10 -9 -15 28 -12 63 6 l32 15 0 84 c0 77 -2 84 -25 99 -36 23 -53 20 -91 -18z"/> <path d="M1987 19762 c-19 -21 -22 -48 -8 -57 6 -3 13 11 17 30 5 26 11 35 21 31 8 -3 20 -6 27 -6 7 0 19 -24 26 -53 11 -46 10 -58 -4 -85 -9 -17 -12 -33 -8 -36 14 -8 28 8 41 50 11 34 11 49 1 80 -7 22 -20 44 -29 51 -24 18 -66 16 -84 -5z"/> <path d="M8477 19765 c-11 -8 -17 -21 -14 -32 4 -16 6 -15 12 5 5 15 15 22 34 22 21 0 30 -8 44 -40 22 -52 22 -72 -3 -103 -24 -30 -25 -37 -5 -37 18 0 45 62 45 104 0 48 -34 96 -67 96 -16 0 -36 -7 -46 -15z"/> <path d="M11993 19764 c-4 -11 1 -22 13 -31 15 -11 19 -27 19 -76 0 -34 4 -63 9 -64 7 -2 10 63 6 175 0 18 -40 15 -47 -4z"/> <path d="M10812 19761 c-12 -7 -11 -14 2 -39 11 -21 14 -44 9 -81 -5 -43 -3 -51 10 -51 14 0 16 13 14 87 -2 85 -9 101 -35 84z"/> <path d="M187 19754 c-10 -11 3 -24 23 -24 10 0 23 -7 28 -17 9 -14 10 -14 16 5 4 12 4 26 1 32 -7 11 -58 14 -68 4z"/> <path d="M2627 19754 c-3 -4 4 -15 16 -24 17 -14 22 -29 22 -63 0 -54 -5 -61 -50 -61 -44 0 -45 -11 -3 -20 24 -5 37 -1 55 16 42 40 27 158 -21 158 -7 0 -15 -3 -19 -6z"/> <path d="M7877 19753 c-14 -14 -6 -22 25 -25 25 -2 35 -9 42 -30 15 -42 -3 -82 -37 -86 -15 -2 -27 -8 -27 -13 0 -18 33 -22 59 -8 24 13 26 21 27 79 1 36 -3 71 -8 78 -11 13 -70 17 -81 5z"/> <path d="M11388 19742 c-12 -14 -9 -15 20 -9 19 4 43 2 54 -4 24 -13 35 -5 19 15 -16 19 -77 18 -93 -2z"/> <path d="M13187 19742 c-12 -13 -16 -34 -15 -73 l2 -54 3 50 c5 71 51 102 75 50 16 -35 30 -31 26 8 -3 29 -6 32 -39 35 -24 2 -40 -3 -52 -16z"/> <path d="M2577 19743 c-4 -3 -7 -27 -7 -52 0 -33 3 -42 10 -31 5 8 10 26 10 41 0 14 5 30 12 37 9 9 9 12 -3 12 -9 0 -19 -3 -22 -7z"/> <path d="M9010 19744 c0 -3 5 -15 12 -27 11 -21 11 -21 18 -2 4 11 6 23 3 28 -5 8 -33 10 -33 1z"/> <path d="M12590 19744 c0 -8 32 -33 43 -34 4 0 7 9 7 20 0 15 -7 20 -25 20 -14 0 -25 -3 -25 -6z"/> <path d="M6690 19731 c0 -5 7 -14 15 -21 13 -10 15 -9 15 9 0 12 -6 21 -15 21 -8 0 -15 -4 -15 -9z"/> <path d="M3145 19718 c-2 -7 -5 -46 -7 -86 -2 -52 0 -72 10 -72 9 0 12 24 12 85 0 79 -5 102 -15 73z"/> <path d="M4910 19681 c0 -11 5 -23 10 -26 6 -4 10 5 10 19 0 14 -4 26 -10 26 -5 0 -10 -9 -10 -19z"/> <path d="M239 19668 c-7 -17 -6 -78 2 -78 5 0 9 18 9 40 0 32 -6 51 -11 38z"/> <path d="M13257 19641 c-4 -20 -14 -31 -32 -35 -28 -7 -25 -26 5 -26 26 0 50 27 50 55 0 35 -17 39 -23 6z"/> <path d="M11394 19599 c-4 -8 58 -17 75 -11 6 2 11 8 11 12 0 10 -79 9 -86 -1z"/> <path d="M13177 19352 c-40 -24 -67 -81 -74 -155 -7 -81 10 -142 52 -184 37 -37 67 -41 117 -17 46 22 65 51 79 123 34 163 -67 298 -174 233z m98 -58 c46 -50 45 -189 -2 -244 -31 -37 -62 -38 -94 -4 -22 24 -24 34 -24 124 0 90 2 100 24 124 31 33 65 33 96 0z"/> <path d="M1995 19319 c-45 -23 -59 -58 -60 -150 0 -113 12 -129 96 -129 79 0 89 15 89 133 0 101 -8 123 -55 143 -39 16 -43 16 -70 3z m79 -61 c25 -35 22 -152 -4 -178 -24 -24 -57 -26 -82 -3 -25 22 -26 157 -1 185 23 25 68 23 87 -4z"/> <path d="M9620 19313 c-8 -3 -25 -15 -37 -26 -21 -18 -23 -30 -23 -114 0 -80 3 -96 20 -113 20 -20 93 -28 116 -12 21 15 44 82 44 132 0 46 -21 114 -39 124 -14 8 -67 14 -81 9z m46 -41 c24 -17 44 -59 44 -95 0 -85 -56 -142 -100 -102 -27 24 -29 158 -3 187 17 19 40 23 59 10z"/> <path d="M11384 19306 c-18 -14 -18 -15 14 -26 l32 -12 2 -86 c0 -48 0 -99 -1 -114 -2 -22 2 -28 18 -28 20 0 21 5 21 134 0 113 -2 135 -16 140 -25 10 -49 7 -70 -8z"/> <path d="M3713 19300 c-35 -14 -55 -55 -60 -123 -4 -46 -1 -67 11 -82 14 -19 15 -14 16 65 1 78 3 86 25 103 34 24 61 9 75 -43 21 -77 -11 -150 -65 -150 -34 0 -32 -16 2 -23 36 -7 79 18 94 55 6 16 10 56 7 94 -4 59 -7 69 -34 90 -32 26 -38 27 -71 14z"/> <path d="M210 19290 c0 -5 9 -10 19 -10 35 0 61 -47 61 -111 0 -50 -3 -60 -26 -78 -61 -48 -82 -11 -71 121 5 60 4 68 -9 58 -22 -19 -20 -182 4 -202 31 -27 53 -29 87 -8 41 26 45 35 45 121 0 63 -3 72 -26 94 -27 25 -84 35 -84 15z"/> <path d="M3101 19281 c-19 -12 -4 -31 25 -31 27 0 33 24 8 34 -19 7 -16 8 -33 -3z"/> <path d="M6680 19277 c-23 -12 -25 -18 -28 -96 -2 -52 1 -88 9 -97 26 -32 108 -26 131 10 4 6 8 46 8 88 0 68 -3 79 -22 92 -27 19 -64 20 -98 3z m90 -111 c0 -59 -13 -76 -60 -76 -46 0 -53 137 -9 171 21 16 23 15 46 -11 18 -22 23 -40 23 -84z"/> <path d="M4874 19259 c-12 -14 -19 -40 -22 -83 -4 -56 -1 -66 19 -85 26 -24 97 -29 117 -9 16 16 16 170 0 186 -20 20 -92 15 -114 -9z m96 -28 c12 -22 13 -101 2 -117 -12 -18 -41 -24 -67 -14 -22 8 -25 15 -25 60 0 67 13 90 50 90 19 0 33 -7 40 -19z"/> <path d="M2582 19253 c4 -24 58 -25 58 -1 0 13 -8 18 -31 18 -23 0 -30 -4 -27 -17z"/> <path d="M6134 19247 c10 -15 23 -27 28 -27 16 0 4 22 -22 39 l-24 16 18 -28z"/> <path d="M7890 19260 c0 -5 9 -10 20 -10 28 0 43 -43 36 -103 -4 -34 -2 -47 6 -45 19 7 19 129 0 151 -16 18 -62 24 -62 7z"/> <path d="M7310 19250 c0 -5 4 -10 10 -10 5 0 17 -14 25 -30 17 -34 40 -31 29 3 -10 35 -64 66 -64 37z"/> <path d="M12001 19233 c-27 -26 -35 -48 -32 -95 2 -38 21 -15 21 25 0 33 6 49 24 66 l23 22 22 -36 c11 -20 21 -40 21 -46 0 -5 5 -9 10 -9 19 0 10 47 -15 74 -30 33 -38 33 -74 -1z"/> <path d="M5506 19241 c-3 -5 -1 -22 5 -38 5 -15 8 -42 4 -60 -4 -24 -2 -33 7 -33 17 0 18 132 1 137 -6 2 -14 0 -17 -6z"/> <path d="M9020 19226 c0 -8 5 -18 10 -21 6 -3 10 3 10 14 0 12 -4 21 -10 21 -5 0 -10 -6 -10 -14z"/> <path d="M10210 19234 c0 -15 22 -44 31 -39 18 12 10 45 -11 45 -11 0 -20 -3 -20 -6z"/> <path d="M12620 19234 c0 -10 45 -42 52 -37 14 8 -12 43 -32 43 -11 0 -20 -3 -20 -6z"/> <path d="M1450 19222 c0 -5 7 -17 15 -28 14 -19 14 -19 15 2 0 12 -7 24 -15 28 -8 3 -15 2 -15 -2z"/> <path d="M7258 19188 c-4 -42 1 -70 13 -63 12 8 12 95 0 95 -5 0 -11 -15 -13 -32z"/> <path d="M12655 19150 c-4 -6 -19 -16 -33 -21 -23 -9 -25 -12 -10 -20 22 -12 46 -2 54 23 7 22 -1 35 -11 18z"/> <path d="M7340 19125 c-7 -9 -10 -18 -7 -21 10 -11 37 5 37 21 0 19 -14 19 -30 0z"/> <path d="M820 19120 c-12 -8 -11 -10 8 -10 12 0 22 5 22 10 0 13 -11 13 -30 0z"/> <path d="M6145 19119 c-10 -15 3 -25 16 -12 7 7 7 13 1 17 -6 3 -14 1 -17 -5z"/> <path d="M12055 19119 c-4 -6 -5 -13 -2 -16 7 -7 27 6 27 18 0 12 -17 12 -25 -2z"/> <path d="M1983 18845 c-39 -17 -44 -45 -9 -45 40 0 45 -19 47 -157 1 -131 5 -147 37 -136 9 4 12 47 12 173 0 144 -2 169 -16 174 -22 9 -35 7 -71 -9z"/> <path d="M5483 18800 c-31 -13 -46 -75 -37 -161 6 -66 8 -70 40 -85 28 -13 38 -14 69 -3 46 17 69 58 69 124 0 107 -58 158 -141 125z m85 -48 c7 -9 12 -44 12 -81 0 -53 -4 -69 -22 -88 -41 -44 -69 -26 -81 51 -10 64 3 126 27 136 25 9 46 3 64 -18z"/> <path d="M1385 18790 c-4 -6 5 -20 19 -31 24 -19 26 -26 26 -105 0 -49 4 -84 10 -84 6 0 10 43 10 109 0 90 -3 110 -16 115 -23 9 -42 7 -49 -4z"/> <path d="M3107 18789 c-29 -17 -47 -65 -47 -123 0 -58 20 -96 49 -96 11 0 9 6 -7 23 -33 35 -31 125 2 156 43 40 80 9 89 -74 4 -45 -14 -82 -47 -95 -19 -7 -19 -9 -3 -15 9 -4 24 -5 32 -2 20 8 45 72 45 114 0 38 -24 103 -43 115 -17 11 -49 9 -70 -3z"/> <path d="M8450 18769 c-17 -23 -23 -46 -24 -99 -1 -90 15 -110 90 -110 71 0 84 18 84 120 0 67 -3 79 -23 98 -16 15 -36 22 -64 22 -35 0 -45 -5 -63 -31z m104 -21 c24 -34 21 -119 -5 -152 -45 -57 -96 -11 -92 82 2 29 8 62 13 72 15 28 64 26 84 -2z"/> <path d="M10176 18778 c-12 -16 -16 -47 -16 -110 0 -85 1 -89 25 -100 31 -14 43 -4 21 17 -20 20 -23 154 -4 173 20 20 64 14 81 -11 37 -57 29 -124 -21 -164 l-27 -23 32 0 c44 0 63 38 63 123 0 89 -22 117 -90 117 -39 0 -52 -4 -64 -22z"/> <path d="M11383 18778 c-38 -42 -38 -186 -1 -210 7 -4 22 -8 32 -8 17 0 16 3 -8 25 -23 21 -26 32 -26 85 0 76 12 100 48 100 44 0 52 -16 52 -101 0 -69 -2 -78 -20 -84 -28 -9 -25 -25 4 -25 30 0 42 15 56 72 15 60 6 113 -25 144 -32 32 -84 32 -112 2z"/> <path d="M3692 18773 c2 -10 13 -19 26 -21 12 -2 23 -9 23 -15 3 -26 -3 -133 -7 -149 -4 -12 0 -18 11 -18 14 0 15 14 13 108 l-3 107 -33 3 c-28 3 -33 0 -30 -15z"/> <path d="M4292 18762 c-29 -26 -32 -34 -32 -90 0 -33 5 -64 10 -67 6 -4 10 18 10 58 0 49 4 68 18 80 24 22 35 21 56 -2 13 -14 16 -33 14 -72 -3 -50 -6 -55 -35 -69 -42 -19 -42 -30 0 -30 53 0 67 24 67 113 0 75 -1 77 -30 92 -39 20 -41 20 -78 -13z"/> <path d="M6677 18765 c-24 -23 -27 -33 -27 -94 0 -78 18 -104 72 -104 50 0 78 40 78 114 0 50 -4 64 -25 84 -31 32 -63 32 -98 0z m67 -24 c45 -50 21 -151 -36 -151 l-28 0 0 75 c0 60 3 76 18 84 23 14 26 14 46 -8z"/> <path d="M9617 18783 c-14 -13 -6 -28 19 -40 20 -9 26 -9 31 3 10 26 -31 57 -50 37z"/> <path d="M13205 18780 c-3 -5 -1 -18 5 -29 5 -11 10 -53 10 -95 0 -41 4 -77 9 -81 12 -7 19 173 8 198 -9 19 -23 22 -32 7z"/> <path d="M805 18768 c-11 -6 -23 -16 -27 -22 -11 -16 -9 -118 2 -136 7 -11 10 0 10 37 0 72 14 105 43 101 12 -2 26 -13 32 -26 13 -30 31 -22 28 13 -1 15 -4 29 -6 31 -11 11 -65 13 -82 2z"/> <path d="M7890 18772 c0 -4 7 -18 16 -30 11 -16 15 -42 14 -90 -3 -103 3 -98 10 8 3 52 4 101 2 108 -4 13 -42 17 -42 4z"/> <path d="M191 18744 c-22 -29 -28 -97 -11 -124 7 -11 10 -3 10 30 0 69 9 90 36 90 16 0 28 -9 39 -30 21 -40 19 -57 -10 -86 -30 -30 -31 -34 -5 -34 24 0 60 54 60 90 0 14 -9 40 -20 58 -26 42 -69 44 -99 6z"/> <path d="M7285 18760 c-4 -6 4 -19 17 -29 23 -19 23 -19 31 1 4 11 5 24 1 29 -7 12 -41 11 -49 -1z"/> <path d="M2580 18741 c-12 -24 -14 -104 -1 -97 4 3 11 24 14 47 6 49 10 53 35 45 48 -16 51 -111 5 -122 -22 -6 -23 -8 -8 -16 12 -8 23 -4 41 13 31 29 34 107 6 132 -26 24 -79 22 -92 -2z"/> <path d="M4910 18725 c0 -9 5 -15 11 -13 6 2 11 8 11 13 0 5 -5 11 -11 13 -6 2 -11 -4 -11 -13z"/> <path d="M9045 18730 c-3 -6 1 -13 10 -16 19 -8 30 0 20 15 -8 14 -22 14 -30 1z"/> <path d="M10826 18683 c8 -73 14 -80 16 -20 0 26 1 52 2 59 1 6 -5 13 -12 16 -9 3 -11 -10 -6 -55z"/> <path d="M12030 18731 c0 -5 7 -12 16 -15 22 -9 24 -8 24 9 0 8 -9 15 -20 15 -11 0 -20 -4 -20 -9z"/> <path d="M9652 18660 c-1 -25 -5 -56 -8 -70 -5 -19 -4 -22 5 -14 8 7 11 33 8 70 -3 51 -3 53 -5 14z"/> <path d="M7318 18646 c-7 -39 -4 -55 8 -44 3 3 4 23 2 44 l-3 39 -7 -39z"/> <path d="M865 18634 c-8 -20 -24 -38 -35 -41 -28 -7 -25 -23 4 -23 34 0 56 26 56 66 0 43 -6 43 -25 -2z"/> <path d="M6134 18645 c-19 -14 -18 -14 4 -15 13 0 22 6 22 15 0 19 -1 19 -26 0z"/> <path d="M9050 18634 c0 -17 22 -14 28 4 2 7 -3 12 -12 12 -9 0 -16 -7 -16 -16z"/> <path d="M8998 18339 c-26 -15 -22 -39 6 -39 14 0 28 -5 32 -12 4 -6 9 -72 11 -146 1 -74 5 -137 8 -140 2 -3 10 0 18 6 9 8 12 50 10 174 l-2 163 -33 2 c-18 2 -41 -2 -50 -8z"/> <path d="M10208 18313 c-24 -6 -23 -26 2 -48 17 -16 20 -31 20 -117 0 -89 2 -99 18 -96 15 3 17 18 19 123 2 102 0 122 -14 133 -9 6 -19 11 -22 11 -3 -1 -14 -3 -23 -6z"/> <path d="M10784 18297 c-24 -21 -28 -32 -31 -103 -6 -93 5 -127 47 -149 69 -36 140 30 140 131 0 115 -85 181 -156 121z m101 -48 c17 -32 20 -106 5 -143 -5 -15 -21 -31 -35 -38 -22 -10 -29 -9 -47 10 -18 18 -22 33 -22 97 -1 68 2 79 21 95 29 23 60 15 78 -21z"/> <path d="M1989 18294 c-11 -14 -10 -18 6 -30 11 -7 25 -18 32 -24 19 -16 23 -12 23 24 0 45 -34 62 -61 30z"/> <path d="M6700 18293 c-44 -13 -44 -14 -15 -37 27 -22 29 -28 29 -99 1 -119 21 -99 24 24 3 110 -2 122 -38 112z"/> <path d="M6080 18277 c0 -14 48 -53 56 -45 2 2 5 15 6 29 3 20 -2 24 -29 27 -24 2 -33 -1 -33 -11z"/> <path d="M9592 18267 c-18 -19 -22 -35 -22 -95 0 -72 0 -72 33 -88 24 -12 42 -13 67 -7 32 9 36 13 43 59 8 55 2 121 -15 141 -18 22 -82 16 -106 -10z m85 -34 c15 -57 9 -111 -14 -132 -27 -26 -28 -26 -53 -1 -25 25 -27 105 -4 138 22 32 62 29 71 -5z"/> <path d="M13182 18267 c-20 -21 -23 -33 -20 -97 2 -50 7 -75 16 -78 10 -3 12 9 7 54 -11 100 20 141 72 92 29 -27 42 -15 22 20 -20 37 -67 41 -97 9z"/> <path d="M3702 18268 c-7 -7 -12 -19 -12 -27 1 -14 3 -13 14 2 36 47 74 -14 67 -110 0 -12 -10 -24 -21 -28 -26 -8 -26 -25 -1 -25 33 0 51 38 51 106 0 55 -3 64 -25 78 -29 19 -56 21 -73 4z"/> <path d="M810 18261 c0 -6 5 -13 10 -16 6 -3 10 -40 10 -81 0 -41 4 -74 9 -74 9 0 20 144 13 168 -5 14 -42 17 -42 3z"/> <path d="M5506 18252 c-2 -4 -1 -14 5 -22 5 -8 9 -26 10 -40 1 -20 3 -19 10 10 4 19 6 41 4 48 -5 14 -21 16 -29 4z"/> <path d="M12002 18243 c2 -10 10 -18 18 -18 8 0 16 8 18 18 2 12 -3 17 -18 17 -15 0 -20 -5 -18 -17z"/> <path d="M1465 18185 c0 -36 3 -65 8 -65 4 0 7 29 7 65 0 36 -3 65 -8 65 -4 0 -7 -29 -7 -65z"/> <path d="M4300 18236 c0 -19 27 -28 33 -11 7 15 -1 25 -20 25 -7 0 -13 -6 -13 -14z"/> <path d="M7900 18230 c27 -20 36 -19 27 5 -4 8 -17 15 -29 15 l-23 0 25 -20z"/> <path d="M8482 18238 c6 -18 28 -21 28 -4 0 9 -7 16 -16 16 -9 0 -14 -5 -12 -12z"/> <path d="M12602 18234 c2 -11 11 -20 22 -22 13 -3 17 1 14 14 -2 11 -11 20 -22 22 -13 3 -17 -1 -14 -14z"/> <path d="M2600 18221 c0 -11 5 -23 10 -26 6 -4 10 5 10 19 0 14 -4 26 -10 26 -5 0 -10 -9 -10 -19z"/> <path d="M11412 18224 c1 -9 9 -19 16 -22 9 -3 13 2 10 14 -1 9 -9 19 -16 22 -9 3 -13 -2 -10 -14z"/> <path d="M3112 18216 c1 -10 8 -17 13 -17 15 1 12 24 -3 29 -9 3 -13 -2 -10 -12z"/> <path d="M4932 18218 c7 -19 38 -22 38 -4 0 10 -9 16 -21 16 -12 0 -19 -5 -17 -12z"/> <path d="M7300 18221 c0 -11 40 -22 52 -15 5 3 6 10 3 15 -8 12 -55 12 -55 0z"/> <path d="M2030 18151 c0 -32 -3 -66 -6 -75 -4 -11 -1 -16 10 -16 13 0 16 12 16 69 0 39 -4 73 -10 76 -6 4 -10 -16 -10 -54z"/> <path d="M6120 18173 c0 -18 2 -33 4 -33 9 0 13 39 5 51 -6 10 -9 4 -9 -18z"/> <path d="M12020 18120 c0 -11 5 -20 10 -20 6 0 10 9 10 20 0 11 -4 20 -10 20 -5 0 -10 -9 -10 -20z"/> <path d="M13242 18103 c-28 -30 -22 -41 13 -25 15 7 25 20 25 32 0 26 -9 24 -38 -7z"/> <path d="M6120 18099 c0 -11 5 -17 10 -14 6 3 10 13 10 21 0 8 -4 14 -10 14 -5 0 -10 -9 -10 -21z"/> <path d="M11396 17821 c-44 -29 -55 -58 -56 -141 0 -84 17 -125 64 -150 25 -13 31 -12 64 5 55 29 74 75 69 160 -4 77 -16 104 -58 129 -35 21 -48 20 -83 -3z m64 -31 c37 -20 51 -121 25 -183 -47 -114 -128 -27 -106 113 11 69 39 93 81 70z"/> <path d="M2600 17813 c-8 -3 -25 -17 -37 -31 -20 -22 -23 -36 -23 -107 0 -76 2 -83 28 -108 31 -30 60 -34 101 -13 37 19 51 55 51 127 0 103 -50 158 -120 132z m70 -59 c8 -14 14 -49 14 -77 0 -87 -49 -133 -96 -90 -25 22 -26 148 -1 175 24 27 67 23 83 -8z"/> <path d="M6683 17810 c-53 -22 -72 -168 -30 -231 43 -64 132 -47 155 30 23 74 9 159 -30 194 -22 18 -59 21 -95 7z m87 -60 c14 -25 13 -113 -2 -145 -12 -26 -47 -42 -71 -32 -19 7 -47 69 -47 102 0 38 29 95 54 105 25 9 51 -3 66 -30z"/> <path d="M780 17785 c-25 -27 -37 -99 -26 -159 15 -77 92 -102 140 -45 22 26 26 40 26 97 0 92 -24 132 -78 132 -28 0 -45 -7 -62 -25z m93 -29 c13 -10 17 -28 17 -82 0 -67 -1 -70 -30 -87 -35 -21 -47 -16 -66 29 -17 41 -18 94 -2 129 13 28 51 34 81 11z"/> <path d="M12583 17788 c-16 -17 -22 -39 -24 -83 -4 -115 -3 -122 37 -141 34 -16 38 -16 69 0 39 21 45 38 45 127 0 52 -4 72 -21 93 -27 34 -77 36 -106 4z m97 -111 c0 -59 -3 -71 -22 -88 -28 -22 -54 -24 -62 -4 -14 37 -17 115 -7 148 14 41 36 50 68 28 19 -14 22 -25 23 -84z"/> <path d="M13180 17799 c-11 -8 -12 -12 -2 -16 35 -14 42 -34 42 -130 0 -71 3 -94 13 -90 9 3 12 36 12 123 l0 119 -25 3 c-14 1 -32 -3 -40 -9z"/> <path d="M4900 17787 c-35 -27 -50 -62 -50 -114 0 -40 5 -58 20 -73 25 -25 49 -27 27 -2 -12 13 -17 37 -17 84 0 62 1 66 26 72 37 10 63 -2 70 -30 9 -34 24 -30 24 6 0 53 -61 88 -100 57z"/> <path d="M1400 17773 c0 -10 9 -24 20 -31 12 -7 19 -16 16 -20 -11 -18 -9 -136 3 -140 9 -3 11 22 9 100 -3 98 -4 103 -25 106 -17 3 -23 -2 -23 -15z"/> <path d="M2000 17780 c-11 -7 -11 -11 -1 -24 18 -22 41 -20 41 3 0 22 -21 33 -40 21z"/> <path d="M3735 17781 c-3 -5 4 -16 16 -25 18 -12 22 -24 22 -82 0 -54 -4 -70 -19 -81 -15 -11 -16 -13 -2 -13 28 0 46 28 53 82 7 60 -5 102 -34 117 -24 13 -28 14 -36 2z"/> <path d="M3687 17766 c-3 -8 -3 -17 0 -20 7 -7 33 13 33 25 0 15 -27 10 -33 -5z"/> <path d="M9595 17753 c-20 -23 -25 -38 -25 -80 0 -70 16 -68 22 3 6 69 26 93 63 76 22 -10 25 -18 25 -62 0 -64 -13 -90 -45 -90 -14 0 -25 -4 -25 -10 0 -16 48 -12 75 6 23 15 25 23 25 84 0 52 -4 71 -18 83 -28 25 -68 21 -97 -10z"/> <path d="M10207 17773 c-14 -14 -6 -23 21 -23 40 0 52 -17 52 -74 0 -58 -5 -67 -40 -83 -23 -11 -23 -12 -4 -12 12 -1 33 10 48 24 22 20 26 33 26 77 0 68 -19 98 -64 98 -18 0 -36 -3 -39 -7z"/> <path d="M12047 17773 c-4 -3 0 -14 9 -24 43 -47 21 -154 -33 -162 l-28 -4 30 -1 c49 -2 78 30 83 94 4 47 1 58 -18 79 -25 26 -32 29 -43 18z"/> <path d="M236 17758 c30 -14 48 -78 33 -112 -7 -14 -16 -26 -21 -26 -4 0 -8 -4 -8 -10 0 -12 37 -13 44 -1 3 4 8 33 12 63 6 48 4 58 -15 77 -11 11 -31 21 -43 20 l-23 0 21 -11z"/> <path d="M3141 17759 c15 -6 29 -19 32 -29 6 -23 27 -27 27 -6 0 23 -29 46 -58 45 l-27 -1 26 -9z"/> <path d="M4296 17761 c-3 -4 5 -6 18 -4 17 4 28 -2 40 -18 18 -26 22 -104 6 -114 -13 -8 -13 -25 -1 -25 41 0 59 121 23 153 -19 18 -77 23 -86 8z"/> <path d="M6090 17762 c0 -4 16 -8 35 -8 19 0 35 4 35 8 0 4 -16 8 -35 8 -19 0 -35 -4 -35 -8z"/> <path d="M11982 17758 c-6 -7 -11 -35 -12 -63 -3 -77 -1 -95 10 -95 6 0 10 30 10 69 0 61 3 72 22 85 22 16 22 16 1 16 -11 0 -25 -6 -31 -12z"/> <path d="M3084 17736 c-3 -7 -1 -40 4 -72 l10 -59 1 73 c1 69 -4 88 -15 58z"/> <path d="M5536 17743 c-3 -3 -1 -14 5 -25 11 -20 29 -16 29 7 0 14 -24 27 -34 18z"/> <path d="M7297 17744 c-13 -13 -7 -24 14 -24 11 0 19 5 17 12 -5 14 -22 21 -31 12z"/> <path d="M8478 17743 c-31 -8 -19 -23 12 -16 21 4 36 0 49 -11 14 -13 20 -14 23 -4 13 33 -24 47 -84 31z"/> <path d="M10846 17741 c-7 -10 22 -37 30 -28 9 8 -3 37 -15 37 -5 0 -12 -4 -15 -9z"/> <path d="M177 17713 c-3 -16 -2 -44 3 -63 l8 -35 1 40 c1 22 4 50 7 63 4 12 2 22 -4 22 -5 0 -12 -12 -15 -27z"/> <path d="M6170 17690 c0 -53 -23 -90 -57 -90 -13 0 -14 -3 -5 -12 9 -9 18 -7 39 8 39 29 55 67 47 109 -9 52 -24 43 -24 -15z"/> <path d="M10178 17734 c-5 -4 -8 -32 -8 -63 0 -39 3 -52 11 -44 5 5 9 34 7 62 -2 29 -6 49 -10 45z"/> <path d="M8462 17659 c-2 -45 15 -61 60 -57 26 2 34 8 36 28 3 19 1 22 -10 13 -12 -11 -40 -17 -65 -14 -6 0 -14 16 -16 34 l-4 32 -1 -36z"/> <path d="M2020 17650 c0 -14 -3 -35 -6 -47 -4 -13 -2 -23 4 -23 14 0 24 59 12 78 -8 14 -9 13 -10 -8z"/> <path d="M4975 17630 c-4 -16 -15 -32 -26 -35 -21 -7 -26 -25 -6 -25 27 0 57 31 57 61 0 38 -17 38 -25 -1z"/> <path d="M9055 17649 c-10 -15 3 -25 16 -12 7 7 7 13 1 17 -6 3 -14 1 -17 -5z"/> <path d="M10848 17629 c-13 -13 -14 -19 -5 -19 14 0 37 20 37 32 0 13 -14 8 -32 -13z"/> <path d="M3161 17619 c-12 -12 -20 -23 -18 -25 7 -7 57 15 57 25 0 20 -18 20 -39 0z"/> <path d="M2109 17567 c-91 -69 -109 -164 -109 -569 l0 -227 -27 -19 c-29 -19 -108 -58 -268 -132 -49 -22 -103 -47 -120 -55 -68 -31 -104 -45 -116 -45 -7 0 -20 -6 -28 -13 -9 -7 -33 -19 -55 -26 -56 -19 -63 -7 -76 129 -6 63 -16 133 -20 155 -5 22 -10 62 -10 88 0 27 -6 94 -14 150 -8 56 -22 169 -32 251 -12 106 -22 159 -36 182 -45 77 -160 99 -234 45 -52 -37 -74 -72 -74 -118 0 -48 -8 -60 -45 -69 -40 -10 -75 -33 -75 -50 0 -18 14 -18 30 1 30 36 61 10 66 -55 4 -59 -8 -90 -35 -90 -25 0 -43 24 -50 67 -7 41 -24 50 -29 14 -8 -53 41 -111 92 -111 42 0 43 -1 50 -150 3 -58 8 -130 11 -160 4 -46 3 -51 -6 -33 -7 14 -25 25 -46 29 -47 9 -64 -10 -26 -28 40 -19 45 -73 9 -90 -42 -19 -28 -44 18 -32 17 4 29 17 37 41 8 25 14 32 19 22 10 -19 33 -336 25 -349 -3 -5 -34 -10 -68 -10 -78 0 -98 -11 -74 -38 10 -11 17 -35 17 -58 0 -68 20 -167 41 -201 18 -28 26 -32 72 -35 64 -4 62 2 78 -228 18 -260 44 -331 141 -381 45 -23 84 -24 140 -3 56 21 94 62 108 116 7 24 22 54 35 68 22 23 24 34 25 130 2 115 -3 136 -31 145 -17 6 -19 17 -19 112 0 99 1 105 21 110 21 6 21 7 4 19 -18 14 -13 34 10 34 8 0 18 -7 23 -16 10 -18 32 -11 32 10 0 21 42 53 100 76 30 12 69 28 85 35 17 7 50 21 75 30 47 18 103 42 132 56 32 16 103 39 121 39 11 0 17 -8 17 -24 0 -34 -10 -56 -25 -56 -19 0 -26 -15 -18 -36 6 -16 7 -16 19 1 20 28 35 7 34 -48 0 -29 3 -121 6 -206 l6 -154 -31 -24 -31 -24 21 -28 c18 -24 19 -33 9 -75 -12 -54 -6 -70 21 -63 24 7 34 -11 49 -91 31 -153 154 -220 293 -158 32 14 63 37 78 57 25 35 51 107 44 120 -11 16 -45 214 -45 256 0 25 -6 103 -14 172 -32 277 -40 439 -45 971 -7 623 -3 592 -83 650 -34 25 -51 30 -99 30 -49 0 -63 -5 -100 -33z"/> <path d="M8325 17434 c-149 -21 -242 -44 -321 -80 -95 -44 -131 -79 -134 -130 -8 -128 5 -185 49 -233 48 -51 111 -34 111 30 0 36 31 69 66 69 24 0 25 -2 22 -47 -3 -48 -3 -48 27 -46 17 1 55 9 85 17 80 21 191 36 311 43 122 7 118 9 138 -87 21 -105 39 -206 56 -305 21 -125 40 -241 59 -348 8 -45 22 -125 31 -177 40 -239 47 -278 62 -329 18 -65 9 -79 -38 -58 -63 27 -118 38 -190 36 -61 -2 -74 1 -88 18 -36 45 -95 35 -130 -20 -31 -50 -30 -172 1 -213 30 -39 40 -45 62 -40 14 4 37 -13 80 -57 85 -87 181 -129 372 -163 30 -5 38 -33 17 -57 -28 -31 -24 -133 7 -174 31 -42 84 -46 127 -9 26 23 28 30 31 119 l4 95 66 12 c37 6 104 15 149 20 46 5 87 11 92 15 5 3 29 9 53 14 121 26 277 105 369 188 175 158 250 283 299 503 8 37 21 62 38 78 l27 22 -23 19 -24 18 24 28 c34 39 58 29 58 -24 0 -22 -5 -43 -10 -46 -6 -4 -9 -14 -6 -23 3 -10 10 -68 16 -131 12 -124 37 -200 94 -286 36 -55 165 -195 179 -195 4 0 23 -11 40 -24 40 -30 143 -78 222 -104 33 -11 119 -24 190 -31 306 -26 516 47 681 238 41 47 74 91 74 98 0 7 -13 26 -29 42 -98 101 -207 116 -371 51 -126 -49 -235 -60 -370 -36 -60 10 -89 22 -137 54 -33 23 -65 42 -70 42 -15 0 -57 49 -50 57 4 4 78 6 165 5 189 -3 279 15 405 77 85 42 164 110 193 166 25 48 54 145 54 181 0 41 17 53 30 22 5 -13 14 -30 20 -38 5 -8 37 -73 71 -145 177 -374 298 -598 367 -685 62 -76 97 -100 181 -126 40 -12 52 -12 92 1 45 15 117 78 144 126 39 69 144 287 148 309 3 14 15 50 27 80 24 60 77 200 90 240 5 14 18 50 30 80 12 30 25 69 29 85 4 17 12 39 18 50 13 28 41 81 71 139 30 56 33 98 9 149 -17 36 -82 97 -103 97 -18 0 -54 45 -54 67 0 25 -44 63 -72 63 -34 0 -73 -27 -93 -64 -14 -26 -16 -39 -9 -46 8 -8 20 0 43 29 35 44 60 51 85 25 37 -37 0 -74 -74 -74 -35 0 -49 -17 -103 -130 -41 -87 -177 -408 -214 -505 -49 -129 -57 -137 -85 -82 -42 80 -101 205 -114 241 -10 29 -11 42 -3 52 16 19 5 40 -28 56 -30 14 -54 54 -113 192 -87 203 -109 235 -160 236 -57 0 -220 -60 -220 -81 0 -3 -12 -18 -27 -33 l-27 -27 -28 60 c-44 94 -132 163 -273 214 -51 18 -80 21 -192 20 -166 -2 -246 -25 -379 -109 -50 -32 -194 -177 -194 -196 0 -5 -12 -28 -27 -51 -36 -55 -57 -99 -79 -167 -28 -91 -45 -135 -55 -140 -5 -4 -24 -4 -43 -2 -37 4 -46 19 -46 79 0 34 -20 126 -45 207 -57 187 -207 382 -415 540 -52 40 -102 75 -110 79 -8 4 -30 16 -49 28 -39 23 -137 73 -225 114 -62 29 -261 95 -285 95 -8 0 -37 6 -65 14 -162 46 -452 59 -661 30z m823 -490 c86 -18 241 -99 343 -178 63 -49 79 -76 79 -130 0 -43 37 -78 91 -85 42 -6 42 -6 76 -91 31 -76 35 -98 40 -205 6 -129 -5 -205 -37 -265 -10 -19 -23 -45 -29 -57 -15 -34 -132 -147 -171 -167 -64 -33 -136 -54 -228 -67 -51 -7 -94 -10 -97 -7 -4 3 -1 24 6 46 12 42 12 48 -36 397 -9 61 -22 161 -30 223 -36 275 -46 344 -61 453 -18 121 -15 155 12 145 9 -3 28 -9 42 -12z m487 -324 c10 -11 15 -23 12 -27 -10 -9 -57 18 -57 34 0 19 24 16 45 -7z m1491 -118 c16 -12 25 -37 34 -86 10 -64 10 -72 -8 -95 -30 -40 -105 -64 -177 -57 -33 4 -106 9 -163 12 -74 5 -105 10 -109 20 -14 38 113 168 198 202 71 27 194 30 225 4z m-2575 -712 c22 -12 25 -41 7 -73 -7 -12 -15 -50 -19 -85 -3 -35 -9 -66 -12 -69 -4 -3 -18 2 -31 11 -44 28 -55 123 -25 204 9 24 46 30 80 12z m539 -519 c13 -25 13 -131 1 -164 -15 -39 -50 -45 -78 -13 -19 23 -23 38 -23 98 0 56 4 74 18 84 26 20 70 17 82 -5z"/> <path d="M9603 16310 c-34 -14 -43 -42 -43 -133 0 -83 1 -86 31 -111 40 -34 70 -33 108 3 29 28 31 33 31 106 0 125 -41 169 -127 135z m83 -62 c17 -34 16 -100 -5 -150 -15 -39 -55 -38 -76 2 -18 35 -20 151 -3 168 7 7 24 12 40 12 21 0 31 -8 44 -32z"/> <path d="M210 17320 c-29 -7 -37 -47 -8 -42 27 4 32 -16 29 -124 -1 -60 2 -104 8 -108 19 -12 24 17 25 141 1 136 -3 146 -54 133z"/> <path d="M3113 17322 c-36 -6 -37 -31 -1 -46 l32 -14 -3 -98 c-1 -54 -5 -102 -7 -106 -3 -5 2 -8 10 -8 13 0 16 16 16 99 0 54 3 112 6 129 7 34 -14 51 -53 44z"/> <path d="M6678 17311 c-30 -24 -48 -81 -47 -147 1 -57 24 -104 63 -122 23 -12 31 -11 59 5 79 46 89 193 19 258 -32 30 -61 32 -94 6z m82 -51 c22 -22 28 -98 10 -144 -21 -56 -75 -54 -105 4 -19 38 -19 73 1 113 27 52 59 62 94 27z"/> <path d="M11377 17323 c-13 -12 -7 -23 23 -38 l29 -15 3 -118 c2 -96 6 -117 18 -117 13 0 15 24 18 148 l3 147 -44 0 c-24 0 -47 -3 -50 -7z"/> <path d="M5495 17296 c-18 -13 -18 -14 3 -25 20 -10 22 -20 22 -89 0 -49 4 -72 9 -62 12 20 8 183 -5 187 -5 2 -18 -3 -29 -11z"/> <path d="M2582 17288 c-16 -20 -1 -35 36 -36 29 -1 33 2 30 21 -4 26 -48 36 -66 15z"/> <path d="M13181 17276 c-45 -48 -45 -143 2 -193 29 -32 60 -29 91 8 22 26 26 40 26 98 0 58 -3 71 -23 89 -30 29 -68 28 -96 -2z m82 -31 c9 -13 18 -44 19 -69 3 -53 -21 -86 -63 -86 -24 0 -28 5 -34 40 -4 22 -4 63 0 90 6 46 9 50 33 50 17 -1 34 -10 45 -25z"/> <path d="M4894 17279 c-10 -17 33 -56 47 -42 8 8 8 17 0 32 -13 23 -36 28 -47 10z"/> <path d="M10200 17278 c0 -6 8 -20 17 -30 14 -16 17 -34 14 -95 -2 -60 0 -74 11 -71 15 5 29 163 16 191 -10 19 -58 24 -58 5z"/> <path d="M1392 17258 c-7 -7 -12 -40 -12 -77 0 -76 11 -76 13 1 l2 53 35 0 c29 0 36 -4 38 -24 7 -48 -7 -90 -33 -97 -27 -7 -24 -24 3 -24 35 0 43 16 46 86 2 38 1 75 -1 82 -6 15 -75 16 -91 0z"/> <path d="M6095 17259 c-4 -6 -1 -15 6 -20 21 -13 31 -11 27 8 -4 20 -24 28 -33 12z"/> <path d="M7297 17263 c-14 -13 -6 -24 12 -18 14 4 25 -3 40 -24 12 -16 21 -34 21 -40 0 -6 5 -11 11 -11 11 0 8 26 -11 75 -7 19 -17 25 -38 25 -16 0 -32 -3 -35 -7z"/> <path d="M12003 17254 c-8 -21 13 -42 28 -27 13 13 5 43 -11 43 -6 0 -13 -7 -17 -16z"/> <path d="M12607 17263 c-13 -12 -7 -23 11 -23 17 0 62 -49 62 -68 0 -5 -18 -22 -40 -37 -29 -20 -37 -31 -28 -36 17 -11 49 11 70 49 14 25 15 38 7 59 -19 51 -60 79 -82 56z"/> <path d="M3710 17235 c0 -8 5 -15 10 -15 6 0 10 7 10 15 0 8 -4 15 -10 15 -5 0 -10 -7 -10 -15z"/> <path d="M4305 17231 c-7 -12 12 -24 25 -16 11 7 4 25 -10 25 -5 0 -11 -4 -15 -9z"/> <path d="M9624 17227 c-4 -10 -2 -23 3 -28 14 -14 24 13 13 32 -7 11 -10 10 -16 -4z"/> <path d="M10815 17231 c-7 -12 12 -24 25 -16 11 7 4 25 -10 25 -5 0 -11 -4 -15 -9z"/> <path d="M7254 17206 c-8 -33 -2 -69 14 -74 8 -2 12 11 12 47 0 53 -15 69 -26 27z"/> <path d="M12566 17196 c-4 -15 -2 -34 3 -44 8 -14 10 -13 16 10 4 15 3 34 -3 44 -8 14 -10 13 -16 -10z"/> <path d="M2620 17195 c-10 -12 -10 -21 0 -45 7 -16 9 -41 6 -55 -5 -18 -2 -25 9 -25 12 0 15 14 15 70 0 70 -7 83 -30 55z"/> <path d="M4920 17145 c0 -30 5 -55 10 -55 6 0 10 25 10 55 0 30 -4 55 -10 55 -5 0 -10 -25 -10 -55z"/> <path d="M7333 17121 c-28 -24 -29 -31 -3 -31 10 0 24 9 30 19 19 37 8 41 -27 12z"/> <path d="M5520 17085 c0 -8 5 -15 10 -15 6 0 10 7 10 15 0 8 -4 15 -10 15 -5 0 -10 -7 -10 -15z"/> <path d="M6565 16935 c-59 -32 -109 -100 -139 -190 -6 -17 -13 -13 -57 37 -27 31 -68 65 -92 76 -107 50 -129 54 -257 54 -113 1 -130 -2 -180 -25 -30 -14 -70 -37 -89 -51 -42 -31 -60 -32 -111 -6 -22 11 -51 20 -65 20 -60 0 -130 -59 -167 -140 -18 -41 -20 -59 -15 -205 3 -88 10 -182 15 -210 6 -27 18 -95 27 -150 22 -132 43 -230 62 -282 10 -26 14 -60 11 -88 -4 -28 -1 -51 7 -62 8 -10 11 -30 8 -45 -4 -22 -1 -27 18 -30 19 -2 31 -24 76 -137 29 -74 61 -143 70 -153 19 -21 54 -23 137 -6 53 11 68 20 114 65 57 57 57 59 53 203 -3 83 -20 140 -104 345 -25 61 -52 132 -61 159 -45 139 9 332 107 390 42 24 167 22 240 -4 79 -28 201 -86 214 -102 6 -7 13 -58 16 -114 14 -233 98 -467 233 -645 61 -80 107 -117 204 -163 l85 -41 150 0 c128 0 159 4 210 22 114 40 146 59 228 131 21 18 43 32 49 30 6 -2 21 -39 35 -82 20 -65 33 -87 76 -131 42 -43 62 -55 106 -65 139 -33 251 57 251 200 0 43 -27 118 -112 320 -96 226 -97 233 -102 475 -7 308 -27 392 -108 457 -31 26 -45 30 -96 30 -78 0 -130 -32 -172 -104 l-30 -53 0 -227 c0 -211 -1 -228 -18 -228 -9 0 -23 9 -30 20 -13 21 -47 27 -57 10 -3 -6 6 -15 22 -21 15 -5 40 -22 55 -37 24 -24 26 -32 21 -72 -12 -92 -80 -191 -175 -251 -44 -28 -60 -33 -117 -33 -59 -1 -72 3 -119 32 -89 58 -157 173 -202 342 -31 115 -35 371 -7 438 11 28 17 69 17 124 0 91 -17 130 -70 161 -44 26 -127 32 -165 12z"/> <path d="M3175 16910 c-80 -9 -127 -24 -228 -77 -184 -95 -344 -340 -397 -608 -16 -80 -8 -303 14 -374 14 -49 14 -58 1 -84 -18 -36 -19 -66 -3 -121 19 -67 72 -110 94 -75 8 14 -14 29 -32 22 -8 -3 -23 15 -39 47 -21 41 -24 55 -14 66 23 28 48 16 79 -38 27 -49 67 -89 165 -164 163 -127 428 -192 665 -164 190 23 302 74 428 195 46 44 85 82 87 84 3 2 14 -18 26 -45 48 -112 87 -190 101 -202 27 -22 99 -42 176 -48 67 -6 80 -4 100 13 l24 18 -16 105 c-9 58 -25 148 -36 200 -52 243 -64 311 -61 348 1 7 16 19 35 27 19 8 46 30 60 48 22 29 26 44 26 106 l0 71 -52 50 c-51 48 -51 49 -35 74 31 46 74 84 129 112 45 23 65 27 138 27 70 0 93 -4 129 -23 60 -32 127 -103 162 -173 28 -54 29 -60 15 -76 -20 -22 -20 -31 -1 -31 20 0 40 -49 26 -63 -6 -6 -3 -16 11 -26 16 -13 22 -35 29 -97 11 -106 11 -377 -1 -493 -12 -129 8 -166 106 -196 40 -12 57 -13 97 -3 78 20 123 78 161 209 22 76 23 432 1 545 -25 135 -47 228 -60 264 -69 193 -122 296 -179 353 -88 89 -171 141 -278 179 -90 31 -298 31 -388 -1 -77 -27 -151 -65 -201 -103 -41 -31 -74 -35 -103 -13 -30 23 -114 19 -160 -8 -79 -44 -96 -119 -76 -327 6 -69 15 -186 20 -260 8 -132 21 -250 40 -359 5 -30 7 -57 4 -60 -3 -3 -26 6 -52 19 -69 37 -181 35 -277 -4 -38 -16 -95 -35 -125 -42 -113 -27 -289 -9 -365 37 -22 14 -51 30 -65 36 -36 15 -91 64 -87 76 2 6 60 9 157 8 226 -3 346 27 502 125 33 21 45 24 60 15 27 -17 40 -14 80 19 22 18 38 42 42 62 4 18 9 46 13 61 3 15 -1 51 -10 80 -8 29 -20 107 -27 175 -11 113 -11 124 6 150 13 20 17 45 16 100 -2 84 -21 129 -66 151 -29 13 -45 10 -88 -21 -15 -11 -23 -10 -45 5 -28 17 -96 50 -164 80 -45 19 -198 28 -294 17z m610 -153 c17 -40 23 -129 9 -134 -16 -5 -104 126 -104 157 0 5 18 10 41 10 36 0 41 -3 54 -33z m-394 -248 c27 -14 49 -74 49 -132 0 -49 -3 -58 -27 -75 -43 -29 -115 -45 -170 -37 -26 3 -95 9 -153 11 -58 3 -109 9 -113 13 -20 20 77 146 137 179 101 54 218 71 277 41z m978 -245 c28 -23 31 -31 31 -82 -1 -69 -31 -116 -71 -110 -23 3 -24 6 -27 97 -4 123 10 143 67 95z m-554 -84 c10 -16 -39 -102 -63 -111 -31 -12 -29 9 9 70 32 51 43 59 54 41z"/> <path d="M1393 16820 c-30 -12 -29 -26 1 -34 31 -8 39 -41 35 -146 -2 -52 1 -84 9 -92 19 -19 23 8 20 148 -3 121 -4 129 -23 131 -11 1 -30 -2 -42 -7z"/> <path d="M10197 16795 l-37 -26 0 -83 c0 -72 3 -86 23 -109 27 -32 86 -37 108 -11 56 67 49 195 -13 238 -30 21 -37 20 -81 -9z m77 -34 c30 -34 38 -85 20 -130 -19 -47 -45 -59 -79 -37 -22 15 -25 23 -25 83 0 93 40 133 84 84z"/> <path d="M193 16793 c-21 -14 -23 -23 -23 -109 0 -81 3 -97 20 -114 29 -29 66 -25 101 9 27 27 29 35 29 104 0 60 -4 79 -21 101 -24 30 -70 34 -106 9z m76 -29 c16 -20 21 -41 21 -83 0 -69 -19 -101 -59 -101 -34 0 -41 17 -41 105 0 95 37 132 79 79z"/> <path d="M11982 16787 c-19 -20 -22 -35 -22 -108 0 -72 3 -89 20 -107 26 -28 63 -28 100 0 29 21 30 24 30 107 0 92 -3 99 -37 119 -34 18 -67 15 -91 -11z m98 -107 c0 -54 -4 -70 -20 -85 -17 -15 -24 -16 -45 -7 -24 11 -25 16 -25 91 0 70 2 80 23 94 20 14 24 13 45 -6 19 -17 22 -31 22 -87z"/> <path d="M8473 16783 c-7 -2 -13 -14 -13 -26 0 -16 3 -18 12 -9 7 7 24 12 40 12 30 0 58 -39 58 -80 0 -41 -30 -90 -55 -90 -28 0 -65 47 -65 82 0 17 -3 19 -9 9 -10 -15 11 -75 37 -104 23 -26 51 -17 86 26 24 31 31 48 30 82 -1 60 -35 105 -77 104 -18 0 -38 -3 -44 -6z"/> <path d="M2606 16751 c-7 -10 17 -21 46 -21 17 0 18 3 8 15 -14 17 -46 20 -54 6z"/> <path d="M13200 16752 c0 -4 5 -13 12 -20 18 -18 28 -15 28 8 0 13 -7 20 -20 20 -11 0 -20 -4 -20 -8z"/> <path d="M7290 16740 c0 -5 7 -10 15 -10 8 0 15 5 15 10 0 6 -7 10 -15 10 -8 0 -15 -4 -15 -10z"/> <path d="M2576 16698 c-12 -41 0 -71 33 -86 33 -14 51 -9 51 14 0 10 -10 13 -32 12 -32 -3 -33 -2 -39 42 -5 42 -6 43 -13 18z"/> <path d="M13226 16652 c-4 -13 -5 -26 -2 -29 10 -11 18 4 14 29 l-4 23 -8 -23z"/> <path d="M7945 16651 c-3 -6 -17 -11 -31 -11 -13 0 -24 -4 -24 -10 0 -16 46 -12 60 5 7 9 10 18 7 21 -3 3 -8 1 -12 -5z"/> <path d="M7877 16274 c-15 -16 -6 -24 27 -24 19 0 38 -4 41 -10 11 -18 26 -10 23 13 -2 18 -10 23 -43 25 -23 2 -44 0 -48 -4z"/> <path d="M8470 16261 c-13 -26 -13 -52 1 -28 14 25 66 23 74 -3 8 -24 25 -27 25 -4 0 34 -20 54 -55 54 -24 0 -38 -6 -45 -19z"/> <path d="M6111 16243 c0 -10 4 -27 9 -38 7 -16 9 -13 9 18 1 20 -3 37 -9 37 -5 0 -10 -8 -9 -17z"/> <path d="M13197 16244 c-15 -16 -6 -26 19 -20 15 4 32 2 40 -5 11 -9 14 -8 14 5 0 9 -8 16 -19 16 -11 0 -26 2 -33 5 -8 3 -17 2 -21 -1z"/> <path d="M7857 16224 c-10 -10 -8 -66 2 -83 7 -11 11 -5 16 21 7 36 -5 75 -18 62z"/> <path d="M1981 16158 c-1 -21 4 -38 9 -38 12 0 12 27 0 55 -7 16 -9 13 -9 -17z"/> <path d="M6116 16154 c-4 -9 -3 -21 2 -26 12 -12 23 15 12 31 -5 9 -9 8 -14 -5z"/> <path d="M7327 16146 c-10 -8 -15 -16 -10 -19 12 -7 53 11 53 23 0 14 -21 12 -43 -4z"/> <path d="M8551 16142 c-7 -13 -26 -28 -42 -34 -30 -10 -31 -28 0 -28 24 0 64 44 59 67 -3 16 -5 15 -17 -5z"/> <path d="M13233 16153 c-13 -2 -23 -9 -23 -14 0 -15 53 -7 58 9 2 6 0 11 -5 11 -4 -1 -18 -4 -30 -6z"/> <path d="M7943 16126 c-4 -8 -19 -16 -33 -18 -29 -4 -34 -31 -7 -36 21 -4 67 34 67 55 0 17 -17 17 -27 -1z"/> <path d="M13182 15819 c-29 -11 -24 -31 9 -39 23 -6 24 -9 29 -120 7 -164 24 -147 28 28 l3 142 -23 -1 c-13 0 -34 -4 -46 -10z"/> <path d="M4880 15805 c-15 -18 -9 -25 32 -43 35 -14 55 5 38 37 -13 25 -52 28 -70 6z"/> <path d="M6086 15769 c-17 -20 -26 -42 -25 -62 1 -32 1 -32 9 -6 4 15 17 36 29 48 42 42 71 20 71 -56 0 -41 -5 -57 -20 -70 -11 -10 -20 -21 -20 -25 0 -15 22 -8 46 15 19 18 24 32 24 75 0 45 -5 59 -27 83 -35 37 -55 37 -87 -2z"/> <path d="M212 15763 c-17 -7 -5 -23 17 -23 10 0 26 -11 35 -25 9 -14 21 -23 26 -20 16 10 12 24 -15 50 -24 25 -37 28 -63 18z"/> <path d="M807 15763 c-13 -12 -7 -23 11 -23 28 0 42 -21 42 -62 0 -32 -5 -40 -32 -55 -30 -16 -31 -18 -11 -21 12 -2 33 4 47 14 23 14 26 23 26 70 0 43 -4 56 -22 68 -24 17 -50 21 -61 9z"/> <path d="M10200 15757 c0 -7 10 -18 21 -25 25 -16 45 -3 36 22 -7 19 -57 22 -57 3z"/> <path d="M12625 15739 c-10 -15 0 -21 27 -17 l23 3 -22 13 c-15 8 -24 9 -28 1z"/> <path d="M183 15690 c0 -25 2 -35 4 -22 2 12 2 32 0 45 -2 12 -4 2 -4 -23z"/> <path d="M783 15685 c0 -27 2 -38 4 -22 2 15 2 37 0 50 -2 12 -4 0 -4 -28z"/> <path d="M4918 15653 c-5 -83 2 -104 26 -84 11 9 14 26 10 64 -12 123 -30 132 -36 20z"/> <path d="M247 15630 c-25 -26 -26 -30 -9 -30 20 0 52 29 52 48 0 19 -13 13 -43 -18z"/> <path d="M10226 15638 c-9 -34 -8 -38 9 -38 10 0 15 10 15 30 0 35 -15 40 -24 8z"/> <path d="M6060 15632 c0 -24 23 -45 45 -40 12 2 8 10 -15 31 -27 26 -30 27 -30 9z"/> <path d="M12605 15640 c-4 -6 5 -10 19 -10 14 0 26 5 26 10 0 6 -9 10 -19 10 -11 0 -23 -4 -26 -10z"/> <path d="M6666 15315 c-35 -32 -46 -64 -46 -132 0 -70 23 -120 67 -141 30 -14 36 -14 68 1 78 37 102 182 42 261 -24 30 -34 36 -66 36 -27 0 -46 -7 -65 -25z m95 -34 c19 -15 24 -30 27 -87 4 -63 2 -71 -22 -96 -35 -39 -71 -37 -96 5 -36 59 -18 178 29 190 30 9 39 7 62 -12z"/> <path d="M5495 15320 c-34 -13 -47 -37 -52 -99 -11 -114 17 -171 84 -171 56 0 103 67 103 149 0 45 -38 108 -72 120 -35 13 -36 13 -63 1z m70 -50 c32 -35 21 -171 -15 -190 -25 -13 -56 1 -65 30 -3 11 -7 49 -8 86 -2 55 1 68 17 80 27 19 50 18 71 -6z"/> <path d="M186 15301 c-23 -25 -33 -145 -16 -195 8 -24 21 -41 37 -47 37 -14 49 -11 82 17 30 25 31 28 31 113 0 79 -2 90 -23 109 -30 28 -87 29 -111 3z m86 -28 c14 -12 18 -31 18 -80 0 -77 -19 -113 -60 -113 -24 0 -29 5 -39 44 -15 61 -14 101 4 136 18 34 48 39 77 13z"/> <path d="M9618 15309 c-24 -13 -23 -36 2 -44 22 -7 22 -8 24 -107 2 -113 21 -84 24 36 2 81 -1 112 -10 118 -16 10 -19 10 -40 -3z"/> <path d="M3087 15276 c-41 -44 -45 -118 -9 -173 12 -19 24 -23 62 -23 44 0 50 3 64 32 22 42 20 127 -2 156 -10 13 -33 25 -54 28 -31 5 -41 2 -61 -20z m87 -28 c8 -13 17 -42 21 -65 5 -34 3 -45 -14 -62 -49 -49 -101 -12 -101 71 0 37 5 50 22 62 31 22 55 20 72 -6z"/> <path d="M1390 15269 c-7 -11 -9 -23 -6 -27 3 -3 6 0 6 6 0 7 15 12 33 12 40 0 67 -25 67 -63 0 -14 5 -29 10 -32 18 -11 11 59 -10 93 -16 26 -26 32 -55 32 -25 0 -37 -6 -45 -21z"/> <path d="M4325 15282 c-11 -1 -31 -11 -45 -22 -22 -16 -24 -26 -24 -85 1 -79 14 -95 80 -95 53 0 67 17 72 88 6 93 -17 125 -83 114z m39 -34 c16 -23 21 -75 10 -115 -7 -24 -37 -35 -71 -27 -20 6 -23 12 -23 60 0 89 47 135 84 82z"/> <path d="M4882 15265 c-27 -31 -36 -66 -28 -110 10 -53 26 -42 26 18 0 66 16 90 55 85 l30 -3 0 -70 0 -70 -37 -3 c-39 -3 -50 -15 -22 -26 56 -22 94 20 94 103 0 71 -19 101 -64 101 -22 0 -39 -8 -54 -25z"/> <path d="M7302 15283 c-16 -6 -5 -23 16 -23 19 0 52 -51 52 -81 0 -10 5 -19 10 -19 18 0 10 57 -13 91 -22 34 -40 42 -65 32z"/> <path d="M8470 15269 c-6 -11 -9 -25 -6 -32 2 -7 5 -4 5 6 1 26 58 23 82 -5 40 -49 12 -128 -46 -128 -24 0 -35 5 -38 18 -4 15 -5 15 -6 0 -1 -21 25 -48 48 -48 32 0 81 72 81 119 0 68 -93 122 -120 70z"/> <path d="M10215 15282 c-32 -22 -50 -74 -47 -129 4 -46 22 -22 22 28 0 54 15 79 47 79 31 0 43 -21 43 -75 0 -56 -12 -75 -46 -75 -28 0 -40 -16 -18 -24 27 -10 38 -7 67 19 23 22 27 33 27 83 0 69 -19 102 -58 102 -15 0 -32 -4 -37 -8z"/> <path d="M11985 15277 c-27 -20 -27 -164 0 -184 25 -17 75 -11 103 13 18 15 22 29 22 79 0 51 -4 65 -23 83 -26 25 -74 29 -102 9z m79 -29 c10 -13 16 -44 16 -75 0 -43 -4 -54 -21 -63 -11 -7 -32 -9 -45 -6 -23 6 -24 11 -24 80 0 50 4 76 13 79 26 11 47 6 61 -15z"/> <path d="M6096 15265 c-9 -9 -13 -21 -10 -26 3 -6 12 -2 19 8 12 16 17 16 35 5 19 -12 21 -11 18 5 -4 24 -41 28 -62 8z"/> <path d="M12617 15273 c-12 -11 -8 -21 9 -19 8 0 25 -16 37 -37 l22 -38 -32 -28 c-29 -24 -43 -51 -27 -51 28 0 74 61 74 98 0 8 -11 30 -26 49 -24 32 -43 41 -57 26z"/> <path d="M13200 15270 c0 -5 9 -10 20 -10 47 0 54 -117 9 -151 -29 -22 -8 -25 25 -4 21 14 24 24 24 83 0 37 -5 73 -10 80 -12 14 -68 16 -68 2z"/> <path d="M2017 15254 c-12 -12 4 -24 30 -24 21 0 24 2 13 15 -13 16 -32 20 -43 9z"/> <path d="M11446 15251 c-3 -5 1 -14 8 -20 16 -13 32 2 21 19 -8 12 -22 13 -29 1z"/> <path d="M855 15223 c19 -37 9 -72 -24 -86 l-26 -11 23 -4 c39 -6 63 25 60 77 -3 39 -7 47 -25 49 -21 3 -21 2 -8 -25z"/> <path d="M7256 15234 c-8 -20 -8 -78 0 -98 12 -31 24 -4 24 55 0 57 -11 77 -24 43z"/> <path d="M10807 15243 c-14 -13 -6 -18 33 -20 28 -1 40 3 40 13 0 14 -60 20 -73 7z"/> <path d="M1976 15225 c-3 -8 -2 -23 1 -32 6 -15 7 -15 14 3 11 27 11 44 0 44 -5 0 -11 -7 -15 -15z"/> <path d="M2630 15225 c0 -8 5 -15 10 -15 6 0 10 7 10 15 0 8 -4 15 -10 15 -5 0 -10 -7 -10 -15z"/> <path d="M12565 15207 c-4 -14 -3 -36 1 -49 7 -21 8 -19 16 16 10 45 -7 76 -17 33z"/> <path d="M1357 15213 c-12 -12 -7 -60 7 -72 12 -10 13 -5 9 31 -6 49 -7 51 -16 41z"/> <path d="M13173 15175 c0 -22 2 -30 4 -17 2 12 2 30 0 40 -3 9 -5 -1 -4 -23z"/> <path d="M2033 15144 c-41 -17 -42 -24 -4 -24 18 0 31 6 35 16 9 23 6 23 -31 8z"/> <path d="M7349 15134 c-8 -11 -23 -26 -34 -32 -20 -11 -20 -11 1 -12 24 0 58 33 52 51 -3 9 -9 6 -19 -7z"/> <path d="M11430 15135 l-35 -12 30 -6 c19 -3 35 -1 43 8 20 19 2 24 -38 10z"/> <path d="M6145 15129 c-10 -15 3 -25 16 -12 7 7 7 13 1 17 -6 3 -14 1 -17 -5z"/> <path d="M1473 15119 c-6 -6 -30 -10 -52 -7 -23 2 -41 1 -41 -2 0 -14 26 -30 50 -30 30 0 44 9 53 33 7 20 5 21 -10 6z"/> <path d="M1971 14806 c-32 -33 -33 -37 -33 -116 1 -72 4 -86 24 -107 37 -40 54 -45 91 -30 61 26 67 39 67 138 0 87 -1 92 -29 120 -41 40 -78 39 -120 -5z m98 -32 c44 -56 14 -204 -41 -204 -38 0 -57 38 -58 117 0 62 3 75 22 93 29 27 52 25 77 -6z"/> <path d="M3103 14825 c-30 -21 -29 -31 6 -43 l30 -11 -1 -107 c0 -72 3 -109 11 -112 12 -4 12 -5 14 163 1 112 0 120 -18 123 -11 1 -30 -5 -42 -13z"/> <path d="M3674 14813 c-42 -57 -52 -117 -33 -186 23 -85 103 -115 158 -59 50 49 50 195 0 248 -33 36 -98 34 -125 -3z m105 -37 c58 -94 -8 -255 -81 -196 -19 15 -22 27 -22 105 -1 80 1 88 23 106 34 28 57 23 80 -15z"/> <path d="M4888 14829 c-25 -14 -22 -37 5 -41 21 -3 22 -7 25 -120 2 -110 4 -118 23 -118 19 0 19 6 17 143 l-3 142 -25 2 c-14 2 -33 -2 -42 -8z"/> <path d="M11390 14803 c-74 -69 -58 -218 26 -239 38 -10 83 14 99 54 32 76 11 168 -45 197 -39 20 -45 19 -80 -12z m76 -27 c16 -12 19 -27 19 -91 0 -80 -8 -95 -50 -95 -40 0 -49 16 -53 88 -4 61 -1 73 17 91 25 25 40 26 67 7z"/> <path d="M792 14788 c-51 -55 -46 -175 10 -204 63 -33 108 15 108 115 0 52 -4 66 -25 86 -30 31 -65 32 -93 3z m75 -30 c48 -45 20 -158 -39 -158 -34 0 -51 40 -42 99 12 84 36 101 81 59z"/> <path d="M6085 14800 c-8 -14 13 -40 32 -40 7 0 16 7 20 16 10 26 -38 47 -52 24z"/> <path d="M6672 14787 c-20 -21 -22 -32 -19 -110 2 -48 6 -89 10 -93 3 -3 26 -9 50 -11 39 -5 46 -2 65 22 31 39 32 161 2 193 -28 30 -80 29 -108 -1z m80 -24 c13 -12 18 -31 18 -73 0 -47 -4 -60 -24 -79 -37 -34 -63 -21 -72 35 -16 106 24 166 78 117z"/> <path d="M7871 14791 c-41 -41 -41 -171 -1 -203 69 -56 146 34 125 145 -13 70 -81 101 -124 58z m81 -28 c27 -24 26 -125 -2 -153 -41 -41 -70 -20 -77 56 -8 99 28 144 79 97z"/> <path d="M8480 14800 c-12 -7 -10 -13 12 -33 23 -21 26 -31 21 -61 -4 -24 -2 -36 6 -36 7 0 11 23 11 64 0 49 -4 65 -16 70 -19 7 -16 8 -34 -4z"/> <path d="M2587 14793 c-17 -16 -4 -29 27 -29 30 0 33 2 25 18 -10 18 -39 24 -52 11z"/> <path d="M7286 14791 c-3 -4 6 -19 19 -31 l25 -23 0 31 c0 25 -4 32 -19 32 -11 0 -22 -4 -25 -9z"/> <path d="M13215 14764 c4 -16 7 -57 6 -91 -1 -39 3 -63 9 -63 17 0 8 172 -9 178 -11 4 -12 -2 -6 -24z"/> <path d="M9640 14772 c0 -4 9 -15 20 -25 15 -13 20 -29 20 -67 0 -46 -2 -50 -27 -56 -47 -10 -49 -12 -11 -13 51 -1 68 19 68 84 0 35 -5 59 -16 69 -16 16 -54 22 -54 8z"/> <path d="M10200 14770 c0 -13 38 -55 44 -49 5 5 9 29 7 47 -1 15 -51 17 -51 2z"/> <path d="M12586 14759 c-24 -19 -27 -27 -24 -72 5 -76 28 -75 28 2 0 66 15 85 49 64 56 -35 51 -110 -9 -130 l-35 -11 28 -7 c42 -11 77 29 77 87 0 82 -55 114 -114 67z"/> <path d="M1400 14756 c0 -8 9 -20 21 -26 18 -10 20 -9 17 12 -3 26 -38 39 -38 14z"/> <path d="M9586 14738 c-18 -35 -22 -103 -6 -93 6 3 10 22 10 42 0 24 8 45 22 60 17 19 19 23 5 23 -8 0 -23 -14 -31 -32z"/> <path d="M10812 14748 c2 -12 10 -23 18 -23 22 0 19 39 -3 43 -15 3 -18 -1 -15 -20z"/> <path d="M212 14748 c3 -7 13 -15 22 -16 12 -3 17 1 14 10 -3 7 -13 15 -22 16 -12 3 -17 -1 -14 -10z"/> <path d="M7318 14674 c-1 -31 0 -61 4 -67 4 -7 8 18 8 56 0 81 -7 88 -12 11z"/> <path d="M6123 14685 c0 -22 2 -30 4 -17 2 12 2 30 0 40 -3 9 -5 -1 -4 -23z"/> <path d="M5542 14660 c-10 -17 -10 -20 3 -20 8 0 15 9 15 20 0 11 -1 20 -3 20 -1 0 -8 -9 -15 -20z"/> <path d="M10237 14673 c-11 -10 -8 -63 3 -63 6 0 10 16 10 35 0 36 -2 40 -13 28z"/> <path d="M6120 14608 c0 -16 5 -28 10 -28 13 0 13 20 0 40 -8 12 -10 9 -10 -12z"/> <path d="M8517 14623 c-11 -10 -8 -43 3 -43 6 0 10 11 10 25 0 26 -2 29 -13 18z"/> <path d="M3710 14347 c-41 -14 -46 -39 -10 -47 25 -6 25 -7 30 -135 4 -107 8 -130 20 -130 13 0 15 24 15 159 0 98 -4 160 -10 162 -5 2 -26 -3 -45 -9z"/> <path d="M13188 14297 c-35 -29 -48 -58 -48 -104 0 -49 28 -104 62 -123 25 -13 29 -13 55 6 43 32 54 61 50 133 -3 55 -7 67 -31 87 -34 30 -54 30 -88 1z m71 -30 c30 -33 34 -130 5 -152 -28 -21 -62 -18 -75 7 -12 22 -8 136 5 157 12 18 41 12 65 -12z"/> <path d="M190 14280 c-15 -15 -20 -33 -20 -79 0 -33 3 -66 6 -75 11 -28 20 -17 16 19 -2 19 -1 55 3 80 5 40 9 45 32 45 35 0 52 -26 53 -82 0 -44 -17 -78 -41 -78 -5 0 -9 -4 -9 -10 0 -5 8 -10 18 -10 30 0 61 42 68 92 5 38 2 53 -16 82 -18 30 -27 36 -56 36 -21 0 -42 -8 -54 -20z"/> <path d="M1394 14292 c-16 -10 -28 -52 -14 -52 6 0 13 7 16 15 9 22 57 18 77 -5 10 -12 17 -37 17 -60 0 -22 5 -40 10 -40 15 0 12 73 -5 114 -14 32 -19 36 -53 36 -20 0 -42 -4 -48 -8z"/> <path d="M4295 14292 c-23 -16 -35 -55 -35 -111 0 -33 5 -63 10 -66 6 -4 10 18 10 58 0 49 4 68 18 80 43 39 72 13 72 -65 0 -49 -3 -60 -24 -73 -13 -8 -32 -13 -42 -9 -16 5 -16 4 -4 -5 22 -16 66 -13 84 5 20 19 23 163 4 182 -13 13 -77 16 -93 4z"/> <path d="M6070 14281 c-5 -11 -10 -51 -10 -89 0 -78 15 -102 67 -102 49 0 73 35 73 106 0 50 -4 64 -23 82 -31 29 -92 30 -107 3z m82 -28 c13 -12 18 -30 18 -69 0 -58 -14 -74 -63 -74 -30 0 -37 16 -37 80 0 72 39 102 82 63z"/> <path d="M8995 14290 c-10 -17 5 -30 34 -30 34 0 44 9 30 27 -13 15 -55 18 -64 3z"/> <path d="M10807 14293 c-17 -16 -6 -33 17 -27 17 4 31 -1 45 -15 22 -22 25 -46 15 -99 -5 -27 -12 -32 -48 -40 l-41 -8 33 -8 c53 -12 72 15 72 103 0 50 -4 74 -16 85 -15 16 -65 22 -77 9z"/> <path d="M11988 14288 c-12 -10 -17 -32 -18 -83 -3 -96 -2 -105 13 -105 9 0 11 20 9 77 -3 65 -1 79 14 90 24 18 30 17 54 -9 28 -30 28 -111 0 -135 -11 -10 -20 -21 -20 -25 0 -16 27 -7 48 15 31 32 32 137 2 167 -23 23 -77 27 -102 8z"/> <path d="M6676 14255 c-21 -28 -26 -44 -24 -77 5 -65 26 -60 30 8 2 46 7 60 26 72 21 14 23 13 43 -33 20 -46 21 -49 4 -77 -21 -37 -14 -46 14 -17 44 48 14 159 -44 159 -14 0 -32 -13 -49 -35z"/> <path d="M7307 14283 c-12 -11 -8 -23 8 -23 9 0 21 -11 27 -25 14 -32 28 -32 28 -1 0 32 -46 67 -63 49z"/> <path d="M7880 14282 c0 -5 11 -19 25 -32 l25 -23 0 31 c0 27 -4 32 -25 32 -14 0 -25 -4 -25 -8z"/> <path d="M10240 14262 c0 -5 9 -17 20 -27 12 -11 20 -31 20 -51 0 -24 -5 -34 -20 -39 -23 -7 -27 -25 -5 -25 46 0 72 82 39 128 -14 21 -54 31 -54 14z"/> <path d="M833 14249 c39 -23 43 -93 6 -104 -11 -4 -17 -11 -14 -16 20 -31 65 19 65 71 0 41 -18 60 -57 60 -17 -1 -17 -1 0 -11z"/> <path d="M2004 14246 c-6 -17 2 -36 17 -36 12 0 12 37 -1 45 -6 3 -13 -1 -16 -9z"/> <path d="M2596 14251 c-7 -11 18 -33 27 -24 4 3 7 12 7 20 0 15 -26 18 -34 4z"/> <path d="M3112 14244 c4 -21 22 -23 26 -1 2 10 -3 17 -13 17 -10 0 -15 -6 -13 -16z"/> <path d="M11450 14240 c6 -11 13 -20 15 -20 3 0 5 9 5 20 0 11 -7 20 -15 20 -13 0 -14 -4 -5 -20z"/> <path d="M4940 14236 c0 -14 29 -31 38 -21 6 6 -18 35 -29 35 -5 0 -9 -6 -9 -14z"/> <path d="M5535 14230 c-3 -6 1 -13 10 -16 19 -8 30 0 20 15 -8 14 -22 14 -30 1z"/> <path d="M7257 14202 c-2 -20 -1 -44 4 -52 9 -16 10 -14 13 43 4 50 -10 58 -17 9z"/> <path d="M10771 14188 c0 -33 3 -58 9 -58 11 0 11 40 0 85 -6 25 -8 20 -9 -27z"/> <path d="M12610 14230 c0 -5 14 -10 31 -10 17 0 28 4 24 10 -3 6 -17 10 -31 10 -13 0 -24 -4 -24 -10z"/> <path d="M1350 14186 c0 -32 36 -93 58 -98 31 -7 77 7 80 25 4 18 -13 24 -23 7 -10 -17 -61 -11 -78 8 -10 10 -17 33 -17 50 0 18 -4 32 -10 32 -5 0 -10 -11 -10 -24z"/> <path d="M11435 14145 l-30 -13 28 -7 c17 -5 33 -3 40 4 19 19 -6 29 -38 16z"/> <path d="M4915 14140 c-17 -7 -15 -9 13 -9 17 -1 32 4 32 9 0 12 -17 12 -45 0z"/> <path d="M7335 14139 c-4 -6 -4 -13 -1 -16 8 -8 36 5 36 17 0 13 -27 13 -35 -1z"/> <path d="M7917 14130 c-3 -11 -1 -23 4 -26 5 -3 9 6 9 20 0 31 -6 34 -13 6z"/> <path d="M12615 14140 c-3 -5 3 -10 14 -10 12 0 21 5 21 10 0 6 -6 10 -14 10 -8 0 -18 -4 -21 -10z"/> <path d="M10804 13865 c-65 -27 -99 -140 -74 -243 17 -72 47 -102 104 -102 59 0 99 33 115 94 40 161 -38 297 -145 251z m81 -60 c23 -22 25 -32 25 -107 0 -103 -23 -147 -77 -148 -52 0 -83 97 -63 195 17 83 67 109 115 60z"/> <path d="M1980 13824 c0 -9 10 -24 22 -33 19 -16 21 -29 23 -124 2 -59 5 -107 9 -107 3 0 9 0 14 0 4 0 7 63 7 140 l0 140 -37 0 c-28 0 -38 -4 -38 -16z"/> <path d="M192 13804 c-20 -14 -22 -23 -22 -113 0 -75 3 -100 14 -104 11 -5 13 9 9 77 -6 94 4 126 41 126 35 0 56 -39 56 -105 0 -43 -4 -59 -20 -72 -25 -22 -25 -33 -1 -33 35 0 51 38 51 118 0 64 -3 76 -25 97 -28 29 -70 32 -103 9z"/> <path d="M8992 13799 c-50 -53 -39 -219 14 -219 19 0 18 19 -1 26 -24 10 -21 145 3 167 28 26 67 22 80 -8 18 -38 15 -140 -3 -155 -20 -17 -19 -30 3 -30 53 0 69 167 21 219 -27 29 -91 29 -117 0z"/> <path d="M10203 13794 c-4 -11 1 -22 13 -31 17 -12 19 -24 15 -95 -2 -60 0 -79 9 -76 15 5 21 187 7 206 -13 17 -36 15 -44 -4z"/> <path d="M7894 13789 c-10 -16 23 -46 36 -33 6 6 8 18 4 27 -7 19 -29 22 -40 6z"/> <path d="M4297 13784 c-11 -12 3 -24 29 -24 16 0 24 5 22 13 -5 13 -40 22 -51 11z"/> <path d="M3746 13768 c16 -7 23 -23 29 -61 5 -45 4 -54 -14 -68 -23 -19 -27 -29 -11 -29 27 0 50 41 50 88 0 53 -20 83 -56 81 -17 0 -17 -1 2 -11z"/> <path d="M4937 13760 c3 -10 11 -25 19 -31 23 -19 16 -55 -17 -83 l-31 -26 28 0 c36 0 53 26 54 82 0 37 -5 50 -22 62 -30 21 -37 20 -31 -4z"/> <path d="M6685 13771 c-6 -10 21 -41 36 -41 5 0 9 11 9 25 0 18 -5 25 -19 25 -11 0 -22 -4 -26 -9z"/> <path d="M7290 13766 c0 -8 9 -20 21 -26 18 -10 20 -9 17 12 -3 26 -38 39 -38 14z"/> <path d="M11400 13763 c0 -10 7 -27 16 -38 10 -14 13 -32 8 -62 -4 -30 -3 -43 5 -43 8 0 11 24 9 77 -3 65 -6 78 -20 81 -12 2 -18 -3 -18 -15z"/> <path d="M13210 13757 c0 -8 7 -21 16 -28 14 -11 15 -10 12 11 -3 26 -28 41 -28 17z"/> <path d="M810 13750 c0 -5 9 -14 20 -20 17 -9 20 -8 20 10 0 13 -7 20 -20 20 -11 0 -20 -4 -20 -10z"/> <path d="M1405 13750 c-3 -6 1 -13 10 -16 19 -8 30 0 20 15 -8 14 -22 14 -30 1z"/> <path d="M2600 13745 c0 -8 5 -15 10 -15 6 0 10 7 10 15 0 8 -4 15 -10 15 -5 0 -10 -7 -10 -15z"/> <path d="M3140 13755 c0 -4 9 -18 20 -32 25 -32 25 -44 -1 -72 -26 -28 -17 -41 11 -16 17 15 20 29 18 69 -3 44 -6 51 -25 54 -13 2 -23 0 -23 -3z"/> <path d="M8490 13752 c0 -5 7 -13 16 -16 10 -4 14 -1 12 6 -5 15 -28 23 -28 10z"/> <path d="M12046 13751 c-3 -5 1 -14 8 -20 16 -13 32 2 21 19 -8 12 -22 13 -29 1z"/> <path d="M12602 13748 c7 -19 38 -22 38 -4 0 10 -9 16 -21 16 -12 0 -19 -5 -17 -12z"/> <path d="M9638 13738 c9 -9 15 -9 24 0 9 9 7 12 -12 12 -19 0 -21 -3 -12 -12z"/> <path d="M6136 13667 c-14 -10 -16 -16 -7 -22 15 -9 35 8 30 24 -3 8 -10 7 -23 -2z"/> <path d="M6712 13660 c-6 -15 -6 -29 -1 -34 15 -16 27 6 19 34 l-7 25 -11 -25z"/> <path d="M7318 13664 c-5 -4 -8 -16 -8 -28 0 -14 3 -17 11 -9 6 6 9 19 7 28 -1 9 -6 13 -10 9z"/> <path d="M13227 13663 c-11 -10 -8 -43 3 -43 6 0 10 11 10 25 0 26 -2 29 -13 18z"/> <path d="M3093 13349 c-23 -15 -36 -33 -44 -62 -11 -42 -7 -186 6 -219 8 -21 36 -30 88 -30 69 1 107 58 107 160 0 76 -20 124 -63 151 -42 26 -54 26 -94 0z m87 -49 c17 -17 20 -33 20 -107 0 -97 -13 -123 -60 -123 -49 0 -65 31 -64 126 0 66 4 88 19 104 23 26 59 26 85 0z"/> <path d="M11383 13318 c-11 -13 -26 -33 -32 -45 -14 -28 -14 -138 0 -166 39 -77 141 -74 168 5 16 45 13 144 -4 178 -28 54 -95 68 -132 28z m94 -48 c13 -26 15 -94 4 -145 -4 -21 -15 -33 -35 -40 -45 -15 -66 19 -66 106 0 56 4 73 21 90 26 26 60 21 76 -11z"/> <path d="M1380 13300 c-29 -31 -40 -67 -40 -132 0 -51 43 -98 90 -98 22 0 41 9 61 29 26 27 29 36 29 98 0 62 -3 72 -29 101 -38 41 -74 42 -111 2z m90 -30 c29 -29 28 -127 0 -158 -23 -24 -41 -27 -71 -12 -16 9 -19 22 -19 78 0 101 40 142 90 92z"/> <path d="M8472 13318 c-17 -17 -15 -23 13 -36 24 -11 25 -15 25 -113 0 -76 3 -100 13 -96 9 3 12 37 12 128 l0 124 -25 3 c-14 2 -31 -3 -38 -10z"/> <path d="M6676 13299 c-24 -19 -26 -26 -26 -104 0 -75 2 -85 22 -99 28 -20 61 -20 98 -1 30 15 30 17 30 98 0 88 -3 98 -37 116 -32 16 -57 14 -87 -10z m84 -40 c6 -10 10 -42 10 -71 0 -41 -5 -60 -20 -76 -24 -25 -25 -25 -50 -12 -41 22 -38 164 3 179 27 10 45 4 57 -20z"/> <path d="M9024 13313 c-29 -6 -46 -46 -51 -123 -4 -53 -2 -68 11 -79 23 -19 32 -6 18 24 -16 36 -15 76 4 113 19 39 25 43 52 36 32 -9 47 -117 22 -163 -9 -17 -8 -21 4 -21 40 0 60 114 31 170 -15 28 -44 52 -62 49 -4 -1 -18 -4 -29 -6z"/> <path d="M10191 13294 c-29 -24 -31 -30 -31 -94 0 -71 6 -100 21 -100 5 0 9 33 9 74 0 96 4 106 46 106 41 0 54 -21 54 -84 0 -61 -16 -92 -54 -104 l-31 -10 31 -1 c18 -1 42 7 53 17 19 15 22 28 24 100 2 77 0 85 -22 103 -32 26 -64 24 -100 -7z"/> <path d="M796 13288 c-21 -19 -27 -33 -29 -79 -4 -66 6 -99 28 -99 12 0 14 4 5 19 -5 11 -10 38 -10 61 0 80 45 109 76 49 21 -42 11 -92 -24 -118 l-27 -20 32 -1 c17 0 34 3 36 8 3 4 8 41 12 82 7 83 -1 104 -46 115 -19 5 -33 0 -53 -17z"/> <path d="M4890 13300 c-12 -7 -11 -13 10 -34 30 -33 38 -33 46 0 9 37 -22 56 -56 34z"/> <path d="M13179 13284 c-21 -22 -24 -35 -24 -95 0 -50 4 -72 15 -79 23 -14 29 -2 18 35 -14 42 0 114 24 129 13 8 23 5 43 -14 37 -35 35 -94 -6 -137 -29 -32 -28 -40 6 -27 46 18 62 140 24 188 -27 34 -68 34 -100 0z"/> <path d="M3692 13284 c3 -17 56 -39 67 -28 11 11 -18 39 -43 42 -22 3 -27 0 -24 -14z"/> <path d="M5510 13287 c-38 -19 -37 -37 2 -31 44 6 58 -5 65 -53 6 -48 -20 -83 -64 -84 -27 0 -27 -1 -6 -11 28 -14 70 -3 77 20 5 16 9 88 7 124 -2 28 -52 49 -81 35z"/> <path d="M9600 13286 c0 -14 57 -43 66 -33 3 3 3 15 -1 26 -7 25 -65 31 -65 7z"/> <path d="M228 13284 c-4 -3 4 -16 18 -28 14 -12 27 -37 31 -58 4 -30 1 -41 -20 -62 -26 -26 -22 -41 7 -30 19 7 46 66 46 100 0 32 -20 74 -36 74 -7 0 -19 2 -26 5 -8 3 -17 3 -20 -1z"/> <path d="M4330 13276 c0 -8 9 -20 20 -26 16 -8 20 -21 20 -60 0 -39 -4 -52 -20 -60 -25 -14 -26 -30 -1 -30 32 0 51 38 51 100 0 65 -6 76 -43 85 -21 6 -27 4 -27 -9z"/> <path d="M2597 13274 c-13 -13 -7 -24 14 -24 11 0 19 5 17 12 -5 14 -22 21 -31 12z"/> <path d="M4285 13269 c-12 -19 5 -23 22 -6 16 16 16 17 1 17 -9 0 -20 -5 -23 -11z"/> <path d="M10823 13272 c-9 -5 -9 -20 -2 -49 5 -23 8 -50 6 -60 -1 -10 2 -20 7 -23 11 -6 19 127 8 134 -4 3 -13 1 -19 -2z"/> <path d="M11988 13270 c-30 -18 -36 -140 -7 -140 5 0 9 24 9 54 0 45 4 58 22 70 20 14 24 14 40 -1 24 -22 34 -79 17 -100 -8 -9 -27 -22 -44 -29 -24 -11 -26 -14 -10 -15 36 -3 50 2 67 24 21 26 23 104 4 130 -15 19 -70 23 -98 7z"/> <path d="M176 13248 c-9 -35 -7 -101 4 -118 7 -11 10 2 10 43 0 32 5 67 10 78 8 15 7 19 -3 19 -8 0 -17 -10 -21 -22z"/> <path d="M6136 13245 c9 -14 18 -25 20 -25 2 0 4 11 4 25 0 18 -5 25 -20 25 -20 0 -20 -1 -4 -25z"/> <path d="M7332 13240 c14 -20 25 -27 32 -20 11 11 -20 50 -41 50 -10 0 -7 -9 9 -30z"/> <path d="M7891 13267 c2 -1 12 -9 22 -16 14 -12 17 -11 17 3 0 10 -8 16 -22 16 -12 0 -19 -1 -17 -3z"/> <path d="M12615 13260 c3 -5 12 -10 19 -10 7 0 18 -10 23 -22 10 -21 12 -21 18 -5 4 9 2 24 -5 32 -14 17 -65 21 -55 5z"/> <path d="M2002 13234 c4 -21 22 -23 26 -1 2 10 -3 17 -13 17 -10 0 -15 -6 -13 -16z"/> <path d="M5461 13186 c-1 -38 2 -57 9 -50 5 5 6 29 1 59 l-9 50 -1 -59z"/> <path d="M4920 13159 c0 -44 3 -60 13 -56 6 2 12 11 11 20 0 10 -1 35 -2 57 -3 64 -22 46 -22 -21z"/> <path d="M7333 13164 l-22 -24 24 0 c20 0 25 5 25 25 0 29 1 29 -27 -1z"/> <path d="M12647 13155 c-13 -9 -15 -15 -7 -20 14 -8 34 9 29 23 -3 7 -11 6 -22 -3z"/> <path d="M6135 13151 c-6 -11 9 -23 19 -14 9 9 7 23 -3 23 -6 0 -12 -4 -16 -9z"/> <path d="M3732 13138 c-16 -16 -15 -28 2 -28 19 0 27 13 17 28 -5 9 -10 9 -19 0z"/> <path d="M9637 13133 c-12 -11 -8 -23 8 -23 8 0 15 7 15 15 0 16 -12 20 -23 8z"/> <path d="M10788 12850 c-32 -19 -48 -70 -48 -152 0 -96 16 -140 59 -157 67 -28 134 21 146 107 17 125 -25 212 -102 212 -21 0 -46 -5 -55 -10z m91 -49 c11 -11 23 -36 27 -56 23 -125 -58 -239 -112 -157 -27 39 -26 182 1 212 23 25 59 26 84 1z"/> <path d="M2595 12839 c-58 -29 -85 -152 -51 -232 26 -63 113 -75 156 -20 27 35 29 186 2 219 -32 40 -69 52 -107 33z m50 -35 c63 -25 58 -200 -7 -217 -54 -15 -85 48 -72 147 8 59 38 85 79 70z"/> <path d="M3683 12817 c-31 -29 -37 -41 -41 -90 -9 -116 19 -167 91 -167 47 0 56 5 80 40 23 33 24 166 1 198 -15 22 -63 52 -84 52 -6 0 -27 -15 -47 -33z m101 -51 c21 -44 20 -110 -1 -147 -13 -22 -25 -29 -48 -29 -47 0 -55 15 -55 105 0 90 8 105 56 105 26 0 34 -6 48 -34z"/> <path d="M8451 12818 c-30 -31 -31 -34 -31 -125 0 -86 2 -96 24 -118 35 -35 71 -41 112 -19 43 24 57 70 52 171 -3 59 -8 76 -27 97 -36 38 -89 36 -130 -6z m103 -24 c12 -11 16 -36 16 -93 0 -64 -4 -83 -21 -105 -25 -31 -49 -33 -75 -5 -16 17 -19 37 -19 106 0 72 3 87 19 99 26 18 61 18 80 -2z"/> <path d="M3103 12814 c-17 -13 -17 -15 1 -29 30 -23 56 -19 56 9 0 29 -31 40 -57 20z"/> <path d="M4284 12819 c-4 -7 3 -21 18 -33 24 -20 25 -24 20 -119 -4 -93 -3 -99 14 -95 17 3 19 14 19 128 l0 125 -32 3 c-17 2 -35 -2 -39 -9z"/> <path d="M13178 12813 c-29 -33 -38 -62 -38 -118 0 -87 33 -135 93 -135 77 0 114 182 51 251 -22 25 -85 26 -106 2z m80 -32 c19 -17 22 -29 22 -89 0 -56 -4 -72 -20 -87 -25 -23 -65 -13 -74 17 -12 45 -6 133 10 156 18 27 32 27 62 3z"/> <path d="M218 12802 c-23 -5 -23 -10 4 -32 26 -20 38 -17 38 10 0 20 -16 28 -42 22z"/> <path d="M6684 12798 c-7 -12 21 -38 42 -38 17 0 24 26 11 39 -14 14 -44 14 -53 -1z"/> <path d="M7871 12782 c-19 -15 -22 -25 -19 -86 3 -61 6 -71 29 -88 56 -42 106 8 103 103 -3 66 -17 89 -58 89 -19 0 -44 -8 -55 -18z m80 -33 c30 -43 29 -83 -5 -114 -33 -30 -62 -32 -71 -5 -6 19 3 127 12 143 10 17 43 5 64 -24z"/> <path d="M10200 12790 c0 -6 7 -18 15 -26 11 -11 15 -37 15 -90 0 -101 20 -96 22 6 1 44 2 88 2 98 1 11 -8 18 -26 20 -16 2 -28 -2 -28 -8z"/> <path d="M11990 12786 c0 -14 37 -29 52 -20 20 13 7 34 -22 34 -19 0 -30 -5 -30 -14z"/> <path d="M2033 12777 c17 -7 27 -18 27 -31 0 -12 4 -28 9 -35 8 -12 11 -9 16 12 9 35 -18 67 -54 66 l-26 -1 28 -11z"/> <path d="M9004 12775 c-9 -24 22 -53 38 -37 9 9 10 17 2 29 -15 24 -33 27 -40 8z"/> <path d="M9617 12772 c-10 -10 -17 -23 -17 -28 0 -5 7 0 15 10 15 19 15 19 40 -4 33 -31 34 -84 3 -111 l-23 -18 21 -1 c27 0 42 18 50 58 9 47 -3 80 -36 97 -36 19 -34 19 -53 -3z"/> <path d="M11396 12781 c-9 -13 3 -39 21 -45 22 -9 27 -1 19 29 -6 25 -29 34 -40 16z"/> <path d="M12594 12779 c-10 -17 36 -53 50 -39 7 7 7 16 0 28 -14 21 -40 27 -50 11z"/> <path d="M800 12761 c0 -5 11 -16 25 -25 24 -16 25 -16 25 9 0 20 -5 25 -25 25 -14 0 -25 -4 -25 -9z"/> <path d="M1977 12763 c-9 -8 -9 -106 -1 -127 13 -34 20 -13 20 59 0 71 -4 84 -19 68z"/> <path d="M4930 12763 c0 -4 9 -19 20 -33 26 -34 25 -56 -5 -76 -25 -17 -25 -34 0 -34 8 0 22 17 31 38 21 49 9 106 -23 110 -13 2 -23 0 -23 -5z"/> <path d="M7296 12761 c-3 -5 5 -12 18 -15 14 -3 28 -15 31 -27 10 -30 29 -7 21 25 -5 21 -13 26 -36 26 -16 0 -31 -4 -34 -9z"/> <path d="M1437 12753 c25 -5 39 -39 28 -72 -4 -12 -2 -21 4 -21 6 0 11 19 11 44 0 45 -11 58 -48 55 -10 -1 -8 -4 5 -6z"/> <path d="M239 12675 c-6 -72 -4 -86 9 -69 4 5 5 38 2 74 l-5 65 -6 -70z"/> <path d="M5523 12700 c0 -25 2 -35 4 -22 2 12 2 32 0 45 -2 12 -4 2 -4 -23z"/> <path d="M6715 12728 c-9 -24 -1 -128 10 -131 13 -3 19 123 6 136 -7 7 -12 5 -16 -5z"/> <path d="M3130 12655 c0 -60 3 -75 15 -75 12 0 15 15 15 75 0 60 -3 75 -15 75 -12 0 -15 -15 -15 -75z"/> <path d="M11426 12667 c-5 -15 -6 -31 -2 -34 11 -11 18 5 14 34 l-4 28 -8 -28z"/> <path d="M7332 12655 c-23 -24 -17 -40 11 -29 16 6 29 41 18 48 -3 3 -17 -6 -29 -19z"/> <path d="M832 12658 c-16 -16 -15 -28 3 -28 8 0 15 9 15 20 0 23 -2 24 -18 8z"/> <path d="M2058 12649 c-23 -24 -23 -29 2 -29 15 0 20 7 20 25 0 29 0 29 -22 4z"/> <path d="M9026 12654 c-8 -20 0 -32 14 -18 5 5 5 15 1 22 -6 11 -10 10 -15 -4z"/> <path d="M12027 12641 c-7 -36 -2 -51 11 -35 5 5 6 23 2 39 l-6 30 -7 -34z"/> <path d="M12624 12657 c-8 -21 2 -35 16 -21 5 5 6 15 0 24 -8 12 -10 12 -16 -3z"/> <path d="M5489 12355 c-49 -27 -63 -62 -64 -155 0 -105 16 -141 73 -159 33 -11 43 -11 70 3 55 28 67 58 67 164 l0 95 -39 33 c-43 37 -67 41 -107 19z m89 -63 c21 -33 23 -147 3 -185 -25 -46 -89 -47 -109 -1 -15 31 -15 117 -1 167 16 60 73 70 107 19z"/> <path d="M2566 12288 c-21 -42 -21 -151 0 -183 16 -25 60 -33 99 -19 54 21 63 192 11 226 -6 4 -30 8 -53 8 -37 0 -43 -4 -57 -32z m104 -34 c12 -35 7 -92 -11 -125 -12 -23 -44 -29 -68 -12 -17 11 -21 25 -21 71 0 70 19 102 60 102 24 0 30 -6 40 -36z"/> <path d="M4892 12312 c-9 -7 -8 -13 8 -27 17 -16 20 -30 20 -107 0 -61 4 -88 11 -86 7 2 11 43 12 113 0 101 -1 110 -19 113 -10 1 -25 -2 -32 -6z"/> <path d="M8474 12298 c-45 -51 -56 -116 -29 -168 43 -83 139 -51 152 50 7 51 -1 81 -31 113 -31 33 -66 35 -92 5z m70 -30 c25 -39 30 -103 11 -132 -23 -35 -67 -35 -89 -1 -20 31 -20 58 0 112 13 34 22 43 40 43 14 0 30 -10 38 -22z"/> <path d="M9023 12313 c-26 -5 -43 -53 -43 -125 0 -73 16 -98 61 -98 29 0 42 6 58 26 42 53 36 156 -12 189 -22 15 -25 16 -64 8z m58 -50 c13 -36 11 -116 -4 -137 -8 -11 -23 -17 -38 -14 -32 4 -60 78 -41 108 6 11 12 28 12 38 0 45 54 49 71 5z"/> <path d="M10805 12308 c-3 -8 1 -27 9 -42 10 -21 13 -48 9 -102 -5 -65 -4 -74 11 -74 15 0 16 13 14 112 -3 98 -5 113 -21 116 -9 2 -19 -3 -22 -10z"/> <path d="M11404 12305 c-18 -13 -17 -14 18 -15 47 0 58 -19 58 -97 0 -67 -11 -83 -56 -83 -32 0 -33 1 -39 54 -4 30 -4 68 0 85 4 18 3 31 -3 31 -12 0 -22 -49 -22 -105 0 -56 28 -89 75 -88 57 2 77 29 78 113 1 67 -1 74 -27 96 -31 28 -54 30 -82 9z"/> <path d="M12586 12299 c-24 -19 -26 -26 -26 -97 0 -83 4 -93 37 -111 33 -17 60 -13 83 11 28 31 30 176 2 201 -25 23 -64 21 -96 -4z m77 -27 c17 -19 27 -128 13 -150 -4 -6 -24 -12 -46 -12 -37 0 -38 1 -42 38 -1 21 -2 61 0 90 4 49 5 52 31 52 16 0 35 -8 44 -18z"/> <path d="M230 12306 c0 -3 11 -17 25 -32 42 -45 30 -153 -19 -169 -18 -6 -18 -8 -4 -12 22 -6 65 23 74 49 14 46 8 118 -12 137 -19 18 -64 37 -64 27z"/> <path d="M6092 12288 c-20 -20 -14 -31 14 -24 41 11 64 -17 64 -74 0 -34 -4 -50 -16 -54 -8 -3 -12 -11 -9 -17 5 -7 16 -3 31 12 34 32 34 105 -1 143 -25 28 -63 34 -83 14z"/> <path d="M7274 12275 c-22 -22 -25 -32 -22 -88 4 -80 22 -80 26 0 3 65 21 90 55 77 37 -14 49 -101 17 -122 -23 -14 -26 -32 -5 -32 8 0 22 16 31 35 18 39 15 114 -6 140 -19 23 -68 18 -96 -10z"/> <path d="M7883 12288 c-12 -6 -24 -20 -27 -32 -9 -33 -7 -99 4 -116 7 -11 10 0 10 38 0 91 37 121 79 65 l20 -28 1 32 c0 47 -38 65 -87 41z"/> <path d="M10195 12275 c-21 -20 -25 -34 -25 -85 0 -33 4 -60 10 -60 6 0 10 28 10 64 0 64 0 64 30 71 45 10 60 -8 60 -69 0 -40 -4 -54 -20 -64 -27 -17 -26 -35 3 -27 36 11 47 35 47 101 0 44 -5 67 -16 78 -23 24 -71 20 -99 -9z"/> <path d="M176 12275 c-10 -26 -7 -138 4 -155 12 -18 11 -22 14 65 1 39 5 76 7 84 6 20 -17 25 -25 6z"/> <path d="M3112 12274 c-18 -12 -22 -24 -20 -62 l2 -47 3 48 c4 45 6 47 34 47 22 0 32 -6 39 -26 16 -40 12 -63 -15 -89 -20 -21 -21 -25 -7 -25 31 0 42 22 42 87 0 51 -3 64 -19 73 -26 13 -33 13 -59 -6z"/> <path d="M3697 12284 c-14 -14 -7 -25 13 -22 12 2 21 8 21 13 0 12 -24 18 -34 9z"/> <path d="M9600 12276 c0 -7 12 -16 28 -19 32 -6 37 -3 29 18 -8 19 -57 20 -57 1z"/> <path d="M1437 12270 c25 -10 42 -85 24 -103 -15 -15 -14 -27 4 -27 11 0 15 11 15 39 0 22 3 46 6 54 7 19 -22 47 -49 46 l-22 0 22 -9z"/> <path d="M4332 12264 c33 -17 45 -57 30 -96 -5 -15 -7 -28 -3 -28 33 0 44 103 14 126 -10 7 -29 13 -43 13 l-25 0 27 -15z"/> <path d="M856 12252 c-2 -4 -1 -14 5 -22 14 -24 10 -58 -8 -69 -16 -9 -16 -10 3 -11 19 0 23 7 26 45 2 24 2 49 0 55 -4 12 -19 13 -26 2z"/> <path d="M13250 12246 c0 -8 5 -18 10 -21 6 -3 10 3 10 14 0 12 -4 21 -10 21 -5 0 -10 -6 -10 -14z"/> <path d="M1982 12220 c0 -19 2 -27 5 -17 2 9 2 25 0 35 -3 9 -5 1 -5 -18z"/> <path d="M6060 12163 c0 -12 5 -25 10 -28 13 -8 13 15 0 35 -8 12 -10 11 -10 -7z"/> <path d="M6740 12155 c0 -8 5 -15 10 -15 6 0 10 7 10 15 0 8 -4 15 -10 15 -5 0 -10 -7 -10 -15z"/> <path d="M7943 12143 c-14 -30 -11 -38 12 -30 15 6 22 57 8 57 -5 0 -14 -12 -20 -27z"/> <path d="M12047 12163 c-12 -11 -8 -23 8 -23 8 0 15 7 15 15 0 16 -12 20 -23 8z"/> <path d="M13232 12159 c-13 -5 -21 -13 -17 -18 7 -12 47 1 53 17 4 14 -4 14 -36 1z"/> <path d="M2035 12150 c-3 -5 1 -10 9 -10 8 0 18 5 21 10 3 6 -1 10 -9 10 -8 0 -18 -4 -21 -10z"/> <path d="M9608 11843 c-44 -11 -72 -136 -49 -220 9 -35 17 -43 46 -53 46 -15 90 -5 115 27 16 21 20 41 20 102 0 120 -43 168 -132 144z m81 -59 c16 -20 21 -41 21 -86 0 -54 -3 -63 -31 -89 -36 -34 -50 -36 -71 -11 -33 37 -34 165 -1 197 23 23 59 18 82 -11z"/> <path d="M6073 11818 c-34 -38 -43 -64 -43 -128 0 -55 3 -65 29 -91 39 -39 100 -41 129 -4 41 52 35 192 -9 228 -30 24 -81 22 -106 -5z m85 -30 c7 -7 12 -44 12 -95 0 -77 -2 -84 -22 -92 -40 -15 -67 -2 -74 36 -10 51 1 143 17 154 20 12 53 11 67 -3z"/> <path d="M9008 11828 c-37 -31 -48 -62 -48 -137 0 -69 2 -77 27 -98 34 -30 84 -30 118 0 20 17 27 34 32 79 9 85 -2 123 -41 147 -38 24 -65 26 -88 9z m76 -50 c18 -26 22 -129 6 -159 -12 -22 -68 -27 -88 -7 -7 7 -12 41 -12 84 0 64 3 75 22 88 31 22 54 20 72 -6z"/> <path d="M3093 11812 c-30 -23 -43 -63 -43 -128 0 -48 4 -60 29 -85 70 -69 151 -12 151 107 0 99 -73 156 -137 106z m87 -41 c5 -11 10 -45 10 -76 0 -74 -12 -95 -54 -95 -25 0 -35 6 -44 25 -17 37 -15 117 4 143 20 28 69 30 84 3z"/> <path d="M3685 11794 c-22 -24 -25 -36 -25 -100 0 -40 5 -76 10 -79 6 -4 10 23 10 73 0 75 1 79 26 91 53 24 74 -1 74 -89 0 -57 -21 -88 -63 -92 l-32 -4 29 -12 c24 -11 33 -10 53 4 69 45 70 209 1 228 -41 11 -59 6 -83 -20z"/> <path d="M4893 11810 c-33 -13 -43 -42 -43 -118 0 -66 2 -72 31 -96 55 -47 102 -25 129 60 18 59 -2 141 -37 155 -29 11 -51 11 -80 -1z m63 -28 c35 -23 43 -90 20 -147 -12 -27 -21 -35 -40 -35 -38 0 -56 35 -56 108 0 56 2 64 23 72 28 11 39 12 53 2z"/> <path d="M2580 11790 c0 -17 4 -19 24 -14 17 4 27 0 35 -13 10 -15 11 -14 9 12 -3 26 -7 30 -35 33 -28 3 -33 0 -33 -18z"/> <path d="M4303 11803 c-20 -8 -15 -31 8 -38 28 -9 46 9 29 30 -13 16 -17 17 -37 8z"/> <path d="M7293 11803 c-9 -3 -6 -13 9 -33 18 -25 20 -38 16 -94 -3 -36 -2 -66 2 -66 12 0 17 179 6 191 -11 10 -14 10 -33 2z"/> <path d="M7885 11801 c-3 -6 2 -14 12 -20 14 -7 18 -25 20 -88 1 -43 3 -80 5 -83 3 -9 13 175 9 188 -4 14 -37 16 -46 3z"/> <path d="M10205 11780 c-3 -5 3 -22 14 -36 17 -22 22 -23 27 -11 9 24 0 51 -18 55 -9 2 -19 -2 -23 -8z"/> <path d="M2005 11770 c-9 -14 4 -52 16 -45 12 8 12 42 0 50 -5 3 -12 1 -16 -5z"/> <path d="M6680 11766 c0 -18 39 -31 52 -18 15 15 0 32 -28 32 -14 0 -24 -6 -24 -14z"/> <path d="M11400 11767 c0 -14 20 -37 32 -37 4 0 8 11 8 25 0 18 -5 25 -20 25 -11 0 -20 -6 -20 -13z"/> <path d="M12007 11773 c-14 -13 -6 -23 17 -23 13 0 29 -7 36 -15 14 -17 30 -20 30 -5 0 30 -64 63 -83 43z"/> <path d="M11970 11694 c0 -27 4 -43 10 -39 6 3 10 24 10 46 0 21 -4 39 -10 39 -5 0 -10 -21 -10 -46z"/> <path d="M2630 11681 c0 -21 -3 -46 -6 -55 -4 -11 -1 -16 10 -16 13 0 16 11 16 49 0 28 -4 53 -10 56 -6 4 -10 -10 -10 -34z"/> <path d="M11428 11670 c-7 -24 -3 -38 8 -28 3 4 4 17 2 30 l-3 23 -7 -25z"/> <path d="M6711 11666 c-11 -13 -11 -20 -3 -28 15 -15 24 -5 20 23 -3 21 -4 21 -17 5z"/> <path d="M10230 11650 c0 -11 5 -20 10 -20 6 0 10 9 10 20 0 11 -4 20 -10 20 -5 0 -10 -9 -10 -20z"/> <path d="M12055 11649 c-10 -15 3 -25 16 -12 7 7 7 13 1 17 -6 3 -14 1 -17 -5z"/> <path d="M4325 11637 c-4 -10 -5 -21 -1 -24 10 -10 18 4 13 24 -4 17 -4 17 -12 0z"/> <path d="M13166 11369 c-45 -35 -60 -76 -61 -164 0 -89 18 -140 62 -174 30 -24 58 -26 101 -8 47 19 70 57 83 133 22 129 -32 234 -120 234 -24 0 -49 -8 -65 -21z m102 -39 c38 -35 52 -127 32 -201 -14 -49 -62 -94 -87 -81 -40 22 -55 50 -60 116 -7 84 3 133 32 162 29 29 54 30 83 4z"/> <path d="M4288 11335 c-43 -24 -62 -131 -38 -214 12 -44 36 -60 87 -61 38 0 45 4 68 37 21 31 25 49 25 106 0 73 -10 102 -44 129 -26 21 -62 22 -98 3z m91 -51 c29 -37 29 -131 1 -166 -26 -34 -55 -40 -83 -18 -20 16 -22 27 -22 100 0 69 3 84 19 96 30 21 62 17 85 -12z"/> <path d="M2561 11296 c-16 -25 -21 -50 -21 -100 0 -61 3 -70 29 -97 33 -32 58 -36 101 -14 35 18 43 41 43 126 0 92 -19 119 -83 119 -44 0 -50 -3 -69 -34z m105 -13 c8 -10 14 -44 14 -78 0 -64 -14 -96 -52 -116 -18 -10 -24 -8 -39 12 -26 34 -27 173 -1 188 27 16 63 13 78 -6z"/> <path d="M9597 11324 c-15 -16 -6 -34 18 -34 l25 0 0 -106 c0 -80 3 -105 13 -101 9 3 12 36 12 123 l0 119 -30 3 c-17 2 -34 0 -38 -4z"/> <path d="M10181 11304 c-18 -22 -21 -41 -21 -111 l0 -84 37 -15 c56 -24 100 -12 118 33 29 70 12 180 -30 197 -39 15 -83 6 -104 -20z m109 -46 c25 -55 25 -89 0 -121 -25 -32 -53 -41 -80 -27 -17 9 -20 20 -20 88 0 86 8 102 52 102 24 0 32 -7 48 -42z"/> <path d="M6672 11297 c-19 -20 -22 -35 -22 -100 0 -67 3 -78 22 -91 35 -25 83 -20 107 10 16 21 21 41 21 89 0 48 -5 68 -21 89 -27 34 -77 36 -107 3z m77 -31 c23 -36 27 -95 11 -127 -8 -13 -21 -19 -45 -19 l-35 0 0 74 c0 54 4 79 16 90 22 23 30 20 53 -18z"/> <path d="M11397 11296 c-6 -15 11 -36 29 -36 17 0 24 26 11 39 -15 15 -34 14 -40 -3z"/> <path d="M1998 11288 c-19 -15 -30 -149 -13 -155 6 -2 10 26 10 69 0 67 2 73 21 76 28 4 54 -23 54 -56 0 -21 2 -24 10 -12 36 55 -30 118 -82 78z"/> <path d="M3100 11286 c0 -11 9 -16 26 -16 31 0 28 23 -4 28 -15 2 -22 -2 -22 -12z"/> <path d="M7271 11274 c-17 -22 -21 -39 -19 -81 4 -77 22 -70 26 10 l3 68 31 -3 c26 -3 33 -10 48 -47 21 -56 35 -31 17 31 -12 39 -16 43 -49 46 -29 3 -40 -2 -57 -24z"/> <path d="M9017 11294 c-13 -13 -7 -24 14 -24 11 0 19 5 17 12 -5 14 -22 21 -31 12z"/> <path d="M214 11275 c25 -19 36 -19 36 0 0 10 -10 15 -27 15 -27 -1 -27 -1 -9 -15z"/> <path d="M1405 11280 c3 -5 17 -10 30 -10 18 0 25 -8 33 -37 l10 -38 1 48 1 47 -41 0 c-24 0 -38 -4 -34 -10z"/> <path d="M6102 11266 c1 -10 8 -17 13 -17 15 1 12 24 -3 29 -9 3 -13 -2 -10 -12z"/> <path d="M3710 11245 c0 -8 5 -15 10 -15 6 0 10 7 10 15 0 8 -4 15 -10 15 -5 0 -10 -7 -10 -15z"/> <path d="M4940 11245 c12 -15 30 -12 30 6 0 5 -10 9 -21 9 -18 0 -19 -2 -9 -15z"/> <path d="M5504 11244 c3 -9 6 -18 6 -20 0 -2 5 -4 10 -4 6 0 10 9 10 20 0 12 -7 20 -16 20 -11 0 -14 -5 -10 -16z"/> <path d="M7890 11250 c0 -5 9 -10 19 -10 11 0 26 -3 35 -6 11 -4 16 -1 16 10 0 12 -10 16 -35 16 -19 0 -35 -4 -35 -10z"/> <path d="M10860 11251 c0 -5 7 -11 15 -15 9 -3 15 0 15 9 0 8 -7 15 -15 15 -8 0 -15 -4 -15 -9z"/> <path d="M1467 11170 c-3 -11 -16 -24 -29 -29 -21 -9 -21 -10 10 -10 29 -1 32 2 32 29 0 35 -5 39 -13 10z"/> <path d="M2071 11180 c-1 -8 -4 -26 -7 -40 -5 -19 -4 -22 5 -14 7 6 11 24 8 40 -2 16 -5 22 -6 14z"/> <path d="M4945 11169 c-4 -6 -5 -13 -2 -16 7 -7 27 6 27 18 0 12 -17 12 -25 -2z"/> <path d="M7940 11165 c-10 -12 -10 -15 4 -15 9 0 16 7 16 15 0 8 -2 15 -4 15 -2 0 -9 -7 -16 -15z"/> <path d="M10870 11170 c-8 -5 -11 -12 -7 -16 4 -4 13 -2 19 4 15 15 7 24 -12 12z"/> <path d="M7327 11130 c-25 -26 -26 -30 -9 -30 20 0 52 29 52 48 0 19 -13 13 -43 -18z"/> <path d="M3127 11144 c-4 -4 -7 -14 -7 -23 0 -11 3 -12 11 -4 6 6 10 16 7 23 -2 6 -7 8 -11 4z"/> <path d="M7260 10830 c-31 -31 -40 -64 -40 -142 0 -66 2 -72 34 -104 40 -40 79 -44 117 -11 64 55 70 192 11 260 -22 25 -96 23 -122 -3z m101 -31 c19 -19 21 -30 17 -101 -4 -88 -17 -108 -68 -108 -57 0 -79 136 -34 205 20 31 56 33 85 4z"/> <path d="M9589 10811 c-27 -28 -29 -34 -29 -110 0 -102 14 -121 90 -121 46 0 52 3 62 28 17 41 22 148 8 181 -23 55 -86 66 -131 22z m86 -25 c22 -16 32 -107 16 -148 -13 -36 -55 -47 -81 -23 -16 15 -20 31 -20 86 0 59 3 70 22 83 27 20 39 20 63 2z"/> <path d="M7861 10821 c-19 -12 -5 -31 25 -31 24 0 24 0 24 -106 0 -76 3 -105 12 -102 8 3 12 42 12 124 l1 119 -30 3 c-16 1 -36 -2 -44 -7z"/> <path d="M3692 10808 c-7 -7 -12 -21 -12 -32 0 -18 1 -18 19 -2 11 10 30 16 42 14 47 -7 53 -145 8 -179 -16 -13 -19 -19 -9 -19 8 0 26 9 40 19 21 17 25 29 28 88 3 58 1 72 -18 96 -23 29 -75 38 -98 15z"/> <path d="M4305 10812 c-29 -20 -45 -64 -45 -121 0 -33 5 -63 10 -66 6 -4 10 18 10 59 0 90 34 131 74 90 22 -22 22 -121 -1 -146 -15 -17 -15 -18 9 -18 33 0 38 15 38 105 0 65 -3 76 -22 89 -24 17 -56 20 -73 8z"/> <path d="M6722 10798 c24 -19 50 -105 39 -127 -17 -30 -39 -43 -62 -36 -20 7 -21 12 -17 81 3 41 4 74 2 74 -1 0 -10 -7 -18 -16 -24 -24 -22 -118 4 -144 26 -26 74 -26 98 1 42 45 37 141 -9 164 -35 19 -59 20 -37 3z"/> <path d="M2000 10783 c0 -31 12 -63 21 -57 16 9 11 74 -6 74 -8 0 -15 -8 -15 -17z"/> <path d="M2592 10788 c-19 -19 -14 -28 14 -28 18 0 25 5 22 17 -4 21 -21 26 -36 11z"/> <path d="M11403 10774 c-8 -22 15 -43 27 -24 13 21 12 27 -5 34 -9 3 -18 -1 -22 -10z"/> <path d="M1380 10765 c0 -12 4 -13 19 -5 32 16 49 12 65 -17 l15 -28 1 33 c0 32 0 32 -50 32 -38 0 -50 -4 -50 -15z"/> <path d="M13205 10769 c-4 -6 -5 -12 -2 -15 7 -7 37 7 37 17 0 13 -27 11 -35 -2z"/> <path d="M13250 10745 c0 -8 5 -15 10 -15 6 0 10 7 10 15 0 8 -4 15 -10 15 -5 0 -10 -7 -10 -15z"/> <path d="M3661 10688 c-1 -26 4 -50 9 -53 12 -8 12 52 0 80 -6 15 -9 8 -9 -27z"/> <path d="M2010 10656 c0 -20 5 -36 10 -36 6 0 10 13 10 29 0 17 -4 33 -10 36 -6 4 -10 -8 -10 -29z"/> <path d="M1464 10655 c-4 -9 -19 -15 -40 -15 -37 0 -46 -15 -15 -25 29 -9 71 12 71 35 0 24 -8 26 -16 5z"/> <path d="M2610 10635 c0 -8 5 -15 10 -15 6 0 10 7 10 15 0 8 -4 15 -10 15 -5 0 -10 -7 -10 -15z"/> <path d="M2603 10341 c-45 -13 -63 -53 -63 -138 0 -74 2 -81 28 -106 38 -36 83 -36 117 0 26 29 31 57 26 148 -4 71 -50 113 -108 96z m61 -53 c25 -35 22 -138 -4 -166 -24 -26 -52 -28 -74 -6 -12 11 -16 35 -16 89 0 65 3 76 22 89 31 22 54 20 72 -6z"/> <path d="M1370 10308 c-19 -25 -25 -49 -28 -100 -4 -66 -3 -69 31 -103 33 -33 69 -44 92 -27 39 27 55 66 55 133 0 58 -4 72 -26 98 -20 24 -34 31 -63 31 -30 0 -42 -6 -61 -32z m95 -18 c28 -31 33 -130 9 -164 -42 -57 -100 -12 -98 76 1 68 19 98 65 107 3 0 14 -8 24 -19z"/> <path d="M4301 10301 c-12 -8 -12 -12 -2 -25 15 -18 37 -21 46 -6 7 11 -11 40 -24 40 -3 0 -12 -4 -20 -9z"/> <path d="M6680 10281 c-23 -23 -30 -38 -30 -69 0 -22 3 -47 6 -56 12 -32 24 -14 24 37 0 42 5 58 21 73 20 18 21 18 35 -1 8 -10 19 -35 24 -54 8 -28 6 -39 -7 -53 -22 -25 -8 -36 17 -13 27 24 28 114 3 137 -36 32 -61 31 -93 -1z"/> <path d="M10196 10302 c-3 -5 3 -17 14 -27 17 -15 20 -31 20 -92 0 -55 3 -74 13 -70 8 2 12 31 12 98 l0 94 -27 3 c-14 2 -29 -1 -32 -6z"/> <path d="M13180 10292 c-19 -15 -22 -27 -21 -81 1 -63 5 -81 21 -81 5 0 7 21 4 48 -7 59 8 102 36 102 12 0 32 -12 45 -27 19 -22 24 -24 25 -11 0 9 -4 28 -10 42 -8 21 -16 26 -44 26 -18 0 -44 -8 -56 -18z"/> <path d="M9600 10285 c0 -9 9 -15 25 -15 16 0 25 6 25 15 0 9 -9 15 -25 15 -16 0 -25 -6 -25 -15z"/> <path d="M7310 10276 c0 -8 47 -56 54 -56 11 0 7 35 -6 48 -11 11 -48 17 -48 8z"/> <path d="M11440 10266 c0 -2 7 -9 15 -16 12 -10 15 -10 15 4 0 9 -7 16 -15 16 -8 0 -15 -2 -15 -4z"/> <path d="M4321 10168 c-1 -27 4 -48 9 -48 12 0 12 34 0 70 -7 20 -8 16 -9 -22z"/> <path d="M7350 10180 c0 -6 -12 -15 -27 -21 -31 -12 -17 -35 15 -25 21 7 36 42 21 52 -5 3 -9 0 -9 -6z"/> <path d="M11425 10150 c-17 -7 -15 -9 13 -9 17 -1 32 4 32 9 0 12 -17 12 -45 0z"/> <path d="M13252 10140 c-7 -11 -21 -20 -33 -20 -11 0 -17 -4 -14 -10 16 -26 75 3 75 36 0 20 -13 17 -28 -6z"/> <path d="M10183 9855 c-60 -42 -71 -201 -19 -269 41 -54 69 -64 111 -41 45 23 61 50 73 116 14 77 -2 152 -40 184 -34 29 -92 33 -125 10z m111 -50 c11 -17 16 -47 16 -99 0 -66 -3 -78 -26 -105 -44 -53 -84 -36 -103 46 -14 58 -8 125 15 161 21 32 76 31 98 -3z"/> <path d="M7283 9830 c-13 -5 -23 -14 -23 -19 0 -5 10 -11 23 -13 21 -3 22 -8 25 -105 2 -84 6 -103 18 -103 12 0 14 19 12 122 -3 132 -6 138 -55 118z"/> <path d="M1406 9805 c-7 -21 3 -45 20 -45 18 0 18 34 0 49 -10 9 -15 8 -20 -4z"/> <path d="M3697 9793 c-15 -14 -6 -23 23 -23 32 0 40 14 14 24 -20 8 -29 8 -37 -1z"/> <path d="M4315 9793 c-35 -9 -43 -26 -9 -19 41 9 64 -13 64 -62 0 -47 -9 -61 -46 -72 -28 -8 -27 -8 13 -9 51 -1 63 15 63 88 0 70 -22 89 -85 74z"/> <path d="M13205 9790 c-6 -10 16 -50 27 -50 5 0 8 11 8 24 0 24 -25 43 -35 26z"/> <path d="M13225 9678 c-4 -10 -4 -26 0 -35 8 -17 8 -17 12 0 3 9 3 25 0 35 -4 16 -4 16 -12 0z"/> <path d="M4286 9325 c-3 -8 3 -23 14 -33 16 -15 20 -34 22 -112 2 -77 6 -95 18 -95 12 0 15 22 18 128 l3 127 -35 0 c-21 0 -36 -6 -40 -15z"/> <path d="M10204 9305 c-3 -8 1 -24 10 -37 11 -15 16 -45 16 -91 0 -51 3 -68 13 -64 9 3 11 29 10 96 -1 50 -5 96 -8 101 -9 15 -35 12 -41 -5z"/> <path d="M7292 9268 c6 -18 28 -21 28 -4 0 9 -7 16 -16 16 -9 0 -14 -5 -12 -12z"/> </g> </svg> 