<?xml version="1.0" standalone="no"?>
<!DOCTYPE svg PUBLIC "-//W3C//DTD SVG 20010904//EN"
 "http://www.w3.org/TR/2001/REC-SVG-20010904/DTD/svg10.dtd">
<svg version="1.0" xmlns="http://www.w3.org/2000/svg"
 width="900.000000pt" height="894.000000pt" viewBox="0 0 900.000000 894.000000"
 preserveAspectRatio="xMidYMid meet">
<metadata>
Created by potrace 1.10, written by Peter Selinger 2001-2011
</metadata>
<g transform="translate(0.000000,894.000000) scale(0.100000,-0.100000)"
fill="#000000" stroke="none">
<path d="M2011 8731 c-11 -11 -25 -38 -32 -61 -11 -37 -10 -46 9 -86 21 -42
24 -44 66 -44 55 0 76 27 76 99 0 87 -70 141 -119 92z m64 -41 c30 -33 10
-119 -28 -120 -9 0 -27 45 -27 70 0 26 18 70 28 70 5 0 17 -9 27 -20z"/>
<path d="M1300 8684 c-20 -32 -21 -38 -9 -71 19 -50 42 -62 77 -43 23 13 27
23 30 64 6 86 -56 118 -98 50z m65 -42 c0 -46 -19 -44 -23 2 -3 28 0 37 10 34
7 -3 13 -19 13 -36z"/>
<path d="M3169 8708 c-1 -7 0 -17 1 -23 2 -8 7 -72 10 -107 0 -5 9 -8 20 -8
19 0 21 5 18 73 -3 66 -5 72 -25 75 -14 2 -23 -2 -24 -10z"/>
<path d="M3552 8697 c-24 -25 -29 -75 -12 -108 16 -29 64 -25 89 7 28 36 26
60 -8 95 -35 35 -41 36 -69 6z m53 -47 c7 -12 -12 -40 -26 -40 -5 0 -9 11 -9
25 0 25 23 35 35 15z"/>
<path d="M3930 8706 c0 -8 5 -18 10 -21 6 -3 10 -30 10 -60 0 -56 7 -69 28
-56 9 5 12 30 10 77 -3 67 -4 69 -30 72 -20 2 -28 -1 -28 -12z"/>
<path d="M5464 8712 c-6 -4 -17 -23 -24 -43 -11 -30 -11 -43 -1 -68 30 -72
121 -42 121 40 0 51 -60 95 -96 71z m46 -66 c0 -51 -14 -67 -30 -36 -14 26 -3
80 16 80 10 0 14 -13 14 -44z"/>
<path d="M5797 8702 c-42 -47 -29 -126 24 -137 39 -9 67 15 75 66 11 66 -59
116 -99 71z m59 -49 c7 -27 -17 -60 -35 -49 -12 7 -15 68 -5 79 12 11 34 -5
40 -30z"/>
<path d="M6188 8703 c-24 -29 -29 -53 -18 -93 18 -66 82 -63 94 3 9 49 -18
107 -49 107 -7 0 -19 -8 -27 -17z m37 -66 c0 -39 -19 -38 -23 2 -3 24 0 32 10
29 7 -3 13 -17 13 -31z"/>
<path d="M7332 8697 c-43 -46 -22 -127 33 -127 55 0 75 93 29 129 -33 26 -36
26 -62 -2z m43 -62 c0 -10 -6 -20 -12 -22 -8 -3 -13 5 -13 22 0 17 5 25 13 23
6 -3 12 -13 12 -23z"/>
<path d="M8100 8705 c-10 -12 -10 -21 -2 -38 6 -12 13 -38 14 -57 2 -24 8 -36
21 -38 16 -3 18 4 15 70 -2 57 -6 73 -19 76 -9 1 -22 -4 -29 -13z"/>
<path d="M8484 8674 c3 -26 6 -60 6 -75 0 -23 5 -29 20 -29 19 0 21 5 18 73
-3 67 -5 72 -27 75 -23 4 -24 2 -17 -44z"/>
<path d="M4704 8663 c3 -21 6 -48 6 -60 0 -16 6 -23 19 -23 21 0 31 19 31 60
0 44 -10 60 -37 60 -24 0 -25 -2 -19 -37z"/>
<path d="M940 8653 c0 -47 14 -73 30 -57 18 18 8 88 -12 92 -15 3 -18 -4 -18
-35z"/>
<path d="M1707 8684 c-15 -15 -6 -24 24 -24 20 0 29 4 27 13 -5 14 -40 21 -51
11z"/>
<path d="M2414 8678 c-4 -6 0 -16 9 -23 14 -10 14 -12 0 -21 -17 -11 -10 -54
9 -54 17 0 37 33 38 61 0 40 -38 66 -56 37z"/>
<path d="M5077 8683 c-13 -12 -7 -80 7 -93 8 -6 25 -10 38 -8 20 3 23 9 26 56
l3 52 -34 0 c-18 0 -37 -3 -40 -7z"/>
<path d="M6576 8648 c8 -52 23 -75 35 -56 5 7 9 32 9 56 0 38 -2 42 -25 42
-24 0 -25 -2 -19 -42z"/>
<path d="M6955 8648 c9 -51 9 -52 30 -44 12 4 15 16 13 43 -2 31 -7 39 -27 41
-22 4 -23 2 -16 -40z"/>
<path d="M560 8656 c0 -33 10 -57 21 -50 16 9 11 74 -6 74 -9 0 -15 -9 -15
-24z"/>
<path d="M1717 8609 c-21 -12 -13 -29 14 -29 12 0 19 7 19 20 0 22 -7 24 -33
9z"/>
<path d="M5468 8423 c-22 -6 -23 -26 -3 -43 11 -9 15 -33 15 -86 0 -75 10 -95
35 -74 11 9 15 35 15 99 0 104 -8 118 -62 104z"/>
<path d="M3159 8394 c-32 -35 -33 -114 -1 -146 18 -19 26 -20 59 -12 l38 9 3
70 c3 62 0 72 -19 87 -29 25 -51 22 -80 -8z m65 -40 c18 -46 -1 -90 -33 -79
-16 5 -21 14 -21 39 0 48 40 78 54 40z"/>
<path d="M4309 8391 c-39 -39 -41 -100 -4 -136 42 -43 84 -28 104 36 13 42 -6
101 -38 119 -27 14 -29 14 -62 -19z m61 -72 c0 -33 -3 -40 -17 -37 -22 4 -30
53 -13 73 19 22 30 8 30 -36z"/>
<path d="M5073 8398 c-55 -61 -26 -168 45 -168 61 0 87 123 35 167 -33 29 -54
29 -80 1z m55 -40 c17 -17 15 -63 -3 -78 -22 -18 -35 -3 -35 39 0 50 13 64 38
39z"/>
<path d="M8082 8397 c-32 -34 -32 -129 0 -151 24 -17 65 -21 84 -8 41 27 46
116 9 156 -30 32 -65 33 -93 3z m66 -76 c3 -46 1 -52 -15 -49 -13 2 -19 14
-21 42 -4 46 4 69 21 64 7 -3 13 -26 15 -57z"/>
<path d="M2413 8393 c-15 -6 -17 -33 -3 -33 6 0 10 -25 10 -55 0 -48 2 -55 20
-55 18 0 20 7 20 69 0 54 -4 70 -16 75 -9 3 -16 6 -17 5 -1 0 -8 -3 -14 -6z"/>
<path d="M3941 8387 c-37 -18 -46 -59 -24 -104 35 -74 103 -46 103 42 0 22 -4
45 -8 51 -12 19 -46 24 -71 11z m39 -67 c0 -29 -4 -40 -15 -40 -10 0 -15 10
-15 33 0 19 3 37 7 40 15 16 23 5 23 -33z"/>
<path d="M7720 8393 c-23 -9 -30 -24 -30 -71 0 -62 14 -82 55 -82 30 0 37 4
50 37 32 77 -9 141 -75 116z m40 -73 c0 -29 -4 -40 -15 -40 -11 0 -15 11 -15
40 0 29 4 40 15 40 11 0 15 -11 15 -40z"/>
<path d="M200 8380 c0 -6 5 -19 12 -29 9 -15 9 -28 0 -57 -15 -49 -1 -63 27
-28 35 45 23 124 -19 124 -11 0 -20 -5 -20 -10z"/>
<path d="M547 8372 c-23 -26 -22 -85 2 -106 40 -37 86 8 77 73 -8 52 -47 68
-79 33z m38 -62 c-5 -8 -11 -8 -17 -2 -6 6 -7 16 -3 22 5 8 11 8 17 2 6 -6 7
-16 3 -22z"/>
<path d="M1306 8368 c-31 -44 -8 -118 36 -118 27 0 58 37 58 69 0 37 -27 71
-55 71 -13 0 -31 -10 -39 -22z m64 -54 c0 -24 -4 -34 -12 -32 -15 5 -22 42
-14 64 10 25 26 5 26 -32z"/>
<path d="M3558 8384 c-8 -8 2 -117 12 -128 14 -15 31 34 28 82 -2 33 -8 48
-18 50 -9 1 -19 0 -22 -4z"/>
<path d="M5816 8382 c-8 -13 4 -102 14 -102 14 0 18 84 5 98 -8 9 -15 10 -19
4z"/>
<path d="M6187 8383 c-3 -5 -2 -15 4 -23 5 -8 9 -32 9 -52 0 -31 14 -58 25
-47 1 2 4 31 6 64 4 55 2 60 -18 63 -11 2 -23 -1 -26 -5z"/>
<path d="M6930 8371 c-18 -35 -12 -86 13 -109 30 -28 48 -28 75 1 25 26 30 95
10 115 -20 20 -86 15 -98 -7z m80 -43 c0 -13 -4 -29 -9 -37 -8 -12 -12 -12
-25 -2 -16 14 -21 42 -9 54 16 16 43 6 43 -15z"/>
<path d="M7344 8377 c-9 -25 0 -90 14 -95 8 -2 12 11 12 47 0 49 -15 76 -26
48z"/>
<path d="M8470 8376 c0 -8 5 -18 10 -21 6 -3 10 -28 10 -56 0 -42 3 -49 20
-49 18 0 20 7 20 70 l0 70 -30 0 c-19 0 -30 -5 -30 -14z"/>
<path d="M1705 8370 c-9 -14 4 -52 16 -45 12 8 12 42 0 50 -5 3 -12 1 -16 -5z"/>
<path d="M2032 8328 c3 -60 19 -70 29 -20 8 42 1 72 -18 72 -11 0 -13 -12 -11
-52z"/>
<path d="M6571 8366 c-7 -8 -11 -32 -9 -53 3 -36 5 -38 37 -38 30 0 36 4 42
30 15 54 -38 99 -70 61z m49 -44 c0 -13 -12 -22 -22 -16 -10 6 -1 24 13 24 5
0 9 -4 9 -8z"/>
<path d="M944 8360 c-16 -16 -2 -85 16 -85 11 0 15 12 15 44 0 45 -12 60 -31
41z"/>
<path d="M2787 8353 c-4 -3 -7 -21 -7 -40 0 -37 16 -49 55 -39 21 5 25 12 25
46 0 39 -1 40 -33 40 -19 0 -37 -3 -40 -7z"/>
<path d="M1683 8095 c-47 -33 -50 -136 -6 -180 21 -22 79 -19 103 5 16 16 20
33 20 85 0 52 -4 69 -20 85 -24 24 -67 26 -97 5z m61 -34 c36 -40 2 -151 -35
-114 -20 20 -11 133 10 133 4 0 16 -9 25 -19z"/>
<path d="M938 8080 c-22 -13 -41 -74 -33 -102 24 -77 91 -74 110 5 9 33 0 70
-21 91 -18 18 -32 20 -56 6z m40 -81 c-2 -19 -7 -33 -13 -32 -14 3 -18 29 -10
60 9 37 27 14 23 -28z"/>
<path d="M3540 8070 c-14 -14 -20 -33 -20 -63 0 -77 47 -109 105 -71 21 14 25
24 25 65 0 56 -24 89 -65 89 -14 0 -34 -9 -45 -20z m59 -42 c9 -24 5 -44 -12
-66 -14 -18 -27 3 -27 44 0 48 24 61 39 22z"/>
<path d="M3930 8063 c-37 -47 -13 -141 36 -143 5 0 20 9 32 20 30 28 31 101 2
130 -27 27 -44 25 -70 -7z m48 -67 c-2 -15 -7 -28 -13 -29 -12 -2 -19 38 -10
60 9 25 27 1 23 -31z"/>
<path d="M6565 8068 c4 -13 10 -50 14 -83 5 -47 10 -61 24 -63 16 -3 18 4 15
80 l-3 83 -29 3 c-26 3 -28 1 -21 -20z"/>
<path d="M205 8058 c14 -46 17 -76 7 -94 -17 -34 -3 -48 24 -23 43 41 25 139
-25 139 -9 0 -11 -7 -6 -22z"/>
<path d="M2017 8062 c-26 -29 -22 -94 8 -122 23 -22 25 -22 50 -6 31 20 46 55
38 87 -14 56 -64 77 -96 41z m51 -60 c2 -15 -2 -22 -12 -22 -11 0 -16 9 -16
26 0 31 23 28 28 -4z"/>
<path d="M5466 8061 c-26 -29 -19 -111 11 -122 57 -21 94 82 44 122 -29 24
-34 24 -55 0z m49 -61 c0 -36 -29 -33 -33 3 -3 23 0 28 15 25 12 -2 18 -12 18
-28z"/>
<path d="M8471 8054 c-28 -35 -26 -69 4 -99 29 -30 39 -31 65 -5 37 37 16 130
-30 130 -10 0 -28 -12 -39 -26z m67 -51 c-2 -10 -13 -19 -26 -21 -17 -3 -22 2
-22 17 0 16 6 21 26 21 19 0 25 -5 22 -17z"/>
<path d="M3175 8058 c-9 -26 10 -113 25 -113 12 0 15 14 15 60 0 49 -3 60 -18
63 -9 2 -19 -2 -22 -10z"/>
<path d="M4316 8054 c-18 -18 -21 -66 -6 -95 12 -22 59 -26 78 -7 7 7 12 31
12 55 0 32 -5 45 -19 53 -27 14 -47 13 -65 -6z m49 -50 c0 -10 -8 -20 -17 -22
-18 -3 -26 27 -11 42 12 11 28 0 28 -20z"/>
<path d="M4690 8043 c-34 -43 -11 -103 39 -103 38 0 51 17 51 67 0 32 -5 45
-19 53 -31 16 -48 12 -71 -17z m50 -37 c0 -8 -5 -18 -11 -22 -14 -8 -33 11
-25 25 10 16 36 13 36 -3z"/>
<path d="M8101 8051 c-23 -23 -26 -46 -11 -85 12 -33 64 -37 80 -7 12 23 13
71 2 87 -15 24 -50 26 -71 5z m46 -55 c-9 -23 -37 -20 -37 3 0 21 20 33 34 20
5 -4 6 -15 3 -23z"/>
<path d="M552 8048 c-33 -33 7 -128 42 -99 21 17 29 66 16 90 -12 23 -40 27
-58 9z"/>
<path d="M1312 8043 c5 -26 38 -29 38 -4 0 15 -6 21 -21 21 -14 0 -19 -5 -17
-17z"/>
<path d="M2790 8046 c0 -8 5 -18 11 -22 6 -3 8 -17 4 -31 -6 -26 11 -57 26
-47 5 3 9 30 9 60 0 51 -1 54 -25 54 -15 0 -25 -6 -25 -14z"/>
<path d="M5088 8053 c-3 -4 -3 -30 0 -56 3 -38 8 -47 21 -45 23 5 23 101 -1
106 -9 2 -18 -1 -20 -5z"/>
<path d="M6954 8030 c3 -18 6 -43 6 -56 0 -18 6 -24 21 -24 18 0 20 5 17 53
-3 46 -6 52 -27 55 -22 3 -23 1 -17 -28z"/>
<path d="M7345 8050 c-4 -6 4 -19 16 -29 l22 -18 -23 -23 c-17 -17 -19 -24
-10 -30 31 -19 55 18 48 76 -2 21 -9 30 -25 32 -11 2 -24 -2 -28 -8z"/>
<path d="M7707 8054 c-12 -12 -8 -89 5 -102 16 -16 53 -15 67 2 7 8 11 34 9
58 -3 41 -4 43 -38 46 -20 2 -39 0 -43 -4z m53 -55 c0 -38 -24 -35 -28 4 -2
19 1 27 12 27 11 0 16 -10 16 -31z"/>
<path d="M5817 8043 c-10 -10 -8 -71 2 -77 13 -8 38 3 45 20 13 34 -25 80 -47
57z"/>
<path d="M6197 8033 c-22 -25 -22 -52 -1 -60 18 -7 45 6 51 24 2 5 -4 20 -14
32 -18 22 -19 22 -36 4z"/>
<path d="M2421 8026 c-18 -21 -9 -51 14 -51 24 0 32 36 12 53 -11 10 -17 9
-26 -2z"/>
<path d="M5460 7765 c-11 -13 -10 -18 4 -33 11 -13 16 -37 16 -75 0 -56 14
-82 31 -56 5 8 8 50 7 94 -3 73 -5 80 -24 83 -11 2 -27 -4 -34 -13z"/>
<path d="M7336 7761 c-10 -11 -12 -21 -6 -27 5 -5 10 -34 12 -64 3 -47 6 -55
23 -55 17 0 20 8 23 54 5 92 -17 131 -52 92z"/>
<path d="M3944 7759 c-34 -12 -49 -69 -30 -113 13 -32 19 -36 50 -36 42 0 56
20 56 77 0 59 -32 89 -76 72z m34 -80 c-2 -19 -7 -33 -13 -32 -12 3 -19 49
-10 71 10 26 27 -2 23 -39z"/>
<path d="M6194 7760 c-34 -13 -48 -70 -30 -114 13 -31 19 -36 49 -36 64 0 90
82 42 134 -26 28 -29 29 -61 16z m41 -49 c8 -27 -5 -71 -21 -71 -10 0 -14 13
-14 45 0 32 4 45 14 45 8 0 17 -9 21 -19z"/>
<path d="M206 7751 c-3 -4 0 -22 6 -39 9 -24 9 -37 -1 -58 -9 -20 -9 -30 -1
-38 17 -16 50 29 50 68 0 47 -38 94 -54 67z"/>
<path d="M557 7753 c-2 -5 -2 -36 1 -71 4 -51 8 -62 21 -60 30 6 27 138 -4
138 -7 0 -16 -3 -18 -7z"/>
<path d="M943 7752 c-21 -13 -3 -126 20 -130 16 -3 18 3 15 64 -3 66 -11 81
-35 66z"/>
<path d="M1305 7730 c-8 -16 -15 -36 -15 -45 0 -29 30 -75 50 -75 23 0 60 45
60 75 0 30 -37 75 -60 75 -11 0 -26 -13 -35 -30z m65 -46 c0 -24 -4 -34 -12
-32 -15 5 -22 42 -14 64 10 25 26 5 26 -32z"/>
<path d="M2406 7738 c-30 -42 -10 -128 29 -128 26 0 45 31 45 75 0 68 -43 98
-74 53z m42 -52 c-2 -15 -7 -28 -13 -29 -12 -2 -19 38 -10 60 9 25 27 1 23
-31z"/>
<path d="M3170 7738 c-37 -40 -15 -118 34 -118 32 0 55 65 36 101 -24 44 -41
48 -70 17z m60 -53 c0 -8 -7 -15 -15 -15 -8 0 -15 7 -15 15 0 8 7 15 15 15 8
0 15 -7 15 -15z"/>
<path d="M3558 7753 c-2 -4 -2 -36 0 -71 3 -52 7 -63 20 -60 25 5 25 131 0
136 -9 2 -18 -1 -20 -5z"/>
<path d="M4315 7749 c-5 -6 -1 -16 9 -21 11 -6 16 -23 16 -58 0 -38 4 -50 15
-50 13 0 15 12 13 68 -3 60 -5 67 -25 70 -11 2 -24 -2 -28 -9z"/>
<path d="M4695 7750 c-3 -5 -1 -18 5 -29 5 -11 10 -38 10 -61 0 -37 2 -41 23
-38 19 3 22 10 25 56 2 31 -2 60 -9 68 -13 16 -45 19 -54 4z"/>
<path d="M6947 7742 c-33 -36 -9 -132 32 -132 21 0 61 52 61 78 0 26 -38 72
-59 72 -10 0 -25 -8 -34 -18z m59 -68 c-5 -13 -10 -14 -18 -6 -6 6 -8 18 -4
28 5 13 10 14 18 6 6 -6 8 -18 4 -28z"/>
<path d="M8095 7750 c-4 -6 -2 -16 3 -23 6 -7 12 -33 14 -57 2 -34 7 -46 21
-48 16 -3 18 3 15 65 -3 61 -5 68 -25 71 -11 2 -24 -2 -28 -8z"/>
<path d="M2018 7725 c-10 -13 -18 -32 -18 -42 1 -24 34 -63 55 -63 23 0 54 40
55 71 0 30 -28 59 -56 59 -10 0 -27 -11 -36 -25z m48 -26 c10 -17 -13 -36 -27
-22 -12 12 -4 33 11 33 5 0 12 -5 16 -11z"/>
<path d="M7717 7732 c-37 -41 -2 -132 41 -106 29 18 39 61 21 92 -18 33 -40
38 -62 14z m43 -48 c0 -14 -21 -19 -33 -7 -9 9 13 34 24 27 5 -3 9 -12 9 -20z"/>
<path d="M5810 7725 c-10 -12 -8 -16 14 -25 33 -12 33 -18 -1 -31 -24 -9 -25
-11 -11 -25 20 -20 58 -10 58 16 0 10 3 25 6 33 6 16 -20 47 -40 47 -8 0 -19
-7 -26 -15z"/>
<path d="M1706 7723 c-11 -11 -6 -23 9 -23 8 0 15 4 15 9 0 13 -16 22 -24 14z"/>
<path d="M5087 7724 c-13 -13 -7 -61 9 -75 24 -20 49 1 49 42 0 29 -4 34 -25
37 -14 2 -29 0 -33 -4z"/>
<path d="M6572 7718 c-32 -32 9 -96 44 -67 22 18 14 73 -11 77 -11 1 -26 -3
-33 -10z"/>
<path d="M8487 7723 c-3 -5 -2 -23 0 -41 7 -42 36 -41 41 2 4 33 -27 62 -41
39z"/>
<path d="M2790 7685 c0 -8 9 -15 20 -15 11 0 20 7 20 15 0 8 -9 15 -20 15 -11
0 -20 -7 -20 -15z"/>
<path d="M915 7444 c-19 -21 -25 -38 -25 -73 0 -111 98 -144 136 -45 13 35 14
49 4 78 -22 66 -74 84 -115 40z m75 -80 c0 -17 -7 -37 -15 -44 -38 -31 -63 53
-28 92 16 18 18 18 30 2 7 -10 13 -32 13 -50z"/>
<path d="M545 7450 c-4 -6 -2 -16 4 -23 5 -7 11 -42 13 -77 2 -50 7 -65 18
-65 12 0 15 16 15 85 0 79 -1 85 -22 88 -11 2 -24 -2 -28 -8z"/>
<path d="M2028 7455 c-10 -11 4 -150 17 -164 8 -7 21 -11 29 -8 12 5 16 21 16
72 0 37 -5 75 -10 86 -10 18 -40 26 -52 14z"/>
<path d="M1311 7426 c-32 -34 -27 -104 10 -125 22 -12 28 -12 52 4 23 15 27
24 27 65 0 40 -4 50 -25 64 -32 21 -37 20 -64 -8z m57 -59 c2 -19 -1 -27 -12
-27 -11 0 -16 10 -16 31 0 38 24 35 28 -4z"/>
<path d="M2416 7378 c7 -76 15 -95 33 -84 12 8 15 113 5 140 -3 9 -15 16 -25
16 -18 0 -19 -6 -13 -72z"/>
<path d="M2770 7415 c-25 -40 -21 -79 11 -114 43 -46 94 -9 94 69 0 55 -17 80
-55 80 -22 0 -34 -9 -50 -35z m68 -45 c5 -45 -12 -59 -33 -27 -13 20 -14 30
-5 47 16 29 34 20 38 -20z"/>
<path d="M4693 7433 c-33 -22 -33 -100 0 -131 31 -29 51 -28 76 4 29 36 28 97
-1 124 -26 24 -45 25 -75 3z m65 -59 c4 -25 -22 -49 -43 -40 -15 5 -21 47 -8
60 14 14 48 1 51 -20z"/>
<path d="M5469 7437 c-38 -29 -33 -121 9 -140 22 -10 27 -8 53 21 36 40 36 56
3 99 -27 35 -40 39 -65 20z m41 -67 c0 -35 -13 -45 -30 -25 -10 12 -10 21 -1
41 14 31 31 23 31 -16z"/>
<path d="M6197 7444 c-9 -9 4 -137 15 -149 15 -16 28 16 28 72 0 28 -3 58 -6
67 -6 16 -25 21 -37 10z"/>
<path d="M6574 7442 c-40 -26 -45 -102 -9 -137 29 -30 33 -30 63 -5 34 29 40
87 12 123 -21 27 -45 34 -66 19z m44 -74 c-3 -36 -24 -44 -41 -17 -14 23 -2
49 23 49 18 0 21 -5 18 -32z"/>
<path d="M7713 7424 c-3 -9 0 -20 7 -24 7 -4 13 -25 14 -46 1 -20 7 -39 14
-41 9 -4 12 13 12 61 0 60 -2 66 -20 66 -11 0 -23 -7 -27 -16z"/>
<path d="M1689 7414 c-18 -21 -17 -83 2 -95 39 -24 89 5 89 53 0 48 -62 77
-91 42z m45 -20 c21 -8 21 -40 0 -48 -21 -8 -34 1 -34 23 0 28 9 34 34 25z"/>
<path d="M5082 7418 c-17 -17 -15 -83 2 -98 8 -6 25 -10 38 -8 21 3 23 8 23
58 0 51 -2 55 -25 58 -14 2 -31 -3 -38 -10z"/>
<path d="M5815 7421 c-3 -5 -2 -28 1 -51 8 -47 24 -36 24 17 0 32 -14 51 -25
34z"/>
<path d="M6947 7424 c-3 -4 -2 -16 4 -26 6 -11 9 -31 6 -43 -5 -31 7 -50 28
-42 13 5 15 18 13 59 -3 45 -6 53 -23 56 -12 2 -24 0 -28 -4z"/>
<path d="M7326 7414 c-18 -18 -21 -56 -6 -85 17 -31 66 -25 85 11 14 27 14 33
0 60 -18 34 -53 40 -79 14z m69 -44 c0 -9 -11 -16 -27 -18 -23 -3 -28 1 -28
18 0 17 5 21 28 18 16 -2 27 -9 27 -18z"/>
<path d="M8102 7421 c-9 -5 -8 -12 3 -27 8 -10 15 -31 15 -46 0 -16 4 -28 9
-28 10 0 18 45 13 77 -4 24 -23 35 -40 24z"/>
<path d="M8470 7411 c-14 -26 -13 -74 2 -89 7 -7 24 -12 38 -12 34 0 50 17 50
53 0 44 -17 67 -50 67 -19 0 -33 -7 -40 -19z m68 -38 c5 -17 -26 -29 -40 -15
-6 6 -7 15 -3 22 9 14 37 9 43 -7z"/>
<path d="M200 7370 c0 -37 4 -50 13 -47 7 2 12 21 12 47 0 26 -5 45 -12 48 -9
2 -13 -11 -13 -48z"/>
<path d="M3951 7396 c-12 -14 -5 -46 10 -46 5 0 9 14 9 30 0 34 -3 36 -19 16z"/>
<path d="M3567 7386 c-10 -26 4 -47 27 -44 15 2 21 10 21 28 0 29 -38 41 -48
16z"/>
<path d="M3182 7381 c4 -13 18 -16 19 -4 0 4 -5 9 -11 12 -7 2 -11 -2 -8 -8z"/>
<path d="M8476 7166 c-39 -18 -55 -51 -56 -114 0 -57 19 -106 45 -116 22 -8
78 -7 91 2 29 20 44 59 44 117 0 63 -15 92 -57 114 -26 13 -30 13 -67 -3z m69
-85 c9 -54 -10 -121 -35 -121 -37 0 -51 128 -18 167 17 21 46 -3 53 -46z"/>
<path d="M1299 7131 c-21 -16 -24 -28 -24 -81 0 -53 3 -65 24 -81 48 -39 104
-13 117 55 17 95 -53 159 -117 107z m69 -76 c5 -71 -3 -83 -33 -55 -29 27 -32
65 -8 92 25 28 38 17 41 -37z"/>
<path d="M7330 7135 c-10 -12 -10 -19 -2 -27 7 -7 12 -38 12 -69 0 -58 19 -94
44 -86 16 5 20 165 5 183 -15 18 -43 18 -59 -1z"/>
<path d="M204 7126 c-4 -9 -2 -22 5 -29 14 -14 14 -62 -1 -86 -6 -10 -8 -27
-4 -37 6 -16 9 -16 33 8 36 37 36 99 0 136 -24 23 -27 24 -33 8z"/>
<path d="M2395 7115 c-37 -36 -35 -97 5 -137 28 -28 32 -29 53 -16 12 8 31 31
41 50 17 31 18 39 6 67 -27 66 -64 78 -105 36z m61 -39 c8 -35 1 -60 -19 -64
-14 -3 -17 4 -17 36 0 55 24 74 36 28z"/>
<path d="M6160 7108 c-26 -43 -25 -77 3 -119 30 -44 61 -49 98 -13 24 23 29
36 29 74 0 59 -26 90 -76 90 -28 0 -38 -6 -54 -32z m80 -55 c0 -39 -17 -76
-31 -68 -10 7 -13 108 -2 118 13 14 33 -16 33 -50z"/>
<path d="M2017 7124 c-4 -4 -3 -12 2 -18 6 -7 11 -36 13 -66 3 -49 6 -55 26
-58 22 -3 23 -2 20 70 -3 70 -4 73 -28 76 -14 2 -29 0 -33 -4z"/>
<path d="M3160 7110 c-22 -22 -27 -78 -10 -111 13 -24 72 -26 94 -3 25 25 21
99 -6 118 -30 21 -54 20 -78 -4z m64 -46 c8 -31 -4 -47 -30 -42 -25 4 -29 31
-9 52 23 22 32 20 39 -10z"/>
<path d="M4304 7109 c-28 -31 -25 -96 5 -120 27 -22 50 -24 75 -6 22 16 27
107 7 131 -19 22 -64 20 -87 -5z m61 -59 c0 -35 -21 -53 -31 -26 -9 23 5 68
19 63 7 -2 12 -19 12 -37z"/>
<path d="M1703 7084 c4 -22 7 -51 7 -66 0 -19 5 -28 15 -28 13 0 15 11 13 62
-3 52 -6 63 -22 66 -17 4 -18 0 -13 -34z"/>
<path d="M3937 7091 c-9 -16 -17 -36 -17 -45 0 -23 30 -66 46 -66 19 0 44 40
44 70 0 29 -25 70 -43 70 -7 0 -20 -13 -30 -29z m46 -23 c6 -20 -4 -49 -17
-45 -18 6 -20 57 -2 57 8 0 16 -6 19 -12z"/>
<path d="M4693 7084 c-16 -32 -16 -38 -2 -62 18 -33 44 -39 70 -16 24 22 24
62 0 92 -27 32 -49 27 -68 -14z"/>
<path d="M5082 7100 c-18 -29 -15 -84 6 -103 23 -21 27 -21 46 -1 19 18 22 94
4 112 -18 18 -42 15 -56 -8z m38 -51 c0 -5 -7 -9 -15 -9 -15 0 -20 12 -9 23 8
8 24 -1 24 -14z"/>
<path d="M7716 7098 c-22 -31 -20 -70 4 -96 12 -12 23 -22 25 -22 14 0 45 48
45 70 0 30 -25 70 -45 70 -8 0 -21 -10 -29 -22z m42 -50 c-2 -13 -7 -23 -13
-23 -5 0 -11 10 -13 23 -2 15 2 22 13 22 11 0 15 -7 13 -22z"/>
<path d="M3563 7097 c-15 -18 -4 -87 13 -87 10 0 14 13 14 44 0 47 -11 64 -27
43z"/>
<path d="M5816 7091 c-7 -11 4 -71 13 -71 10 0 11 69 1 75 -5 3 -11 1 -14 -4z"/>
<path d="M6575 7090 c-3 -5 -3 -16 2 -22 4 -7 8 -22 8 -33 0 -31 30 -24 33 8
5 40 -26 74 -43 47z"/>
<path d="M8106 7087 c-12 -9 -17 -23 -14 -42 2 -24 8 -31 30 -33 29 -3 54 27
44 53 -9 24 -41 36 -60 22z"/>
<path d="M550 7071 c-15 -29 4 -63 33 -59 18 2 22 10 22 38 0 28 -4 36 -22 38
-14 2 -26 -4 -33 -17z"/>
<path d="M934 7066 c-8 -34 1 -56 23 -56 31 0 45 16 41 46 -2 23 -9 30 -30 32
-22 3 -29 -2 -34 -22z"/>
<path d="M6969 7088 c-9 -36 -6 -70 7 -75 8 -3 20 -1 25 4 13 13 -1 73 -17 73
-8 0 -14 -1 -15 -2z"/>
<path d="M1309 6840 l-24 -21 23 -15 c19 -15 22 -25 22 -93 0 -81 12 -110 37
-90 14 12 19 191 7 223 -8 22 -37 20 -65 -4z"/>
<path d="M3543 6808 c-27 -31 -35 -67 -22 -111 12 -44 36 -59 79 -51 39 8 50
29 50 93 0 42 -4 53 -26 70 -34 27 -56 26 -81 -1z m51 -34 c30 -30 9 -109 -24
-89 -11 7 -14 64 -4 89 8 20 9 20 28 0z"/>
<path d="M5448 6790 c-26 -27 -30 -36 -25 -67 8 -48 33 -73 73 -73 42 0 64 30
64 86 0 34 -5 47 -26 63 -36 28 -50 26 -86 -9z m62 -61 c0 -35 -4 -49 -14 -49
-25 0 -35 55 -15 91 16 31 29 12 29 -42z"/>
<path d="M6552 6797 c-26 -28 -30 -92 -6 -125 11 -16 25 -22 55 -22 35 0 41 4
55 34 43 88 -42 179 -104 113z m66 -57 c4 -49 -9 -70 -33 -50 -29 24 -12 107
20 97 5 -2 11 -23 13 -47z"/>
<path d="M547 6792 c-26 -28 -22 -94 6 -121 29 -26 52 -20 72 20 20 38 19 56
-6 90 -23 33 -49 37 -72 11z m43 -57 c0 -16 -6 -25 -15 -25 -9 0 -15 9 -15 25
0 16 6 25 15 25 9 0 15 -9 15 -25z"/>
<path d="M927 6797 c-3 -8 -2 -18 3 -23 5 -5 10 -34 12 -64 2 -41 7 -55 18
-55 12 0 15 15 15 75 0 69 -2 75 -21 78 -12 2 -24 -3 -27 -11z"/>
<path d="M2018 6799 c-27 -15 -26 -124 1 -139 55 -29 104 14 96 84 -8 59 -50
83 -97 55z m51 -43 c9 -10 9 -20 0 -40 -17 -38 -29 -32 -29 14 0 42 9 50 29
26z"/>
<path d="M2407 6796 c-4 -9 -2 -18 3 -21 6 -4 10 -31 10 -61 0 -48 2 -54 20
-54 19 0 21 5 18 73 -3 65 -5 72 -24 75 -12 2 -24 -4 -27 -12z"/>
<path d="M2793 6804 c-7 -3 -17 -21 -23 -40 -10 -28 -9 -40 7 -72 34 -70 93
-46 93 39 0 64 -29 92 -77 73z m45 -63 c6 -38 -15 -49 -41 -23 -22 23 -22 23
-2 38 25 18 39 13 43 -15z"/>
<path d="M4324 6802 c-6 -4 -16 -17 -23 -29 -36 -69 27 -155 79 -108 28 26 29
120 1 135 -23 12 -42 13 -57 2z m42 -77 c-6 -22 -9 -25 -21 -15 -18 15 -19 32
-3 48 18 18 32 -2 24 -33z"/>
<path d="M5087 6803 c-3 -4 -2 -37 2 -72 10 -107 46 -84 39 25 -2 36 -7 50
-20 52 -9 2 -18 -1 -21 -5z"/>
<path d="M6192 6797 c-7 -8 -7 -18 -2 -27 6 -8 10 -34 10 -57 0 -44 16 -65 31
-42 10 16 12 100 3 123 -7 19 -28 21 -42 3z"/>
<path d="M7321 6801 c-18 -11 -25 -89 -12 -123 9 -24 16 -28 50 -28 30 0 44 6
55 22 21 29 21 102 0 122 -17 17 -70 21 -93 7z m57 -33 c17 -17 15 -54 -4 -72
-22 -23 -34 -11 -34 33 0 50 13 64 38 39z"/>
<path d="M8486 6802 c-3 -5 -2 -38 2 -73 5 -50 11 -64 25 -67 16 -3 18 4 15
70 -2 58 -6 73 -20 76 -9 2 -19 -1 -22 -6z"/>
<path d="M209 6800 c-5 -20 -4 -122 2 -126 11 -7 39 37 39 62 0 19 -37 77 -41
64z"/>
<path d="M4699 6793 c-1 -5 0 -12 1 -18 2 -5 6 -30 9 -55 5 -36 10 -45 26 -45
16 0 21 8 23 39 5 61 -4 86 -33 86 -14 0 -26 -3 -26 -7z"/>
<path d="M1688 6762 c-14 -23 -15 -32 -5 -53 18 -34 66 -33 86 2 12 22 12 28
-4 52 -23 36 -56 35 -77 -1z m43 -2 c23 -13 25 -36 3 -44 -28 -11 -34 -7 -34
24 0 33 3 35 31 20z"/>
<path d="M7721 6766 c-25 -45 9 -110 41 -78 11 11 9 16 -7 29 -14 11 -16 17
-7 20 16 6 16 53 -1 53 -8 0 -19 -11 -26 -24z"/>
<path d="M3182 6743 c2 -26 8 -38 18 -38 19 0 25 41 10 61 -21 24 -31 16 -28
-23z"/>
<path d="M6957 6767 c-8 -22 4 -67 18 -67 19 0 28 36 15 60 -12 23 -26 26 -33
7z"/>
<path d="M3945 6760 c-12 -20 4 -62 23 -58 23 4 24 61 0 66 -9 2 -19 -2 -23
-8z"/>
<path d="M5810 6743 c0 -15 4 -34 9 -42 8 -12 12 -13 26 -1 24 20 16 64 -12
68 -19 3 -23 -1 -23 -25z"/>
<path d="M8095 6750 c-7 -23 10 -60 30 -60 19 0 28 35 15 60 -14 25 -37 26
-45 0z"/>
<path d="M5794 6515 c-4 -9 1 -24 9 -33 11 -12 17 -42 19 -97 3 -72 5 -80 23
-80 19 0 20 7 20 110 l0 110 -33 3 c-22 2 -34 -2 -38 -13z"/>
<path d="M6577 6502 c-14 -3 -17 -9 -12 -25 4 -12 10 -51 14 -87 4 -48 10 -65
21 -65 12 0 16 18 18 86 3 90 -2 100 -41 91z"/>
<path d="M1306 6492 c-3 -5 1 -18 9 -28 8 -10 15 -40 15 -65 0 -29 6 -51 15
-59 21 -18 27 2 23 86 -3 66 -4 69 -30 72 -14 2 -29 -1 -32 -6z"/>
<path d="M4315 6491 c-3 -6 -1 -19 5 -30 5 -11 10 -35 10 -55 0 -45 9 -66 26
-66 12 0 14 15 12 78 -3 70 -5 77 -25 80 -11 2 -24 -2 -28 -7z"/>
<path d="M6186 6484 c-22 -21 -29 -57 -22 -99 7 -34 9 -35 50 -35 39 0 45 3
56 30 15 35 7 73 -20 100 -24 24 -43 25 -64 4z m48 -49 c7 -28 -10 -69 -25
-60 -5 4 -9 24 -9 46 0 45 24 55 34 14z"/>
<path d="M6924 6475 c-21 -32 -15 -107 11 -135 21 -24 67 -26 88 -5 20 19 29
81 19 125 -7 33 -10 35 -54 38 -41 3 -49 0 -64 -23z m80 -21 c9 -23 7 -67 -4
-84 -7 -12 -13 -12 -27 -4 -22 14 -30 83 -11 95 20 13 35 11 42 -7z"/>
<path d="M3947 6423 c7 -77 7 -78 28 -70 10 5 15 20 15 49 0 62 -9 88 -31 88
-17 0 -18 -6 -12 -67z"/>
<path d="M8473 6473 c-18 -12 -23 -25 -23 -57 0 -52 13 -66 62 -66 32 0 40 4
48 26 15 38 12 69 -9 92 -21 26 -47 27 -78 5z m65 -59 c2 -15 -3 -23 -17 -27
-24 -6 -46 16 -37 39 9 23 50 14 54 -12z"/>
<path d="M558 6470 c-1 -5 -1 -35 0 -65 3 -46 7 -56 20 -53 31 6 28 128 -2
128 -8 0 -16 -4 -18 -10z"/>
<path d="M2405 6466 c-12 -9 -19 -26 -19 -49 0 -47 19 -69 58 -65 30 3 31 5
34 57 3 55 -5 71 -39 71 -8 0 -24 -6 -34 -14z m43 -59 c-2 -12 -7 -22 -13 -22
-12 0 -19 41 -10 63 6 16 7 16 16 -1 6 -10 9 -28 7 -40z"/>
<path d="M3558 6468 c-9 -26 4 -108 17 -108 15 0 25 83 12 106 -10 17 -23 18
-29 2z"/>
<path d="M932 6458 c-20 -20 -15 -75 10 -92 20 -15 24 -14 45 6 25 23 29 48
13 79 -12 21 -50 25 -68 7z m43 -48 c-5 -8 -11 -8 -17 -2 -6 6 -7 16 -3 22 5
8 11 8 17 2 6 -6 7 -16 3 -22z"/>
<path d="M5092 6423 c3 -51 24 -69 34 -29 9 35 -3 76 -22 76 -12 0 -14 -10
-12 -47z"/>
<path d="M7724 6459 c-3 -6 -1 -16 5 -22 6 -6 12 -22 12 -36 1 -18 4 -14 9 14
4 22 6 43 3 48 -6 10 -21 9 -29 -4z"/>
<path d="M2030 6438 c0 -13 4 -29 9 -36 6 -10 10 -7 15 13 4 14 4 30 1 35 -11
18 -25 10 -25 -12z"/>
<path d="M2790 6451 c0 -5 6 -11 14 -14 8 -3 16 -16 19 -29 3 -15 5 -10 6 15
1 31 -2 37 -19 37 -11 0 -20 -4 -20 -9z"/>
<path d="M3174 6436 c-9 -37 2 -58 28 -54 19 2 23 9 23 38 0 29 -4 36 -22 38
-17 3 -24 -3 -29 -22z"/>
<path d="M4705 6429 c-4 -18 -3 -35 4 -42 15 -15 27 0 34 41 6 27 4 32 -12 32
-14 0 -22 -10 -26 -31z"/>
<path d="M5476 6428 c9 -46 24 -59 24 -20 0 18 0 35 1 40 0 4 -7 8 -15 10 -13
3 -15 -3 -10 -30z"/>
<path d="M7342 6423 c2 -21 8 -38 13 -38 6 0 11 17 13 38 3 29 0 37 -13 37
-13 0 -16 -8 -13 -37z"/>
<path d="M8100 6451 c0 -5 5 -13 10 -16 6 -3 10 -15 10 -26 0 -10 5 -19 11
-19 18 0 6 64 -13 68 -10 2 -18 -1 -18 -7z"/>
<path d="M1692 6180 c-26 -21 -39 -81 -28 -123 3 -14 18 -32 32 -42 25 -16 30
-16 59 -2 23 11 34 24 39 48 9 49 -3 97 -31 119 -32 25 -42 25 -71 0z m64 -64
c11 -45 -34 -91 -50 -50 -8 21 -8 59 1 67 15 16 43 6 49 -17z"/>
<path d="M4306 6179 c-23 -18 -26 -28 -26 -79 0 -48 4 -63 22 -80 39 -36 81
-22 112 39 21 39 16 68 -20 110 -30 36 -51 39 -88 10z m62 -82 c2 -34 -1 -47
-10 -47 -34 0 -48 43 -27 81 17 32 34 16 37 -34z"/>
<path d="M7311 6175 c-29 -38 -34 -76 -15 -124 26 -66 73 -80 115 -35 32 34
35 130 5 163 -28 30 -79 28 -105 -4z m76 -46 c24 -50 -14 -113 -44 -73 -16 21
-16 44 -3 79 12 31 30 29 47 -6z"/>
<path d="M525 6150 c-18 -35 -19 -53 -3 -97 11 -30 16 -33 53 -33 54 0 75 23
75 78 0 53 -26 82 -75 82 -28 0 -37 -5 -50 -30z m73 -59 c-2 -25 -8 -37 -20
-39 -15 -3 -18 4 -18 41 0 50 7 62 27 45 9 -7 13 -25 11 -47z"/>
<path d="M3180 6173 c-40 -14 -54 -88 -24 -131 19 -27 64 -29 87 -4 20 22 23
105 5 120 -18 14 -50 21 -68 15z m45 -54 c8 -12 -2 -59 -13 -59 -23 0 -44 28
-38 48 8 23 40 30 51 11z"/>
<path d="M8082 6157 c-26 -28 -29 -82 -6 -115 11 -16 25 -22 55 -22 34 0 41 4
50 28 13 34 6 112 -12 123 -25 16 -65 9 -87 -14z m66 -59 c-4 -51 -31 -61 -36
-15 -4 37 4 57 23 57 13 0 15 -9 13 -42z"/>
<path d="M8482 6168 c-7 -9 -7 -19 -2 -28 6 -8 10 -39 10 -67 0 -47 2 -53 20
-53 19 0 21 5 18 77 -2 62 -6 78 -19 81 -9 1 -21 -3 -27 -10z"/>
<path d="M926 6162 c-2 -4 -1 -14 5 -22 5 -8 9 -33 9 -55 0 -22 4 -46 9 -54
18 -28 31 1 31 70 0 67 -1 69 -24 69 -14 0 -27 -4 -30 -8z"/>
<path d="M1315 6143 c3 -16 9 -45 12 -65 3 -23 11 -38 19 -38 11 0 14 16 14
65 0 63 -1 65 -26 65 -24 0 -26 -3 -19 -27z"/>
<path d="M2026 6149 c-36 -29 -36 -80 1 -104 24 -16 28 -16 52 -2 29 18 40 69
20 93 -26 31 -46 35 -73 13z m39 -49 c0 -7 -6 -15 -12 -17 -8 -3 -13 4 -13 17
0 13 5 20 13 18 6 -3 12 -11 12 -18z"/>
<path d="M2396 6148 c-33 -47 -9 -128 38 -128 36 0 47 22 44 87 -3 57 -4 58
-35 61 -23 2 -35 -3 -47 -20z m54 -54 c0 -24 -5 -34 -15 -34 -10 0 -15 10 -15
33 0 19 3 37 6 40 13 13 24 -5 24 -39z"/>
<path d="M3937 6152 c-21 -23 -22 -95 -3 -112 57 -46 113 61 60 114 -20 21
-37 20 -57 -2z m41 -54 c-3 -34 -20 -42 -26 -13 -5 22 5 45 18 45 7 0 10 -14
8 -32z"/>
<path d="M6180 6151 c-17 -33 -12 -96 9 -115 53 -48 106 61 58 122 -15 19 -55
14 -67 -7z m50 -50 c0 -35 -15 -48 -28 -25 -12 22 -4 54 14 54 9 0 14 -11 14
-29z"/>
<path d="M6560 6144 c-22 -58 -5 -114 35 -114 34 0 55 26 55 69 0 65 -69 100
-90 45z m55 -25 c4 -5 4 -22 0 -36 -6 -24 -8 -25 -22 -11 -9 10 -13 24 -8 37
7 23 20 27 30 10z"/>
<path d="M7704 6145 c-29 -45 -2 -125 42 -125 7 0 20 7 28 16 19 19 22 104 4
122 -20 20 -56 14 -74 -13z m54 -49 c-2 -15 -7 -28 -13 -29 -12 -2 -19 38 -10
60 9 25 27 1 23 -31z"/>
<path d="M208 6153 c-4 -7 -3 -101 1 -112 0 -2 8 2 16 9 19 16 20 84 1 99 -8
7 -16 8 -18 4z"/>
<path d="M2787 6153 c-4 -3 -7 -15 -7 -25 0 -20 20 -24 37 -7 8 8 13 5 18 -10
9 -29 0 -39 -30 -33 -27 5 -34 -15 -13 -36 32 -32 78 4 78 59 0 19 -5 40 -12
47 -13 13 -60 16 -71 5z"/>
<path d="M5472 6144 c-26 -18 -29 -65 -6 -88 19 -19 36 -20 52 -4 19 19 14 28
-14 28 -19 0 -25 4 -22 18 2 11 11 16 26 14 27 -4 30 23 4 37 -14 7 -25 6 -40
-5z"/>
<path d="M3564 6136 c-8 -21 0 -79 11 -83 32 -10 56 54 30 81 -20 20 -34 21
-41 2z"/>
<path d="M5095 6140 c-10 -16 4 -82 16 -75 12 8 12 72 0 80 -5 3 -13 0 -16 -5z"/>
<path d="M6963 6138 c-29 -38 -17 -91 19 -86 20 3 23 9 23 48 0 47 -21 65 -42
38z"/>
<path d="M4706 6131 c-3 -5 -1 -22 4 -37 13 -32 34 -20 28 17 -3 24 -22 36
-32 20z"/>
<path d="M5810 6101 c0 -35 15 -48 36 -30 22 18 14 53 -13 57 -20 3 -23 -1
-23 -27z"/>
<path d="M7327 5869 c-18 -10 -18 -12 -1 -31 13 -14 18 -37 19 -80 1 -42 5
-62 16 -68 32 -18 40 4 37 96 -3 87 -4 89 -28 91 -14 2 -33 -2 -43 -8z"/>
<path d="M205 5858 c-10 -24 -1 -163 10 -163 13 0 19 155 6 168 -7 7 -12 5
-16 -5z"/>
<path d="M2015 5860 c-4 -6 -1 -18 7 -27 8 -9 13 -41 13 -77 0 -58 1 -61 25
-61 25 0 25 1 25 85 l0 85 -32 3 c-17 2 -34 -2 -38 -8z"/>
<path d="M3555 5858 c-2 -7 -1 -44 3 -83 5 -52 11 -70 22 -70 12 0 15 16 15
80 0 68 -3 80 -18 83 -9 2 -19 -2 -22 -10z"/>
<path d="M4296 5848 c-10 -13 -16 -43 -16 -74 0 -61 20 -84 73 -84 31 0 38 4
50 33 25 55 26 63 7 105 -18 39 -22 42 -59 42 -30 0 -44 -6 -55 -22z m74 -69
c0 -36 -4 -49 -15 -49 -33 0 -44 82 -12 102 20 12 27 -2 27 -53z"/>
<path d="M1706 5793 c4 -38 11 -74 17 -81 28 -35 52 82 27 129 -6 10 -20 19
-31 19 -18 0 -19 -5 -13 -67z"/>
<path d="M5806 5844 c-3 -9 -2 -22 3 -28 5 -6 11 -32 13 -56 2 -34 7 -46 21
-48 16 -3 18 4 15 70 -3 66 -5 73 -24 76 -13 2 -24 -4 -28 -14z"/>
<path d="M8468 5841 c-12 -12 -18 -33 -18 -64 0 -37 5 -49 26 -66 34 -27 38
-26 69 4 33 33 35 102 5 128 -26 22 -60 21 -82 -2z m72 -59 c-1 -50 -53 -57
-58 -8 -2 16 2 32 9 37 18 11 49 -8 49 -29z"/>
<path d="M565 5841 c-64 -13 -54 -123 12 -129 50 -5 80 57 53 107 -12 24 -28
29 -65 22z m30 -61 c0 -16 -6 -26 -17 -28 -14 -3 -18 3 -18 28 0 25 4 31 18
28 11 -2 17 -12 17 -28z"/>
<path d="M3177 5843 c-10 -9 4 -117 17 -125 19 -13 26 3 26 62 0 43 -4 59 -16
64 -19 7 -19 7 -27 -1z"/>
<path d="M5087 5843 c-3 -5 -2 -35 2 -68 4 -44 10 -60 21 -60 16 0 26 69 15
112 -5 22 -29 31 -38 16z"/>
<path d="M6572 5837 c-7 -8 -9 -17 -5 -21 4 -4 10 -28 13 -54 3 -33 10 -47 20
-47 23 0 22 128 -1 133 -9 1 -21 -3 -27 -11z"/>
<path d="M927 5833 c-4 -3 -7 -28 -7 -55 0 -41 3 -50 23 -57 46 -18 79 32 63
95 -5 19 -13 24 -40 24 -18 0 -36 -3 -39 -7z m53 -53 c0 -25 -18 -36 -26 -16
-8 21 3 49 16 41 5 -3 10 -15 10 -25z"/>
<path d="M3935 5830 c-4 -7 -2 -17 4 -23 6 -6 11 -23 11 -38 0 -42 20 -46 22
-5 1 20 2 44 2 53 1 20 -29 30 -39 13z"/>
<path d="M4691 5821 c-16 -30 -13 -66 8 -92 16 -20 22 -22 45 -11 30 13 43 53
30 91 -12 34 -67 43 -83 12z"/>
<path d="M5466 5832 c-2 -4 -1 -14 5 -22 5 -8 9 -32 9 -52 0 -27 4 -38 15 -38
12 0 15 13 15 60 0 53 -2 60 -19 60 -11 0 -22 -4 -25 -8z"/>
<path d="M7724 5829 c-10 -17 13 -36 27 -22 12 12 4 33 -11 33 -5 0 -12 -5
-16 -11z"/>
<path d="M8096 5824 c-3 -9 -6 -33 -6 -55 0 -45 17 -58 55 -41 32 15 42 55 21
87 -19 28 -60 34 -70 9z"/>
<path d="M2420 5818 c0 -7 5 -20 10 -28 8 -12 10 -9 10 13 0 15 -4 27 -10 27
-5 0 -10 -6 -10 -12z"/>
<path d="M6957 5806 c-9 -22 4 -56 19 -56 21 0 28 25 14 49 -12 24 -26 27 -33
7z"/>
<path d="M2810 5791 c0 -11 5 -23 10 -26 6 -4 10 5 10 19 0 14 -4 26 -10 26
-5 0 -10 -9 -10 -19z"/>
<path d="M934 5556 c-18 -14 -18 -16 -2 -44 11 -19 17 -48 17 -80 -2 -60 6
-78 27 -61 18 15 20 169 2 187 -15 15 -20 15 -44 -2z"/>
<path d="M2394 5547 c-20 -18 -28 -35 -31 -73 -5 -43 -2 -54 22 -82 18 -22 36
-32 54 -32 66 0 98 126 46 183 -31 33 -56 34 -91 4z m64 -79 c2 -31 -2 -49
-12 -57 -13 -11 -17 -9 -26 14 -12 33 -12 37 0 70 15 39 35 25 38 -27z"/>
<path d="M3931 5541 c-37 -34 -46 -69 -31 -115 20 -63 94 -66 125 -5 24 45 2
114 -44 139 -15 8 -25 4 -50 -19z m53 -47 c10 -27 7 -61 -8 -73 -20 -17 -39
21 -31 60 7 31 29 39 39 13z"/>
<path d="M8087 5542 c-23 -24 -27 -37 -27 -84 0 -49 3 -59 26 -77 36 -28 50
-26 85 8 40 40 41 105 3 150 -32 38 -53 39 -87 3z m63 -74 c0 -60 -13 -77 -34
-47 -26 38 -18 89 15 89 16 0 19 -7 19 -42z"/>
<path d="M3551 5536 c-8 -10 -9 -16 -1 -21 5 -3 10 -33 10 -66 0 -57 1 -60 23
-57 19 3 22 10 25 60 4 82 -24 124 -57 84z"/>
<path d="M6573 5540 c-28 -12 -43 -40 -43 -84 0 -86 110 -106 135 -25 9 27 -2
84 -18 97 -20 16 -51 21 -74 12z m45 -75 c4 -45 -10 -64 -33 -45 -18 15 -20
76 -2 83 23 10 32 0 35 -38z"/>
<path d="M200 5526 c0 -8 5 -18 10 -21 14 -9 13 -78 -2 -93 -16 -16 2 -35 25
-26 34 13 44 104 14 142 -13 17 -47 15 -47 -2z"/>
<path d="M1324 5532 c-34 -22 -43 -84 -18 -120 32 -46 94 -13 94 51 0 53 -42
92 -76 69z m46 -78 c0 -26 -17 -33 -26 -9 -8 20 3 48 16 40 5 -3 10 -17 10
-31z"/>
<path d="M2773 5505 c-34 -72 25 -157 76 -111 26 24 33 71 16 112 -12 28 -19
34 -45 34 -25 0 -33 -6 -47 -35z m65 -43 c3 -27 0 -32 -18 -32 -26 0 -35 22
-20 50 16 29 34 20 38 -18z"/>
<path d="M5449 5513 c-5 -16 -12 -33 -14 -40 -7 -20 16 -73 36 -84 28 -14 57
-2 74 31 19 37 19 54 0 90 -13 25 -22 30 -51 30 -29 0 -36 -5 -45 -27z m59
-54 c-2 -19 -7 -33 -13 -32 -12 3 -19 49 -10 71 10 26 27 -2 23 -39z"/>
<path d="M6181 5531 c-7 -5 -16 -31 -19 -59 -4 -41 -1 -53 17 -71 28 -28 47
-27 76 5 29 31 31 62 10 104 -16 31 -54 40 -84 21z m49 -72 c0 -28 -4 -39 -12
-37 -14 5 -23 51 -14 74 10 27 26 4 26 -37z"/>
<path d="M6950 5518 c-39 -42 -17 -128 33 -128 21 0 57 47 57 75 0 27 -36 75
-55 75 -8 0 -23 -10 -35 -22z m55 -48 c3 -5 2 -17 -3 -27 -9 -15 -11 -14 -20
4 -15 27 7 49 23 23z"/>
<path d="M7696 5518 c-19 -27 -20 -74 -3 -108 9 -19 21 -25 45 -25 39 -1 45 3
61 32 14 28 14 65 -1 98 -15 34 -79 36 -102 3z m69 -37 c7 -32 -10 -75 -26
-66 -5 4 -9 26 -9 51 0 52 24 62 35 15z"/>
<path d="M558 5509 c-33 -19 -17 -109 20 -109 38 0 57 91 23 110 -23 12 -22
12 -43 -1z"/>
<path d="M1700 5495 c-11 -13 -8 -15 25 -15 25 0 35 4 33 13 -7 18 -43 20 -58
2z"/>
<path d="M2034 5499 c-3 -6 -2 -15 4 -21 7 -7 7 -16 -1 -29 -16 -26 6 -49 31
-33 20 13 26 36 18 70 -7 25 -39 33 -52 13z"/>
<path d="M3166 5494 c-18 -46 4 -89 41 -82 14 2 18 14 20 51 2 46 2 47 -26 47
-17 0 -31 -6 -35 -16z"/>
<path d="M4319 5505 c-6 -22 -4 -73 3 -87 12 -25 33 -22 57 8 25 32 26 47 5
68 -14 15 -62 23 -65 11z m48 -41 c9 -23 -11 -38 -26 -20 -13 16 -7 36 10 36
5 0 12 -7 16 -16z"/>
<path d="M4707 5503 c-2 -4 -2 -23 0 -40 4 -24 10 -33 25 -33 16 0 19 6 16 37
-2 26 -8 39 -20 41 -9 2 -18 -1 -21 -5z"/>
<path d="M5089 5484 c-15 -40 -3 -66 29 -62 21 2 28 9 30 31 6 54 -40 78 -59
31z"/>
<path d="M5819 5508 c-1 -2 -3 -20 -4 -41 -4 -42 14 -59 40 -37 23 19 3 79
-27 80 -5 0 -8 -1 -9 -2z"/>
<path d="M8486 5502 c-10 -16 10 -77 27 -80 14 -3 17 4 17 42 0 39 -3 46 -19
46 -11 0 -22 -3 -25 -8z"/>
<path d="M7342 5469 c2 -19 8 -33 13 -31 15 3 12 55 -3 60 -10 3 -13 -5 -10
-29z"/>
<path d="M1682 5465 c17 -43 34 -65 50 -65 14 0 19 6 16 23 -2 16 -9 21 -22
19 -11 -2 -26 4 -34 15 -8 10 -13 14 -10 8z"/>
<path d="M2391 5231 c-27 -26 -31 -35 -31 -84 0 -45 5 -61 26 -86 23 -28 25
-37 19 -79 -4 -26 -7 -91 -6 -144 0 -74 -3 -101 -15 -112 -25 -26 -220 -117
-236 -111 -11 5 -18 38 -27 138 -16 169 -31 258 -48 278 -19 23 -16 39 12 61
46 36 24 118 -32 118 -46 0 -70 -72 -38 -117 14 -20 13 -21 -23 -27 -84 -13
-95 -48 -82 -261 5 -82 13 -175 16 -207 6 -52 4 -58 -20 -79 -22 -19 -26 -31
-26 -77 0 -49 3 -58 35 -87 31 -30 35 -40 45 -120 6 -49 15 -96 21 -106 34
-64 149 -65 178 -2 6 13 11 77 11 143 0 116 1 119 26 139 15 12 32 21 39 21 6
0 38 14 70 30 59 30 90 37 99 22 3 -5 8 -45 12 -88 6 -77 6 -80 -22 -114 -25
-29 -29 -42 -29 -93 0 -70 15 -87 99 -111 94 -28 142 -17 177 41 20 32 20 35
5 80 -33 97 -14 115 40 37 64 -92 142 -140 268 -164 61 -11 80 -11 165 6 86
16 99 22 128 54 l32 35 45 -50 44 -50 63 0 c62 0 64 1 67 28 2 15 -6 73 -18
130 -31 147 -37 274 -16 315 31 60 81 63 56 3 -24 -58 17 -131 74 -131 26 0
56 45 56 84 0 50 20 43 42 -15 13 -35 17 -79 17 -206 l1 -161 31 -26 c73 -62
144 -13 173 117 10 45 31 26 36 -34 4 -44 9 -55 25 -58 11 -2 33 -15 50 -28
41 -35 99 -27 138 19 26 30 28 38 24 98 -2 36 -14 89 -26 120 -57 138 -62 201
-20 254 16 21 29 26 64 26 56 0 69 -17 70 -92 1 -57 3 -63 37 -92 29 -24 78
-107 78 -132 0 -2 -13 -4 -29 -4 -71 0 -101 -85 -55 -155 31 -48 92 -17 98 50
2 22 4 44 5 48 1 5 25 -13 54 -38 67 -60 116 -79 192 -77 44 2 77 10 121 32
34 17 67 30 73 30 7 0 18 -15 26 -33 13 -31 76 -77 107 -77 7 0 31 9 53 20 22
11 50 20 63 20 36 0 82 52 82 92 0 49 -41 91 -83 83 -28 -5 -34 -2 -48 22 -40
70 -59 151 -59 257 0 115 -14 163 -54 190 -75 48 -172 -23 -164 -121 3 -36 1
-38 -29 -41 -81 -8 -85 -142 -5 -142 42 0 36 -37 -16 -92 -31 -33 -90 -39
-114 -10 -66 75 -92 217 -66 358 10 55 9 66 -6 89 -23 35 -74 57 -99 43 -21
-11 -33 -3 -39 27 -5 28 -82 35 -92 9 -9 -24 9 -40 28 -25 19 16 36 6 36 -20
0 -15 -6 -19 -27 -17 -16 1 -38 -2 -51 -6 -14 -5 -39 -1 -66 9 -40 15 -46 15
-74 1 -17 -9 -39 -16 -49 -16 -10 0 -26 -7 -36 -15 -31 -23 -47 -8 -47 44 0
37 -5 52 -23 69 -30 29 -41 28 -67 -5 -19 -24 -21 -35 -15 -85 5 -44 3 -62 -9
-80 -10 -13 -16 -43 -16 -75 0 -55 -14 -78 -25 -42 -7 21 -68 112 -90 134 -19
19 -86 55 -103 55 -29 0 -80 38 -84 61 -5 33 -28 36 -28 5 0 -27 -48 -66 -81
-66 -10 0 -37 -11 -60 -25 -31 -17 -59 -25 -95 -25 -50 0 -84 -19 -84 -47 0
-6 -7 -16 -15 -23 -12 -10 -17 -5 -31 29 -18 45 -54 71 -145 102 -56 20 -60
20 -111 3 -112 -37 -140 -50 -182 -90 -54 -50 -83 -105 -99 -187 -9 -42 -18
-62 -27 -62 -21 0 -27 83 -29 361 -1 210 -3 232 -19 247 -10 10 -25 17 -33 17
-26 0 -39 23 -39 71 0 40 -4 51 -31 73 -39 33 -50 33 -88 -3z m70 -48 c13 -35
3 -92 -18 -100 -19 -8 -33 14 -33 52 0 73 31 101 51 48z m-396 -38 c0 -10 -6
-20 -12 -22 -8 -3 -13 5 -13 22 0 17 5 25 13 23 6 -3 12 -13 12 -23z m1913
-319 c-2 -15 -7 -28 -13 -29 -12 -2 -19 38 -10 60 9 25 27 1 23 -31z m-952
-253 c11 -44 -6 -58 -72 -58 -47 0 -59 3 -62 17 -5 28 48 68 90 68 32 0 39 -4
44 -27z m574 -22 c15 -30 12 -78 -6 -85 -25 -10 -34 2 -34 48 0 58 19 75 40
37z m1140 -47 c0 -11 -5 -14 -16 -10 -9 3 -18 6 -20 6 -3 0 -2 5 1 10 10 16
35 12 35 -6z m-1503 -82 c9 -6 17 -59 14 -99 -1 -7 -13 -13 -28 -13 -16 0 -56
-9 -90 -20 -60 -19 -163 -19 -163 0 0 9 36 20 63 20 36 0 126 50 154 84 30 39
32 40 50 28z m1128 -227 c0 -42 -19 -58 -30 -25 -9 29 3 72 18 67 7 -2 12 -21
12 -42z m769 12 c8 -21 6 -31 -6 -43 -22 -22 -38 -9 -38 30 0 54 27 62 44 13z"/>
<path d="M550 5220 c-9 -16 -9 -25 -1 -33 6 -6 11 -35 11 -63 0 -56 10 -73 29
-50 7 9 11 42 9 87 -2 60 -6 74 -20 77 -9 2 -22 -6 -28 -18z"/>
<path d="M933 5225 c-12 -8 -27 -31 -33 -50 -25 -77 55 -150 105 -95 28 31 26
102 -4 134 -28 30 -38 32 -68 11z m47 -81 c0 -32 -4 -44 -15 -44 -20 0 -30 46
-16 76 16 36 31 20 31 -32z"/>
<path d="M2770 5218 c-29 -32 -28 -119 2 -148 29 -26 72 -26 98 2 25 27 28
107 4 143 -21 33 -75 34 -104 3z m68 -63 c4 -58 -2 -77 -23 -69 -11 5 -15 21
-15 58 0 29 3 56 7 60 16 15 28 -4 31 -49z"/>
<path d="M3550 5220 c-8 -14 -8 -25 -1 -33 5 -7 11 -35 13 -62 2 -36 7 -50 18
-50 12 0 15 16 15 80 0 67 -3 80 -17 83 -9 2 -22 -6 -28 -18z"/>
<path d="M5792 5217 c-17 -18 -22 -36 -22 -73 0 -58 13 -80 55 -88 70 -15 110
100 56 158 -30 32 -61 33 -89 3z m56 -19 c18 -18 15 -95 -4 -102 -26 -10 -34
3 -34 53 0 60 12 75 38 49z"/>
<path d="M6177 5222 c-43 -48 -41 -124 6 -157 29 -21 41 -19 76 11 25 21 31
33 31 65 0 77 -70 128 -113 81z m63 -73 c0 -38 -9 -59 -26 -59 -10 0 -14 14
-14 53 0 30 3 57 7 61 12 11 33 -25 33 -55z"/>
<path d="M7705 5230 c-3 -5 1 -20 9 -32 10 -14 16 -44 16 -80 0 -60 11 -78 35
-58 18 15 21 130 5 161 -11 20 -54 26 -65 9z"/>
<path d="M1691 5184 c-28 -35 -26 -48 7 -85 l28 -32 27 29 c31 33 34 55 11 89
-21 32 -47 32 -73 -1z m54 -39 c0 -13 -8 -21 -22 -23 -19 -3 -23 1 -23 23 0
22 4 26 23 23 14 -2 22 -10 22 -23z"/>
<path d="M5070 5191 c-24 -46 2 -121 43 -121 35 0 60 76 41 124 -9 24 -71 21
-84 -3z m57 -37 c8 -21 -13 -42 -28 -27 -13 13 -5 43 11 43 6 0 13 -7 17 -16z"/>
<path d="M5457 5204 c-4 -4 -7 -31 -7 -61 0 -47 3 -55 25 -65 21 -9 28 -8 45
7 17 15 20 29 18 69 -3 50 -3 51 -38 54 -20 2 -39 0 -43 -4z m61 -48 c4 -20
-16 -48 -29 -40 -11 6 -12 48 -2 58 11 10 28 1 31 -18z"/>
<path d="M7337 5153 c9 -99 43 -98 39 1 -1 44 -4 51 -23 54 -21 3 -21 0 -16
-55z"/>
<path d="M6955 5191 c-3 -6 -2 -28 1 -51 5 -30 11 -40 23 -38 20 4 26 49 11
78 -11 21 -25 26 -35 11z"/>
<path d="M8100 5190 c0 -19 25 -90 31 -90 9 0 17 60 11 82 -5 19 -42 26 -42 8z"/>
<path d="M1320 5175 c-17 -21 -2 -36 28 -28 14 3 22 12 20 22 -4 22 -32 25
-48 6z"/>
<path d="M3946 5181 c-6 -9 -4 -19 10 -58 5 -15 8 -13 15 10 11 41 -7 77 -25
48z"/>
<path d="M6567 5183 c-4 -3 -7 -24 -7 -45 0 -29 4 -38 18 -39 46 -3 62 9 62
48 0 31 -53 57 -73 36z"/>
<path d="M3175 5171 c-6 -11 15 -61 26 -61 12 0 22 46 14 59 -8 13 -32 14 -40
2z"/>
<path d="M4700 5140 c0 -36 2 -40 25 -40 18 0 29 8 37 26 11 22 10 28 -7 40
-10 8 -27 14 -37 14 -14 0 -18 -8 -18 -40z"/>
<path d="M8480 5142 c0 -48 21 -61 51 -31 31 31 22 63 -18 67 -32 3 -33 2 -33
-36z"/>
<path d="M1316 5122 c-9 -14 21 -35 40 -28 8 3 14 12 12 19 -6 15 -44 22 -52
9z"/>
<path d="M5228 5045 c-3 -3 -30 -10 -60 -15 -164 -26 -229 -103 -170 -203 19
-31 47 -43 66 -28 8 6 20 9 29 5 8 -3 46 4 85 15 72 22 118 26 139 13 11 -7
21 -50 58 -257 8 -44 22 -120 30 -168 20 -105 16 -121 -24 -112 -80 17 -139
-79 -94 -155 45 -77 246 -121 389 -85 71 18 145 47 170 67 81 65 125 116 154
175 24 50 34 63 41 52 5 -8 9 -26 9 -40 0 -28 69 -129 110 -163 61 -50 224
-94 301 -82 113 18 201 68 246 139 l26 41 -34 28 c-44 37 -82 42 -149 22 -56
-17 -168 -20 -183 -5 -4 4 18 13 51 20 84 16 133 43 176 95 20 25 42 43 49 40
7 -2 34 -48 60 -102 95 -191 131 -241 195 -268 29 -13 37 -13 69 2 35 17 103
107 103 137 0 7 4 17 9 22 4 6 20 44 34 85 14 42 30 87 35 100 5 14 18 45 27
70 10 25 27 64 38 88 21 47 18 75 -14 115 -17 23 -28 27 -74 27 -46 0 -57 -4
-83 -31 -16 -17 -32 -43 -35 -58 -3 -16 -18 -42 -32 -60 -16 -18 -29 -48 -32
-74 -3 -23 -10 -48 -16 -54 -11 -15 -37 -17 -37 -4 0 10 -84 193 -118 259 -9
18 -27 35 -40 39 -31 7 -88 -5 -102 -22 -18 -22 -36 -18 -60 12 -23 29 -73 63
-94 63 -7 0 -28 8 -46 17 -32 15 -37 15 -81 0 -26 -9 -63 -17 -83 -17 l-36 0
0 45 c0 38 -3 45 -20 45 -20 0 -28 -24 -11 -34 5 -3 8 -24 7 -46 -2 -34 -9
-47 -48 -83 -28 -26 -59 -68 -78 -110 -18 -37 -36 -67 -40 -67 -4 0 -15 30
-25 66 -20 72 -81 172 -125 204 -15 11 -31 31 -34 45 -4 16 -15 27 -34 30 -15
4 -38 13 -52 21 -14 8 -50 26 -80 40 -30 14 -68 32 -83 40 -16 8 -41 14 -56
14 -15 0 -33 6 -39 12 -17 17 -270 47 -284 33z m395 -285 c54 -26 133 -94 152
-130 11 -22 12 -36 5 -55 -17 -46 -12 -113 12 -145 21 -29 21 -30 2 -66 -24
-44 -78 -94 -104 -94 -10 0 -22 -4 -25 -10 -3 -5 -17 -10 -30 -10 -22 0 -23 4
-29 93 -4 50 -11 115 -16 142 -16 93 -33 263 -27 279 8 20 9 20 60 -4z m801
-176 c11 -29 6 -62 -10 -68 -9 -3 -40 -6 -70 -6 -71 0 -82 21 -34 62 39 32
104 39 114 12z"/>
<path d="M8477 4912 c-16 -17 -16 -20 -2 -32 10 -9 15 -31 15 -75 0 -47 4 -64
15 -69 22 -8 26 10 23 105 -3 91 -17 109 -51 71z"/>
<path d="M920 4902 c0 -5 7 -23 16 -41 9 -19 13 -42 10 -57 -7 -27 10 -68 25
-59 5 4 9 42 9 86 l0 79 -30 0 c-16 0 -30 -4 -30 -8z"/>
<path d="M1687 4892 c-11 -12 -17 -36 -17 -69 0 -43 4 -53 25 -67 13 -9 31
-16 39 -16 25 0 56 50 56 90 0 64 -66 104 -103 62z m57 -38 c11 -28 6 -52 -10
-58 -24 -9 -24 -9 -24 34 0 41 21 57 34 24z"/>
<path d="M3156 4901 c-3 -5 1 -14 9 -21 10 -8 15 -31 15 -67 0 -40 4 -55 16
-60 9 -3 20 0 25 8 10 16 12 109 3 133 -7 17 -59 22 -68 7z"/>
<path d="M6955 4898 c-3 -7 -2 -40 2 -73 6 -45 12 -61 26 -63 15 -3 17 5 17
66 0 54 -3 71 -16 76 -22 8 -24 8 -29 -6z"/>
<path d="M1314 4876 c-3 -9 -2 -22 4 -29 6 -6 12 -25 14 -42 5 -50 23 -29 23
27 0 42 -3 53 -18 56 -9 2 -20 -4 -23 -12z"/>
<path d="M208 4873 c-9 -19 -2 -97 9 -100 13 -5 27 53 21 83 -3 19 -24 30 -30
17z"/>
<path d="M540 4855 c-6 -14 -10 -32 -10 -39 0 -15 37 -56 50 -56 19 0 41 49
38 82 -3 29 -7 33 -36 36 -27 3 -34 -1 -42 -23z"/>
<path d="M4704 4850 c3 -18 6 -43 6 -56 0 -17 6 -24 20 -24 22 0 33 31 28 76
-2 24 -8 30 -32 32 -28 3 -29 2 -22 -28z"/>
<path d="M6567 4874 c-4 -4 -3 -12 2 -18 5 -6 11 -27 13 -46 2 -24 9 -36 21
-38 16 -3 18 3 15 50 -3 45 -6 53 -23 56 -12 2 -24 0 -28 -4z"/>
<path d="M7337 4873 c-8 -13 7 -84 18 -86 6 -1 11 19 13 46 2 36 0 47 -12 47
-8 0 -17 -3 -19 -7z"/>
<path d="M7722 4868 c-18 -18 -15 -63 6 -81 14 -13 21 -14 30 -5 18 18 14 35
-10 42 l-23 7 23 9 c25 10 25 33 1 38 -8 1 -20 -3 -27 -10z"/>
<path d="M8100 4851 c-15 -28 -12 -51 6 -58 21 -8 36 10 41 47 2 24 -1 30 -17
30 -10 0 -24 -9 -30 -19z"/>
<path d="M200 4581 c0 -11 5 -23 10 -26 6 -3 10 -24 10 -45 0 -21 -4 -42 -10
-45 -15 -9 -12 -45 3 -45 48 0 72 116 33 159 -24 26 -46 27 -46 2z"/>
<path d="M920 4561 c-17 -33 -12 -89 10 -111 24 -24 39 -25 66 -6 24 18 28
111 4 126 -26 17 -69 11 -80 -9z m58 -62 c-2 -19 -7 -33 -13 -32 -12 3 -19 49
-10 71 10 26 27 -2 23 -39z"/>
<path d="M7701 4561 c-17 -31 -13 -86 8 -112 16 -20 23 -22 47 -14 35 13 51
60 38 108 -8 28 -15 32 -46 35 -28 2 -39 -1 -47 -17z m57 -62 c-2 -19 -7 -33
-13 -32 -12 3 -19 49 -10 71 10 26 27 -2 23 -39z"/>
<path d="M8108 4569 c-13 -7 -18 -23 -18 -59 0 -45 2 -50 25 -56 57 -14 87 62
42 104 -27 25 -26 25 -49 11z"/>
<path d="M8476 4555 c-20 -31 -20 -64 0 -93 20 -29 48 -28 68 3 20 31 20 64 0
93 -20 29 -48 28 -68 -3z"/>
<path d="M7336 4545 c-30 -46 -12 -90 36 -83 33 4 30 33 -4 33 -15 0 -27 5
-25 10 1 6 13 10 26 10 29 1 38 19 21 40 -18 22 -35 18 -54 -10z"/>
<path d="M552 4548 c-7 -7 -12 -27 -12 -45 0 -26 5 -34 25 -39 39 -10 54 1 53
38 0 18 -5 39 -11 46 -12 15 -39 16 -55 0z"/>
<path d="M1320 4545 c-20 -24 0 -38 34 -25 23 9 26 13 16 25 -16 19 -34 19
-50 0z"/>
<path d="M1707 4543 c-4 -3 -7 -19 -7 -35 0 -32 27 -49 41 -27 14 22 10 56 -7
63 -19 7 -19 7 -27 -1z"/>
<path d="M5088 4538 c-9 -24 -2 -62 14 -72 25 -15 50 11 46 48 -2 25 -8 32
-29 34 -15 2 -29 -3 -31 -10z"/>
<path d="M1315 4490 c-10 -16 4 -30 30 -30 32 0 40 16 16 29 -25 14 -38 14
-46 1z"/>
<path d="M1312 4280 c-24 -15 -32 -28 -37 -63 -13 -85 33 -142 96 -119 61 24
61 155 0 186 -25 13 -31 13 -59 -4z m56 -88 c3 -46 1 -52 -17 -52 -39 0 -53
80 -18 102 23 15 32 1 35 -50z"/>
<path d="M553 4265 c-43 -30 -41 -121 2 -149 29 -19 43 -14 70 21 26 37 25 86
-5 118 -27 29 -38 31 -67 10z m45 -63 c4 -25 -15 -55 -29 -46 -5 3 -9 21 -9
40 0 28 4 35 18 32 9 -2 18 -14 20 -26z"/>
<path d="M7316 4258 c-26 -41 -24 -110 4 -138 47 -47 110 -6 110 71 0 60 -21
89 -65 89 -25 0 -39 -6 -49 -22z m68 -34 c11 -28 6 -61 -10 -75 -13 -10 -17
-10 -25 2 -10 16 -12 73 -2 82 11 12 31 7 37 -9z"/>
<path d="M1696 4254 c-4 -9 -2 -22 3 -28 5 -6 11 -29 13 -51 2 -27 8 -40 18
-40 16 0 26 69 15 112 -6 27 -40 31 -49 7z"/>
<path d="M8103 4252 c-6 -4 -17 -20 -22 -35 -16 -41 10 -87 47 -87 39 0 52 17
52 67 0 37 -4 45 -26 53 -30 12 -35 12 -51 2z m42 -72 c-9 -15 -32 -12 -39 5
-7 20 26 38 37 19 4 -8 5 -19 2 -24z"/>
<path d="M8486 4203 c4 -32 10 -62 15 -67 18 -19 30 12 27 65 -3 47 -6 54 -26
57 -22 3 -22 2 -16 -55z"/>
<path d="M937 4244 c-4 -4 -4 -18 -2 -30 3 -13 7 -35 10 -49 3 -14 12 -25 21
-25 22 0 16 104 -6 108 -9 1 -19 0 -23 -4z"/>
<path d="M3577 4213 c-4 -3 -7 -17 -7 -30 0 -26 34 -33 44 -8 11 30 -17 59
-37 38z"/>
<path d="M2412 3979 c-22 -8 -22 -10 -8 -31 11 -15 16 -45 16 -96 0 -56 3 -74
15 -79 25 -9 29 3 31 103 2 103 -7 121 -54 103z"/>
<path d="M8465 3940 c-25 -28 -26 -101 -1 -129 44 -48 106 -11 106 64 0 74
-62 113 -105 65z m70 -65 c0 -36 -2 -40 -25 -40 -20 0 -26 6 -28 28 -5 42 5
59 30 55 20 -3 23 -9 23 -43z"/>
<path d="M206 3941 c-3 -4 0 -22 6 -39 9 -23 9 -37 0 -57 -14 -30 -8 -47 12
-39 17 6 36 48 36 77 0 40 -40 82 -54 58z"/>
<path d="M927 3935 c-43 -42 -21 -135 31 -135 40 0 53 13 59 58 10 72 -47 121
-90 77z m51 -66 c-2 -19 -7 -33 -13 -32 -12 3 -19 49 -10 71 10 26 27 -2 23
-39z"/>
<path d="M2776 3918 c-20 -40 -20 -62 0 -93 19 -29 64 -34 84 -9 8 8 13 35 13
59 0 53 -16 75 -53 75 -22 0 -32 -7 -44 -32z m62 -38 c4 -40 -11 -59 -33 -40
-18 15 -20 51 -3 68 19 19 33 9 36 -28z"/>
<path d="M3926 3928 c-18 -26 -21 -80 -6 -109 13 -24 62 -25 85 -2 21 20 16
110 -6 124 -25 15 -57 10 -73 -13z m54 -59 c0 -28 -4 -39 -12 -37 -14 5 -23
51 -14 74 10 27 26 4 26 -37z"/>
<path d="M4326 3934 c-17 -16 -22 -54 -7 -54 5 0 15 7 22 16 12 14 14 14 19
-2 4 -10 5 -27 2 -37 -4 -16 -6 -16 -22 -2 -23 21 -30 19 -30 -10 0 -14 8 -29
21 -36 17 -9 25 -7 45 12 32 30 32 78 1 107 -28 26 -31 27 -51 6z"/>
<path d="M5094 3942 c-7 -4 -9 -31 -6 -70 4 -51 7 -62 21 -60 12 2 17 17 19
59 3 56 -11 86 -34 71z"/>
<path d="M5804 3939 c-3 -6 -1 -16 5 -22 6 -6 11 -33 11 -59 0 -41 3 -48 20
-48 18 0 20 7 20 58 0 57 -11 82 -36 82 -7 0 -16 -5 -20 -11z"/>
<path d="M6948 3933 c-27 -31 -30 -78 -7 -107 25 -32 49 -33 77 -3 28 29 28
67 1 101 -24 30 -50 33 -71 9z m62 -45 c0 -13 -5 -30 -10 -38 -8 -13 -11 -12
-23 5 -11 14 -12 23 -3 37 15 25 36 22 36 -4z"/>
<path d="M7711 3941 c-18 -12 -26 -93 -11 -120 9 -18 19 -22 48 -19 32 3 38 7
46 36 6 20 6 48 0 70 -8 31 -14 37 -39 40 -16 1 -36 -2 -44 -7z m49 -72 c0
-28 -4 -39 -12 -37 -14 5 -23 51 -14 74 10 27 26 4 26 -37z"/>
<path d="M4696 3918 c-22 -31 -20 -64 4 -88 19 -19 22 -19 50 -5 24 13 30 22
30 49 0 58 -54 87 -84 44z"/>
<path d="M6578 3928 c-14 -11 -22 -47 -19 -84 1 -17 28 -25 57 -18 33 8 41 45
18 83 -20 34 -32 38 -56 19z"/>
<path d="M544 3906 c-3 -8 -4 -27 -2 -43 3 -25 7 -28 38 -28 34 0 35 1 35 40
0 38 -2 40 -33 43 -21 2 -34 -2 -38 -12z"/>
<path d="M1315 3911 c-8 -15 3 -31 21 -31 9 0 14 7 12 17 -4 20 -24 28 -33 14z"/>
<path d="M1706 3913 c-11 -11 -6 -23 9 -23 8 0 15 4 15 9 0 13 -16 22 -24 14z"/>
<path d="M2028 3915 c-9 -9 7 -78 20 -83 8 -2 12 10 12 42 0 32 -4 46 -13 46
-8 0 -16 -2 -19 -5z"/>
<path d="M3182 3911 c-8 -5 -12 -22 -10 -42 2 -29 7 -34 28 -34 22 0 25 4 25
40 0 41 -16 54 -43 36z"/>
<path d="M3570 3910 c-11 -7 -11 -12 -2 -22 9 -11 9 -17 0 -26 -16 -16 3 -35
25 -26 11 4 17 18 17 39 0 34 -17 49 -40 35z"/>
<path d="M5468 3915 c-8 -8 18 -80 29 -78 15 5 9 77 -7 81 -9 1 -19 0 -22 -3z"/>
<path d="M7335 3910 c-9 -15 -5 -18 30 -22 21 -2 30 1 30 12 0 18 -50 26 -60
10z"/>
<path d="M8113 3913 c-19 -7 -16 -72 3 -80 23 -8 40 12 25 31 -8 10 -9 16 -1
21 23 14 0 37 -27 28z"/>
<path d="M7352 3863 c-32 -6 -22 -28 14 -28 18 0 29 5 29 14 0 17 -11 20 -43
14z"/>
<path d="M6926 3650 c-65 -78 -33 -210 52 -210 62 0 92 38 92 117 0 44 -5 58
-31 88 -40 45 -77 47 -113 5z m80 -31 c4 -6 6 -36 6 -67 0 -41 -5 -59 -18 -69
-30 -22 -44 2 -44 72 0 34 3 65 7 68 10 11 41 8 49 -4z"/>
<path d="M1310 3645 c-10 -13 -10 -19 4 -33 11 -13 16 -37 16 -78 0 -73 13
-98 35 -70 19 25 21 166 3 184 -16 16 -43 15 -58 -3z"/>
<path d="M5797 3626 c-21 -20 -27 -34 -27 -68 0 -59 22 -88 65 -88 44 0 65 29
65 91 0 73 -56 109 -103 65z m51 -28 c28 -28 3 -112 -28 -93 -11 7 -13 47 -4
83 7 25 15 27 32 10z"/>
<path d="M207 3627 c-3 -8 -1 -20 4 -28 12 -19 11 -66 -2 -91 -17 -32 6 -48
32 -21 28 27 30 104 4 133 -21 23 -31 25 -38 7z"/>
<path d="M5092 3628 c-16 -20 -1 -133 18 -133 21 0 27 117 7 134 -11 9 -17 8
-25 -1z"/>
<path d="M6575 3626 c-12 -9 -15 -17 -9 -27 5 -8 11 -36 14 -64 3 -35 9 -50
20 -50 12 0 16 15 18 66 3 75 -11 99 -43 75z"/>
<path d="M2406 3605 c-20 -20 -21 -78 -2 -94 8 -7 27 -11 43 -9 27 3 28 5 28
58 0 52 -1 55 -26 58 -15 2 -34 -4 -43 -13z m42 -48 c2 -19 -1 -27 -12 -27
-17 0 -25 18 -18 43 7 26 26 15 30 -16z"/>
<path d="M2795 3598 c4 -13 8 -39 9 -58 1 -24 6 -36 19 -38 15 -3 17 5 17 57
0 59 -1 61 -26 61 -23 0 -25 -3 -19 -22z"/>
<path d="M3170 3598 c-23 -25 -24 -36 -10 -72 10 -28 47 -35 68 -14 16 16 15
28 -3 28 -8 0 -15 5 -15 11 0 6 7 9 15 5 18 -6 20 16 5 45 -14 25 -34 24 -60
-3z"/>
<path d="M4706 3612 c-3 -5 -2 -30 2 -58 5 -35 12 -50 25 -52 14 -3 17 5 17
51 0 41 -4 56 -16 61 -20 8 -22 8 -28 -2z"/>
<path d="M7344 3612 c-13 -9 -4 -102 11 -105 12 -2 20 92 8 104 -4 4 -13 5
-19 1z"/>
<path d="M560 3576 c0 -19 3 -41 6 -50 11 -28 24 -6 24 40 0 32 -4 44 -15 44
-10 0 -15 -10 -15 -34z"/>
<path d="M935 3586 c3 -14 7 -37 10 -51 3 -14 12 -25 21 -25 12 0 14 10 12 48
-3 40 -6 47 -26 50 -20 3 -22 0 -17 -22z"/>
<path d="M1702 3601 c2 -7 7 -12 11 -12 12 1 9 15 -3 20 -7 2 -11 -2 -8 -8z"/>
<path d="M2035 3600 c-3 -5 0 -19 7 -30 11 -17 11 -22 -1 -29 -19 -12 -6 -43
16 -39 28 5 46 51 32 82 -12 26 -42 35 -54 16z"/>
<path d="M4320 3601 c0 -6 5 -13 10 -16 6 -3 10 -22 10 -41 0 -19 5 -34 10
-34 6 0 10 23 10 50 0 43 -3 50 -20 50 -11 0 -20 -4 -20 -9z"/>
<path d="M5476 3568 c10 -66 23 -68 27 -2 1 30 -2 39 -16 42 -15 3 -17 -2 -11
-40z"/>
<path d="M7722 3598 c-30 -30 -3 -108 33 -94 21 8 19 24 -6 31 -25 8 -21 41 4
39 12 -1 17 4 15 14 -4 21 -30 26 -46 10z"/>
<path d="M8105 3593 c4 -10 10 -28 12 -40 8 -35 23 -27 23 11 0 22 -6 36 -16
40 -24 9 -27 7 -19 -11z"/>
<path d="M8486 3563 c4 -26 11 -52 15 -57 17 -18 30 10 27 55 -2 37 -7 45 -25
47 -22 3 -22 1 -17 -45z"/>
<path d="M3951 3587 c-15 -15 -14 -42 2 -55 22 -18 42 5 38 44 -2 17 -27 24
-40 11z"/>
<path d="M6197 3588 c-20 -11 -22 -39 -5 -56 18 -18 36 -15 48 7 19 36 -9 68
-43 49z"/>
<path d="M3562 3565 c2 -14 8 -26 13 -26 6 0 11 12 13 26 2 18 -1 25 -13 25
-12 0 -15 -7 -13 -25z"/>
<path d="M2017 3339 c-44 -26 -59 -103 -31 -163 23 -46 56 -61 94 -41 39 20
50 43 50 108 0 87 -52 131 -113 96z m57 -45 c30 -29 15 -124 -19 -124 -32 0
-47 81 -23 120 15 24 22 25 42 4z"/>
<path d="M4309 3301 c-19 -19 -29 -40 -29 -59 0 -40 35 -82 68 -82 46 0 56 14
56 75 1 48 -3 60 -23 76 -31 25 -37 24 -72 -10z m56 -61 c0 -35 -21 -53 -31
-26 -9 23 5 68 19 63 7 -2 12 -19 12 -37z"/>
<path d="M5460 3315 c-10 -13 -10 -19 4 -33 11 -13 16 -37 16 -74 0 -60 6 -74
27 -57 17 15 18 150 1 167 -16 16 -33 15 -48 -3z"/>
<path d="M6579 3323 c-21 -5 -49 -55 -49 -87 0 -31 40 -76 68 -76 64 0 90 102
37 148 -14 12 -29 21 -33 21 -4 -1 -14 -3 -23 -6z m41 -83 c0 -34 -3 -40 -20
-40 -25 0 -34 21 -26 55 4 16 13 25 26 25 17 0 20 -7 20 -40z"/>
<path d="M907 3291 c-29 -49 -18 -100 29 -134 23 -17 27 -18 50 -2 32 20 47
60 40 103 -7 47 -23 62 -65 62 -30 0 -40 -5 -54 -29z m71 -46 c4 -49 -11 -65
-32 -32 -14 20 -15 29 -5 51 17 36 33 28 37 -19z"/>
<path d="M5791 3294 c-23 -29 -26 -59 -11 -98 8 -21 16 -26 44 -26 52 0 65 9
72 48 16 82 -58 136 -105 76z m57 -26 c17 -17 15 -55 -4 -62 -30 -12 -44 17
-28 58 7 19 16 20 32 4z"/>
<path d="M7301 3289 c-37 -105 43 -195 109 -124 18 20 24 37 24 74 0 65 -15
81 -74 81 -45 0 -49 -2 -59 -31z m87 -45 c3 -42 -16 -72 -38 -59 -11 7 -14 88
-3 99 18 18 38 -1 41 -40z"/>
<path d="M8472 3297 c-25 -26 -30 -95 -10 -115 17 -17 74 -15 92 4 25 24 20
86 -7 112 -30 28 -48 28 -75 -1z m68 -63 c0 -22 -4 -25 -27 -22 -31 3 -42 30
-23 53 18 21 50 1 50 -31z"/>
<path d="M542 3298 c-13 -13 -16 -85 -6 -112 10 -25 70 -21 88 6 34 48 8 118
-43 118 -15 0 -32 -5 -39 -12z m52 -43 c8 -21 -3 -45 -20 -45 -8 0 -14 10 -14
23 0 36 22 51 34 22z"/>
<path d="M2417 3258 c6 -68 9 -78 28 -78 12 0 15 12 15 53 0 51 -12 77 -36 77
-7 0 -10 -17 -7 -52z"/>
<path d="M2792 3298 c-21 -21 -14 -39 15 -36 20 2 28 -2 31 -16 6 -27 -13 -42
-32 -26 -13 10 -17 9 -22 -4 -11 -27 4 -46 35 -46 36 0 51 22 51 74 0 54 -46
86 -78 54z"/>
<path d="M3174 3244 c6 -73 8 -79 31 -71 11 5 15 22 15 72 0 63 -1 65 -25 65
-25 0 -25 -1 -21 -66z"/>
<path d="M3552 3294 c-16 -11 -22 -25 -22 -54 0 -74 66 -95 103 -32 19 33 19
33 -4 67 -26 38 -43 43 -77 19z m43 -59 c0 -10 -6 -20 -12 -22 -8 -3 -13 5
-13 22 0 17 5 25 13 23 6 -3 12 -13 12 -23z"/>
<path d="M6197 3253 c6 -78 10 -88 26 -74 8 6 12 27 11 53 -2 24 -3 51 -3 61
-1 10 -9 17 -20 17 -18 0 -19 -6 -14 -57z"/>
<path d="M7717 3292 c-19 -21 -22 -73 -7 -103 6 -11 21 -19 35 -19 14 0 29 8
35 19 16 31 12 86 -8 104 -24 22 -35 21 -55 -1z m43 -47 c0 -24 -5 -35 -15
-35 -15 0 -22 50 -8 63 15 15 23 5 23 -28z"/>
<path d="M205 3290 c-3 -5 -2 -18 3 -27 6 -11 7 -26 1 -42 -18 -47 9 -71 29
-26 15 34 15 66 -2 88 -15 19 -22 21 -31 7z"/>
<path d="M1704 3286 c-4 -10 -2 -22 4 -28 8 -8 13 -7 18 6 4 10 2 22 -4 28 -8
8 -13 7 -18 -6z"/>
<path d="M5089 3288 c-5 -66 13 -117 31 -88 14 21 12 74 -2 88 -16 16 -28 15
-29 0z"/>
<path d="M3945 3279 c-9 -13 -7 -15 28 -23 20 -5 27 -3 27 8 0 23 -43 35 -55
15z"/>
<path d="M4707 3284 c-4 -4 -7 -25 -7 -46 0 -33 3 -38 24 -38 13 0 30 7 37 16
11 13 11 20 -2 42 -15 27 -39 39 -52 26z"/>
<path d="M6955 3248 c9 -51 10 -52 30 -45 30 12 16 87 -17 87 -18 0 -19 -4
-13 -42z"/>
<path d="M8097 3283 c-12 -12 -7 -70 7 -82 9 -8 21 -8 40 -1 49 18 28 90 -27
90 -7 0 -17 -3 -20 -7z"/>
<path d="M1320 3260 c12 -22 30 -18 30 6 0 8 -9 14 -20 14 -18 0 -19 -3 -10
-20z"/>
<path d="M3940 3221 c0 -16 19 -23 40 -16 30 10 24 25 -10 25 -16 0 -30 -4
-30 -9z"/>
<path d="M1688 3009 c-47 -27 -42 -147 7 -182 25 -18 26 -18 59 2 36 23 46 44
46 102 0 68 -59 109 -112 78z m49 -37 c16 -10 26 -56 18 -82 -5 -15 -13 -20
-28 -18 -24 3 -34 40 -23 84 7 25 13 29 33 16z"/>
<path d="M2385 2988 c-23 -27 -26 -39 -22 -77 4 -33 12 -52 32 -68 33 -29 46
-29 84 3 26 22 31 33 31 70 0 95 -72 136 -125 72z m73 -72 c-2 -29 -8 -42 -20
-44 -15 -3 -18 4 -18 46 0 55 7 67 27 50 9 -7 13 -26 11 -52z"/>
<path d="M5438 2995 c-12 -15 -18 -42 -18 -77 0 -43 5 -58 25 -81 33 -35 59
-34 96 2 24 24 29 38 29 76 0 26 -8 60 -17 76 -15 24 -24 29 -58 29 -31 -1
-44 -6 -57 -25z m82 -76 c0 -44 -22 -68 -45 -49 -20 17 -19 70 2 99 15 23 17
23 30 6 7 -11 13 -35 13 -56z"/>
<path d="M6915 2990 c-8 -16 -15 -48 -15 -70 0 -111 101 -151 149 -60 26 51
26 70 1 120 -20 38 -22 40 -70 40 -45 0 -51 -3 -65 -30z m93 -60 c3 -66 -9
-90 -35 -74 -12 8 -19 26 -21 59 -4 61 3 77 30 73 20 -3 23 -9 26 -58z"/>
<path d="M8466 2989 c-30 -36 -35 -92 -10 -127 11 -16 25 -22 53 -22 50 0 61
14 61 80 0 46 -4 61 -23 78 -32 30 -50 28 -81 -9z m62 -31 c14 -14 16 -57 3
-76 -16 -26 -46 -9 -49 27 -6 56 16 79 46 49z"/>
<path d="M2032 2997 c-5 -7 -7 -41 -3 -82 6 -66 7 -70 31 -70 24 0 25 2 23 65
-1 36 -2 68 -2 72 -2 16 -39 28 -49 15z"/>
<path d="M2789 2998 c-1 -7 0 -17 2 -23 1 -5 5 -37 8 -70 5 -46 10 -61 24 -63
15 -3 17 6 17 82 0 85 0 86 -25 86 -14 0 -26 -6 -26 -12z"/>
<path d="M4321 2986 c-8 -10 -9 -16 -1 -21 5 -3 10 -27 10 -53 0 -54 13 -83
30 -66 6 6 10 39 8 80 -2 53 -7 69 -19 72 -9 1 -21 -4 -28 -12z"/>
<path d="M5080 2982 c-31 -25 -31 -99 1 -124 28 -24 36 -23 64 8 32 35 32 78
0 109 -29 30 -36 30 -65 7z m58 -58 c2 -13 -4 -24 -13 -28 -24 -9 -35 1 -35
30 0 21 4 25 23 22 13 -2 23 -11 25 -24z"/>
<path d="M6574 2985 c-14 -10 -16 -16 -7 -27 6 -7 13 -31 15 -53 2 -27 8 -40
18 -40 11 0 16 15 18 61 3 67 -10 84 -44 59z"/>
<path d="M7720 2990 c-12 -7 -12 -12 -2 -22 6 -6 12 -33 12 -59 0 -49 15 -72
31 -48 13 21 11 113 -3 127 -14 14 -18 15 -38 2z"/>
<path d="M206 2983 c-9 -10 -7 -121 3 -127 13 -9 21 19 21 74 0 46 -9 67 -24
53z"/>
<path d="M1320 2970 c-24 -24 -27 -82 -4 -101 13 -11 20 -11 42 2 33 18 40 60
17 95 -19 29 -29 30 -55 4z m50 -45 c0 -16 -6 -25 -15 -25 -15 0 -21 31 -8 43
13 14 23 6 23 -18z"/>
<path d="M562 2928 c2 -28 8 -53 14 -55 15 -5 24 66 12 90 -17 33 -29 17 -26
-35z"/>
<path d="M3170 2961 c-27 -51 -3 -105 41 -94 20 5 27 43 9 43 -6 0 -6 7 1 19
7 10 9 26 6 35 -9 22 -44 20 -57 -3z"/>
<path d="M4710 2965 c-13 -16 -16 -67 -5 -85 12 -19 45 -10 57 16 10 21 9 31
-2 52 -19 32 -33 37 -50 17z"/>
<path d="M5810 2968 c0 -34 14 -88 22 -88 14 0 5 93 -9 98 -7 2 -13 -2 -13
-10z"/>
<path d="M6187 2973 c-4 -3 -7 -28 -7 -55 l0 -49 37 3 c42 3 49 17 38 74 -5
29 -10 34 -34 34 -15 0 -31 -3 -34 -7z m43 -54 c0 -20 -24 -26 -35 -9 -8 13
14 42 26 34 5 -3 9 -14 9 -25z"/>
<path d="M7342 2928 c4 -67 22 -65 26 2 2 40 0 50 -13 50 -13 0 -15 -10 -13
-52z"/>
<path d="M8106 2938 c8 -61 11 -68 29 -68 13 0 15 10 13 53 -3 45 -6 52 -26
55 -21 3 -22 1 -16 -40z"/>
<path d="M947 2952 c-22 -24 -21 -35 1 -56 18 -15 20 -15 35 2 22 24 21 35 -1
56 -18 15 -20 15 -35 -2z"/>
<path d="M3562 2928 c2 -18 8 -33 13 -33 6 0 11 15 13 33 3 24 -1 32 -13 32
-12 0 -16 -8 -13 -32z"/>
<path d="M3950 2930 c0 -11 5 -20 10 -20 6 0 10 9 10 20 0 11 -4 20 -10 20 -5
0 -10 -9 -10 -20z"/>
<path d="M3548 2708 c-32 -26 -48 -63 -48 -109 0 -40 5 -53 31 -78 17 -17 37
-31 44 -31 67 0 117 98 84 163 -31 60 -76 82 -111 55z m66 -80 c11 -46 -5 -88
-33 -88 -22 0 -31 19 -31 61 0 73 48 92 64 27z"/>
<path d="M1687 2672 c-11 -12 -17 -36 -17 -70 0 -43 4 -54 26 -71 27 -21 27
-21 58 -2 26 17 31 27 34 65 5 79 -57 127 -101 78z m53 -36 c16 -20 9 -60 -12
-64 -15 -3 -18 4 -18 37 0 43 9 51 30 27z"/>
<path d="M3176 2618 c3 -40 9 -76 11 -80 7 -13 33 -9 34 5 1 25 1 122 0 135
-1 6 -13 12 -27 12 l-25 0 7 -72z"/>
<path d="M5456 2659 c-28 -33 -31 -53 -17 -92 26 -67 121 -33 121 43 0 22 -47
80 -65 80 -7 0 -25 -14 -39 -31z m54 -54 c0 -42 -16 -54 -31 -22 -8 18 -8 30
0 46 16 29 31 17 31 -24z"/>
<path d="M5804 2672 c-27 -23 -38 -70 -25 -105 9 -23 16 -27 50 -27 23 0 44 6
52 16 20 25 14 82 -12 110 -27 28 -37 29 -65 6z m44 -44 c17 -17 15 -48 -4
-55 -23 -8 -38 12 -30 41 7 29 16 32 34 14z"/>
<path d="M6956 2681 c-3 -4 -3 -38 1 -75 5 -55 9 -66 24 -66 17 0 19 8 19 65
0 53 -3 66 -19 75 -11 5 -22 6 -25 1z"/>
<path d="M7333 2672 c-22 -17 -28 -40 -25 -95 4 -64 105 -57 118 8 6 34 -4 61
-32 89 -20 20 -34 20 -61 -2z m45 -61 c5 -29 -13 -50 -29 -34 -15 15 -3 66 14
60 7 -2 14 -14 15 -26z"/>
<path d="M8080 2655 c-17 -27 -20 -44 -16 -69 15 -79 107 -83 120 -6 15 96
-58 149 -104 75z m70 -57 c0 -34 -14 -43 -34 -22 -20 19 -20 24 0 53 19 27 34
14 34 -31z"/>
<path d="M205 2661 c-3 -5 0 -21 7 -36 9 -21 9 -31 -1 -47 -10 -15 -10 -23 -1
-32 9 -8 16 -5 31 13 24 29 24 73 1 94 -21 19 -28 21 -37 8z"/>
<path d="M4703 2660 c-43 -17 -42 -87 2 -116 59 -39 113 69 57 114 -18 14 -28
14 -59 2z m43 -57 c-3 -8 -6 -17 -6 -19 0 -9 -29 -3 -35 6 -12 20 3 39 25 33
13 -4 19 -11 16 -20z"/>
<path d="M5090 2663 c-23 -9 -30 -24 -30 -65 0 -29 6 -41 24 -53 34 -23 63 -6
72 41 12 63 -17 96 -66 77z m40 -64 c0 -12 -7 -19 -20 -19 -19 0 -28 28 -14
43 11 11 34 -5 34 -24z"/>
<path d="M6196 2662 c-9 -15 9 -105 22 -110 10 -3 12 10 10 54 -3 52 -18 79
-32 56z"/>
<path d="M6562 2658 c-13 -13 -16 -86 -4 -105 8 -12 24 -16 59 -14 31 2 49 60
31 98 -15 31 -64 43 -86 21z m53 -58 c0 -13 -6 -25 -12 -27 -16 -6 -27 21 -19
43 9 23 31 11 31 -16z"/>
<path d="M936 2645 c-32 -32 -12 -95 30 -95 35 0 53 42 33 78 -18 33 -41 39
-63 17z"/>
<path d="M1333 2653 c-16 -6 -17 -89 -3 -98 6 -4 17 -4 25 -1 12 4 13 10 3 31
-9 21 -9 28 2 35 7 4 10 15 7 24 -7 16 -13 18 -34 9z"/>
<path d="M2016 2638 c-22 -31 -20 -51 8 -77 30 -29 59 -21 76 19 25 61 -48
110 -84 58z m44 -32 c0 -8 -4 -18 -10 -21 -5 -3 -10 3 -10 14 0 12 5 21 10 21
6 0 10 -6 10 -14z"/>
<path d="M2416 2652 c-2 -4 -1 -14 5 -22 5 -8 9 -28 9 -43 0 -16 4 -26 10 -22
16 10 13 95 -4 95 -8 0 -17 -4 -20 -8z"/>
<path d="M2787 2653 c-10 -9 -8 -75 2 -91 5 -8 21 -12 37 -10 39 4 54 46 30
82 -16 25 -54 35 -69 19z"/>
<path d="M3920 2634 c-6 -15 -7 -39 -2 -57 8 -29 12 -32 47 -32 36 0 40 3 49
33 14 50 -5 82 -49 82 -29 0 -37 -5 -45 -26z m58 -38 c-2 -15 -7 -28 -13 -29
-12 -2 -19 38 -10 60 9 25 27 1 23 -31z"/>
<path d="M7718 2635 c-14 -32 -1 -78 25 -83 21 -4 23 24 2 32 -22 8 -18 33 6
39 24 6 21 30 -4 35 -10 2 -21 -7 -29 -23z"/>
<path d="M551 2631 c-16 -29 -14 -46 9 -66 28 -26 52 -4 48 44 -2 28 -8 37
-25 39 -14 2 -26 -4 -32 -17z"/>
<path d="M4319 2624 c-7 -20 -6 -32 6 -50 23 -36 32 -29 31 26 -1 56 -20 68
-37 24z"/>
<path d="M8484 2636 c-3 -8 -4 -29 -2 -48 2 -25 8 -34 25 -36 31 -5 51 37 35
73 -13 27 -49 34 -58 11z"/>
<path d="M3928 2361 c-28 -25 -33 -36 -33 -74 0 -57 25 -87 71 -87 25 0 38 7
51 27 24 36 23 96 -2 123 -37 41 -52 43 -87 11z m60 -66 c2 -17 -4 -39 -12
-50 -14 -19 -14 -19 -26 7 -16 35 -5 80 18 76 11 -2 18 -14 20 -33z"/>
<path d="M6166 2359 c-39 -46 -37 -111 5 -150 38 -36 49 -36 88 -3 28 23 31
32 31 79 0 45 -5 59 -25 80 -35 34 -67 32 -99 -6z m72 -53 c5 -41 -6 -76 -23
-76 -11 0 -15 13 -15 56 0 47 3 55 18 52 10 -2 18 -14 20 -32z"/>
<path d="M5805 2368 c-30 -17 -35 -28 -35 -83 0 -65 8 -75 59 -77 56 -2 76 19
76 78 0 38 -5 50 -28 70 -31 27 -43 29 -72 12z m53 -80 c-2 -35 -7 -43 -23
-43 -15 0 -21 8 -23 28 -5 40 4 57 28 57 19 0 21 -5 18 -42z"/>
<path d="M1695 2351 c-3 -6 -3 -17 2 -23 4 -7 10 -33 13 -58 4 -33 10 -46 23
-48 16 -3 18 3 15 65 -3 61 -5 68 -25 71 -11 2 -24 -2 -28 -7z"/>
<path d="M1999 2339 c-12 -24 -7 -105 8 -120 14 -14 82 -14 95 -1 17 17 23
109 8 127 -8 9 -29 15 -56 15 -34 0 -46 -5 -55 -21z m65 -15 c21 -8 21 -58 0
-75 -13 -10 -17 -10 -25 2 -10 16 -11 41 -3 63 7 18 7 18 28 10z"/>
<path d="M2386 2338 c-9 -12 -16 -36 -16 -53 0 -48 25 -75 69 -75 35 0 39 3
51 39 10 30 10 46 0 75 -11 33 -15 36 -50 36 -29 0 -43 -6 -54 -22z m67 -29
c7 -26 -10 -72 -23 -64 -16 10 -13 85 4 85 7 0 16 -9 19 -21z"/>
<path d="M2794 2333 c4 -15 9 -47 13 -71 9 -65 28 -46 28 29 0 60 -2 64 -24
67 -21 3 -23 1 -17 -25z"/>
<path d="M3151 2346 c-7 -8 -11 -37 -9 -67 3 -46 7 -55 31 -69 24 -13 30 -13
55 0 23 14 27 23 30 69 4 64 -8 81 -58 81 -21 0 -43 -6 -49 -14z m74 -36 c3
-11 3 -29 0 -41 -9 -28 -49 -22 -53 9 -6 44 40 72 53 32z"/>
<path d="M4704 2314 c3 -26 6 -57 6 -70 0 -17 6 -24 19 -24 23 0 31 19 31 74
0 46 -13 66 -43 66 -18 0 -19 -5 -13 -46z"/>
<path d="M5086 2298 c8 -86 10 -93 30 -78 11 10 14 29 12 74 -3 55 -5 61 -25
64 -22 3 -23 1 -17 -60z"/>
<path d="M6581 2336 c-11 -13 -2 -88 12 -103 14 -13 27 12 27 51 0 49 -20 75
-39 52z"/>
<path d="M7340 2291 c0 -39 4 -51 16 -51 12 0 14 10 12 47 -4 66 -28 70 -28 4z"/>
<path d="M1322 2309 c1 -13 8 -23 13 -21 15 3 12 35 -3 40 -9 3 -13 -3 -10
-19z"/>
<path d="M4332 2319 c2 -7 10 -15 17 -17 8 -3 12 1 9 9 -2 7 -10 15 -17 17 -8
3 -12 -1 -9 -9z"/>
<path d="M7705 2310 c-8 -25 3 -61 24 -77 13 -9 20 -8 33 3 22 21 31 63 17 80
-18 22 -66 18 -74 -6z m58 -13 c3 -8 1 -20 -3 -27 -11 -18 -41 5 -33 26 7 18
29 18 36 1z"/>
<path d="M8490 2295 c0 -38 12 -51 28 -32 14 16 5 54 -14 61 -10 4 -14 -4 -14
-29z"/>
<path d="M950 2291 c0 -33 15 -49 23 -27 7 18 -3 56 -14 56 -5 0 -9 -13 -9
-29z"/>
<path d="M3564 2307 c-7 -20 -2 -47 11 -50 14 -3 19 43 6 56 -7 7 -12 6 -17
-6z"/>
<path d="M6967 2313 c-12 -12 -7 -61 6 -66 25 -9 38 8 31 41 -6 30 -22 41 -37
25z"/>
<path d="M8446 2059 c-34 -40 -37 -126 -6 -176 18 -30 24 -33 69 -33 45 0 51
3 70 34 37 59 25 165 -23 198 -6 4 -27 8 -48 8 -28 0 -42 -7 -62 -31z m85 -15
c21 -25 18 -129 -4 -151 -16 -16 -18 -16 -34 -1 -11 11 -17 34 -17 65 -1 91
22 127 55 87z"/>
<path d="M1684 2046 c-15 -12 -19 -27 -19 -76 0 -68 16 -90 65 -90 41 0 62 31
62 90 0 35 -5 57 -17 70 -21 23 -63 26 -91 6z m65 -48 c11 -29 -1 -72 -21 -76
-19 -4 -29 30 -21 69 7 34 30 38 42 7z"/>
<path d="M2767 2042 c-26 -28 -23 -123 4 -147 25 -23 87 -21 105 3 21 27 18
126 -4 145 -25 23 -85 22 -105 -1z m71 -75 c2 -47 0 -57 -13 -57 -18 0 -23 11
-29 60 -4 36 9 63 28 57 6 -2 12 -29 14 -60z"/>
<path d="M6183 2044 c-3 -9 -1 -25 5 -35 7 -10 12 -41 12 -68 0 -53 10 -70 29
-47 7 9 11 42 9 88 -3 67 -5 73 -26 76 -14 2 -25 -3 -29 -14z"/>
<path d="M6551 2031 c-58 -81 22 -198 89 -131 11 11 22 31 26 45 21 86 -68
153 -115 86z m67 -65 c3 -45 2 -47 -20 -44 -18 2 -24 10 -26 36 -4 35 13 65
32 59 6 -2 12 -25 14 -51z"/>
<path d="M4310 2028 c-38 -41 -17 -138 31 -138 46 0 59 17 59 77 0 41 -4 59
-17 69 -26 19 -50 17 -73 -8z m58 -56 c2 -12 -1 -29 -7 -39 -8 -16 -11 -15
-21 9 -14 30 -7 62 13 56 6 -3 13 -14 15 -26z"/>
<path d="M7343 2032 c-15 -10 -2 -114 15 -120 9 -3 12 13 12 57 0 60 -7 75
-27 63z"/>
<path d="M931 2016 c-7 -8 -11 -34 -9 -58 3 -42 4 -43 38 -43 29 0 36 5 44 28
14 40 -3 81 -35 85 -14 2 -31 -4 -38 -12z m49 -45 c0 -23 -16 -36 -25 -21 -9
14 1 40 15 40 5 0 10 -9 10 -19z"/>
<path d="M1310 2015 c-16 -19 -15 -82 1 -101 24 -30 73 -7 84 39 14 56 -51
103 -85 62z m60 -45 c0 -20 -5 -30 -15 -30 -15 0 -21 40 -8 53 14 15 23 6 23
-23z"/>
<path d="M2027 2023 c-2 -4 -1 -30 2 -58 4 -37 11 -51 24 -53 16 -3 18 3 15
55 -2 44 -7 59 -20 61 -9 2 -18 -1 -21 -5z"/>
<path d="M3947 2024 c-9 -9 3 -86 14 -98 5 -6 10 5 11 27 1 20 2 45 2 54 1 17
-16 28 -27 17z"/>
<path d="M4693 2018 c-19 -24 -22 -48 -12 -78 14 -38 51 -50 79 -25 23 21 27
84 8 103 -16 16 -63 15 -75 0z m43 -39 c8 -14 -11 -33 -25 -25 -11 7 -4 36 9
36 5 0 12 -5 16 -11z"/>
<path d="M5814 2000 c3 -18 6 -43 6 -56 0 -15 6 -24 16 -24 12 0 14 10 12 52
-2 43 -7 54 -22 56 -16 4 -18 0 -12 -28z"/>
<path d="M200 1976 c0 -25 5 -48 10 -51 6 -4 10 13 10 44 0 28 -4 51 -10 51
-5 0 -10 -20 -10 -44z"/>
<path d="M6957 2002 c-10 -10 -17 -26 -17 -35 0 -23 36 -58 54 -51 18 7 28 61
16 85 -13 24 -32 24 -53 1z"/>
<path d="M3176 1995 c-19 -19 -19 -17 -6 -50 7 -20 16 -26 33 -23 19 3 22 9
22 43 0 45 -21 58 -49 30z"/>
<path d="M3565 1997 c-9 -22 -2 -62 10 -60 6 1 11 14 13 29 4 32 -14 56 -23
31z"/>
<path d="M5092 1997 c-7 -8 -9 -27 -6 -46 6 -27 11 -32 33 -29 23 3 26 7 26
43 0 33 -4 41 -21 43 -11 2 -26 -3 -32 -11z"/>
<path d="M2420 1986 c0 -8 5 -18 10 -21 6 -3 10 3 10 14 0 12 -4 21 -10 21 -5
0 -10 -6 -10 -14z"/>
<path d="M4692 1742 c-49 -38 -46 -142 5 -182 33 -25 35 -25 72 6 28 23 31 31
31 85 0 50 -4 64 -25 84 -28 29 -51 31 -83 7z m62 -48 c3 -9 6 -28 6 -44 0
-41 -10 -60 -30 -60 -20 0 -30 19 -30 60 0 41 10 60 30 60 10 0 21 -7 24 -16z"/>
<path d="M5077 1729 c-17 -10 -17 -13 -3 -28 8 -9 16 -40 18 -71 2 -41 7 -55
18 -55 11 0 16 15 18 60 5 98 -7 120 -51 94z"/>
<path d="M6184 1732 c-60 -40 -34 -172 35 -172 35 0 71 47 71 93 0 58 -65 107
-106 79z m54 -66 c4 -33 -16 -88 -29 -80 -5 3 -9 30 -9 60 0 47 3 55 18 52 10
-2 18 -14 20 -32z"/>
<path d="M2384 1694 c-18 -42 -12 -76 16 -104 21 -21 46 -25 69 -11 18 11 25
89 12 124 -9 22 -16 27 -46 27 -32 0 -38 -4 -51 -36z m66 -45 c0 -28 -4 -39
-15 -39 -11 0 -15 11 -15 38 0 21 3 42 6 45 14 13 24 -6 24 -44z"/>
<path d="M2775 1700 c-27 -52 -11 -116 32 -126 48 -12 85 54 63 112 -21 54
-70 62 -95 14z m63 -44 c5 -39 -13 -55 -35 -33 -15 14 -15 20 -3 42 17 32 34
27 38 -9z"/>
<path d="M4327 1718 c-48 -37 -35 -138 17 -138 35 0 56 26 56 69 0 26 -7 44
-23 59 -27 26 -28 26 -50 10z m37 -53 c6 -17 -2 -45 -14 -45 -15 0 -22 19 -15
40 8 24 21 26 29 5z"/>
<path d="M1315 1700 c-4 -12 -1 -28 7 -37 7 -9 12 -24 10 -35 -2 -10 1 -18 6
-18 6 0 12 17 15 38 7 58 -23 99 -38 52z"/>
<path d="M1702 1688 c2 -12 10 -23 18 -23 22 0 19 39 -3 43 -15 3 -18 -1 -15
-20z"/>
<path d="M927 1694 c-9 -10 -9 -76 1 -90 13 -19 39 -23 61 -7 18 12 21 23 19
56 -3 40 -5 42 -38 45 -20 2 -39 0 -43 -4z m53 -43 c0 -11 -4 -22 -9 -25 -11
-7 -23 22 -15 35 9 16 24 10 24 -10z"/>
<path d="M7337 1693 c-8 -13 7 -84 18 -86 6 -1 11 19 13 46 2 36 0 47 -12 47
-8 0 -17 -3 -19 -7z"/>
<path d="M8482 1653 c3 -41 6 -48 25 -51 16 -2 26 4 35 22 16 37 -3 76 -37 76
-25 0 -26 -2 -23 -47z"/>
<path d="M3560 1655 c0 -24 5 -35 15 -35 10 0 15 11 15 35 0 24 -5 35 -15 35
-10 0 -15 -11 -15 -35z"/>
<path d="M6582 1661 c-15 -9 -5 -41 13 -41 8 0 17 5 21 11 9 15 -18 40 -34 30z"/>
<path d="M919 1401 c-35 -35 -38 -81 -9 -128 47 -78 134 -8 116 92 -7 34 -37
65 -64 65 -7 0 -27 -13 -43 -29z m64 -65 c-1 -50 -11 -61 -34 -40 -23 21 -24
51 -2 76 22 24 37 9 36 -36z"/>
<path d="M1683 1404 c-23 -23 -25 -31 -21 -81 5 -62 23 -83 70 -83 60 0 87
113 39 164 -31 33 -55 33 -88 0z m64 -37 c15 -33 5 -77 -17 -77 -23 0 -32 24
-24 66 7 39 26 44 41 11z"/>
<path d="M6578 1403 c-20 -5 -23 -23 -9 -38 6 -6 11 -30 13 -55 2 -32 7 -45
18 -45 12 0 15 14 15 69 0 69 -5 78 -37 69z"/>
<path d="M2787 1394 c-4 -4 -1 -14 5 -21 7 -8 11 -29 10 -46 -1 -18 2 -39 8
-47 17 -27 31 4 28 61 -3 46 -6 54 -23 57 -12 2 -24 0 -28 -4z"/>
<path d="M4317 1393 c-23 -42 -15 -108 15 -124 47 -25 92 75 52 115 -16 16
-60 22 -67 9z m53 -45 c0 -7 -5 -20 -10 -28 -12 -19 -35 2 -27 24 7 19 37 21
37 4z"/>
<path d="M6184 1389 c-3 -6 -2 -14 4 -18 6 -3 12 -24 14 -45 2 -22 9 -41 16
-44 9 -3 12 13 12 57 0 54 -2 61 -19 61 -11 0 -23 -5 -27 -11z"/>
<path d="M8465 1384 c-26 -26 -16 -92 17 -117 25 -19 28 -19 52 -4 33 22 44
78 22 112 -19 29 -66 34 -91 9z m73 -46 c-3 -25 -34 -36 -50 -20 -17 17 -1 42
27 42 22 0 26 -4 23 -22z"/>
<path d="M4706 1371 c-13 -15 -15 -26 -8 -52 11 -44 49 -47 71 -7 15 25 14 29
-8 52 -29 31 -33 31 -55 7z"/>
<path d="M7342 1368 c-17 -17 -15 -28 7 -28 28 0 37 -20 12 -27 -29 -7 -21
-28 10 -28 21 0 24 5 25 35 1 53 -25 77 -54 48z"/>
<path d="M6558 1113 c-42 -27 -53 -131 -18 -176 58 -73 140 -21 140 88 0 38
-5 52 -29 76 -33 33 -54 36 -93 12z m62 -42 c13 -25 13 -87 0 -112 -9 -15 -15
-17 -30 -9 -16 9 -20 21 -20 63 0 69 27 100 50 58z"/>
<path d="M4701 1101 c-11 -7 -11 -15 -2 -41 6 -18 11 -55 11 -81 0 -41 3 -49
19 -49 25 0 31 19 31 94 0 76 -20 102 -59 77z"/>
<path d="M935 1078 c-2 -7 -1 -38 3 -68 5 -39 11 -55 22 -55 12 0 15 14 15 65
0 54 -3 65 -18 68 -9 2 -19 -2 -22 -10z"/>
<path d="M2790 1075 c-17 -21 -7 -40 21 -40 19 0 24 -5 24 -25 0 -22 -4 -25
-28 -22 -23 3 -28 0 -25 -15 5 -25 58 -31 75 -7 7 10 13 34 13 54 0 57 -50 91
-80 55z"/>
<path d="M2413 1064 c-3 -8 -1 -20 6 -27 6 -6 11 -26 11 -44 0 -18 4 -33 9
-33 10 0 20 87 13 108 -6 17 -31 15 -39 -4z"/>
<path d="M8484 1039 c3 -17 6 -42 6 -55 0 -17 6 -24 20 -24 18 0 20 7 20 55 0
53 -1 55 -26 55 -24 0 -26 -3 -20 -31z"/>
<path d="M2784 776 c-3 -8 -1 -23 5 -35 6 -11 11 -42 11 -69 0 -32 5 -54 15
-62 22 -18 26 2 23 96 -3 73 -5 79 -26 82 -13 2 -24 -3 -28 -12z"/>
<path d="M6565 760 c-4 -7 -2 -17 4 -23 6 -6 11 -32 11 -58 0 -33 5 -49 15
-53 21 -8 27 11 23 80 -3 52 -6 59 -25 62 -11 2 -24 -2 -28 -8z"/>
<path d="M4707 743 c-10 -9 4 -76 16 -85 19 -12 27 2 27 42 0 25 -5 40 -16 44
-19 7 -19 7 -27 -1z"/>
</g>
</svg>
