<?xml version="1.0" standalone="no"?>
<!DOCTYPE svg PUBLIC "-//W3C//DTD SVG 20010904//EN"
 "http://www.w3.org/TR/2001/REC-SVG-20010904/DTD/svg10.dtd">
<svg version="1.0" xmlns="http://www.w3.org/2000/svg"
 width="300.000000pt" height="187.000000pt" viewBox="0 0 300.000000 187.000000"
 preserveAspectRatio="xMidYMid meet">
<metadata>
Created by potrace 1.10, written by Peter Selinger 2001-2011
</metadata>
<g transform="translate(0.000000,187.000000) scale(0.050000,-0.050000)"
fill="#000000" stroke="none">
<path d="M0 3566 l0 -174 76 74 76 75 48 -51 48 -51 -124 -125 c-134 -136
-185 -261 -54 -134 l70 67 50 -47 51 -48 -120 -121 -121 -122 0 -191 c0 -189
0 -191 66 -254 86 -83 79 -85 229 68 l129 133 41 -41 41 -41 -178 -191 c-206
-222 -187 -214 -267 -117 l-61 74 0 -189 0 -188 76 74 76 75 44 -47 c43 -45
60 -114 29 -114 -39 0 -225 -186 -225 -225 0 -39 7 -36 70 25 l71 69 194 -194
194 -195 -51 -51 -51 -51 -91 96 c-50 53 -114 118 -143 145 l-53 48 -70 -67
c-39 -37 -70 -84 -70 -104 0 -50 15 -45 74 25 66 79 38 98 417 -281 l329 -329
-50 -50 -50 -50 -145 144 -146 145 -144 -145 -144 -144 -71 69 c-63 61 -70 64
-70 25 0 -27 44 -80 120 -147 134 -116 138 -126 76 -192 l-44 -47 -76 75 c-63
61 -76 67 -76 36 0 -22 56 -95 124 -165 l125 -125 -56 -55 -56 -55 -68 78 -69
79 0 -174 0 -173 154 0 c146 0 158 3 220 63 67 66 146 47 146 -36 0 -49 82
-28 134 34 l52 61 63 -61 c102 -99 213 -23 119 81 -19 21 -29 44 -22 51 14 14
74 -42 74 -70 0 -39 77 3 162 89 l87 88 -145 146 -145 146 50 47 50 47 185
-176 c228 -217 224 -194 67 -349 -72 -72 -131 -137 -131 -145 0 -50 77 7 251
184 l197 201 51 -51 50 -50 -134 -135 c-139 -140 -155 -165 -107 -165 32 0
299 268 308 309 3 14 -58 83 -135 152 l-142 126 44 46 c61 65 56 68 266 -140
l188 -187 -139 -138 c-76 -75 -138 -144 -138 -152 0 -38 65 -11 120 49 l60 65
60 -65 c63 -69 400 -104 400 -42 0 29 -143 177 -172 177 -11 0 -42 23 -69 51
l-47 50 54 54 55 55 138 -150 138 -150 381 380 382 379 -145 146 -145 146 150
141 150 141 -149 138 -149 137 47 51 c64 68 58 70 203 -79 148 -153 147 -153
248 -50 l79 81 -289 289 -290 290 195 194 195 193 165 -158 c91 -87 221 -217
288 -288 l124 -131 287 285 286 285 338 -338 337 -337 -288 -283 -287 -283
145 -135 146 -136 -56 -53 -56 -54 -189 189 -189 190 134 135 c165 167 166
155 -6 307 l-141 125 146 147 145 146 -89 89 -90 88 -240 -228 -240 -228 146
-146 145 -147 -51 -48 -51 -48 -425 424 -425 425 -85 -86 c-46 -48 -84 -93
-84 -102 0 -9 254 -267 564 -575 l564 -559 -52 -52 -53 -53 -286 283 -287 283
-235 -235 -235 -234 90 -90 90 -90 146 145 146 145 47 -50 47 -50 -159 -166
c-87 -91 -341 -345 -563 -564 -222 -220 -404 -406 -404 -415 0 -38 65 -11 120
49 l60 65 60 -65 c85 -92 95 -88 309 139 l192 204 55 -55 54 -54 -145 -131
c-80 -72 -145 -140 -145 -150 0 -54 88 -1 220 132 l149 150 -145 146 -145 146
51 48 51 48 135 -134 c158 -157 154 -156 250 -58 95 97 97 90 -61 249 l-135
137 135 121 c166 148 166 146 -5 300 l-140 125 54 56 54 57 196 -195 196 -195
-145 -134 -145 -134 96 -96 97 -97 280 288 280 288 144 -143 144 -143 143 143
143 144 278 -284 c152 -155 286 -283 296 -283 10 0 79 61 153 134 l136 135 43
-43 43 -43 -188 -201 -188 -202 -270 270 c-148 148 -277 276 -286 284 -8 7
-78 -48 -155 -125 l-139 -138 -148 147 -149 148 -506 -514 c-279 -283 -510
-522 -514 -533 -26 -77 113 46 537 471 l489 490 195 -194 195 -195 -53 -56
-54 -56 -146 145 -146 145 -91 -90 -92 -89 141 -132 c159 -147 159 -147 98
-212 l-44 -47 -146 145 -146 145 -90 -89 -89 -90 152 -155 c94 -96 168 -155
194 -155 33 0 9 33 -113 156 l-155 156 51 48 51 48 146 -145 146 -145 273 281
c300 308 289 300 350 235 l43 -46 -279 -278 c-154 -154 -280 -286 -280 -295 0
-51 86 18 346 280 l293 295 -140 141 -140 141 51 48 51 48 193 -192 193 -193
-284 -277 c-155 -152 -283 -283 -283 -291 0 -37 66 -9 119 50 l58 65 68 -65
c59 -58 143 -90 130 -50 -2 8 80 99 182 203 l187 187 52 -52 53 -53 -149 -150
c-127 -128 -142 -150 -102 -150 26 0 64 22 86 50 49 63 83 63 132 0 52 -65 84
-63 154 10 l58 60 62 -60 c72 -70 90 -74 90 -22 0 22 -54 86 -125 149 l-125
111 125 126 c135 137 187 263 55 136 l-70 -67 -50 47 -51 48 120 121 121 122
0 333 0 332 -125 111 -125 111 55 55 54 55 71 -68 70 -68 0 608 0 608 -71 -69
c-74 -71 -109 -70 -158 8 -17 28 0 52 104 145 l125 111 0 193 0 192 -76 -74
-76 -75 -49 52 -49 52 125 110 c71 63 125 127 125 149 0 53 -23 48 -90 -22
l-58 -60 -62 60 c-78 76 -97 75 -170 -5 l-60 -65 -60 65 c-73 80 -87 80 -156
3 -68 -76 -164 -68 -164 14 l0 48 -311 0 -312 0 -139 -125 c-77 -69 -157 -154
-179 -190 -64 -110 -89 -105 -245 56 l-142 146 -136 -148 -136 -149 -60 61
-61 60 141 126 c176 158 175 163 -28 163 -165 0 -170 -1 -223 -64 l-54 -65
-57 65 c-56 62 -97 79 -125 50 -8 -7 182 -205 421 -438 l436 -425 -200 -190
-200 -190 -50 49 -49 48 134 135 c167 168 175 130 -83 387 -257 257 -230 251
-376 88 -124 -139 -159 -153 -217 -89 -36 40 -34 43 112 190 l148 149 -80 81
c-43 45 -101 92 -129 105 -27 13 -59 44 -70 69 -27 61 -72 56 -140 -15 l-58
-60 -62 60 c-34 33 -79 60 -101 59 -28 -1 4 -41 121 -150 l159 -149 -54 -55
-55 -54 -205 204 c-122 121 -222 205 -245 205 -28 0 48 -88 255 -295 l295
-295 -336 -336 -335 -335 -56 58 -55 58 281 267 c154 148 281 278 281 290 0
26 -573 588 -600 588 -9 0 -151 -131 -313 -290 l-296 -290 93 -94 93 -93 285
283 285 283 185 -195 184 -194 -42 -46 -42 -45 -144 143 -144 144 -97 -92 -97
-92 145 -146 145 -145 -142 -143 -142 -143 146 -143 147 -142 -50 -50 -49 -49
-200 189 c-214 203 -223 227 -108 284 26 13 84 60 127 105 l80 82 -96 94 -96
95 -138 -150 -138 -150 -151 150 -150 149 -94 -94 -95 -94 294 -282 294 -281
-191 -189 c-214 -212 -199 -204 -262 -145 l-47 44 145 146 145 146 -92 93 -93
92 -141 -146 -142 -147 -51 48 -51 48 144 145 144 145 -78 89 c-44 49 -86 90
-94 91 -20 3 -395 377 -395 395 0 8 66 77 147 155 81 78 162 164 180 191 l32
49 62 -59 62 -59 -147 -134 -146 -134 95 -96 95 -96 385 385 385 385 -186 0
c-184 0 -187 -1 -238 -61 l-52 -61 -63 61 c-63 61 -411 98 -411 44 0 -91 -104
-118 -167 -43 -49 58 -56 60 -222 60 -205 0 -204 2 -41 -160 142 -141 149
-157 90 -210 -40 -37 -169 64 -414 323 -64 68 -66 64 -66 -127z m5180 51 c0
-12 -13 -16 -29 -10 -18 7 -34 -4 -41 -28 -7 -21 -21 -39 -31 -39 -11 0 -19
-9 -19 -20 0 -32 55 -23 68 11 6 17 21 26 33 18 14 -8 7 -24 -20 -42 -22 -16
-41 -41 -41 -55 0 -14 -23 -46 -51 -73 l-50 -47 -54 53 -53 54 47 50 c27 28
60 51 76 51 15 0 50 27 78 60 48 56 87 64 87 17z m-990 -516 l-50 -50 -194
194 -194 194 48 51 48 51 196 -195 196 -195 -50 -50z m807 159 c18 0 93 65
166 145 132 145 133 145 175 107 60 -55 61 -54 -148 -263 l-190 -190 -192 192
-192 192 47 50 47 50 127 -142 c70 -77 142 -141 160 -141z m-376 75 l198 -185
-50 -50 -49 -49 -194 193 c-192 192 -193 195 -157 235 49 54 27 66 252 -144z
m1158 4 l189 -180 -54 -54 -54 -54 -194 193 c-192 192 -193 195 -157 235 55
60 64 55 270 -140z m-1544 -460 c3 -6 -17 -33 -45 -59 l-51 -48 -194 193 -193
194 47 50 48 51 191 -185 c106 -102 194 -190 197 -196z m387 179 l203 -203
-51 -50 -50 -51 -204 205 -205 204 46 48 c58 62 28 80 261 -153z m857 -6 c205
-200 196 -184 137 -246 l-44 -47 -148 145 -147 146 -134 -145 -134 -145 -54
55 -55 54 185 186 c101 102 191 183 199 180 7 -3 95 -85 195 -183z m142 137
l48 -52 -49 -37 c-74 -57 -172 32 -111 99 47 52 54 52 112 -10z m-5430 -367
l-51 -51 -44 44 -44 44 48 51 47 50 47 -44 47 -44 -50 -50z m437 -47 l186
-185 -188 -199 -187 -199 -54 54 -54 54 139 140 139 140 -94 95 -95 94 -140
-139 -140 -139 -43 43 -43 43 178 191 c98 105 185 191 194 192 8 0 99 -83 202
-185z m858 -11 l195 -196 -51 -48 -51 -48 -199 198 -199 198 43 46 c58 62 42
71 262 -150z m1291 150 l43 -47 -50 -47 -50 -47 -50 47 -50 47 43 47 c24 25
50 46 57 46 7 0 33 -21 57 -46z m566 13 c48 -43 47 -64 -7 -121 l-43 -46 -57
54 -56 53 44 47 c51 55 71 57 119 13z m1138 -18 l47 -50 -194 -194 -194 -194
-54 54 -55 55 189 190 c215 216 198 206 261 139z m-1711 -668 l-50 -50 -194
194 -194 194 48 51 48 51 196 -195 196 -195 -50 -50z m-10 289 l-47 -50 -47
43 c-57 55 -58 71 -1 118 44 36 46 36 94 -12 l49 -48 -48 -51z m2280 100 l48
-51 -44 -44 -44 -44 -54 54 c-52 52 -53 54 -17 94 47 52 54 52 111 -9z m300
-100 l-48 -51 -50 50 -50 50 48 51 48 51 50 -50 50 -50 -48 -51z m581 99 l47
-51 -149 -137 -149 -138 142 -146 143 -147 -334 -334 -333 -335 -195 196 -194
195 51 48 51 48 135 -134 c167 -166 129 -174 386 83 257 256 250 223 88 383
-159 158 -164 125 45 338 196 200 200 202 266 131z m-4870 -10 c36 -40 35 -43
-147 -225 l-184 -183 -44 44 -45 45 179 180 c200 201 190 195 241 139z m54
-604 l-285 -285 144 -145 144 -144 -47 -50 -47 -50 -180 172 c-100 94 -252
247 -340 340 l-160 168 47 50 47 50 146 -145 146 -145 285 284 284 285 50 -50
50 -50 -284 -285z m805 226 l-50 -50 -54 54 -54 54 48 51 47 50 57 -54 57 -54
-51 -51z m571 108 c87 -93 -25 -194 -115 -104 l-54 54 47 50 c59 63 63 63 122
0z m1854 -243 l-194 -194 -51 48 -51 48 195 196 195 196 50 -50 50 -50 -194
-194z m1325 -101 c0 -22 -347 -365 -369 -365 -10 0 -39 20 -65 44 l-47 44 145
146 145 146 -138 139 -139 140 46 49 46 49 188 -188 c103 -104 188 -196 188
-204z m-2189 200 c203 -189 210 -200 148 -256 -64 -58 -448 326 -390 390 49
54 29 65 242 -134z m1576 133 c36 -42 36 -44 -5 -85 l-42 -42 -44 44 c-42 42
-43 45 -7 84 46 51 54 51 98 -1z m-4277 -377 l-50 -50 -54 54 -54 54 48 51 47
50 57 -54 57 -54 -51 -51z m1146 93 l44 -47 -56 -53 -57 -54 -43 46 c-53 56
-54 70 -11 117 44 49 71 47 123 -9z m294 6 c36 -39 35 -42 -10 -90 -59 -62
-71 -62 -112 1 -60 91 48 170 122 89z m358 -90 c141 -160 143 -160 286 0 129
145 141 149 202 84 l43 -46 -195 -194 -195 -195 -126 141 c-160 179 -133 187
-452 -143 l-274 -283 -53 53 -53 53 329 330 c181 182 339 330 351 330 12 0 74
-58 137 -130z m-937 -289 l-58 -61 -47 44 c-59 55 -58 84 6 134 l51 40 53 -48
52 -49 -57 -60z m-283 -195 l333 -335 -51 -50 -50 -50 -340 339 -339 339 43
45 c60 64 37 80 404 -288z m1140 281 l37 -51 -187 -188 -187 -187 -56 54 -56
53 185 186 c204 205 209 207 264 133z m1417 -91 l-44 -44 -51 48 -50 47 44 47
44 47 50 -50 51 -51 -44 -44z m573 96 l46 -49 -190 -189 -189 -190 -50 51 -51
50 183 186 c210 213 192 203 251 141z m-3708 -391 l-50 -50 -54 54 -54 54 48
51 47 50 57 -54 57 -54 -51 -51z m866 113 l44 -47 -56 -53 -57 -54 -47 50 -47
50 47 50 c58 61 62 61 116 4z m1137 3 l46 -43 -182 -192 c-211 -223 -205 -220
-268 -161 l-48 45 185 196 c203 216 202 216 267 155z m2427 -147 l189 -190
-55 -55 -54 -54 -194 194 -194 194 47 50 c63 67 46 77 261 -139z m460 80 c0
-73 -80 -99 -135 -44 l-53 53 48 51 47 50 47 -43 c25 -24 46 -55 46 -67z
m-2609 49 c36 -40 34 -43 -151 -229 l-188 -189 -47 43 -46 44 185 186 c207
207 196 201 247 145z m-1700 -938 c-54 -60 -67 -54 -215 93 l-136 135 -90 -89
-90 -89 140 -141 141 -142 -50 -47 -51 -48 -154 149 c-85 81 -237 230 -339
330 l-184 182 53 53 53 53 145 -144 146 -145 90 89 90 89 -144 145 -144 145
48 51 48 51 340 -339 c336 -337 340 -341 303 -381z m-305 663 l54 -57 -48 -46
-49 -45 -53 52 c-51 51 -51 53 -16 101 45 63 47 63 112 -5z m440 -140 l195
-196 -51 -48 -51 -48 -199 198 -199 198 43 46 c58 62 42 71 262 -150z m749
-182 c3 -8 -17 -36 -45 -62 l-51 -48 -194 193 -193 194 47 50 47 50 192 -182
c106 -100 194 -188 197 -195z m3380 223 l-55 -54 -51 51 -51 51 55 54 54 55
51 -51 51 -51 -54 -55z m305 105 l47 -50 -199 -188 -198 -189 -48 47 -48 47
178 191 c197 211 201 213 268 142z m-3150 -389 c-87 -87 -195 18 -111 108 l48
51 57 -54 57 -54 -51 -51z m-1432 91 l45 -48 -46 -42 -45 -43 -50 50 c-48 48
-49 50 -13 90 47 52 54 51 109 -7z m1718 2 l43 -46 -195 -194 -196 -195 -48
51 -48 51 189 190 c212 213 197 205 255 143z m-1146 -373 l-50 -50 -54 54 -54
54 48 51 47 50 57 -54 57 -54 -51 -51z m360 13 c66 -69 145 -141 176 -161 78
-49 87 -87 34 -143 l-44 -47 -196 193 -195 194 41 45 c54 59 46 63 184 -81z
m-1787 -187 c49 -44 47 -71 -14 -128 l-50 -47 -54 53 -53 54 47 50 c56 60 75
62 124 18z m325 -53 c15 -23 11 -42 -17 -73 -20 -22 -27 -41 -15 -41 12 0 31
16 42 35 10 19 26 27 35 18 9 -9 1 -25 -18 -36 -33 -18 -31 -25 20 -91 48 -63
49 -70 13 -50 -23 12 -57 45 -76 73 -18 28 -45 51 -59 51 -14 0 -47 23 -73 50
l-47 50 47 50 c50 54 99 42 148 -36z"/>
<path d="M3960 3724 c0 -9 41 -56 90 -104 l91 -89 104 105 c81 80 96 104 66
104 -22 0 -68 -28 -104 -63 l-65 -62 -62 62 c-59 59 -120 83 -120 47z"/>
<path d="M4614 2104 c-92 -94 -91 -99 2 -190 94 -92 99 -91 190 2 92 94 91 99
-2 190 -94 92 -99 91 -190 -2z"/>
<path d="M74 1264 c-92 -94 -93 -138 -4 -224 l71 -69 94 95 94 94 -90 90 -90
91 -75 -77z"/>
<path d="M3750 100 c-80 -81 -91 -100 -58 -100 22 0 66 27 98 60 l58 60 64
-62 c35 -34 79 -59 97 -55 25 5 9 30 -64 102 l-96 95 -99 -100z"/>
</g>
</svg>
