<?xml version="1.0" standalone="no"?>
<!DOCTYPE svg PUBLIC "-//W3C//DTD SVG 20010904//EN"
 "http://www.w3.org/TR/2001/REC-SVG-20010904/DTD/svg10.dtd">
<svg version="1.0" xmlns="http://www.w3.org/2000/svg"
 width="300.000000pt" height="300.000000pt" viewBox="0 0 300.000000 300.000000"
 preserveAspectRatio="xMidYMid meet">
<metadata>
Created by potrace 1.10, written by Peter Selinger 2001-2011
</metadata>
<g transform="translate(0.000000,300.000000) scale(0.100000,-0.100000)"
fill="#000000" stroke="none">
<path d="M150 2944 c124 -74 311 -167 379 -189 107 -35 194 -17 227 47 13 25
12 36 -8 113 -12 47 -25 85 -29 85 -4 0 2 -28 12 -62 29 -94 27 -127 -10 -160
-75 -67 -233 -20 -547 163 -55 33 -105 59 -110 59 -5 0 34 -26 86 -56z"/>
<path d="M185 2974 c84 -53 334 -171 381 -180 56 -12 103 -3 121 23 17 22 15
97 -3 148 -7 22 -11 29 -8 15 29 -136 13 -180 -63 -180 -58 0 -165 43 -325
131 -127 69 -178 91 -103 43z"/>
<path d="M300 2963 c121 -67 247 -125 288 -130 35 -5 42 -2 56 20 14 20 15 32
6 72 -6 27 -15 55 -21 64 -8 13 -9 13 -5 -4 28 -108 27 -130 -4 -140 -30 -10
-68 4 -222 81 -158 79 -204 97 -98 37z"/>
<path d="M430 2951 c113 -57 143 -66 159 -47 14 16 5 82 -11 92 -7 4 -7 -2 -2
-17 4 -13 8 -35 8 -49 1 -35 -27 -30 -142 25 -124 60 -132 57 -12 -4z"/>
<path d="M469 2983 c28 -12 36 -12 47 -1 11 11 5 13 -34 14 l-47 1 34 -14z"/>
<path d="M764 2985 c23 -61 46 -174 41 -201 -21 -115 -198 -111 -452 11 -98
46 -252 132 -333 184 -13 9 -21 11 -17 4 10 -16 265 -163 352 -203 179 -82
335 -111 404 -76 42 22 65 75 57 130 -8 52 -39 153 -51 163 -4 4 -5 -1 -1 -12z"/>
<path d="M834 2985 c22 -62 46 -165 46 -198 0 -113 -122 -176 -287 -147 -120
21 -335 117 -556 249 -20 13 -37 21 -37 18 0 -9 157 -101 274 -161 161 -83
280 -119 391 -120 75 -1 97 3 131 21 67 36 94 75 94 136 0 53 -35 194 -53 212
-7 7 -8 3 -3 -10z"/>
<path d="M905 2983 c17 -44 45 -170 45 -202 -1 -84 -69 -166 -164 -197 -37
-13 -72 -15 -145 -12 -149 8 -310 69 -546 209 -48 28 -89 49 -91 46 -8 -8 233
-142 335 -187 201 -88 363 -108 471 -59 101 47 150 115 150 208 0 47 -44 211
-57 211 -3 0 -2 -8 2 -17z"/>
<path d="M980 2997 c0 -2 9 -30 20 -62 41 -120 17 -238 -64 -315 -80 -76 -87
-108 -34 -157 72 -68 357 -141 402 -104 26 22 19 38 -52 115 -51 54 -72 87
-83 122 -20 69 -15 230 9 327 10 42 16 77 12 77 -11 0 -50 -216 -50 -275 1
-109 47 -223 107 -263 13 -8 33 -28 44 -44 18 -24 19 -31 8 -45 -31 -36 -291
24 -379 88 -57 41 -54 66 17 142 69 75 95 131 95 206 1 56 -27 177 -43 187 -5
3 -9 3 -9 1z"/>
<path d="M1070 2970 c-10 -24 -10 -37 -1 -56 30 -68 -5 -212 -72 -294 -70 -87
-73 -94 -55 -122 12 -17 46 -36 115 -61 95 -35 118 -41 156 -38 30 2 19 35
-32 95 -52 61 -69 107 -72 196 -2 52 10 254 17 288 3 13 1 21 -4 18 -11 -6
-27 -214 -24 -305 3 -93 16 -130 72 -200 27 -34 50 -67 50 -72 0 -31 -218 35
-263 80 -17 17 -18 21 -4 47 8 16 25 38 37 49 74 67 124 251 89 328 -8 18 -8
30 1 47 6 12 10 24 7 26 -2 3 -10 -9 -17 -26z"/>
<path d="M1226 2985 c-14 -38 -28 -208 -23 -293 6 -95 26 -156 59 -176 19 -11
50 -4 153 34 90 34 225 38 338 11 106 -25 160 -27 177 -5 11 12 9 27 -9 84
-21 62 -22 74 -11 127 14 68 36 113 85 177 20 27 34 50 32 52 -8 8 -76 -91
-102 -148 -38 -82 -41 -134 -15 -212 12 -36 19 -70 15 -76 -10 -16 -79 -12
-161 11 -63 17 -97 20 -188 17 -96 -4 -122 -9 -195 -38 -102 -40 -129 -36
-150 25 -17 49 -19 274 -2 359 11 58 10 83 -3 51z"/>
<path d="M1270 2963 c-18 -62 -25 -244 -11 -286 24 -73 39 -75 281 -46 98 11
110 11 188 -10 62 -16 88 -19 102 -11 24 13 20 -2 29 105 8 99 38 180 92 248
16 20 25 37 19 37 -17 0 -89 -119 -105 -174 -8 -27 -15 -76 -15 -108 0 -33 -5
-68 -10 -79 -13 -23 -55 -25 -124 -4 -62 19 -127 19 -241 0 -131 -21 -157 -20
-186 11 -23 24 -24 32 -23 147 0 67 6 140 12 161 6 22 10 42 7 44 -2 2 -9 -13
-15 -35z"/>
<path d="M1320 2968 c-21 -56 -25 -217 -7 -260 20 -47 43 -53 148 -39 45 6
131 11 191 11 102 0 110 1 133 25 14 13 25 33 25 45 0 34 40 142 71 194 17 26
29 50 27 52 -11 10 -74 -118 -95 -189 -13 -45 -30 -89 -39 -97 -11 -11 -51
-17 -167 -21 -84 -4 -172 -10 -197 -14 -37 -6 -50 -4 -70 13 -24 19 -25 25
-25 129 0 60 6 123 13 142 7 19 10 36 8 38 -2 2 -9 -11 -16 -29z"/>
<path d="M1364 2948 c-10 -30 -18 -84 -18 -126 -1 -67 1 -76 24 -94 21 -17 33
-19 75 -14 27 4 100 9 160 12 65 4 119 12 132 20 13 8 30 39 43 81 12 37 35
92 52 121 16 30 24 51 18 47 -15 -9 -55 -92 -76 -155 -27 -87 -44 -100 -129
-100 -39 0 -108 -5 -154 -10 -45 -6 -91 -8 -101 -5 -42 13 -48 112 -14 225 19
63 10 62 -12 -2z"/>
<path d="M1422 2975 c-18 -40 -36 -150 -28 -179 9 -38 47 -50 121 -37 33 6 84
13 113 17 70 8 92 30 136 133 44 104 41 119 -3 19 -63 -142 -51 -132 -171
-147 -47 -5 -99 -13 -116 -17 -39 -8 -74 22 -74 64 0 36 28 142 42 159 6 7 6
13 1 13 -5 0 -15 -11 -21 -25z"/>
<path d="M1476 2978 c-22 -34 -39 -114 -32 -144 l7 -27 86 7 c98 8 131 22 167
69 26 34 63 122 47 112 -5 -2 -12 -16 -15 -31 -10 -39 -52 -97 -84 -116 -18
-11 -56 -18 -112 -20 l-85 -3 2 48 c2 26 12 65 23 87 22 43 19 54 -4 18z"/>
<path d="M1544 2986 c-11 -8 -29 -33 -39 -55 -15 -34 -16 -43 -4 -57 21 -26
115 -11 152 24 31 29 57 73 57 94 -1 7 -10 -5 -20 -26 -33 -66 -56 -83 -117
-91 -34 -4 -59 -3 -66 4 -15 15 9 66 45 96 32 27 26 34 -8 11z"/>
<path d="M2070 2990 c-7 -46 28 -88 104 -122 44 -20 67 -23 166 -23 69 1 146
7 192 17 206 46 328 43 416 -9 24 -13 46 -22 49 -19 3 3 -25 20 -63 38 -64 30
-76 33 -164 32 -53 0 -145 -11 -207 -23 -166 -32 -255 -37 -333 -17 -87 22
-143 61 -151 106 -4 19 -7 28 -9 20z"/>
<path d="M2196 2984 c-15 -40 54 -74 151 -74 37 0 133 11 212 25 210 36 339
30 419 -21 12 -8 22 -10 22 -5 0 4 -24 19 -52 32 -82 36 -214 37 -404 5 -84
-14 -174 -26 -200 -26 -92 0 -151 29 -137 68 7 18 -4 15 -11 -4z"/>
<path d="M2970 2996 c0 -2 7 -7 16 -10 8 -3 12 -2 9 4 -6 10 -25 14 -25 6z"/>
<path d="M1987 2810 c-31 -37 -34 -77 -12 -160 22 -81 19 -107 -14 -141 -28
-27 -34 -29 -108 -29 -43 1 -107 7 -143 15 -77 17 -210 19 -263 4 -85 -23
-101 -80 -38 -138 22 -20 43 -49 47 -64 11 -47 43 -60 124 -52 l71 7 52 -54
c41 -44 64 -58 110 -72 68 -20 154 -88 220 -174 31 -40 63 -68 104 -89 47 -26
67 -45 103 -100 54 -81 80 -93 80 -36 0 25 -10 53 -29 81 -32 49 -31 73 5 96
24 16 36 48 55 151 10 54 17 66 73 121 70 69 159 117 249 133 90 16 158 -3
257 -74 55 -39 70 -48 70 -41 0 10 -125 94 -162 109 -63 26 -120 30 -186 13
-165 -42 -299 -156 -317 -271 -14 -86 -18 -96 -51 -136 -19 -22 -34 -47 -34
-54 0 -7 14 -29 30 -50 29 -36 43 -105 21 -105 -5 0 -24 24 -42 53 -46 74 -68
96 -121 123 -29 15 -64 45 -88 77 -72 92 -166 165 -243 188 -59 18 -71 27 -98
65 -34 50 -58 59 -135 50 -69 -8 -90 3 -114 60 -12 26 -30 49 -45 56 -26 12
-41 47 -32 72 20 52 166 68 336 37 139 -26 165 -26 217 -2 66 30 74 68 44 201
-15 64 -9 101 22 132 28 28 95 20 216 -26 112 -43 161 -45 337 -16 167 27 265
26 362 -5 91 -29 109 -26 28 4 -115 43 -196 44 -425 7 -145 -24 -186 -21 -292
20 -51 19 -120 38 -154 41 -58 5 -61 4 -87 -27z"/>
<path d="M0 2743 c0 -12 366 -198 439 -223 35 -12 125 -30 200 -41 137 -20
196 -33 219 -52 20 -16 13 -60 -16 -94 -79 -91 -295 -220 -418 -249 -124 -29
-248 -5 -363 71 -29 20 -56 34 -58 32 -2 -3 20 -20 49 -39 203 -131 394 -116
644 53 138 93 203 165 189 211 -11 32 -80 55 -235 78 -207 29 -246 44 -552
209 -54 29 -98 49 -98 44z"/>
<path d="M2620 2731 c-19 -4 -61 -19 -94 -34 -78 -36 -122 -35 -172 3 -48 37
-93 38 -148 6 -23 -13 -58 -29 -79 -35 -43 -14 -49 -24 -71 -109 -20 -80 -38
-106 -90 -132 -51 -24 -149 -26 -246 -5 -130 29 -250 12 -250 -34 0 -21 19
-31 120 -67 170 -60 303 -142 445 -273 40 -38 86 -72 101 -75 38 -10 70 16
119 96 60 97 99 142 173 197 85 65 177 101 267 108 89 7 158 -12 245 -67 51
-32 58 -34 32 -12 -210 184 -549 79 -730 -225 -45 -77 -70 -98 -102 -88 -11 3
-63 44 -116 91 -157 137 -241 187 -444 264 -104 40 -122 60 -69 79 43 15 120
13 199 -4 36 -8 99 -14 140 -14 120 -1 187 41 210 130 5 22 15 57 20 79 8 31
17 41 38 46 15 4 53 20 84 35 72 36 92 36 148 -1 58 -38 102 -39 188 -1 118
52 270 51 401 -2 33 -14 61 -21 61 -17 0 4 -33 20 -72 35 -58 22 -94 28 -173
31 -55 1 -116 0 -135 -5z"/>
<path d="M0 2666 c0 -5 -2 -4 220 -118 194 -100 258 -118 406 -115 84 1 106
-2 130 -18 26 -17 27 -19 10 -29 -63 -37 -84 -57 -108 -101 -37 -68 -60 -85
-119 -85 -26 0 -85 -12 -131 -26 -142 -45 -223 -30 -352 65 -31 23 -56 38 -56
34 0 -15 154 -111 205 -128 60 -20 112 -15 216 20 40 14 93 25 118 25 66 0 91
17 125 85 26 50 39 64 79 83 100 48 41 82 -158 92 -170 8 -200 19 -445 151
-121 66 -140 74 -140 65z"/>
<path d="M2575 2649 c-89 -16 -136 -19 -248 -15 -131 5 -138 4 -162 -17 -14
-12 -41 -58 -59 -102 -46 -107 -66 -127 -153 -154 -124 -37 -128 -74 -17 -159
164 -126 228 -131 307 -25 40 54 116 129 164 162 94 64 230 111 324 111 61 0
162 -32 222 -69 26 -17 47 -26 47 -21 0 5 -39 28 -87 52 -85 42 -88 43 -187
42 -192 -1 -320 -72 -506 -282 -48 -54 -60 -62 -91 -62 -39 0 -128 49 -204
113 -85 71 -80 91 32 127 88 29 115 56 154 151 20 51 42 89 62 105 28 24 35
25 86 17 80 -12 198 -6 332 17 177 30 237 25 372 -34 22 -10 36 -13 33 -8 -3
6 -36 22 -73 37 -91 37 -198 42 -348 14z"/>
<path d="M2595 2604 c-38 -7 -136 -17 -217 -20 -183 -8 -196 -14 -242 -117
-33 -72 -72 -116 -135 -153 -44 -26 -49 -50 -15 -85 38 -40 117 -78 149 -72
16 4 53 36 98 85 150 167 317 250 498 249 80 0 172 -24 239 -63 25 -14 29 -15
15 -3 -36 31 -119 64 -189 75 -111 18 -218 -5 -351 -73 -64 -33 -101 -62 -187
-149 -94 -95 -111 -108 -141 -108 -38 0 -121 50 -139 83 -12 23 -2 33 81 89
31 21 49 46 81 113 51 106 66 115 205 115 53 0 157 10 233 21 176 27 253 23
346 -20 38 -17 71 -29 74 -26 5 5 -63 36 -132 61 -48 18 -178 17 -271 -2z"/>
<path d="M0 2595 c0 -2 40 -26 89 -54 112 -63 264 -131 358 -161 69 -21 113
-49 113 -71 0 -41 -151 -103 -251 -102 -69 1 -147 35 -249 110 -36 26 -59 40
-51 31 7 -10 50 -42 95 -73 135 -91 219 -101 368 -45 52 19 98 58 98 82 0 24
-55 58 -136 84 -49 15 -167 67 -261 115 -95 48 -173 86 -173 84z"/>
<path d="M1016 2578 c-27 -39 -20 -67 20 -84 52 -22 69 -15 67 25 -1 34 -36
81 -59 81 -7 0 -20 -10 -28 -22z m73 -39 c16 -48 14 -52 -21 -45 -57 11 -74
42 -42 77 22 24 48 10 63 -32z"/>
<path d="M2610 2560 c-58 -10 -159 -22 -225 -25 -66 -3 -130 -8 -142 -11 -32
-6 -50 -39 -62 -114 -10 -61 -14 -67 -68 -116 -50 -45 -56 -55 -47 -71 15 -25
52 -28 76 -6 11 10 40 44 65 76 35 45 50 57 72 57 32 0 51 19 66 64 14 41 50
59 190 95 178 46 291 40 417 -22 26 -13 48 -20 48 -15 0 4 -6 8 -12 8 -10 0
-10 2 0 8 9 6 -9 19 -55 40 -128 58 -157 61 -323 32z m294 -30 c42 -18 75 -34
74 -36 -2 -2 -33 9 -68 23 -103 42 -212 43 -376 4 -147 -36 -191 -57 -200 -98
-10 -50 -13 -53 -43 -53 -34 0 -53 -16 -111 -93 -40 -54 -76 -77 -99 -62 -19
11 -12 24 48 83 56 55 59 60 65 120 10 91 24 102 132 102 76 0 169 11 349 40
79 13 146 4 229 -30z"/>
<path d="M50 2509 c73 -41 254 -129 313 -153 48 -18 74 -47 61 -67 -10 -16
-69 -39 -102 -39 -61 0 -131 31 -226 100 -53 39 -96 67 -95 63 0 -11 147 -117
198 -142 85 -44 210 -36 233 15 16 34 -16 66 -95 95 -34 12 -121 53 -194 90
-133 70 -194 94 -93 38z"/>
<path d="M16 2474 c19 -15 19 -16 -1 -9 -25 8 -20 4 92 -79 99 -73 171 -103
204 -85 30 16 22 36 -18 49 -21 7 -94 41 -162 76 -128 66 -148 75 -115 48z
m128 -68 c55 -30 118 -59 139 -66 47 -15 48 -30 2 -30 -44 0 -79 17 -170 83
-120 87 -115 89 29 13z"/>
<path d="M969 2343 c-17 -16 -55 -39 -83 -53 -48 -24 -51 -27 -52 -65 -1 -60
-17 -81 -76 -101 -32 -10 -67 -32 -89 -54 -33 -33 -43 -38 -106 -43 -82 -8
-143 -27 -157 -50 -17 -27 24 -60 81 -67 47 -5 48 -6 77 -66 27 -57 33 -64 87
-87 55 -24 61 -29 90 -92 18 -36 55 -92 84 -125 29 -32 58 -75 65 -96 17 -52
7 -122 -30 -194 -39 -77 -86 -129 -226 -246 -156 -131 -202 -197 -188 -272 26
-144 140 -162 466 -71 157 44 183 43 252 -6 137 -97 159 -102 254 -54 72 35
134 101 169 177 21 44 24 65 21 120 -5 90 -35 151 -142 292 -48 63 -101 144
-118 179 -69 138 -24 276 112 347 52 27 159 26 197 -2 54 -41 68 -79 63 -174
-2 -47 -4 -143 -4 -215 0 -150 18 -216 79 -290 72 -89 237 -139 342 -105 138
46 233 199 233 379 0 172 -91 342 -282 527 -140 135 -288 235 -523 349 -187
92 -277 127 -401 160 -126 32 -154 32 -195 -2z m230 -20 c256 -73 636 -277
831 -446 208 -179 330 -385 330 -559 0 -167 -82 -316 -202 -368 -43 -18 -65
-22 -123 -18 -134 9 -239 85 -286 207 -23 60 -29 190 -19 401 4 78 2 101 -12
127 -28 50 -73 76 -140 81 -51 4 -68 0 -123 -27 -143 -71 -191 -212 -121 -355
14 -28 64 -103 112 -166 141 -187 176 -288 139 -399 -30 -91 -149 -200 -235
-216 -45 -8 -79 5 -152 60 -97 73 -99 73 -315 21 -325 -79 -423 -58 -423 89 0
75 45 129 234 285 139 114 216 238 216 346 0 61 -18 99 -79 166 -28 31 -62 81
-75 111 -27 59 -51 83 -115 112 -36 16 -47 28 -71 82 -28 60 -30 63 -65 63
-42 0 -98 26 -92 43 6 21 53 37 139 49 75 10 87 14 123 48 23 22 63 45 93 55
45 14 56 23 69 52 8 19 13 47 11 61 -3 23 4 30 52 54 30 16 58 35 63 44 22 40
92 39 236 -3z"/>
<path d="M1005 2248 c-11 -6 -52 -41 -91 -79 -45 -43 -95 -79 -138 -100 -148
-71 -164 -162 -48 -278 31 -31 85 -80 120 -109 72 -62 100 -110 113 -197 12
-73 1 -152 -32 -240 -20 -53 -39 -77 -171 -207 -111 -110 -154 -160 -173 -200
-30 -65 -31 -92 -4 -119 27 -27 80 -22 229 22 67 19 138 33 196 36 98 6 122
-1 194 -57 107 -84 197 -78 280 16 99 113 75 236 -89 468 -44 62 -91 135 -105
162 -43 85 -60 250 -30 292 8 12 39 34 67 49 29 14 70 40 92 58 33 27 54 34
125 44 l84 11 36 -28 c19 -15 48 -54 65 -87 29 -58 29 -62 36 -274 4 -119 12
-231 17 -248 39 -123 134 -192 267 -192 178 -1 293 201 241 423 -32 136 -145
312 -272 422 -145 125 -376 274 -504 323 -196 76 -449 120 -505 89z m225 -22
c214 -40 357 -100 550 -229 309 -206 460 -393 500 -616 27 -150 -38 -314 -144
-362 -88 -40 -210 -15 -282 57 -63 62 -75 112 -80 324 -2 96 -6 195 -10 220
-8 63 -39 122 -87 169 l-41 41 -81 -6 c-81 -7 -121 -20 -145 -49 -7 -8 -44
-32 -82 -52 -96 -50 -102 -62 -95 -177 7 -122 32 -182 134 -327 44 -63 92
-134 106 -159 35 -61 61 -163 53 -213 -14 -88 -111 -177 -192 -177 -41 0 -71
15 -147 73 -82 63 -163 67 -347 17 -208 -56 -239 -59 -260 -20 -16 30 4 91 49
147 21 26 93 101 159 166 94 93 126 132 146 177 47 104 57 208 30 300 -22 76
-52 114 -150 197 -144 121 -174 176 -137 251 14 29 35 45 96 78 48 25 103 66
140 102 104 103 117 105 317 68z"/>
<path d="M1035 2174 c-16 -8 -59 -43 -95 -77 -36 -34 -86 -76 -111 -93 -26
-18 -53 -47 -64 -70 -17 -37 -17 -39 1 -73 12 -22 53 -60 104 -96 77 -56 89
-69 123 -136 53 -103 67 -199 45 -303 -29 -129 -58 -178 -193 -316 -127 -131
-155 -167 -155 -199 0 -31 28 -33 137 -6 219 53 287 53 364 -1 113 -79 149
-89 215 -58 70 33 97 130 60 218 -9 21 -58 103 -110 181 -142 215 -186 312
-186 411 0 182 178 344 380 346 112 1 189 -43 238 -137 27 -50 27 -52 28 -270
1 -244 11 -306 61 -366 58 -69 186 -92 254 -46 52 35 89 113 96 201 7 94 -7
157 -64 275 -39 82 -59 108 -142 192 -148 149 -414 314 -612 378 -79 26 -256
61 -307 61 -20 0 -50 -7 -67 -16z m286 -33 c136 -35 226 -72 357 -148 214
-123 371 -257 445 -379 116 -193 127 -390 28 -497 -36 -38 -43 -41 -102 -45
-87 -5 -143 24 -181 93 -36 66 -41 110 -39 324 2 221 -8 269 -71 338 -50 54
-81 71 -153 84 -146 27 -331 -69 -410 -213 -27 -48 -30 -62 -30 -143 0 -118
25 -176 172 -402 126 -194 133 -208 133 -271 0 -56 -26 -104 -69 -127 -54 -27
-90 -20 -179 39 -53 35 -98 57 -125 61 -47 7 -147 -7 -252 -34 -110 -30 -135
-33 -141 -17 -11 27 31 83 146 196 127 125 164 183 196 310 29 113 4 256 -60
359 -15 23 -61 66 -104 97 -94 69 -111 90 -112 131 0 37 45 95 94 120 17 9 60
44 96 78 36 34 74 67 85 74 30 18 144 6 276 -28z"/>
<path d="M1065 2128 c-52 -30 -226 -184 -232 -206 -9 -35 11 -67 67 -109 52
-39 113 -111 166 -196 16 -26 35 -46 43 -45 8 2 20 28 28 58 39 154 121 244
268 290 22 7 54 21 72 32 27 16 35 17 52 6 17 -10 25 -10 42 0 18 12 24 11 43
-7 26 -24 56 -28 56 -6 0 16 -114 77 -237 126 -150 59 -318 86 -368 57z m210
-18 c123 -31 362 -131 380 -160 11 -19 -20 -10 -38 10 -19 23 -43 26 -49 8 -4
-10 -10 -10 -32 0 -24 11 -33 10 -64 -8 -21 -11 -63 -29 -94 -39 -69 -24 -138
-69 -172 -114 -35 -46 -74 -135 -82 -184 -3 -24 -9 -43 -13 -43 -4 0 -34 39
-66 86 -32 47 -80 104 -108 127 -125 105 -125 112 -2 220 50 43 106 86 125 97
46 25 114 25 215 0z"/>
<path d="M1082 2066 c-59 -35 -157 -116 -172 -142 -16 -29 -5 -47 56 -93 27
-20 65 -61 86 -91 20 -30 41 -56 46 -58 6 -2 15 13 21 33 33 119 139 211 292
254 31 9 58 21 60 26 10 26 -160 82 -276 91 -62 5 -75 2 -113 -20z m228 -8
c25 -6 70 -22 100 -35 l54 -24 -82 -28 c-140 -49 -211 -109 -259 -218 l-27
-62 -37 58 c-21 33 -57 72 -81 89 -87 60 -85 70 18 152 102 82 127 93 204 85
36 -3 85 -11 110 -17z"/>
<path d="M1154 2040 c-22 -3 -60 -18 -85 -32 -46 -27 -109 -84 -109 -98 0 -13
29 -39 61 -55 16 -9 29 -20 29 -25 0 -17 31 -39 46 -33 8 3 30 30 49 59 40 63
96 106 160 124 25 7 45 16 45 21 0 26 -119 49 -196 39z m151 -21 l40 -11 -49
-19 c-68 -25 -122 -65 -148 -108 -12 -20 -30 -46 -41 -58 l-20 -23 -37 38
c-20 20 -47 44 -60 53 l-23 15 29 32 c16 18 54 45 84 62 45 24 67 30 120 30
36 0 83 -5 105 -11z"/>
<path d="M1175 2006 c-22 -7 -56 -21 -75 -31 -75 -38 -89 -70 -45 -99 32 -21
61 -13 79 22 18 34 51 65 94 86 33 17 35 37 4 35 -9 0 -35 -6 -57 -13z m65 0
c0 -2 -19 -16 -43 -29 -24 -14 -56 -44 -70 -66 -31 -46 -34 -47 -65 -25 -31
22 -27 39 14 65 44 27 164 67 164 55z"/>
<path d="M1834 1798 c19 -114 27 -233 21 -328 -7 -118 4 -192 38 -260 57 -115
184 -120 247 -8 35 62 40 182 11 276 -37 124 -153 269 -271 341 -49 29 -54 27
-46 -21z m157 -88 c90 -89 128 -151 154 -251 31 -114 11 -241 -45 -294 -26
-25 -40 -30 -80 -30 -42 0 -54 5 -84 34 -59 57 -69 106 -72 346 -2 116 -7 228
-13 250 -6 22 -11 46 -11 53 0 24 62 -20 151 -108z"/>
<path d="M1886 1708 c4 -24 7 -122 8 -218 1 -162 3 -179 24 -222 62 -127 190
-111 207 24 12 98 -17 203 -87 314 -42 68 -118 144 -144 144 -13 0 -15 -7 -8
-42z m80 -25 c63 -65 129 -190 145 -273 15 -80 3 -167 -28 -198 -20 -20 -31
-23 -60 -19 -43 7 -68 29 -96 82 -19 36 -21 57 -22 230 -1 105 -5 200 -9 213
-12 38 12 26 70 -35z"/>
<path d="M1942 1493 c4 -175 20 -234 73 -269 86 -56 110 130 36 280 -35 70
-88 146 -103 146 -7 0 -9 -55 -6 -157z m89 22 c55 -112 66 -183 43 -267 -8
-28 -35 -30 -61 -6 -45 42 -55 82 -58 242 -4 147 -4 148 16 130 11 -10 38 -54
60 -99z"/>
<path d="M1989 1444 c-13 -34 4 -125 26 -144 25 -20 38 32 25 96 -14 68 -35
88 -51 48z m41 -88 c0 -78 -23 -40 -27 42 -3 65 -2 66 12 37 8 -16 14 -52 15
-79z"/>
<path d="M1097 1483 c-12 -11 -8 -49 9 -88 15 -36 15 -39 -6 -68 -20 -27 -21
-33 -10 -68 16 -47 12 -54 -109 -193 -113 -129 -151 -177 -151 -189 0 -6 25
-7 68 -3 37 3 103 9 147 12 l80 6 88 -46 c122 -64 189 -63 217 4 23 57 -15
138 -141 297 -74 93 -114 165 -129 233 -20 86 -43 124 -63 103z m43 -75 c30
-106 71 -181 156 -287 88 -110 125 -177 127 -231 3 -93 -69 -105 -205 -35 -97
50 -130 54 -258 34 -136 -21 -136 -22 0 136 147 170 157 187 140 233 -11 31
-10 37 10 65 22 29 22 31 6 76 -18 52 -21 81 -6 81 5 0 19 -33 30 -72z"/>
<path d="M1125 1223 c-14 -79 -54 -146 -128 -215 -90 -85 -85 -97 30 -80 87
13 126 7 171 -28 60 -48 137 -64 166 -34 38 38 6 124 -90 239 -33 39 -72 90
-88 113 -16 23 -34 42 -41 42 -7 0 -16 -17 -20 -37z m139 -121 c74 -93 105
-151 106 -193 0 -62 -66 -63 -163 -3 -65 40 -106 46 -204 31 -35 -6 -53 -5
-53 1 0 6 29 38 65 73 67 64 106 131 120 204 l7 40 27 -33 c14 -19 57 -73 95
-120z"/>
<path d="M1135 1108 c-10 -18 -36 -53 -57 -77 -21 -24 -36 -47 -33 -50 3 -3
34 -5 68 -6 54 0 71 -6 125 -39 67 -40 92 -41 92 -3 0 42 -129 207 -162 207
-7 0 -22 -15 -33 -32z m94 -34 c71 -78 113 -164 80 -164 -6 0 -38 17 -72 38
-52 32 -69 37 -119 37 -32 0 -58 1 -58 3 0 2 17 24 39 50 21 26 44 57 50 70 7
12 16 22 20 22 5 0 32 -25 60 -56z"/>
<path d="M1141 1054 c-22 -28 -20 -44 5 -44 8 0 37 -11 64 -25 56 -28 70 -31
70 -11 0 21 -80 106 -100 106 -10 0 -28 -12 -39 -26z m70 -3 c27 -21 65 -81
52 -81 -5 0 -19 7 -32 16 -13 9 -41 22 -62 28 -38 11 -38 12 -23 34 19 27 34
28 65 3z"/>
<path d="M2615 2191 c-87 -40 -217 -175 -264 -277 -31 -64 -25 -151 14 -244
86 -203 95 -227 95 -273 0 -60 -36 -170 -95 -287 -25 -49 -45 -97 -45 -105 0
-27 28 -28 131 -6 129 27 227 28 279 1 45 -23 68 -54 100 -134 34 -86 72 -126
120 -126 22 0 41 4 45 9 3 6 -9 8 -29 4 -51 -8 -75 15 -131 129 -47 96 -53
104 -99 127 -62 32 -146 32 -290 2 -55 -12 -103 -18 -108 -13 -5 5 14 55 41
113 109 234 114 295 37 468 -56 125 -76 191 -76 246 0 130 229 374 350 375 46
0 138 -29 221 -70 45 -22 84 -38 87 -36 7 8 -130 73 -202 95 -83 26 -129 26
-181 2z"/>
<path d="M2607 2109 c-56 -37 -147 -135 -184 -198 -42 -72 -37 -121 30 -277
75 -175 83 -210 68 -292 -7 -36 -25 -106 -41 -156 -16 -49 -27 -93 -24 -98 3
-4 62 -8 132 -8 185 -1 229 -26 303 -173 42 -83 78 -113 102 -87 10 10 9 12
-4 7 -28 -9 -59 22 -95 96 -41 85 -72 119 -133 149 -39 19 -60 21 -168 20 -76
-1 -123 3 -123 9 0 5 13 54 29 107 56 188 52 233 -30 415 -83 183 -79 244 23
363 84 98 151 144 208 144 45 0 144 -35 229 -82 40 -22 70 -35 66 -29 -9 15
-137 79 -204 102 -81 28 -129 25 -184 -12z"/>
<path d="M1 2093 c0 -5 46 -37 101 -73 168 -107 341 -255 387 -331 43 -71 29
-105 -112 -268 -152 -175 -190 -248 -206 -396 -15 -130 -61 -214 -137 -250
-19 -9 -33 -19 -31 -22 11 -10 66 28 104 71 46 52 68 115 82 233 16 126 57
197 240 412 99 116 111 145 81 205 -39 81 -250 264 -442 384 -38 23 -68 39
-67 35z"/>
<path d="M2649 2080 c-53 -28 -174 -162 -195 -215 -21 -55 -12 -96 50 -234 73
-159 83 -217 61 -324 -19 -91 -19 -121 0 -137 9 -7 61 -17 116 -21 154 -13
197 -43 249 -168 32 -79 46 -101 63 -101 6 0 4 6 -5 13 -9 6 -28 41 -43 77
-58 145 -102 176 -263 189 -54 4 -104 11 -110 15 -16 10 -15 34 4 130 22 106
11 167 -61 331 -69 160 -73 181 -44 242 26 53 138 172 185 196 29 15 37 15 89
1 32 -8 101 -37 154 -64 52 -27 97 -48 99 -46 6 6 -121 72 -188 99 -95 37
-119 39 -161 17z"/>
<path d="M2689 2040 c-45 -13 -81 -43 -142 -119 -54 -69 -59 -78 -55 -116 3
-22 28 -92 56 -155 27 -63 55 -139 62 -169 12 -51 9 -179 -4 -211 -13 -31 18
-53 89 -61 119 -15 212 -70 256 -153 13 -26 31 -46 39 -45 11 0 11 2 2 6 -7 3
-21 22 -32 42 -40 80 -139 144 -243 157 -101 13 -97 8 -90 131 5 103 4 112
-25 193 -16 47 -46 121 -66 165 -20 44 -36 92 -36 106 0 34 48 105 114 168 49
45 60 51 98 51 44 0 149 -44 249 -104 29 -18 36 -20 21 -7 -37 32 -162 98
-217 114 -29 8 -61 11 -76 7z"/>
<path d="M0 2016 c0 -3 26 -22 58 -42 162 -104 372 -292 372 -332 0 -40 -27
-84 -118 -193 -147 -176 -186 -252 -202 -390 -14 -122 -27 -160 -71 -201 -42
-40 -39 -52 3 -18 38 29 66 107 78 209 16 138 63 233 193 384 91 105 127 164
127 204 0 30 -9 44 -62 95 -85 82 -188 164 -278 225 -92 61 -100 66 -100 59z"/>
<path d="M2628 1943 c-102 -98 -108 -128 -50 -249 70 -144 87 -207 85 -314 -2
-110 6 -125 70 -135 65 -11 141 -43 182 -75 21 -17 44 -30 51 -30 15 0 34 31
33 52 0 7 -5 1 -11 -14 -5 -16 -14 -28 -19 -28 -5 0 -31 15 -57 34 -29 21 -82
45 -136 60 -48 14 -92 29 -98 32 -6 4 -8 36 -4 88 8 100 -5 154 -74 309 -27
62 -50 124 -50 138 0 39 79 137 133 166 43 22 110 2 215 -64 48 -30 90 -57 95
-60 4 -2 7 -2 7 2 0 11 -145 99 -200 122 -85 35 -103 32 -172 -34z"/>
<path d="M71 1909 c97 -67 149 -109 232 -188 94 -91 94 -98 -27 -242 -154
-185 -200 -275 -216 -433 -10 -96 -30 -156 -52 -156 -6 0 -8 -3 -5 -6 10 -10
38 17 49 46 5 14 14 64 19 113 16 157 57 241 202 415 113 136 122 151 104 195
-20 47 -200 202 -324 280 -72 46 -61 30 18 -24z"/>
<path d="M2694 1911 c-43 -26 -75 -74 -81 -121 -4 -31 2 -58 32 -127 51 -118
65 -174 65 -264 0 -46 5 -82 13 -93 7 -10 37 -24 67 -31 30 -8 77 -22 103 -32
l48 -18 30 33 c16 18 29 40 29 50 -1 10 -6 5 -14 -13 -23 -54 -41 -61 -94 -41
-26 10 -69 24 -96 30 -26 7 -54 20 -61 29 -7 10 -13 49 -13 95 0 82 -16 141
-72 273 -41 95 -37 132 20 193 37 39 41 41 98 41 61 0 82 -10 202 -101 25 -19
22 -15 -10 16 -102 95 -197 123 -266 81z"/>
<path d="M0 1906 c0 -3 22 -20 49 -39 91 -61 239 -189 251 -216 15 -37 0 -72
-59 -141 -127 -146 -191 -259 -211 -370 -6 -36 -16 -80 -20 -99 -7 -25 -6 -31
2 -23 6 6 15 41 19 77 15 119 76 241 186 367 74 86 106 146 97 183 -7 28 -80
97 -189 179 -84 64 -125 90 -125 82z"/>
<path d="M2723 1870 c-66 -40 -69 -92 -14 -253 21 -63 44 -147 51 -188 16 -93
47 -129 110 -129 23 0 50 5 60 10 20 11 76 98 68 106 -3 2 -17 -18 -31 -45
-30 -54 -41 -61 -96 -61 -68 0 -89 30 -106 153 -3 26 -24 97 -46 158 -21 60
-39 126 -39 145 0 52 24 90 64 104 43 14 69 2 179 -82 42 -33 77 -56 77 -51
-1 12 -161 130 -193 142 -38 15 -47 14 -84 -9z"/>
<path d="M424 1856 c-12 -31 3 -51 62 -85 87 -51 95 -59 87 -89 -4 -17 2 -39
17 -67 l23 -43 -26 -43 c-14 -24 -80 -102 -147 -174 -67 -71 -132 -147 -145
-170 -37 -62 -58 -166 -59 -290 -1 -99 2 -116 26 -167 51 -109 91 -98 127 35
40 147 89 212 241 315 94 64 131 102 164 169 55 109 40 225 -39 298 -35 32
-44 48 -47 80 -3 35 -8 42 -43 60 -22 12 -70 50 -106 87 -76 76 -126 107 -135
84z m121 -87 c46 -45 99 -89 117 -98 26 -13 34 -23 36 -51 3 -24 16 -48 47
-81 50 -53 81 -139 72 -196 -9 -53 -51 -135 -90 -175 -20 -20 -77 -64 -127
-98 -136 -94 -185 -160 -220 -293 -20 -80 -35 -117 -49 -117 -16 0 -51 47 -67
90 -35 94 -15 319 37 421 11 23 67 91 125 151 113 120 194 222 194 244 0 8 -9
33 -20 54 -12 24 -18 49 -15 63 7 27 -22 56 -107 108 -47 28 -64 59 -33 59 9
0 54 -37 100 -81z"/>
<path d="M652 1504 c-12 -8 -39 -41 -61 -72 -21 -31 -81 -100 -133 -152 -133
-134 -132 -131 -123 -239 7 -84 6 -91 -19 -133 -31 -53 -33 -78 -7 -109 16
-20 21 -22 36 -9 24 20 41 57 60 130 9 36 27 79 40 96 13 16 71 63 129 103
109 76 143 111 170 175 32 77 14 190 -33 216 -26 13 -33 13 -59 -6z m58 -4
c44 -24 53 -137 16 -215 -28 -59 -64 -94 -166 -162 -92 -61 -146 -119 -159
-170 -5 -21 -14 -56 -20 -78 -9 -36 -42 -85 -57 -85 -2 0 -9 12 -15 27 -8 22
-5 38 20 93 28 61 29 68 19 127 -6 34 -7 74 -4 89 4 15 55 76 114 138 60 61
127 139 150 173 49 73 65 83 102 63z"/>
<path d="M649 1433 c-8 -10 -23 -30 -32 -45 -9 -15 -61 -74 -115 -132 -123
-130 -158 -197 -104 -196 9 1 69 38 132 83 122 88 174 147 186 214 13 70 -31
120 -67 76z m57 -18 c8 -33 -12 -106 -41 -145 -23 -31 -208 -173 -251 -192
-64 -30 -29 35 87 160 50 53 107 121 126 150 40 58 69 68 79 27z"/>
<path d="M596 1293 c-22 -28 -33 -50 -27 -56 13 -13 49 10 71 46 44 71 9 78
-44 10z m46 10 c-14 -25 -51 -58 -58 -51 -3 3 9 22 27 42 32 38 48 42 31 9z"/>
<path d="M0 1852 c0 -4 38 -34 85 -66 138 -95 175 -149 144 -207 -5 -11 -44
-64 -86 -117 -72 -92 -144 -218 -143 -252 1 -8 11 10 24 41 30 71 75 142 159
247 106 133 95 164 -110 309 -40 29 -73 49 -73 45z"/>
<path d="M2736 1808 c-23 -33 -20 -79 14 -166 16 -42 39 -113 50 -157 22 -83
50 -125 83 -125 23 0 81 59 102 103 15 32 15 32 -2 7 -39 -54 -86 -100 -104
-100 -26 0 -48 38 -68 118 -10 37 -32 105 -49 150 -37 93 -40 141 -14 165 31
28 53 20 150 -54 52 -39 95 -69 97 -67 4 3 -74 66 -157 126 -40 29 -82 29
-102 0z"/>
<path d="M0 1793 c1 -4 31 -28 68 -53 85 -57 109 -97 93 -157 -6 -23 -32 -68
-57 -100 -57 -73 -104 -144 -104 -157 0 -5 18 17 40 50 22 32 60 87 84 121 83
116 72 168 -50 253 -41 28 -74 48 -74 43z"/>
<path d="M2776 1755 c-14 -14 -13 -21 6 -68 11 -29 30 -81 41 -117 32 -105 39
-120 57 -130 26 -14 52 10 90 84 28 56 31 70 22 90 -14 32 -170 156 -196 156
-2 0 -12 -7 -20 -15z m119 -61 c93 -75 102 -93 76 -147 -12 -23 -32 -55 -45
-72 -35 -43 -56 -26 -82 66 -11 41 -30 96 -42 123 -47 104 -13 114 93 30z"/>
<path d="M20 1721 c14 -12 42 -35 63 -52 20 -16 37 -39 37 -50 0 -28 -26 -75
-76 -140 -24 -30 -44 -59 -44 -64 0 -13 98 116 115 152 8 17 15 41 15 53 0 25
-49 75 -101 103 l-34 18 25 -20z"/>
<path d="M29 1651 c17 -16 31 -35 31 -43 0 -14 -17 -48 -44 -90 -10 -16 -15
-28 -12 -28 11 0 66 93 66 111 0 20 -47 79 -62 79 -6 0 4 -13 21 -29z"/>
<path d="M1485 1646 c-41 -18 -100 -85 -115 -131 -14 -41 -7 -102 15 -145 8
-15 56 -83 108 -152 125 -166 149 -218 155 -330 9 -169 -58 -300 -162 -319
-66 -12 -92 -31 -106 -76 -16 -48 -28 -63 -51 -63 -28 0 -40 -32 -26 -69 9
-25 9 -36 -3 -54 -43 -68 -46 -99 -13 -111 19 -8 53 13 118 75 62 58 97 70
305 104 310 52 473 18 629 -129 47 -45 58 -51 95 -50 87 2 220 100 297 217 96
148 108 328 31 470 -54 100 -125 110 -325 48 -159 -50 -252 -65 -348 -58 -186
15 -338 126 -390 287 -19 56 -21 87 -20 228 0 121 -3 172 -14 197 -26 64 -109
92 -180 61z m130 -18 c49 -38 57 -76 50 -217 -11 -206 24 -320 130 -420 131
-124 309 -161 516 -106 52 13 132 36 178 50 179 54 250 21 296 -139 13 -43 16
-83 13 -147 -4 -79 -8 -96 -47 -175 -71 -143 -211 -262 -313 -266 -30 -1 -46
7 -94 50 -68 60 -168 115 -250 137 -87 23 -236 19 -399 -10 -204 -36 -235 -47
-302 -109 -74 -68 -97 -80 -113 -61 -9 11 -6 25 20 69 29 53 30 57 16 85 -17
32 -9 45 29 53 12 2 25 19 35 46 22 58 47 80 104 91 65 12 95 36 132 108 92
176 59 336 -111 553 -82 103 -135 198 -135 239 0 33 41 121 66 142 60 52 133
63 179 27z"/>
<path d="M1483 1591 c-38 -24 -73 -87 -73 -131 0 -44 30 -98 127 -224 92 -120
122 -172 147 -255 33 -113 12 -249 -59 -369 -39 -66 -129 -156 -198 -196 -26
-16 -46 -33 -44 -40 6 -17 112 -10 197 14 187 52 258 62 405 57 190 -6 247
-27 385 -137 34 -28 72 -50 84 -50 41 0 123 50 180 110 129 135 166 318 97
474 -41 93 -94 99 -298 38 -73 -22 -167 -46 -210 -52 -279 -43 -531 119 -583
372 -6 33 -10 119 -8 202 3 134 1 147 -18 173 -27 36 -85 42 -131 14z m123
-17 c14 -21 17 -50 15 -182 -2 -172 9 -232 55 -325 58 -113 197 -212 341 -242
124 -26 208 -17 415 45 165 50 216 54 252 21 29 -27 60 -104 70 -172 9 -61
-15 -175 -51 -242 -54 -100 -181 -206 -250 -207 -12 0 -48 22 -80 50 -124 106
-225 140 -421 140 -128 0 -212 -13 -359 -55 -44 -13 -110 -27 -145 -30 -72 -7
-75 -14 42 73 75 56 157 163 191 250 19 47 23 77 24 168 0 110 0 111 -42 195
-23 46 -67 116 -97 154 -132 168 -158 223 -136 289 27 84 138 128 176 70z"/>
<path d="M1494 1538 c-34 -30 -36 -35 -31 -81 6 -62 52 -132 87 -132 24 0 25
3 33 95 13 150 -13 184 -89 118z m76 -2 c11 -29 1 -194 -12 -202 -13 -8 -47
25 -69 68 -33 64 -22 115 29 142 37 20 41 20 52 -8z"/>
<path d="M1748 796 c-5 -102 -40 -181 -117 -268 -79 -87 -75 -89 79 -52 108
26 380 26 465 1 79 -25 171 -76 233 -132 27 -25 59 -45 69 -45 25 0 90 46 127
91 43 51 96 169 109 242 19 115 -25 239 -88 245 -17 2 -68 -9 -115 -23 -205
-62 -274 -76 -370 -77 -119 -1 -193 16 -288 64 -40 21 -80 38 -87 38 -9 0 -14
-25 -17 -84z m84 43 c88 -45 128 -57 222 -69 109 -15 197 -2 389 55 82 25 162
45 178 45 37 0 63 -40 80 -120 23 -113 -36 -284 -132 -380 -71 -71 -85 -72
-161 -10 -81 66 -184 116 -278 136 -105 22 -333 14 -448 -16 -46 -12 -86 -20
-89 -17 -2 3 19 31 47 62 74 82 112 168 118 267 3 43 6 78 9 78 2 0 31 -14 65
-31z"/>
<path d="M2515 805 c-283 -86 -431 -92 -624 -25 -47 16 -88 27 -91 25 -4 -3
-10 -27 -13 -54 -3 -27 -20 -84 -37 -126 -39 -92 -36 -109 21 -100 81 14 321
9 391 -8 82 -20 189 -72 247 -121 24 -20 53 -36 65 -36 30 0 82 36 118 80 75
94 104 314 47 371 -23 23 -25 23 -124 -6z m119 0 c51 -52 24 -250 -50 -356
-28 -41 -80 -79 -107 -79 -9 0 -49 24 -90 53 -135 97 -286 134 -492 122 -60
-3 -123 -9 -139 -12 -26 -5 -28 -3 -23 18 3 13 18 53 33 89 15 36 29 87 32
113 4 39 8 47 21 42 151 -62 275 -83 403 -67 86 11 138 23 318 73 81 22 76 22
94 4z"/>
<path d="M2499 730 c-20 -10 -66 -24 -103 -30 -36 -6 -77 -15 -91 -20 -38 -14
-73 -12 -123 7 -38 14 -54 15 -109 6 -57 -10 -70 -9 -123 10 -73 27 -107 18
-133 -34 -30 -63 -2 -88 52 -48 27 20 30 20 60 5 23 -12 44 -15 79 -10 40 5
57 2 100 -20 62 -31 77 -32 120 -6 59 36 84 22 136 -75 66 -122 156 -119 219
5 63 128 58 223 -13 227 -20 2 -51 -6 -71 -17z m102 -6 c32 -39 -6 -195 -61
-254 -20 -22 -37 -30 -62 -30 -46 0 -74 22 -104 82 -48 95 -97 120 -151 78
-34 -26 -53 -25 -114 6 -39 19 -63 24 -102 22 -29 -1 -67 4 -85 11 -30 13 -35
12 -56 -8 -29 -28 -46 -27 -46 3 0 33 37 76 65 76 14 0 47 -9 76 -20 46 -18
57 -19 111 -8 55 11 65 10 119 -9 59 -22 60 -22 122 -3 34 10 83 21 108 25 25
3 61 14 80 25 42 24 82 25 100 4z"/>
<path d="M2425 641 c-38 -9 -70 -22 -70 -28 0 -13 101 -83 120 -83 31 0 59
119 30 126 -5 1 -41 -6 -80 -15z m85 -16 c0 -24 -29 -87 -37 -83 -28 12 -113
64 -113 69 0 6 88 25 128 27 14 1 22 -4 22 -13z"/>
<path d="M5 690 c-4 -6 5 -7 24 -4 50 10 92 -3 190 -61 133 -79 183 -103 253
-121 73 -19 141 -11 371 42 82 19 174 34 206 34 107 0 191 -47 191 -106 0 -41
-56 -90 -171 -149 -181 -93 -212 -135 -188 -255 6 -33 16 -63 22 -67 7 -4 8 0
3 13 -5 10 -10 51 -13 89 -6 98 8 117 137 185 137 72 188 107 205 141 32 61
10 106 -67 139 -74 32 -153 28 -338 -15 -93 -22 -193 -39 -250 -42 -84 -5
-102 -2 -160 20 -36 13 -111 51 -166 84 -55 33 -115 65 -134 71 -40 15 -107
16 -115 2z"/>
<path d="M2955 676 c-49 -21 -92 -79 -154 -209 -97 -201 -170 -259 -400 -317
-195 -49 -321 -105 -321 -142 0 -7 12 0 28 15 40 38 126 73 270 108 70 18 154
44 187 59 110 50 190 140 256 290 48 109 83 156 137 185 50 26 48 33 -3 11z"/>
<path d="M6 622 c-3 -5 16 -7 42 -5 43 4 56 -1 166 -66 66 -39 153 -82 193
-97 68 -25 82 -26 176 -21 67 4 149 18 241 42 76 19 160 35 185 35 48 0 91
-21 91 -45 0 -27 -52 -74 -136 -121 -91 -51 -124 -84 -144 -148 -14 -45 -9
-154 9 -182 12 -18 12 -18 6 1 -3 11 -9 48 -12 82 -10 111 33 180 150 239 75
38 105 62 123 96 22 43 7 73 -45 89 -37 11 -56 8 -213 -31 -151 -38 -187 -44
-283 -44 -109 -1 -110 -1 -199 42 -49 23 -126 65 -172 92 -66 41 -90 50 -127
50 -25 0 -48 -4 -51 -8z"/>
<path d="M2957 599 c-15 -11 -54 -77 -91 -152 -112 -230 -207 -306 -453 -362
-117 -27 -185 -53 -199 -77 -4 -6 8 -2 27 9 19 12 93 36 164 53 142 35 230 71
287 117 59 48 123 128 158 201 18 37 44 91 58 120 14 29 41 67 59 83 38 33 30
40 -10 8z"/>
<path d="M14 524 c-19 -15 -19 -16 1 -8 65 24 91 18 212 -49 145 -81 227 -106
360 -114 100 -6 103 -5 143 22 33 23 46 27 79 21 33 -5 44 -1 76 24 44 35 82
47 97 32 8 -8 2 -20 -20 -41 -24 -25 -39 -31 -74 -31 -24 0 -48 -4 -54 -8 -7
-4 -31 -43 -54 -87 l-42 -80 5 -87 c3 -48 10 -95 16 -105 8 -14 9 -7 3 27 -4
25 -7 77 -7 115 0 63 4 77 41 140 40 70 40 70 89 75 58 7 90 22 105 51 9 15 8
24 -1 36 -18 21 -62 10 -107 -26 -31 -26 -41 -29 -78 -24 -37 5 -48 2 -74 -21
-27 -22 -41 -26 -98 -26 -149 1 -289 46 -451 145 -66 39 -132 47 -167 19z"/>
<path d="M2973 488 c-12 -13 -43 -66 -69 -118 -37 -74 -64 -111 -118 -165 -39
-38 -90 -83 -114 -99 -32 -21 -42 -34 -40 -50 3 -20 10 -21 128 -27 69 -4 141
-12 160 -18 51 -16 61 -12 15 6 -24 9 -91 18 -165 22 -146 7 -154 15 -75 71
92 65 161 146 216 254 28 55 61 111 72 124 11 12 18 22 15 22 -2 0 -14 -10
-25 -22z"/>
<path d="M33 480 c-18 -11 -33 -25 -33 -31 0 -6 14 1 31 15 17 14 38 26 46 26
9 0 50 -20 92 -45 163 -95 247 -122 408 -134 57 -4 108 -13 117 -20 13 -11 14
-31 10 -119 -4 -59 -2 -122 2 -139 6 -23 9 12 9 112 0 99 -4 148 -12 156 -7 7
-63 16 -129 21 -144 10 -240 41 -382 122 -54 31 -105 56 -113 56 -8 0 -29 -9
-46 -20z"/>
<path d="M32 413 c-11 -16 -22 -39 -26 -53 -6 -22 -5 -21 10 5 38 69 72 82
122 46 45 -31 164 -89 226 -111 33 -11 100 -25 150 -30 50 -6 101 -17 113 -26
24 -15 24 -15 27 -141 0 -47 6 -87 13 -94 9 -9 9 -1 1 32 -5 24 -7 67 -3 95 9
75 -12 119 -62 133 -21 6 -56 11 -79 11 -92 0 -253 58 -376 136 -51 33 -91 31
-116 -3z"/>
<path d="M2946 353 c-24 -49 -69 -121 -100 -161 -31 -41 -56 -78 -56 -82 0
-14 43 -40 66 -40 12 0 51 -9 86 -20 44 -13 57 -15 44 -5 -10 8 -44 19 -75 25
-83 15 -106 24 -105 41 1 8 28 50 62 94 51 67 142 235 127 235 -3 0 -25 -39
-49 -87z"/>
<path d="M57 362 c-19 -21 -61 -112 -54 -118 2 -3 15 21 27 52 36 87 49 89
183 21 119 -61 193 -84 297 -94 99 -9 100 -10 99 -107 -1 -46 2 -90 7 -99 6
-10 8 22 6 81 -4 117 -11 126 -106 135 -104 10 -183 34 -299 93 -60 30 -116
54 -126 54 -10 0 -25 -8 -34 -18z"/>
<path d="M1666 324 c-161 -29 -283 -87 -352 -167 -35 -42 -90 -145 -81 -154 3
-2 17 23 32 56 32 71 107 146 185 186 76 39 228 74 345 81 165 10 356 -33 385
-86 19 -35 4 -65 -75 -149 -41 -45 -75 -84 -75 -88 1 -11 128 126 151 162 26
41 24 67 -8 97 -35 34 -68 46 -168 64 -99 17 -235 17 -339 -2z"/>
<path d="M2990 332 c0 -6 -25 -48 -56 -93 -32 -48 -54 -90 -52 -102 2 -15 18
-25 58 -38 65 -22 63 -21 56 -10 -3 5 -28 14 -56 21 -61 15 -64 30 -15 94 40
53 79 126 71 134 -3 3 -6 0 -6 -6z"/>
<path d="M83 318 c-20 -25 -60 -123 -55 -136 2 -7 23 -22 45 -34 23 -11 91
-50 150 -86 59 -35 110 -63 112 -61 4 5 -214 138 -257 157 -16 7 -31 19 -34
27 -7 18 35 122 51 129 7 2 55 -18 107 -44 99 -51 219 -90 276 -90 50 0 82
-37 83 -97 0 -26 4 -57 8 -68 5 -12 7 10 4 50 -6 87 -21 112 -70 120 -127 20
-191 41 -290 91 -59 30 -110 54 -114 54 -3 0 -11 -6 -16 -12z"/>
<path d="M1678 281 c-158 -35 -233 -67 -305 -134 -43 -39 -63 -68 -83 -122
-16 -43 -4 -28 26 31 50 100 137 156 308 199 182 46 362 42 438 -9 60 -40 47
-95 -45 -195 -47 -52 -48 -53 -8 -16 102 94 127 162 75 210 -38 35 -84 46
-209 51 -83 3 -132 -1 -197 -15z"/>
<path d="M102 248 c-17 -17 -15 -43 6 -60 26 -22 253 -155 295 -173 69 -29 52
-14 -48 39 -95 50 -215 123 -242 146 -18 15 -16 39 3 47 8 3 52 -13 97 -35 80
-40 181 -72 228 -72 13 0 35 -6 49 -13 21 -11 26 -21 31 -72 l6 -60 1 56 c3
72 -10 87 -82 99 -90 14 -164 38 -239 76 -73 37 -87 40 -105 22z"/>
<path d="M1772 250 c-94 -13 -218 -48 -279 -77 -58 -29 -122 -91 -147 -144
-16 -33 -16 -33 1 -9 83 115 124 143 264 184 103 29 258 48 326 40 125 -17
141 -69 48 -156 -25 -24 -53 -54 -62 -68 -8 -14 13 2 47 35 34 33 69 75 77 93
12 30 12 37 -2 58 -9 14 -28 29 -42 35 -38 14 -159 19 -231 9z"/>
<path d="M2982 220 c-16 -27 -15 -65 3 -80 18 -15 19 -7 3 19 -9 15 -9 26 0
47 15 32 11 41 -6 14z"/>
<path d="M1121 218 c-75 -20 -170 -157 -142 -206 8 -14 10 -9 11 21 0 47 18
82 62 123 41 39 69 54 102 54 39 0 50 -31 43 -129 -3 -61 -2 -77 4 -56 14 44
14 147 1 171 -14 27 -38 33 -81 22z"/>
<path d="M1725 194 c-105 -19 -194 -49 -244 -82 -39 -27 -91 -86 -91 -105 0
-6 13 8 30 31 56 78 144 118 324 147 152 25 236 17 236 -23 0 -10 -21 -38 -46
-62 -25 -25 -55 -58 -66 -75 -12 -17 11 4 50 45 78 82 89 114 46 130 -35 14
-144 11 -239 -6z"/>
<path d="M1092 148 c-38 -41 -44 -74 -22 -116 10 -20 19 -33 19 -27 0 6 -6 21
-13 34 -15 28 -11 55 16 94 20 28 34 33 56 18 11 -7 10 -16 -6 -47 -15 -29
-18 -44 -10 -57 5 -10 7 -25 4 -33 -3 -9 -1 -12 4 -9 13 8 13 42 0 50 -6 4 -2
22 11 46 16 32 18 44 8 55 -17 20 -42 17 -67 -8z"/>
<path d="M1710 144 c-144 -31 -234 -75 -261 -127 -8 -15 -1 -12 22 12 46 46
120 79 232 102 104 21 163 24 172 8 4 -6 -11 -37 -34 -69 -49 -70 -55 -91 -8
-29 75 98 74 119 -5 118 -29 0 -82 -7 -118 -15z"/>
<path d="M5 130 c3 -5 12 -10 19 -10 7 0 50 -23 95 -50 98 -60 121 -72 121
-66 0 10 -217 136 -235 136 -3 0 -3 -4 0 -10z"/>
<path d="M353 112 c-17 -11 -4 -26 45 -51 52 -27 86 -24 90 6 2 16 -4 23 -30
31 -55 17 -92 22 -105 14z m117 -27 c15 -9 12 -35 -4 -35 -22 0 -106 38 -106
48 0 9 92 -2 110 -13z"/>
<path d="M1658 85 c-68 -17 -128 -46 -149 -72 -10 -12 -5 -11 15 5 34 26 143
61 201 65 43 2 43 1 31 -58 -6 -30 -6 -30 9 4 32 67 2 83 -107 56z"/>
<path d="M5 82 c13 -12 145 -83 145 -78 0 7 -95 65 -125 76 -17 6 -26 7 -20 2z"/>
<path d="M0 35 c0 -7 61 -37 66 -33 2 3 -12 12 -31 21 -19 9 -35 15 -35 12z"/>
<path d="M1612 23 c-57 -20 -49 -26 11 -8 48 14 77 12 77 -8 0 -6 3 -7 6 -4
10 10 -16 37 -35 36 -9 0 -35 -7 -59 -16z"/>
</g>
</svg>
