<?xml version="1.0" standalone="no"?>
<!DOCTYPE svg PUBLIC "-//W3C//DTD SVG 20010904//EN"
 "http://www.w3.org/TR/2001/REC-SVG-20010904/DTD/svg10.dtd">
<svg version="1.0" xmlns="http://www.w3.org/2000/svg"
 width="300.000000pt" height="168.000000pt" viewBox="0 0 300.000000 168.000000"
 preserveAspectRatio="xMidYMid meet">
<metadata>
Created by potrace 1.10, written by Peter Selinger 2001-2011
</metadata>
<g transform="translate(0.000000,168.000000) scale(0.050000,-0.050000)"
fill="#000000" stroke="none">
<path d="M901 3326 c27 -19 62 -52 79 -75 68 -95 172 -197 219 -215 89 -34
120 -36 108 -5 -7 17 -39 29 -78 29 -37 0 -72 9 -79 20 -7 11 7 20 30 20 23 0
38 8 32 17 -6 10 -34 13 -62 8 -40 -8 -48 -3 -38 23 9 23 1 32 -30 32 -39 0
-51 19 -44 73 4 31 -104 107 -151 107 -30 0 -27 -6 14 -34z"/>
<path d="M1224 3321 c14 -23 35 -41 46 -41 11 0 56 -18 100 -41 66 -34 72 -34
35 -5 -31 26 -41 50 -34 86 7 37 6 41 -6 14 -20 -44 -27 -44 -106 -4 -59 31
-60 31 -35 -9z"/>
<path d="M1510 3305 c8 -30 15 -66 16 -80 1 -25 54 -37 54 -11 0 7 -11 43 -24
80 -29 80 -66 89 -46 11z"/>
<path d="M1601 3345 c1 -24 52 -85 71 -85 43 0 17 92 -27 96 -25 2 -45 -3 -44
-11z"/>
<path d="M1782 3294 c28 -103 16 -239 -22 -249 -24 -6 -25 -4 -3 11 22 15 21
20 -3 30 -43 16 -30 -74 18 -131 86 -101 115 -99 78 6 -20 54 -25 120 -17 195
10 97 5 122 -30 164 l-41 50 20 -76z"/>
<path d="M2665 3311 c6 -31 1 -45 -11 -37 -13 8 -16 0 -8 -21 7 -18 4 -33 -6
-33 -10 0 -1 -38 21 -85 55 -122 54 -195 -2 -144 -46 41 -256 64 -353 39 l-56
-14 49 -19 c28 -11 85 -13 128 -6 63 11 75 8 62 -14 -14 -23 -11 -23 16 0 34
27 102 16 146 -24 18 -17 18 -27 -3 -43 -31 -23 5 -118 42 -113 34 5 26 563
-7 563 -19 0 -25 -16 -18 -49z"/>
<path d="M2760 3320 c11 -27 26 -66 33 -85 6 -19 20 -35 29 -35 32 0 17 49
-33 110 -46 55 -48 56 -29 10z"/>
<path d="M3160 3340 c17 -11 23 -20 15 -20 -8 0 3 -18 25 -40 22 -22 40 -57
40 -79 0 -21 9 -44 20 -51 25 -15 25 -14 -2 109 -19 91 -27 101 -75 101 -41
-1 -47 -5 -23 -20z"/>
<path d="M3261 3350 c-2 -57 44 -174 59 -150 14 23 42 22 150 -6 11 -3 33 -13
48 -23 44 -27 135 -24 135 4 0 14 -9 26 -21 28 -305 36 -315 39 -343 105 -15
34 -28 53 -28 42z"/>
<path d="M3732 3329 c-6 -17 -3 -26 7 -20 10 7 24 3 31 -9 7 -11 2 -20 -10
-20 -13 0 -36 -13 -53 -30 -27 -27 -25 -30 17 -31 61 -1 158 -132 280 -379
123 -247 122 -274 -9 -416 -58 -62 -89 -101 -70 -86 21 16 35 19 35 5 0 -61
-65 -53 -138 17 -46 45 -110 82 -164 96 -56 14 -119 52 -172 103 -47 45 -93
81 -104 81 -11 0 -31 16 -46 36 -57 79 -100 71 -64 -12 60 -141 65 -160 55
-200 -7 -28 3 -50 31 -67 29 -18 42 -47 42 -93 0 -36 8 -61 18 -55 10 6 11 42
2 79 -17 77 4 112 69 112 34 1 36 4 11 20 -47 31 -76 23 -91 -22 -23 -73 -70
-3 -53 79 l14 66 78 -61 c43 -34 85 -62 95 -62 9 0 17 -9 17 -20 0 -11 -16
-20 -35 -20 -28 -1 -29 -4 -7 -18 15 -10 58 -18 94 -18 36 0 86 -16 112 -34
29 -22 33 -30 11 -22 -94 33 -96 28 -8 -14 l97 -46 -53 -64 -54 -63 56 29 c58
30 97 21 46 -11 -25 -17 -25 -21 0 -38 35 -22 28 -31 -39 -51 -46 -15 -48 -13
-20 21 29 35 4 24 -97 -43 -14 -10 129 6 167 19 31 10 66 -12 145 -86 95 -89
135 -142 86 -112 -10 7 -17 -7 -15 -29 1 -24 13 -37 28 -31 13 5 30 1 37 -10
17 -28 89 -23 89 6 0 14 18 -4 40 -40 41 -67 64 -83 59 -40 -14 107 97 105
131 -3 14 -45 11 -47 -53 -35 -59 11 -63 9 -32 -14 34 -27 175 -3 175 29 0 76
-98 149 -212 158 -247 20 -543 348 -382 422 28 13 55 41 61 64 10 36 15 37 46
12 22 -18 29 -19 20 -3 -9 15 -5 25 11 25 20 1 20 4 -2 18 -22 14 -19 22 15
41 24 12 43 15 44 7 0 -9 9 0 21 19 11 19 15 43 9 53 -5 9 12 17 40 17 27 0
55 -8 61 -17 5 -10 39 -17 74 -15 53 2 56 4 14 11 -104 17 -109 24 -60 77 33
34 68 49 117 49 38 0 64 -6 57 -13 -48 -48 197 -306 280 -296 36 5 66 0 66
-11 0 -11 7 -19 15 -18 39 6 90 -3 79 -15 -17 -17 22 -87 49 -87 12 0 16 13
10 30 -6 16 -4 27 6 25 39 -11 22 34 -38 97 -42 44 -83 68 -118 68 -188 0
-379 192 -295 298 18 23 13 25 -25 13 -122 -39 -305 -137 -282 -152 15 -9 5
-14 -26 -12 -45 3 -50 10 -41 63 10 62 -80 258 -217 474 -34 53 -54 105 -46
118 9 14 7 19 -6 11 -11 -7 -36 19 -54 57 -36 76 -60 88 -79 39z"/>
<path d="M4455 3347 c14 -6 20 -19 14 -29 -6 -10 -1 -18 11 -18 12 0 17 -8 11
-19 -12 -19 25 -52 41 -35 27 26 -19 114 -59 112 -24 0 -32 -6 -18 -11z"/>
<path d="M4551 3345 c10 -9 45 -38 77 -65 55 -48 57 -48 34 -5 -12 24 -40 53
-61 65 -45 23 -78 27 -50 5z"/>
<path d="M5044 3301 c-2 -32 4 -63 14 -70 10 -6 14 5 10 24 -13 53 26 104 51
66 14 -23 31 -25 74 -10 54 19 187 -27 262 -91 53 -45 24 33 -31 86 -51 49
-70 54 -216 54 l-159 0 -5 -59z"/>
<path d="M5662 3342 c-21 -14 -19 -25 14 -58 24 -24 47 -82 55 -138 13 -91 47
-184 48 -132 2 44 -60 315 -75 330 -8 8 -27 7 -42 -2z"/>
<path d="M5800 3321 c11 -22 36 -48 55 -59 19 -10 33 -27 30 -36 -2 -9 10 -16
27 -16 17 0 44 -18 60 -39 27 -37 28 -37 27 10 -2 54 -35 145 -38 102 -1 -17
-22 -9 -63 25 -75 64 -130 71 -98 13z"/>
<path d="M123 3286 c-84 -35 -76 -46 21 -29 48 8 70 21 60 35 -10 15 -34 14
-81 -6z"/>
<path d="M4843 3286 c22 -28 22 -31 0 -17 -21 12 -24 6 -14 -25 11 -36 2 -44
-58 -55 -39 -7 -66 -21 -60 -31 18 -28 89 -21 122 12 33 33 121 39 164 12 40
-25 -49 -82 -129 -82 -35 0 -74 -13 -88 -30 -21 -26 -17 -27 36 -8 44 15 73
15 103 -1 31 -17 41 -17 41 3 0 14 19 -1 41 -34 31 -46 40 -50 35 -20 -3 23 5
39 19 38 14 -1 39 -3 55 -5 17 -2 40 -26 50 -54 11 -28 28 -46 38 -40 10 6 33
-3 50 -20 20 -20 32 -23 32 -8 0 30 131 7 188 -33 74 -51 112 -37 86 32 -13
33 -30 60 -40 60 -9 0 -11 -9 -4 -20 7 -11 3 -20 -9 -20 -11 0 -21 8 -21 18 0
10 -19 13 -41 7 -69 -17 -362 126 -409 201 -22 34 -61 73 -87 86 -25 13 -56
33 -69 46 -35 35 -62 26 -31 -12z"/>
<path d="M2861 3260 c0 -27 38 -114 84 -193 l85 -142 90 7 90 8 -49 -39 c-28
-21 -57 -34 -65 -28 -9 5 -16 -5 -16 -22 0 -40 18 -39 65 4 40 36 95 -2 95
-64 0 -12 26 -32 58 -44 l57 -22 -47 70 c-86 127 -57 182 53 101 32 -24 64
-38 70 -32 18 19 -108 100 -144 92 -18 -3 -62 23 -98 59 -36 36 -80 65 -98 65
-52 0 -174 102 -203 170 -26 58 -26 58 -27 10z"/>
<path d="M648 3228 l58 -51 -73 14 c-48 9 -73 6 -73 -9 0 -12 18 -22 39 -22
106 0 237 -203 146 -226 -22 -6 -14 -10 20 -12 30 -1 53 -9 51 -17 -5 -19 107
-145 128 -145 31 0 15 59 -20 78 -20 11 -48 58 -63 106 -42 139 -87 224 -108
203 -12 -13 -21 22 -15 58 1 8 -10 15 -26 15 -15 0 -38 14 -52 30 -14 17 -35
30 -47 29 -13 0 3 -23 35 -51z"/>
<path d="M5594 3210 c-34 -71 -37 -73 -64 -38 -26 34 -26 30 -5 -28 14 -36 28
-54 32 -40 5 14 26 45 47 69 22 24 37 59 33 78 -5 24 -18 12 -43 -41z"/>
<path d="M460 3229 c0 -55 55 -129 96 -128 25 1 22 6 -11 20 -25 10 -45 34
-45 53 0 20 -9 50 -20 66 -16 25 -19 23 -20 -11z"/>
<path d="M2153 3210 c5 -13 38 -45 73 -70 53 -39 58 -40 29 -7 -19 22 -31 44
-27 49 5 5 -12 18 -38 31 -36 16 -45 16 -37 -3z"/>
<path d="M4102 3222 c-46 -30 -8 -55 77 -52 49 2 91 -8 105 -25 72 -87 356
-155 356 -86 0 9 -43 31 -95 49 -52 19 -151 56 -220 83 -135 52 -179 59 -223
31z"/>
<path d="M300 3203 c0 -9 19 -34 43 -55 23 -21 54 -65 69 -98 15 -33 27 -46
27 -28 1 18 -26 69 -59 115 -60 82 -80 99 -80 66z"/>
<path d="M5370 3109 c41 -28 80 -46 86 -40 6 6 0 11 -14 11 -13 0 -20 7 -14
16 5 9 1 29 -9 45 -13 21 -18 22 -19 3 0 -19 -10 -20 -39 -5 -72 39 -67 21 9
-30z"/>
<path d="M2068 3062 c2 -55 60 -119 78 -87 12 21 -43 145 -63 145 -10 0 -16
-26 -15 -58z"/>
<path d="M3960 3107 c0 -11 16 -37 35 -58 19 -22 64 -73 100 -115 40 -47 65
-63 65 -44 0 17 -45 77 -100 134 -55 56 -100 94 -100 83z"/>
<path d="M560 3031 c0 -7 37 -48 82 -91 45 -42 76 -87 69 -99 -7 -11 -2 -21
13 -21 19 -1 18 -6 -4 -22 -25 -18 -26 -20 -1 -13 16 4 51 -18 77 -49 26 -31
55 -56 65 -56 9 0 -9 29 -42 64 -42 46 -55 78 -48 115 8 42 7 44 -8 11 -16
-37 -18 -37 -45 13 -27 51 -158 173 -158 148z"/>
<path d="M96 2958 c14 -15 65 -50 113 -78 277 -159 324 -187 356 -215 19 -17
29 -38 23 -48 -6 -9 4 -17 21 -17 17 0 31 -10 31 -21 0 -12 -9 -16 -20 -9 -31
19 -24 -9 11 -44 17 -17 25 -36 19 -43 -7 -6 -22 1 -33 18 -17 23 -19 22 -9
-8 7 -20 12 -41 12 -46 0 -5 9 -4 20 3 11 7 20 -9 20 -35 0 -40 9 -47 61 -43
59 4 60 2 28 -33 -44 -49 -24 -74 50 -63 34 5 61 0 61 -12 0 -12 27 -27 60
-34 33 -7 65 -22 71 -32 7 -10 56 -41 110 -69 114 -57 132 -81 30 -38 -96 40
-117 35 -31 -7 53 -27 69 -45 64 -79 -7 -51 26 -61 44 -13 27 70 11 108 -63
148 -226 125 -403 300 -443 440 -15 50 -41 104 -59 120 -96 89 -250 179 -374
220 -76 25 -152 50 -169 56 -25 8 -25 5 -4 -18z"/>
<path d="M1340 2962 c0 -11 -24 -42 -53 -69 -45 -42 -50 -59 -39 -122 14 -71
52 -82 52 -14 0 19 9 44 20 55 32 32 60 146 39 159 -11 6 -19 2 -19 -9z"/>
<path d="M4300 2941 c28 -21 77 -60 110 -85 l59 -46 -38 50 c-20 28 -70 66
-109 86 l-72 35 50 -40z"/>
<path d="M3438 2920 c11 -27 31 -89 43 -137 12 -48 25 -83 30 -79 13 13 -47
220 -72 244 -16 16 -17 9 -1 -28z"/>
<path d="M2095 2925 c-37 -8 -48 -55 -17 -74 27 -17 39 -111 14 -111 -16 -1
-16 -5 0 -15 12 -8 27 -60 34 -115 l13 -100 -39 70 c-21 39 -39 65 -39 58 -2
-27 44 -138 57 -138 8 0 11 -34 8 -75 -5 -72 -4 -71 27 25 48 151 54 246 26
364 -28 117 -32 123 -84 111z"/>
<path d="M940 2850 c28 -32 78 -86 112 -119 135 -132 166 -200 105 -232 -128
-69 -157 -64 -201 37 -40 90 -67 123 -102 124 -9 0 2 -24 25 -53 22 -29 41
-68 41 -87 0 -49 62 -96 120 -92 28 3 59 0 70 -6 41 -22 73 -18 83 10 16 41
88 -56 98 -133 12 -99 147 -184 176 -111 11 30 -26 52 -89 52 -32 0 -38 15
-38 102 0 86 -9 110 -61 162 -34 34 -76 97 -93 140 -19 47 -60 98 -104 127
-39 26 -99 68 -132 92 l-60 45 50 -58z"/>
<path d="M5640 2819 c0 -20 80 -49 115 -42 14 3 31 -9 37 -26 7 -17 20 -26 30
-20 10 6 18 3 18 -8 0 -11 -11 -24 -25 -30 -14 -5 5 -11 41 -11 40 -1 61 6 54
18 -7 11 2 20 20 20 18 0 27 9 20 20 -7 11 1 14 19 8 23 -9 31 0 31 35 0 46
-5 47 -180 49 -99 2 -180 -4 -180 -13z"/>
<path d="M2290 2800 c-6 -10 -2 -37 9 -58 29 -55 26 -68 -13 -53 -31 12 130
-174 223 -256 39 -35 39 -36 2 -24 -22 7 -33 7 -26 -1 8 -8 5 -26 -7 -41 -12
-14 15 -6 59 19 65 35 74 47 47 58 -32 12 -32 13 0 15 22 0 31 12 23 31 -16
42 10 134 34 120 10 -7 19 -2 19 10 0 64 -64 -4 -100 -107 l-21 -58 -51 52
c-28 28 -47 59 -41 68 6 10 -7 33 -28 51 -39 34 -56 107 -19 84 11 -7 15 0 9
14 -17 42 -105 98 -119 76z"/>
<path d="M3138 2725 c9 -31 32 -58 53 -62 37 -7 37 -6 4 31 -19 22 -35 50 -35
63 0 12 -8 23 -18 23 -10 0 -12 -24 -4 -55z"/>
<path d="M2807 2731 c-23 -16 -49 -23 -58 -15 -8 8 -8 2 0 -13 12 -21 6 -24
-28 -13 -40 12 -42 10 -22 -28 12 -23 32 -42 43 -42 11 0 14 11 5 25 -8 15 1
12 22 -5 34 -27 36 -26 23 15 -15 46 109 72 136 28 19 -31 -12 -163 -36 -150
-12 7 -11 1 3 -14 14 -15 25 -43 25 -63 0 -20 8 -34 18 -31 33 9 31 -59 -3
-71 -14 -4 -6 -5 17 -1 75 12 148 -95 148 -218 0 -84 8 -111 40 -130 22 -14
40 -37 41 -50 0 -14 32 -60 70 -103 l69 -79 3 149 c4 205 0 233 -49 337 -46
95 -115 130 -161 80 -18 -19 -17 -21 3 -10 83 47 156 -40 93 -110 -28 -31 -25
-38 30 -85 87 -73 82 -177 -6 -130 -71 38 -112 103 -112 180 -1 40 -10 79 -21
86 -11 7 -20 33 -20 58 0 25 -22 66 -50 92 -48 45 -83 154 -73 224 14 95 -69
143 -150 87z"/>
<path d="M4598 2724 c26 -19 73 -58 105 -88 32 -29 78 -60 102 -67 58 -18 97
-49 85 -68 -5 -9 15 -13 43 -10 59 7 127 -28 127 -66 0 -14 14 -25 31 -25 20
0 26 -9 16 -25 -29 -46 -25 -79 7 -66 26 10 28 0 14 -64 -9 -41 -15 -104 -13
-140 1 -36 -6 -60 -16 -54 -32 19 -22 -6 43 -111 70 -115 157 -163 293 -163
103 0 110 -23 15 -52 -47 -14 -66 -15 -57 -1 7 12 1 17 -15 11 -15 -5 -55 10
-88 33 l-59 41 47 -66 c62 -87 79 -91 183 -45 56 25 96 33 110 21 13 -10 28
-13 34 -7 7 6 27 -12 46 -40 18 -29 41 -52 51 -52 9 0 -5 33 -33 73 -27 40
-49 80 -49 88 0 20 -104 52 -222 68 -171 23 -313 232 -240 353 32 52 35 73 16
116 -29 67 -137 230 -158 239 -9 3 -11 15 -5 25 6 10 -15 18 -47 18 -32 0 -81
18 -109 39 -27 22 -55 34 -62 27 -7 -6 -48 12 -92 41 -92 61 -186 76 -103 17z"/>
<path d="M1610 2719 c12 -19 -3 -22 -62 -12 -50 8 -63 6 -38 -4 62 -26 224
-44 189 -21 -75 50 -104 62 -89 37z"/>
<path d="M5180 2726 c-86 -31 -168 -146 -105 -146 19 -1 58 -18 85 -40 75 -59
110 -49 51 15 -28 30 -51 66 -51 81 0 15 -10 20 -23 12 -14 -8 -18 -5 -10 7 8
13 49 18 98 13 47 -5 98 -10 115 -12 16 -1 66 -42 112 -89 82 -86 143 -115
121 -58 -9 24 -2 26 39 10 97 -37 129 -61 124 -95 -6 -35 6 -36 111 -12 38 9
63 5 73 -12 23 -37 80 -9 80 39 0 36 -13 41 -100 41 -133 0 -125 -2 -165 35
-24 21 -29 37 -14 45 12 8 -6 15 -40 16 -60 1 -221 78 -221 106 0 40 -203 72
-280 44z"/>
<path d="M107 2641 c0 -56 2 -59 33 -31 38 34 87 0 78 -54 -2 -14 2 -41 11
-60 21 -48 4 -107 -30 -101 -16 3 -4 -17 27 -45 45 -40 77 -50 161 -50 138 0
190 -37 180 -126 -8 -72 36 -201 76 -226 17 -10 19 0 10 34 -33 114 -53 248
-42 281 6 20 2 52 -10 72 -17 28 -19 24 -10 -25 10 -55 9 -57 -15 -19 -16 24
-42 38 -66 34 -33 -6 -35 -3 -10 14 23 16 15 18 -32 9 -89 -17 -159 52 -193
192 -25 99 -33 111 -86 117 -32 4 -64 15 -71 26 -6 10 -11 -9 -11 -42z"/>
<path d="M1892 2675 c8 -14 31 -44 52 -67 21 -24 39 -64 41 -90 1 -27 14 -66
29 -87 40 -60 32 -71 -44 -66 -38 3 -70 12 -70 20 0 8 -38 14 -85 12 -68 -2
-73 -5 -25 -12 80 -11 194 -120 171 -163 -22 -42 -21 -142 2 -142 9 0 18 9 19
20 8 102 -1 165 -30 209 l-34 52 56 -13 c80 -19 103 -43 117 -118 15 -80 62
-106 217 -120 66 -5 149 -28 186 -50 38 -22 86 -40 107 -40 22 0 38 -7 36 -15
-2 -8 8 -42 21 -74 13 -33 20 -76 15 -95 -6 -22 2 -36 19 -36 38 0 36 -98 -3
-113 -23 -9 -25 -18 -7 -39 18 -22 17 -28 -5 -28 -21 -1 -21 -4 -2 -17 20 -12
20 -34 -3 -109 -19 -65 -21 -98 -7 -107 13 -8 8 -22 -13 -38 -19 -14 -34 -31
-33 -37 4 -41 -8 -45 -93 -29 -121 22 -142 -1 -64 -74 60 -56 62 -57 37 -9
-22 43 -21 47 3 27 60 -48 118 -52 118 -9 0 57 96 140 180 155 38 7 80 20 92
29 22 18 26 7 34 -92 2 -27 16 -50 30 -50 16 0 20 -10 10 -25 -22 -36 -21
-103 3 -120 12 -8 6 -15 -15 -15 -24 0 -4 -28 66 -90 56 -50 117 -89 136 -88
21 1 24 5 9 11 -14 6 -25 19 -25 30 0 11 9 14 20 7 11 -7 21 4 21 24 1 29 5
27 20 -9 22 -56 39 -59 25 -5 -14 51 31 106 72 90 25 -10 27 -7 8 12 -19 19
-45 18 -118 -3 -91 -25 -95 -24 -132 23 -21 26 -51 64 -67 83 -16 19 -21 35
-12 35 9 0 17 25 18 55 1 30 6 84 11 120 5 35 1 60 -7 54 -9 -5 -22 -1 -29 11
-20 33 -67 23 -146 -30 -126 -86 -164 -30 -94 137 39 92 39 260 2 292 -16 13
-38 49 -49 80 l-20 57 87 -58 c47 -32 96 -58 108 -58 32 0 182 -102 182 -123
0 -10 -36 -12 -79 -5 -95 15 -174 -1 -174 -37 0 -14 21 -25 46 -25 26 0 47 7
47 15 0 8 29 14 65 13 63 -2 63 -3 15 -20 -48 -16 -47 -17 8 -10 33 4 93 -4
134 -19 41 -14 81 -20 89 -12 9 7 10 3 3 -9 -7 -12 10 -34 37 -48 27 -15 49
-38 49 -52 0 -34 186 -168 233 -167 28 0 18 18 -46 75 -79 71 -121 153 -87
174 8 5 27 -4 40 -20 26 -31 115 -39 195 -17 71 19 53 38 -40 43 -164 7 -315
29 -315 45 0 9 -27 22 -60 29 -33 7 -55 22 -49 32 6 10 -2 18 -18 18 -17 0
-66 37 -109 83 -48 50 -101 85 -133 89 -134 14 -334 176 -362 292 -11 48 -8
52 34 41 25 -7 35 -16 21 -20 -38 -13 70 -90 111 -79 26 7 23 10 -11 12 -30 1
-41 10 -32 25 8 14 5 18 -8 10 -11 -8 -27 -5 -33 6 -16 26 75 48 127 31 32
-10 39 -6 30 19 -9 22 -27 27 -63 18 -36 -9 -47 -6 -37 10 8 13 5 23 -7 23
-11 0 -21 -14 -21 -32 0 -23 -10 -28 -35 -17 -19 8 -57 16 -85 17 -27 1 -59
14 -71 28 -16 21 -28 17 -60 -19 -21 -26 -25 -36 -8 -23 18 15 41 17 59 6 15
-9 35 -13 44 -8 8 6 10 -4 4 -21 -7 -17 -2 -31 10 -31 12 0 22 -17 22 -39 0
-21 9 -44 20 -51 11 -7 30 -31 42 -54 24 -45 -98 12 -178 83 -49 44 -117 93
-99 72 21 -24 -43 -91 -87 -91 -44 0 -78 58 -78 131 0 36 -13 56 -41 63 -22 6
-37 21 -32 34 4 12 -11 43 -34 68 -36 39 -38 49 -12 65 19 12 21 18 4 19 -14
0 -25 11 -25 24 0 31 -85 156 -106 156 -9 0 -10 -11 -2 -25z"/>
<path d="M5940 2638 c0 -14 -30 -17 -85 -10 -60 8 -73 6 -45 -7 60 -27 118
-24 161 8 35 27 36 30 4 30 -19 1 -35 -9 -35 -21z"/>
<path d="M5448 2395 c13 -47 23 -105 21 -130 -2 -25 4 -45 14 -45 9 0 17 -10
17 -22 0 -40 277 -303 325 -308 25 -3 61 -6 80 -7 19 -2 35 -16 35 -32 0 -18
12 -25 30 -18 17 6 30 19 30 29 0 10 -13 18 -30 18 -16 0 -30 7 -30 16 0 9
-34 32 -75 50 -140 63 -314 249 -365 390 -53 145 -88 184 -52 59z"/>
<path d="M2660 2426 c0 -49 187 -104 212 -62 8 12 5 17 -6 10 -24 -15 -171 27
-191 55 -9 14 -14 13 -15 -3z"/>
<path d="M1500 2312 c0 -11 196 -152 212 -152 15 0 -88 83 -157 126 -30 19
-55 31 -55 26z"/>
<path d="M2801 2286 c-1 -13 7 -29 17 -35 10 -6 14 -27 9 -46 -11 -44 46 -80
152 -97 58 -9 81 -6 81 12 0 13 -13 19 -30 13 -16 -7 -50 -4 -75 6 -25 10 -36
20 -25 22 11 2 -2 9 -30 17 -27 8 -50 22 -51 33 0 29 -48 102 -48 75z"/>
<path d="M4110 2220 c31 -101 49 -140 67 -140 10 0 24 -21 31 -48 6 -26 30
-52 52 -58 22 -6 35 -2 29 8 -6 10 11 18 38 18 27 0 54 15 61 33 10 24 6 28
-13 13 -43 -34 -131 -48 -147 -23 -8 14 -5 18 8 10 11 -8 26 -6 32 4 14 22
-68 130 -85 113 -6 -7 1 -21 18 -33 25 -17 25 -19 -1 -12 -16 4 -39 36 -51 71
-25 75 -60 115 -39 44z"/>
<path d="M205 2170 c2 -73 29 -163 45 -147 4 4 -6 57 -21 117 -25 105 -26 106
-24 30z"/>
<path d="M723 2165 c26 -19 65 -45 87 -57 23 -13 44 -51 50 -90 8 -48 14 -58
24 -35 24 60 -7 115 -95 166 -99 59 -137 67 -66 16z"/>
<path d="M4911 2112 c12 -63 9 -76 -13 -68 -46 18 -259 -19 -295 -50 -18 -16
-62 -36 -98 -43 -74 -16 -77 -22 -35 -64 17 -16 30 -21 30 -11 0 28 69 42 106
21 18 -10 57 -12 88 -4 49 12 51 15 15 29 -26 10 -29 16 -9 17 25 1 25 5 2 19
-52 33 -4 64 54 34 46 -24 61 -24 109 0 30 16 56 27 56 24 1 -4 6 -46 12 -95
5 -48 22 -111 36 -140 57 -111 61 -228 8 -214 -26 7 -54 13 -63 13 -9 0 -10
11 -2 25 11 19 8 20 -12 2 -13 -13 -39 -19 -56 -12 -20 8 -26 4 -16 -12 10
-15 -3 -23 -37 -23 -28 0 -51 9 -51 20 0 11 -8 20 -18 20 -10 0 -14 -17 -8
-38 11 -43 220 -69 280 -35 19 11 36 9 45 -6 35 -55 236 -9 258 59 8 25 4 25
-21 5 -16 -13 -35 -19 -42 -12 -7 7 -33 0 -58 -16 -100 -63 -116 -31 -214 429
-37 174 -79 278 -51 126z"/>
<path d="M0 2125 c0 -11 13 -52 29 -90 16 -38 23 -77 15 -86 -8 -8 -4 -10 8
-3 55 31 101 -43 52 -85 l-45 -38 50 5 c28 3 58 13 66 22 8 9 4 10 -10 2 -14
-8 -25 -5 -25 7 0 28 34 27 51 -1 8 -12 37 -17 66 -12 54 11 210 -64 258 -123
16 -19 25 -22 25 -7 0 57 -208 223 -279 224 -57 0 -86 18 -165 102 -53 57 -96
94 -96 83z"/>
<path d="M1273 2127 c-25 -26 -13 -47 28 -47 75 0 179 -71 165 -113 -5 -13 1
-29 13 -36 12 -8 21 -2 21 13 0 78 229 27 290 -64 22 -33 53 -65 70 -71 16 -6
4 15 -27 48 -78 82 -67 130 22 92 48 -20 65 -40 65 -77 0 -27 16 -65 35 -84
33 -34 33 -35 -9 -24 -31 8 -40 4 -32 -16 5 -16 -2 -28 -17 -28 -15 0 -51 -13
-81 -28 -94 -50 -177 -10 -223 107 -37 91 -63 107 -48 31 7 -35 1 -50 -21 -50
-20 0 -13 -15 23 -49 29 -27 53 -59 53 -70 0 -12 23 -21 52 -21 35 0 49 -9 42
-27 -8 -19 12 -27 73 -28 46 -1 71 3 57 9 -44 17 58 59 147 61 l79 1 -67 -19
c-51 -15 -61 -25 -45 -45 12 -14 15 -32 7 -40 -7 -8 -1 -9 16 -3 51 19 189
-74 192 -130 4 -80 -28 -119 -98 -119 l-64 0 45 -32 c25 -17 59 -26 76 -20 17
6 25 3 19 -7 -13 -21 82 -101 120 -101 48 0 193 -75 166 -86 -19 -7 -16 -11 8
-12 19 -1 35 -11 35 -22 0 -11 12 -20 28 -20 15 0 38 -13 52 -30 17 -21 18
-30 2 -30 -16 0 -15 -12 3 -40 26 -41 95 -56 95 -19 0 94 -167 276 -230 252
-64 -25 -225 67 -197 112 5 8 0 15 -11 15 -13 0 -18 42 -14 109 5 61 -3 128
-17 155 -51 98 -83 148 -123 196 -24 28 -66 109 -94 180 l-52 130 -205 3
c-188 3 -210 7 -270 55 -63 50 -126 66 -154 39z"/>
<path d="M753 2030 c6 -16 18 -30 27 -30 15 0 45 -66 71 -158 10 -35 7 -43
-12 -31 -14 8 -21 7 -16 -3 5 -10 21 -43 36 -73 31 -61 73 -70 132 -27 36 26
35 28 -16 18 -36 -7 -55 -2 -55 14 0 31 91 18 233 -33 97 -35 102 -39 75 -76
-15 -21 -28 -48 -27 -60 0 -11 14 4 30 34 32 57 58 69 79 35 7 -11 23 -20 36
-19 13 0 8 9 -11 21 -19 11 -35 32 -35 47 0 30 -108 75 -132 54 -8 -7 -8 -2 0
12 8 14 7 26 -2 27 -9 0 -34 6 -56 12 -51 14 -152 17 -187 5 -18 -6 -39 25
-62 94 -30 92 -79 167 -109 167 -6 0 -6 -13 1 -30z"/>
<path d="M2080 2012 c0 -8 13 -39 29 -70 16 -32 24 -62 18 -68 -6 -6 0 -27 12
-47 20 -33 21 -31 10 11 -9 32 -6 43 9 33 34 -21 27 0 -28 81 -27 40 -50 67
-50 60z"/>
<path d="M3483 1990 c18 -19 61 -38 96 -42 51 -6 58 -3 37 20 -14 15 -36 23
-49 18 -13 -5 -45 2 -70 15 -44 22 -45 22 -14 -11z"/>
<path d="M410 1920 c-7 -11 5 -20 25 -20 41 0 165 -128 165 -169 0 -15 14 -37
30 -51 17 -14 30 -42 30 -63 0 -58 137 -194 159 -158 14 22 38 17 126 -27
l109 -55 -57 -109 c-30 -59 -48 -108 -38 -108 10 0 28 31 41 70 27 83 154 195
203 179 18 -6 40 -1 47 11 10 16 26 11 53 -13 32 -29 49 -31 98 -13 33 13 55
15 49 6 -5 -9 4 -21 21 -28 18 -7 26 -3 19 8 -7 11 2 26 21 33 19 7 41 1 51
-15 14 -23 17 -23 18 -1 0 15 -18 32 -41 37 l-41 11 42 29 c47 33 100 7 100
-49 0 -35 131 -165 167 -165 38 0 182 -145 189 -190 27 -165 39 -282 31 -295
-5 -8 0 -15 12 -15 11 0 21 -9 21 -21 0 -13 -12 -14 -36 -1 -20 11 -48 12 -62
3 -18 -11 -6 -19 36 -25 33 -5 68 -2 77 5 23 23 105 -16 105 -49 0 -16 8 -34
17 -40 10 -6 13 12 8 39 -7 33 -32 60 -75 78 l-65 27 -9 180 c-10 212 -17 224
-194 307 -144 67 -201 122 -202 193 0 56 -52 79 -105 46 -46 -29 -287 -11
-335 25 -26 20 -26 18 -4 -10 22 -29 20 -35 -12 -46 -21 -7 -55 -30 -74 -52
-45 -49 -70 -50 -70 -1 0 39 -59 70 -180 93 -95 18 -150 73 -244 244 -92 167
-183 234 -226 165z"/>
<path d="M2315 1787 c14 -6 25 -19 25 -30 0 -11 -11 -14 -25 -6 -14 7 -2 -6
25 -29 28 -23 65 -41 84 -42 18 0 39 -9 46 -20 7 -11 27 -20 45 -20 27 0 26 5
-6 29 -22 17 -59 30 -84 30 -30 1 -48 17 -57 51 -7 29 -26 49 -45 48 -21 -1
-24 -5 -8 -11z"/>
<path d="M3760 1770 c-20 -25 -19 -30 8 -30 17 0 32 -13 32 -28 0 -54 96 -147
149 -144 28 1 51 -5 51 -13 1 -67 -3 -76 -25 -65 -14 7 -8 -1 13 -18 41 -33
58 -132 23 -133 -82 -2 93 -89 180 -89 86 0 143 33 74 43 -14 2 -21 -4 -15
-13 13 -21 -150 -1 -190 24 -22 13 -18 15 14 6 31 -9 50 0 65 28 24 45 163 95
204 74 86 -41 144 -88 148 -118 8 -48 -21 -42 -48 11 -24 45 -24 45 -16 1 6
-32 1 -40 -23 -31 -20 8 -26 4 -16 -12 8 -12 35 -23 60 -23 67 0 99 -81 57
-143 l-32 -47 44 38 c24 21 49 32 56 25 8 -7 3 -13 -10 -13 -12 0 -23 -11 -24
-25 -1 -64 -161 -131 -200 -84 -21 26 -21 30 3 25 15 -3 35 -15 45 -26 10 -12
13 -9 8 8 -9 34 -88 50 -106 21 -21 -34 27 -73 134 -108 98 -32 177 -18 116
20 -16 10 -20 7 -11 -8 21 -34 -19 -28 -48 7 -21 25 -17 37 20 70 58 51 63 50
119 -9 26 -28 55 -45 64 -39 9 6 17 1 17 -11 0 -11 16 -21 36 -21 60 0 129
-111 115 -186 -6 -38 -5 -50 5 -28 13 32 21 29 73 -25 59 -62 120 -74 201 -43
41 16 6 38 -87 54 -14 3 -42 19 -61 36 -19 18 -48 32 -65 32 -20 0 -30 23 -31
71 -3 87 -47 140 -143 171 -82 26 -143 72 -143 108 0 14 -19 48 -41 77 -23 29
-33 53 -21 53 13 0 13 18 0 56 -26 75 -218 268 -253 255 -15 -6 -22 -3 -16 7
6 10 -27 33 -74 51 -47 18 -113 66 -148 107 -54 64 -66 70 -95 46 -28 -23 -38
-23 -69 5 -45 41 -91 42 -123 3z m180 -85 c0 -15 10 -21 23 -13 14 9 18 5 9
-9 -20 -31 -69 -29 -103 5 -22 22 -23 31 -4 37 47 16 75 8 75 -20z m95 -81 c5
-13 -2 -24 -15 -24 -12 0 -17 9 -10 20 7 11 3 20 -9 20 -11 0 -21 -7 -21 -17
0 -14 -67 -15 -100 -2 -15 6 107 35 129 30 10 -2 22 -14 26 -27z m74 -123 c40
-22 57 -20 109 11 48 28 67 31 86 12 19 -19 15 -24 -15 -24 -22 0 -62 -20 -89
-45 -69 -62 -155 -63 -155 -1 0 27 9 41 23 34 12 -6 5 3 -15 19 -24 19 -31 40
-20 57 13 20 17 19 22 -6 4 -18 28 -44 54 -57z"/>
<path d="M5860 1721 c0 -34 67 -59 104 -39 58 31 42 58 -34 58 -38 0 -70 -9
-70 -19z"/>
<path d="M5586 1686 c-25 -9 60 -168 98 -183 9 -4 35 -42 57 -86 23 -43 61
-87 85 -98 40 -17 40 -18 4 -16 -22 2 -103 -27 -180 -63 -77 -36 -185 -83
-240 -104 -98 -37 -98 -38 -21 -25 44 7 114 30 157 52 43 22 82 35 88 30 5 -5
27 8 49 30 22 22 53 35 69 29 15 -6 28 -2 28 9 0 22 131 14 155 -9 8 -9 15
-25 15 -37 0 -12 14 -25 30 -30 27 -7 27 -6 0 13 -24 17 -25 21 -2 22 18 0 12
14 -18 40 -25 22 -54 40 -63 40 -9 0 -17 12 -17 28 0 15 -17 32 -37 37 -21 5
-44 35 -52 66 -7 31 -38 85 -67 118 -30 34 -67 81 -84 104 -16 24 -41 39 -54
33z"/>
<path d="M5776 1652 c-33 -24 -31 -31 19 -108 66 -103 88 -92 28 14 -32 58
-37 81 -18 87 14 5 20 15 15 21 -6 6 -26 -1 -44 -14z"/>
<path d="M5423 1578 c17 -27 47 -78 66 -115 18 -37 38 -62 44 -57 5 5 -9 39
-31 75 -22 37 -36 72 -32 79 4 6 -12 24 -35 39 -42 26 -42 25 -12 -21z"/>
<path d="M4480 1580 c0 -11 23 -31 50 -44 28 -12 50 -36 50 -52 0 -23 -6 -24
-30 -4 -19 16 -30 17 -30 4 0 -27 25 -42 101 -64 33 -10 55 -10 49 0 -6 9 5
21 25 26 19 5 6 10 -30 12 -39 1 -65 12 -65 28 0 15 -27 46 -60 71 -33 24 -60
35 -60 23z"/>
<path d="M3610 1529 c33 -15 52 -28 42 -28 -11 -1 1 -22 25 -48 l45 -48 -70
-33 c-73 -34 -111 -72 -73 -72 12 0 30 -20 40 -45 13 -33 19 -36 20 -11 0 18
-8 39 -19 46 -36 23 -21 40 38 42 64 2 166 -139 115 -159 -12 -6 -7 -11 12
-11 31 -2 44 -24 37 -67 -1 -8 5 -15 13 -15 8 0 27 -27 42 -60 30 -69 82 -79
97 -20 9 32 17 36 39 18 40 -34 -3 -78 -80 -80 -60 -2 -61 -3 -13 -17 37 -11
62 -4 95 26 45 40 122 -3 92 -52 -5 -8 5 -15 22 -15 38 0 38 8 1 79 -16 31
-63 78 -105 102 -139 84 -217 219 -126 219 21 0 45 10 53 23 10 17 -4 20 -50
10 -35 -7 -59 -5 -53 5 6 10 -4 29 -21 44 -17 14 -57 63 -89 109 -47 68 -68
83 -123 84 l-66 0 60 -26z m350 -524 c0 -50 -54 8 -66 71 l-10 54 38 -47 c21
-26 38 -61 38 -78z"/>
<path d="M5271 1392 c17 -26 24 -52 15 -57 -9 -5 -4 -5 11 -2 14 4 55 7 90 8
54 0 58 3 27 21 -20 12 -50 16 -66 10 -17 -7 -25 -3 -18 8 7 11 -2 20 -19 20
-17 0 -31 9 -31 20 0 11 -9 20 -20 20 -12 0 -7 -22 11 -48z"/>
<path d="M130 1390 c68 -56 107 -72 120 -50 7 11 -2 20 -19 20 -17 0 -31 11
-31 23 0 13 -6 18 -13 11 -7 -7 -31 -3 -55 8 -42 20 -42 20 -2 -12z"/>
<path d="M361 1384 c-26 -28 -26 -30 7 -18 24 10 56 -2 95 -36 33 -27 75 -50
92 -50 21 0 7 19 -36 51 -110 82 -126 88 -158 53z"/>
<path d="M4740 1362 c0 -9 18 -32 40 -52 43 -39 24 -71 -40 -68 -20 0 -17 7
10 20 36 17 36 18 -7 10 -26 -5 -69 -1 -95 9 -37 14 -48 11 -48 -11 0 -18 19
-30 45 -30 55 -1 124 -38 75 -41 -44 -3 40 -36 95 -38 25 0 45 7 45 16 0 10
-24 13 -53 7 -33 -6 -48 -2 -40 11 21 34 90 43 101 13 8 -21 23 -23 64 -7 l53
20 -35 -54 c-33 -51 -33 -53 1 -40 38 15 129 -55 129 -99 0 -48 -43 -52 -90
-8 -26 25 -62 40 -83 34 -34 -8 -33 -10 3 -12 46 -4 120 -94 91 -111 -11 -7
-14 -28 -7 -47 11 -29 6 -28 -36 6 l-48 40 40 -47 c49 -57 154 -103 239 -103
38 0 65 -10 65 -25 1 -14 4 -38 8 -55 8 -31 1 -32 -82 -13 -27 7 -12 -6 35
-28 47 -22 85 -49 85 -60 0 -10 8 -17 18 -14 25 7 182 -176 182 -213 0 -18 8
-32 17 -32 9 0 32 -38 50 -84 18 -46 39 -77 46 -69 8 7 4 24 -9 37 -33 33 -30
57 6 43 36 -14 40 15 6 49 -17 17 -18 30 -3 45 18 18 131 -120 196 -242 23
-43 168 -129 186 -111 7 7 -7 27 -31 44 -24 16 -44 43 -44 58 0 15 -22 54 -50
86 -27 33 -50 73 -50 89 0 16 -22 53 -48 81 -30 32 -39 55 -25 60 13 5 16 16
8 25 -8 8 -38 5 -66 -8 -125 -57 -344 115 -400 315 -23 82 -45 118 -80 135
-37 18 -45 18 -34 0 8 -13 15 -29 15 -36 0 -8 8 -21 18 -30 11 -10 12 -7 4 8
-8 14 -4 25 8 25 56 0 1 -46 -61 -52 -56 -4 -62 -2 -29 14 36 17 36 18 -7 10
-73 -14 -106 6 -91 55 18 57 42 70 111 60 43 -7 57 -1 57 23 0 18 -9 27 -20
20 -11 -7 -20 -3 -20 9 0 14 21 17 55 8 60 -14 88 -44 72 -76 -5 -12 7 -2 28
21 65 74 116 77 185 11 51 -49 55 -58 21 -49 -22 6 -41 19 -41 30 0 10 -10 12
-22 5 -78 -48 200 -89 289 -42 52 27 50 28 -53 22 -82 -5 -107 0 -107 22 0 61
308 94 355 37 34 -42 62 -34 54 17 -8 61 -142 83 -320 52 -105 -18 -146 -18
-195 2 -51 22 -68 21 -107 -5 -33 -21 -69 -26 -125 -16 -44 7 -92 13 -109 12
-44 -1 -79 36 -58 62 22 27 -109 136 -189 156 -31 7 -78 35 -105 62 -26 26
-48 41 -48 32z"/>
<path d="M0 1322 c0 -52 128 -186 241 -252 38 -22 82 -69 98 -105 35 -80 64
-86 42 -8 -30 103 -62 144 -162 206 -54 33 -126 93 -159 133 -56 68 -60 70
-60 26z"/>
<path d="M298 1342 c22 -14 20 -20 -10 -28 -32 -8 -31 -10 7 -12 41 -2 55 -23
47 -68 -2 -10 5 -12 16 -5 10 6 23 0 29 -14 6 -15 10 -12 11 9 1 18 -7 39 -18
46 -12 7 -16 21 -10 30 6 10 -7 27 -28 39 -48 25 -83 28 -44 3z"/>
<path d="M5056 1311 c-43 -38 -48 -50 -24 -59 19 -7 25 -3 16 11 -10 16 2 19
38 10 29 -7 57 -4 65 8 8 14 22 13 41 -3 24 -19 26 -17 15 12 -10 27 -7 32 13
20 18 -11 21 -8 11 8 -11 18 -26 17 -62 -7 -63 -41 -76 -39 -63 9 6 22 9 40 7
39 -2 0 -27 -22 -57 -48z"/>
<path d="M3490 1252 c-67 -30 -191 -152 -154 -152 12 0 32 17 43 39 12 21 41
45 66 52 49 16 152 90 123 88 -10 0 -45 -13 -78 -27z"/>
<path d="M1390 1218 c-77 -21 -151 -40 -164 -42 -13 -1 -20 -10 -14 -19 5 -9
-13 -22 -41 -29 -69 -17 -64 -40 10 -55 34 -7 56 -22 49 -33 -7 -11 -3 -20 8
-20 36 0 42 36 9 49 -25 9 -28 18 -11 35 18 18 36 16 74 -4 44 -23 54 -23 75
6 51 67 122 74 214 22 100 -57 103 -57 88 -18 -15 39 12 38 69 -1 25 -18 39
-42 31 -53 -8 -14 -4 -16 12 -7 14 9 31 6 39 -5 8 -14 24 -15 42 -4 39 24 -16
83 -151 161 -121 69 -151 70 -339 17z"/>
<path d="M520 1097 c-129 -35 -134 -40 -71 -67 40 -17 76 -20 108 -7 54 20
143 -23 143 -70 0 -15 32 -55 70 -90 39 -35 70 -72 70 -83 0 -33 108 -120 121
-98 8 13 18 9 26 -12 7 -18 21 -27 31 -21 11 6 24 -5 31 -26 20 -64 91 -119
92 -71 0 35 2 36 21 3 11 -19 33 -35 48 -35 15 0 35 -13 44 -29 10 -17 38 -33
65 -37 48 -7 141 -104 141 -147 0 -12 16 -28 35 -34 34 -12 105 -53 125 -73
18 -18 120 -19 120 -1 0 22 -62 48 -104 43 -46 -6 -134 75 -167 154 -16 37
-37 61 -48 55 -10 -7 -29 7 -42 30 -29 55 -13 70 29 29 17 -18 32 -24 32 -13
0 27 -28 44 -93 55 -29 5 -78 23 -110 40 -32 16 -68 23 -81 16 -13 -8 -17 -5
-9 7 7 12 -27 44 -77 74 -49 29 -90 60 -90 68 0 8 -39 40 -88 70 -55 36 -107
91 -141 154 -49 91 -103 142 -145 137 -9 -1 -47 -10 -86 -21z"/>
<path d="M4290 1080 c-7 -11 -34 -20 -61 -20 -27 0 -49 -9 -49 -20 0 -35 93
-21 130 20 20 22 26 40 14 40 -12 0 -27 -9 -34 -20z"/>
<path d="M1044 1015 c-15 -18 -15 -35 -1 -56 17 -24 19 -23 10 6 -8 22 -1 35
17 35 17 0 24 -12 17 -30 -6 -16 -2 -30 9 -30 25 0 19 53 -9 81 -14 14 -28 12
-43 -6z"/>
<path d="M2740 1012 c0 -10 126 -70 205 -98 19 -7 35 -4 35 7 0 10 -18 19 -40
19 -22 0 -40 10 -40 21 0 12 -10 15 -22 8 -12 -8 -28 -5 -35 6 -14 22 -103 54
-103 37z"/>
<path d="M3311 989 c-21 -16 -27 -29 -14 -29 14 0 19 -10 12 -22 -10 -16 -3
-16 26 0 48 25 134 -30 156 -100 8 -26 24 -37 42 -29 18 6 52 -13 84 -47 101
-109 203 -239 203 -259 0 -12 16 -31 35 -43 29 -19 26 -21 -20 -11 -32 7 -55
3 -55 -9 0 -23 -4 -22 135 -32 62 -4 105 1 105 13 0 11 23 14 55 7 30 -8 49
-8 43 0 -7 7 -40 17 -73 21 -92 12 -215 91 -244 157 -15 32 -53 89 -85 126
-33 37 -61 80 -64 97 -13 88 -274 211 -341 160z"/>
<path d="M5840 921 c62 -34 160 -45 160 -18 0 18 -32 28 -95 31 -60 3 -84 -2
-65 -13z"/>
<path d="M3241 871 c-19 -48 -27 -54 -42 -30 -10 16 -19 19 -19 7 0 -12 16
-37 37 -55 37 -33 43 -84 17 -127 -19 -30 63 -17 95 15 15 15 10 17 -16 7 -34
-13 -37 -5 -29 75 13 127 -11 188 -43 108z"/>
<path d="M2268 869 c9 -25 4 -30 -19 -21 -58 22 -10 -23 52 -48 43 -18 54 -31
36 -42 -20 -12 -19 -26 4 -70 23 -43 23 -56 4 -63 -31 -10 -13 -45 23 -45 16
0 24 19 21 50 -3 27 3 55 12 61 10 6 7 29 -6 52 -36 60 -142 165 -127 126z"/>
<path d="M1811 841 c-7 -11 -33 -21 -57 -21 -36 0 -30 -9 32 -46 41 -25 71
-51 65 -57 -6 -6 2 -10 17 -10 22 0 23 7 5 36 -12 21 -34 37 -48 37 -32 0 -33
34 0 46 14 5 19 15 12 23 -7 7 -19 4 -26 -8z"/>
<path d="M4070 840 c-7 -11 1 -20 17 -20 85 0 139 -156 78 -228 -29 -36 -27
-35 17 3 54 48 97 50 173 8 61 -33 57 -18 -16 55 -45 45 -58 51 -49 23 9 -29
4 -36 -26 -28 -49 13 -35 121 24 172 l42 37 -45 -26 c-35 -20 -49 -20 -69 0
-29 29 -129 32 -146 4z"/>
<path d="M2552 752 c-36 -51 -43 -69 -18 -47 21 19 47 28 56 20 9 -8 11 0 4
19 -14 39 16 68 36 36 7 -11 28 -20 46 -19 28 0 27 4 -6 23 -22 12 -44 29 -50
37 -5 8 -36 -23 -68 -69z"/>
<path d="M3738 759 c48 -44 93 -75 98 -69 6 5 26 -4 45 -21 27 -24 39 -26 50
-7 10 15 7 19 -8 10 -13 -8 -23 -5 -23 6 0 22 -203 163 -232 161 -10 0 22 -36
70 -80z"/>
<path d="M257 729 c-6 -22 -4 -57 5 -79 8 -22 16 -64 17 -94 1 -46 17 -62 101
-98 55 -24 100 -51 100 -62 0 -10 9 -13 20 -6 11 7 20 3 20 -9 0 -11 7 -19 15
-18 8 2 47 -3 85 -11 39 -8 106 -5 150 7 l80 20 -86 -10 c-73 -8 -110 3 -257
81 -94 49 -178 85 -187 80 -9 -6 -15 10 -12 35 7 69 -38 213 -51 164z"/>
<path d="M5693 743 c-53 -21 7 -69 71 -57 40 7 39 9 -10 11 -33 2 -51 12 -44
23 7 12 23 15 34 7 13 -8 16 -4 8 10 -8 13 -16 22 -18 22 -2 -1 -21 -8 -41
-16z"/>
<path d="M755 660 c-22 -76 -18 -120 15 -153 22 -22 25 -39 9 -68 -11 -22 -12
-39 -2 -39 41 0 70 119 37 156 -17 18 -34 61 -37 94 -7 59 -7 59 -22 10z"/>
<path d="M2624 673 c50 -38 19 -62 -114 -92 -66 -15 -154 -50 -197 -78 -59
-39 -102 -51 -194 -52 -66 0 -119 -2 -119 -2 -3 -31 128 -85 168 -70 41 16 52
13 61 -17 20 -60 -8 -105 -56 -91 -42 12 -41 12 2 -21 25 -18 40 -41 34 -51
-6 -11 18 -18 55 -18 56 1 60 4 24 18 -36 15 -41 32 -36 131 4 97 28 189 28
109 0 -17 11 -11 30 15 18 26 44 39 66 33 31 -8 116 18 265 81 20 8 60 -9 106
-46 41 -33 102 -65 134 -72 82 -18 96 -52 15 -37 -36 7 -60 7 -54 -1 7 -7 33
-17 58 -22 26 -5 65 -26 88 -46 23 -21 56 -45 72 -53 17 -9 3 8 -30 36 -53 46
-55 52 -19 52 55 1 110 -95 87 -154 -10 -29 -9 -45 4 -45 11 0 15 -8 9 -18 -6
-10 -3 -22 7 -25 10 -4 -3 -34 -30 -67 -41 -50 -52 -55 -68 -30 -17 26 -19 25
-20 -5 0 -49 34 -44 107 17 76 64 109 113 64 96 -22 -9 -31 0 -31 29 0 47 17
43 155 -36 62 -35 85 -61 85 -95 0 -33 12 -46 40 -46 22 0 40 6 40 13 0 26
-103 147 -125 147 -13 0 -49 25 -82 55 -33 30 -53 44 -45 30 9 -16 2 -25 -18
-25 -19 0 -30 11 -25 25 5 14 -12 77 -37 141 l-46 116 49 18 c27 11 64 14 84
8 27 -9 28 -7 8 8 -19 13 -21 23 -5 33 13 8 17 23 10 35 -8 11 -18 13 -25 2
-27 -38 -141 -106 -179 -106 -55 0 -264 81 -264 103 0 9 -19 17 -43 17 -24 0
-38 6 -31 13 15 15 -45 66 -76 66 -11 0 -5 -12 14 -26z"/>
<path d="M1530 665 c-71 -15 -76 -41 -7 -35 37 3 76 -2 87 -11 20 -16 32 -19
71 -19 12 0 16 -9 9 -20 -7 -11 1 -14 20 -7 17 6 30 4 28 -6 -8 -47 6 -67 48
-67 78 0 133 -53 120 -115 -11 -51 -19 -122 -24 -212 -2 -31 -7 -34 -32 -13
-34 28 -39 6 -10 -40 24 -38 72 20 90 110 6 33 21 98 33 145 17 64 16 92 -2
114 -36 44 -241 154 -268 145 -12 -5 -45 2 -73 15 -27 13 -68 20 -90 16z"/>
<path d="M4420 664 c0 -34 38 -49 133 -52 51 -2 85 5 81 17 -4 11 -41 18 -82
14 -41 -3 -87 5 -103 18 -19 15 -29 16 -29 3z"/>
<path d="M5932 659 c-74 -22 -152 -96 -152 -144 0 -32 7 -30 50 17 31 33 73
55 108 56 39 1 53 9 41 23 -11 13 -9 31 5 45 27 27 27 27 -52 3z"/>
<path d="M3963 617 c4 -25 23 -50 42 -53 28 -6 32 1 18 39 -24 63 -68 74 -60
14z"/>
<path d="M4847 646 c-72 -14 -123 -83 -58 -79 28 2 51 15 51 30 0 19 18 25 60
19 47 -7 55 -4 37 18 -12 14 -28 25 -34 23 -7 -1 -32 -6 -56 -11z"/>
<path d="M5110 604 c11 -11 52 -26 90 -34 47 -9 63 -8 50 6 -11 11 -51 26 -90
34 -47 9 -63 8 -50 -6z"/>
<path d="M4424 580 c3 -42 -9 -60 -39 -60 -24 -1 -14 -14 30 -42 36 -23 65
-50 65 -60 0 -10 10 -18 23 -18 13 0 6 19 -15 43 -33 38 -34 42 -4 31 19 -7
39 -6 44 3 5 8 -14 16 -43 19 -76 6 -77 17 -7 60 l63 38 -59 -2 c-32 -1 -58
-6 -58 -12z"/>
<path d="M4860 580 c0 -11 9 -21 20 -22 11 -2 29 -5 40 -8 11 -3 26 -6 34 -7
7 -2 -4 -17 -25 -34 -22 -18 -27 -26 -13 -19 15 8 44 -2 66 -22 36 -32 38 -32
27 -2 -7 19 -23 34 -35 34 -12 0 -4 14 17 30 26 20 29 27 7 19 -17 -6 -43 3
-57 20 -29 35 -81 42 -81 11z"/>
<path d="M4 545 c5 -25 26 -35 71 -36 79 -1 116 -33 91 -78 -17 -29 -24 -28
-75 12 -36 28 -54 34 -48 16 5 -16 29 -38 53 -49 24 -11 44 -34 44 -53 0 -18
14 -38 32 -45 21 -8 27 -25 19 -47 -12 -31 -10 -31 15 -5 28 30 21 260 -9 290
-35 35 -200 30 -193 -5z"/>
<path d="M4640 548 c0 -27 -5 -28 -30 -8 -21 17 -30 18 -30 2 0 -20 27 -30 65
-24 8 1 15 -7 15 -18 0 -11 -22 -20 -49 -20 -27 0 -54 -8 -60 -18 -6 -10 7
-14 29 -8 78 21 224 -139 185 -202 -7 -11 4 -13 24 -5 35 13 159 -93 135 -116
-6 -6 0 -11 14 -11 13 0 43 -18 67 -40 25 -24 70 -40 110 -40 37 0 63 -7 58
-16 -6 -8 60 -16 145 -17 153 -2 155 -1 146 45 -5 27 -22 48 -38 48 -15 0 -24
-7 -19 -15 5 -8 -26 -17 -69 -21 -86 -6 -358 69 -358 98 0 11 -63 83 -139 161
-77 79 -135 151 -129 160 18 29 -13 97 -43 97 -16 0 -29 -15 -29 -32z"/>
<path d="M5299 539 c-16 -10 -42 -14 -59 -9 -16 5 -43 1 -59 -9 -21 -13 -11
-18 36 -17 36 1 75 -8 88 -21 29 -29 75 -30 75 -2 0 12 -9 16 -20 9 -11 -7
-30 -6 -42 1 -16 10 -14 19 4 30 15 9 22 21 17 27 -6 5 -23 2 -40 -9z"/>
<path d="M3431 482 c-7 -12 -3 -22 11 -22 13 0 34 -14 47 -31 16 -23 39 -28
77 -18 68 17 70 41 4 54 -27 5 -50 2 -50 -8 0 -9 11 -17 23 -17 13 0 18 -6 10
-13 -7 -8 -35 6 -61 31 -31 29 -53 37 -61 24z"/>
<path d="M5160 459 c0 -10 26 -19 59 -19 32 0 81 -9 110 -20 28 -10 51 -15 51
-9 0 15 -101 51 -165 60 -30 4 -55 -1 -55 -12z"/>
<path d="M281 384 c56 -117 46 -188 -34 -244 -90 -61 -72 -74 23 -17 l76 44
54 -61 c30 -34 60 -73 66 -89 9 -23 14 -23 30 0 13 19 23 21 33 5 7 -12 24
-22 36 -22 13 0 -8 23 -46 51 -38 28 -85 82 -105 120 -20 39 -44 65 -55 59
-10 -7 -13 2 -7 19 7 17 -6 66 -29 109 -22 43 -35 83 -28 90 6 7 -3 12 -20 12
-28 0 -27 -9 6 -76z"/>
<path d="M5140 397 c0 -11 19 -14 43 -6 25 8 37 6 30 -6 -7 -11 17 -53 53 -95
54 -62 65 -68 65 -35 0 23 -10 37 -23 31 -28 -10 -56 26 -32 42 26 16 105 -10
93 -30 -6 -10 -2 -18 9 -18 45 0 40 40 -7 52 -28 7 -45 21 -38 32 7 13 -2 12
-27 -1 -23 -12 -49 -13 -67 -2 -25 16 -25 18 -1 19 46 0 8 25 -47 31 -28 3
-51 -3 -51 -14z"/>
<path d="M4005 351 c-25 -13 -39 -31 -32 -38 8 -7 -4 -14 -25 -15 -21 0 -27
-6 -14 -11 13 -5 44 4 70 20 39 25 94 29 188 16 12 -2 42 -20 66 -42 l45 -38
-57 -9 c-31 -5 -22 -6 19 -3 103 7 174 -29 178 -91 2 -44 3 -45 11 -7 8 41 12
41 98 16 49 -15 101 -23 116 -17 15 6 53 -13 85 -42 31 -29 44 -47 29 -39 -18
10 -23 7 -15 -6 7 -12 4 -25 -7 -28 -11 -4 25 -8 80 -8 55 -1 100 4 100 12 0
13 -157 126 -180 129 -43 7 -100 36 -100 51 0 11 -21 19 -48 19 -51 0 -304
111 -323 142 -17 26 -231 18 -284 -11z"/>
<path d="M3596 260 c-100 -63 -156 -133 -106 -133 16 0 23 8 17 18 -7 11 5 14
28 7 30 -10 53 4 93 58 30 39 72 70 94 70 22 0 35 9 28 20 -20 32 -54 23 -154
-40z"/>
<path d="M980 267 c0 -44 94 -158 155 -189 36 -18 77 -43 93 -56 18 -15 33
-17 41 -4 6 10 3 25 -9 32 -11 7 -20 7 -20 0 0 -7 -26 6 -58 29 -32 22 -66 41
-76 41 -9 0 -42 38 -72 84 -29 46 -54 75 -54 63z"/>
<path d="M3773 185 c5 -22 -18 -34 -57 -28 -8 2 -10 -11 -3 -27 9 -23 24 -19
80 23 37 29 64 57 58 63 -6 5 -23 -1 -39 -14 -15 -13 -32 -17 -37 -8 -5 9 -6
5 -2 -9z"/>
<path d="M2041 188 c0 -10 13 -40 29 -68 40 -69 38 -74 -26 -65 -37 6 -66 -4
-85 -27 -26 -32 -26 -33 10 -14 28 16 49 15 77 -1 30 -18 41 -17 48 2 5 14 18
20 29 13 11 -7 0 27 -24 75 -49 97 -59 112 -58 85z"/>
<path d="M820 143 c0 -24 63 -41 135 -37 25 1 45 10 45 20 0 9 -27 11 -61 4
-37 -8 -72 -4 -90 11 -20 16 -29 17 -29 2z"/>
<path d="M1820 47 c-40 -18 -59 -36 -44 -41 14 -5 38 1 54 14 15 13 39 17 52
9 16 -10 19 -7 8 11 -12 20 -7 23 18 14 20 -8 29 -6 22 6 -16 26 -26 25 -110
-13z"/>
</g>
</svg>
